<?xml version="1.0" encoding="utf-8"?>
<!-- Generator: Adobe Illustrator 25.2.3, SVG Export Plug-In . SVG Version: 6.00 Build 0)  -->
<svg version="1.1" id="Layer_1" xmlns="http://www.w3.org/2000/svg" xmlns:xlink="http://www.w3.org/1999/xlink" x="0px" y="0px"
	 viewBox="0 0 216 216" style="enable-background:new 0 0 216 216;" xml:space="preserve">
<style type="text/css">
	.st0{fill-rule:evenodd;clip-rule:evenodd;fill:#010101;}
	.st1{fill-rule:evenodd;clip-rule:evenodd;fill:#AFD9F2;}
	.st2{fill-rule:evenodd;clip-rule:evenodd;fill:#D2E4F5;}
	.st3{fill-rule:evenodd;clip-rule:evenodd;fill:#FFCB1A;}
	.st4{fill-rule:evenodd;clip-rule:evenodd;fill:#040706;}
	.st5{fill:#010101;}
	.st6{fill-rule:evenodd;clip-rule:evenodd;fill:#EEF2FA;}
</style>
<g>
	<path class="st0" d="M108.4,60.3c23.3,0,42.3,21.9,42.3,49c0,24.3-15.3,44.5-35.4,48.3l-2.6,6.8l-4.3,11.3l-4.3-11.3l-2.6-6.8
		c-20.1-3.8-35.4-24-35.4-48.3C66.2,82.2,85.1,60.3,108.4,60.3L108.4,60.3z"/>
	<g>
		<path class="st1" d="M42.6,133.1C17.4,112.8,52,91.5,74.2,93.7C83.5,112.9,69.2,154.4,42.6,133.1L42.6,133.1z"/>
		<path class="st1" d="M174.2,133.1c25.2-20.2-9.3-41.6-31.6-39.4C133.4,112.9,147.7,154.4,174.2,133.1L174.2,133.1z"/>
		<path class="st2" d="M7.1,87.8c-1.4-46.8,54.5-28.8,73-2.2C67.6,113.9,8.6,137,7.1,87.8L7.1,87.8z"/>
		<path class="st2" d="M209.7,87.8c1.4-46.8-54.5-28.8-73-2.2C149.2,113.9,208.2,137,209.7,87.8L209.7,87.8z"/>
	</g>
	<path class="st3" d="M108.4,60.3c23.3,0,42.3,21.9,42.3,49c0,8.8-2,17-5.5,24.1c-9.9,10-23,16.2-37.4,16.2
		c-13.2,0-25.4-5.2-34.9-13.8c-4.2-7.6-6.7-16.7-6.7-26.5C66.2,82.2,85.1,60.3,108.4,60.3L108.4,60.3z"/>
	<path class="st0" d="M108.4,60.3c23.3,0,42.3,21.9,42.3,49c0,0.9,0,1.9-0.1,2.8c-10.2,13.3-25.3,21.7-42.2,21.7
		c-16.9,0-32-8.4-42.2-21.7c0-0.9-0.1-1.9-0.1-2.8C66.2,82.2,85.1,60.3,108.4,60.3L108.4,60.3z"/>
	<path class="st3" d="M108.4,60.3c18.5,0,34.2,13.8,39.9,32.9c-10.1,11.7-24.3,18.9-39.9,18.9c-15.7,0-29.9-7.3-39.9-18.9
		C74.2,74,89.9,60.3,108.4,60.3L108.4,60.3z"/>
	<path class="st4" d="M108.4,60.3c3.2,0,6.2,0.4,9.2,1.2c-1.6,4.2-5.1,7.2-9.2,7.2c-4.1,0-7.6-3-9.2-7.2
		C102.2,60.7,105.3,60.3,108.4,60.3L108.4,60.3z"/>
	<path class="st5" d="M103.6,80c0-0.4,0.2-0.9,0.6-0.9c0.3,0,0.6,0.2,0.6,0.6c0,1.1,0.7,1.9,1.6,2.3c0.5,0.3,1.1,0.4,1.7,0.4
		c0.6,0,1.3,0,1.8-0.2c1-0.3,1.8-0.9,2-1.8c0.1-0.4,0.2-0.8,0.7-0.8c0.3,0.1,0.5,0.3,0.5,0.7c-0.3,1.7-1.3,2.8-3,3.3
		c-0.7,0.2-1.5,0.3-2.2,0.3c-0.8,0-1.5-0.2-2.2-0.6C104.6,82.7,103.7,81.6,103.6,80L103.6,80z"/>
	<g>
		<g>
			<path class="st4" d="M92.4,71.7c2.4,0,4.3,2,4.3,4.5c0,2.5-1.9,4.5-4.3,4.5c-2.4,0-4.3-2-4.3-4.5C88.1,73.8,90,71.7,92.4,71.7
				L92.4,71.7z"/>
			<path class="st6" d="M94.6,73.3c0.5,0,0.9,0.4,0.9,1c0,0.5-0.4,1-0.9,1c-0.5,0-0.9-0.4-0.9-1C93.7,73.8,94.1,73.3,94.6,73.3
				L94.6,73.3z"/>
		</g>
		<g>
			<path class="st4" d="M124.4,71.7c2.4,0,4.3,2,4.3,4.5c0,2.5-1.9,4.5-4.3,4.5c-2.4,0-4.3-2-4.3-4.5
				C120.1,73.8,122,71.7,124.4,71.7L124.4,71.7z"/>
			<path class="st6" d="M126.8,73.1c0.5,0,0.9,0.4,0.9,1c0,0.5-0.4,1-0.9,1c-0.5,0-0.9-0.4-0.9-1C125.9,73.6,126.3,73.1,126.8,73.1
				L126.8,73.1z"/>
		</g>
	</g>
	<g>
		<path class="st5" d="M85.8,47.9c-0.8,0-1.4-0.6-1.4-1.4c0-0.8,0.6-1.4,1.4-1.4h0v0c1.1,0,2.2,0.2,3.3,0.5c1.1,0.3,2.1,0.8,3.2,1.4
			c5.2,3,9.7,9.1,11.2,13.7c0.2,0.7-0.2,1.5-0.9,1.8c-0.7,0.2-1.5-0.2-1.8-0.9c-1.4-4.1-5.4-9.4-10-12.1c-0.9-0.5-1.7-0.9-2.6-1.2
			C87.5,48.1,86.6,47.9,85.8,47.9L85.8,47.9L85.8,47.9L85.8,47.9z"/>
		<path class="st5" d="M131,47.9c0.8,0,1.4-0.6,1.4-1.4c0-0.8-0.6-1.4-1.4-1.4h0v0c-1.1,0-2.2,0.2-3.3,0.5c-1.1,0.3-2.1,0.8-3.2,1.4
			c-5.2,3-9.7,9.1-11.2,13.7c-0.2,0.7,0.2,1.5,0.9,1.8c0.7,0.2,1.5-0.2,1.8-0.9c1.4-4.1,5.4-9.4,10-12.1c0.9-0.5,1.7-0.9,2.6-1.2
			C129.4,48.1,130.2,47.9,131,47.9L131,47.9L131,47.9L131,47.9z"/>
	</g>
</g>
</svg>
