<?xml version="1.0" encoding="utf-8"?>
<!-- Generator: Adobe Illustrator 25.2.3, SVG Export Plug-In . SVG Version: 6.00 Build 0)  -->
<svg version="1.1" id="Layer_1" xmlns="http://www.w3.org/2000/svg" xmlns:xlink="http://www.w3.org/1999/xlink" x="0px" y="0px"
	 viewBox="0 0 216 216" style="enable-background:new 0 0 216 216;" xml:space="preserve">
<style type="text/css">
	.st0{fill-rule:evenodd;clip-rule:evenodd;fill:#010101;}
	.st1{fill-rule:evenodd;clip-rule:evenodd;fill:#FFCB1A;}
	.st2{fill-rule:evenodd;clip-rule:evenodd;fill:#040706;}
	.st3{fill-rule:evenodd;clip-rule:evenodd;fill:#D2E4F5;}
	.st4{fill:#010101;}
</style>
<g>
	<path class="st0" d="M108.4,57.7c23.3,0,42.3,21.9,42.3,49c0,24.3-15.3,44.5-35.4,48.3l-2.6,6.8l-4.3,11.3l-4.3-11.3l-2.6-6.8
		c-20.1-3.8-35.4-24-35.4-48.3C66.2,79.6,85.1,57.7,108.4,57.7L108.4,57.7z"/>
	<path class="st1" d="M108.4,57.7c23.3,0,42.3,21.9,42.3,49c0,8.8-2,17-5.5,24.1c-9.9,10-23,16.2-37.4,16.2
		c-13.2,0-25.4-5.2-34.9-13.8c-4.2-7.6-6.7-16.7-6.7-26.5C66.2,79.6,85.1,57.7,108.4,57.7L108.4,57.7z"/>
	<path class="st0" d="M108.4,57.7c23.3,0,42.3,21.9,42.3,49c0,0.9,0,1.9-0.1,2.8c-10.2,13.3-25.3,21.7-42.2,21.7
		c-16.9,0-32-8.4-42.2-21.7c0-0.9-0.1-1.9-0.1-2.8C66.2,79.6,85.1,57.7,108.4,57.7L108.4,57.7z"/>
	<path class="st1" d="M108.4,57.7c18.5,0,34.2,13.8,39.9,32.9c-10.1,11.7-24.3,18.9-39.9,18.9s-29.9-7.3-39.9-18.9
		C74.2,71.5,89.9,57.7,108.4,57.7L108.4,57.7z"/>
	<path class="st2" d="M108.4,57.7c15.1,0,28.3,9.1,35.8,22.9c-9.7,9.1-22.1,14.6-35.8,14.6c-13.6,0-26.1-5.5-35.8-14.6
		C80.1,66.8,93.4,57.7,108.4,57.7L108.4,57.7z"/>
	<g>
		<path class="st3" d="M37.3,132.9c-32.1-34,21.6-57.8,53.1-50.1C99.8,112.2,71.1,168.7,37.3,132.9L37.3,132.9z"/>
		<path class="st3" d="M179.6,132.9c32.1-34-21.6-57.8-53.1-50.2C117,112.2,145.8,168.7,179.6,132.9L179.6,132.9z"/>
	</g>
	<g>
		<path class="st4" d="M85.8,46.5c-0.8,0-1.4-0.6-1.4-1.4c0-0.8,0.6-1.4,1.4-1.4h0v0c1.1,0,2.2,0.2,3.3,0.5c1.1,0.3,2.1,0.8,3.2,1.4
			c5.2,3,9.7,9.1,11.2,13.7c0.2,0.7-0.2,1.5-0.9,1.8c-0.7,0.2-1.5-0.2-1.8-0.9c-1.4-4.1-5.4-9.4-10-12.1c-0.9-0.5-1.7-0.9-2.6-1.2
			C87.5,46.6,86.6,46.5,85.8,46.5L85.8,46.5L85.8,46.5L85.8,46.5z"/>
		<path class="st4" d="M131,46.5c0.8,0,1.4-0.6,1.4-1.4c0-0.8-0.6-1.4-1.4-1.4h0v0c-1.1,0-2.2,0.2-3.3,0.5c-1.1,0.3-2.1,0.8-3.2,1.4
			c-5.2,3-9.7,9.1-11.2,13.7c-0.2,0.7,0.2,1.5,0.9,1.8c0.7,0.2,1.5-0.2,1.8-0.9c1.4-4.1,5.4-9.4,10-12.1c0.9-0.5,1.7-0.9,2.6-1.2
			C129.4,46.6,130.2,46.5,131,46.5L131,46.5L131,46.5L131,46.5z"/>
	</g>
</g>
</svg>
