<?xml version="1.0" encoding="utf-8"?>
<!-- Generator: Adobe Illustrator 25.2.3, SVG Export Plug-In . SVG Version: 6.00 Build 0)  -->
<svg version="1.1" id="Layer_1" xmlns="http://www.w3.org/2000/svg" xmlns:xlink="http://www.w3.org/1999/xlink" x="0px" y="0px"
	 viewBox="0 0 216 216" style="enable-background:new 0 0 216 216;" xml:space="preserve">
<style type="text/css">
	.st0{fill-rule:evenodd;clip-rule:evenodd;fill:#010101;}
	.st1{fill-rule:evenodd;clip-rule:evenodd;fill:#AFD9F2;}
	.st2{fill-rule:evenodd;clip-rule:evenodd;fill:#D2E4F5;}
	.st3{fill-rule:evenodd;clip-rule:evenodd;fill:#FFCB1A;}
	.st4{fill-rule:evenodd;clip-rule:evenodd;fill:#040706;}
</style>
<g>
	<path class="st0" d="M108,60c23.3,0,42.3,21.9,42.3,49c0,24.3-15.3,44.5-35.4,48.3l-2.6,6.8l-4.3,11.3l-4.3-11.3l-2.6-6.8
		c-20.1-3.8-35.4-24-35.4-48.3C65.7,82,84.6,60,108,60L108,60z"/>
	<g>
		<path class="st1" d="M42.2,132.9c-25.2-20.2,9.3-41.6,31.6-39.4C83,112.7,68.7,154.1,42.2,132.9L42.2,132.9z"/>
		<path class="st1" d="M173.8,132.9c25.2-20.2-9.3-41.6-31.6-39.4C132.9,112.7,147.2,154.1,173.8,132.9L173.8,132.9z"/>
		<path class="st2" d="M6.7,87.6c-1.4-46.8,54.5-28.8,73-2.2C67.2,113.7,8.2,136.8,6.7,87.6L6.7,87.6z"/>
		<path class="st2" d="M209.3,87.6c1.4-46.8-54.5-28.8-73-2.2C148.8,113.7,207.8,136.8,209.3,87.6L209.3,87.6z"/>
	</g>
	<path class="st3" d="M108,60c23.3,0,42.3,21.9,42.3,49c0,8.8-2,17-5.5,24.1c-9.9,10-23,16.2-37.4,16.2c-13.2,0-25.4-5.2-34.9-13.8
		c-4.2-7.6-6.7-16.7-6.7-26.5C65.7,82,84.6,60,108,60L108,60z"/>
	<path class="st0" d="M108,60c23.3,0,42.3,21.9,42.3,49c0,0.9,0,1.9-0.1,2.8c-10.2,13.3-25.3,21.7-42.2,21.7
		c-16.9,0-32-8.4-42.2-21.7c0-0.9-0.1-1.9-0.1-2.8C65.7,82,84.6,60,108,60L108,60z"/>
	<path class="st3" d="M108,60c18.5,0,34.2,13.8,39.9,32.9c-10.1,11.7-24.3,18.9-39.9,18.9c-15.7,0-29.9-7.3-39.9-18.9
		C73.8,73.8,89.5,60,108,60L108,60z"/>
	<g>
		<path class="st4" d="M92,71.5c2.4,0,4.3,2,4.3,4.5c0,2.5-1.9,4.5-4.3,4.5c-2.4,0-4.3-2-4.3-4.5C87.6,73.6,89.6,71.5,92,71.5
			L92,71.5z"/>
		<path class="st4" d="M124,71.5c2.4,0,4.3,2,4.3,4.5c0,2.5-1.9,4.5-4.3,4.5c-2.4,0-4.3-2-4.3-4.5C119.6,73.6,121.6,71.5,124,71.5
			L124,71.5z"/>
	</g>
</g>
</svg>
