<?xml version="1.0" encoding="utf-8"?>
<!-- Generator: Adobe Illustrator 25.2.3, SVG Export Plug-In . SVG Version: 6.00 Build 0)  -->
<svg version="1.1" id="Layer_1" xmlns="http://www.w3.org/2000/svg" xmlns:xlink="http://www.w3.org/1999/xlink" x="0px" y="0px"
	 viewBox="0 0 288 144" style="enable-background:new 0 0 288 144;" xml:space="preserve">
<style type="text/css">
	.st0{fill:#FFFFFF;}
	.st1{fill:none;stroke:#000000;stroke-miterlimit:10;}
	.st2{fill:none;stroke:#000000;stroke-miterlimit:10;stroke-dasharray:4.9752,2.9851;}
</style>
<g>
	<path class="st0" d="M0,55.6c0,0,24,46.6,84.1,35.1S144,55.6,144,55.6s0-20.4-18.4-13.6c0,0-22.5,19.1,17,32
		c44.2,14.5,68.1-23.8,68.1-23.8s22.3-31.3,26.6-8.5c4.3,22.8-15,24.2-15.5,21.3c-0.5-2.9-7.3-20.8,27.4-18.2
		c34.7,2.6,41.2,24.9,41.2,24.9"/>
	<g>
		<path class="st1" d="M0,55.6c0,0,0.4,0.8,1.3,2.2"/>
		<path class="st2" d="M2.9,60.3c8,11.5,32.9,39.7,81.2,30.4C144.1,79.1,144,55.6,144,55.6s0-20.4-18.4-13.6c0,0-22.5,19.1,17,32
			c44.2,14.5,68.1-23.8,68.1-23.8s22.3-31.3,26.6-8.5c4.3,22.8-15,24.2-15.5,21.3c-0.5-2.9-7.3-20.8,27.4-18.2
			c25.9,1.9,36.1,14.8,39.6,21.2"/>
		<path class="st1" d="M289.4,67.3c0.7,1.4,0.9,2.3,0.9,2.3"/>
	</g>
</g>
</svg>
