<?xml version="1.0" encoding="utf-8"?>
<!-- Generator: Adobe Illustrator 25.2.3, SVG Export Plug-In . SVG Version: 6.00 Build 0)  -->
<svg version="1.1" id="Layer_1" xmlns="http://www.w3.org/2000/svg" xmlns:xlink="http://www.w3.org/1999/xlink" x="0px" y="0px"
	 viewBox="0 0 216 216" style="enable-background:new 0 0 216 216;" xml:space="preserve">
<style type="text/css">
	.st0{fill-rule:evenodd;clip-rule:evenodd;fill:#010101;}
	.st1{fill-rule:evenodd;clip-rule:evenodd;fill:#FFCB1A;}
	.st2{fill-rule:evenodd;clip-rule:evenodd;fill:#040706;}
	.st3{fill-rule:evenodd;clip-rule:evenodd;fill:#D2E4F5;}
</style>
<g>
	<path class="st0" d="M108,44.6c23.3,0,42.3,21.9,42.3,49c0,24.3-15.3,44.5-35.4,48.3l-2.6,6.8l-4.3,11.3l-4.3-11.3l-2.6-6.8
		c-20.1-3.8-35.4-24-35.4-48.3C65.7,66.5,84.6,44.6,108,44.6L108,44.6z"/>
	<path class="st1" d="M108,44.6c23.3,0,42.3,21.9,42.3,49c0,8.8-2,17-5.5,24.1c-9.9,10-23,16.2-37.4,16.2
		c-13.2,0-25.4-5.2-34.9-13.8c-4.2-7.6-6.7-16.7-6.7-26.5C65.7,66.5,84.6,44.6,108,44.6L108,44.6z"/>
	<path class="st0" d="M108,44.6c23.3,0,42.3,21.9,42.3,49c0,0.9,0,1.9-0.1,2.8c-10.2,13.3-25.3,21.7-42.2,21.7
		c-16.9,0-32-8.4-42.2-21.7c0-0.9-0.1-1.9-0.1-2.8C65.7,66.5,84.6,44.6,108,44.6L108,44.6z"/>
	<path class="st1" d="M108,44.6c18.5,0,34.2,13.8,39.9,32.9c-10.1,11.7-24.3,18.9-39.9,18.9S78.1,89.2,68,77.5
		C73.8,58.4,89.5,44.6,108,44.6L108,44.6z"/>
	<g>
		<path class="st2" d="M92,56.1c2.4,0,4.3,2,4.3,4.5c0,2.5-1.9,4.5-4.3,4.5c-2.4,0-4.3-2-4.3-4.5C87.6,58.1,89.6,56.1,92,56.1
			L92,56.1z"/>
		<path class="st2" d="M124,56.1c2.4,0,4.3,2,4.3,4.5c0,2.5-1.9,4.5-4.3,4.5c-2.4,0-4.3-2-4.3-4.5C119.6,58.1,121.6,56.1,124,56.1
			L124,56.1z"/>
	</g>
	<g>
		<path class="st3" d="M27.9,135.9c-32.1-34,21.6-57.8,53.1-50.1C90.4,115.2,61.6,171.6,27.9,135.9L27.9,135.9z"/>
		<path class="st3" d="M188.1,135.9c32.1-34-21.6-57.8-53.1-50.1C125.6,115.2,154.3,171.6,188.1,135.9L188.1,135.9z"/>
	</g>
</g>
</svg>
