<?xml version="1.0" encoding="utf-8"?>
<!-- Generator: Adobe Illustrator 25.3.1, SVG Export Plug-In . SVG Version: 6.00 Build 0)  -->
<svg version="1.1" id="Layer_1" xmlns="http://www.w3.org/2000/svg" xmlns:xlink="http://www.w3.org/1999/xlink" x="0px" y="0px"
	 viewBox="0 0 288 288" style="enable-background:new 0 0 288 288;" xml:space="preserve">
<style type="text/css">
	.st0{fill:url(#SVGID_1_);}
	.st1{fill:#580F10;}
	.st2{fill:url(#SVGID_2_);}
	.st3{fill:url(#SVGID_3_);}
	.st4{fill:url(#SVGID_4_);}
	.st5{fill:url(#SVGID_5_);}
</style>
<g>
	
		<linearGradient id="SVGID_1_" gradientUnits="userSpaceOnUse" x1="141.2" y1="207.25" x2="227" y2="207.25" gradientTransform="matrix(1 0 0 -1 0 290)">
		<stop  offset="0" style="stop-color:#ECAE2B"/>
		<stop  offset="1" style="stop-color:#BA872C"/>
	</linearGradient>
	<path class="st0" d="M141.3,139.5h71.8C191.9,93.6,227,51.2,227,51.2L199.7,26c-24.5,25.9-58.5,23.2-58.5,23.2v1c0.1,0,0.1,0,0.1,0
		V139.5z"/>
	<path class="st1" d="M141.3,139.5V50.2c0,0,0,0-0.1,0c-2,0.1-34.4,1.3-58.2-23.7l-27.2,25c0,0,35,42.2,13.9,88H141.3L141.3,139.5z"
		/>
	<path class="st1" d="M141.1,252.3v0.6h0.1v-0.3C141.2,252.5,141.1,252.4,141.1,252.3z"/>
	<path class="st1" d="M213,139.6h-71.8v113c0,0,0,0.1,0.1,0.1c6-16.5,18.7-25.1,39.1-30.4c20.6-5.3,22.6-18.6,22.6-18.6l8.6,4
		l29.9-33.1C227.4,163.1,218.4,150.4,213,139.6z"/>
	
		<linearGradient id="SVGID_2_" gradientUnits="userSpaceOnUse" x1="41.1" y1="94.0779" x2="141.2" y2="94.0779" gradientTransform="matrix(1 0 0 -1 0 290)">
		<stop  offset="0" style="stop-color:#BA872C"/>
		<stop  offset="1" style="stop-color:#ECAE2B"/>
	</linearGradient>
	<path class="st2" d="M141.2,139.6L141.2,139.6l-71.5-0.1h-0.1c-5.4,10.9-14.4,23.6-28.5,35.1L71,207.8l8.6-4c0,0,2,13.3,22.6,18.6
		c20.4,5.2,33.5,13.7,38.9,29.9L141.2,139.6L141.2,139.6z"/>
	
		<linearGradient id="SVGID_3_" gradientUnits="userSpaceOnUse" x1="41.1" y1="37.1659" x2="141.3" y2="37.1659" gradientTransform="matrix(1 0 0 -1 0 290)">
		<stop  offset="0" style="stop-color:#BA872C"/>
		<stop  offset="1" style="stop-color:#ECAE2B"/>
	</linearGradient>
	<path class="st3" d="M141.2,252.9L141.2,252.9c0.1,0,0.1-0.1,0.1-0.1C141.2,252.8,141.2,252.9,141.2,252.9L141.2,252.9z"/>
	<path class="st1" d="M141.2,252.9c0,0,0-0.1,0.1-0.1c0-0.1,0-0.1-0.1-0.1V252.9z"/>
	
		<linearGradient id="SVGID_4_" gradientUnits="userSpaceOnUse" x1="41.1" y1="37.239" x2="141.3" y2="37.239" gradientTransform="matrix(1 0 0 -1 0 290)">
		<stop  offset="0" style="stop-color:#BA872C"/>
		<stop  offset="1" style="stop-color:#ECAE2B"/>
	</linearGradient>
	<path class="st4" d="M141.2,252.9c0,0,0-0.1,0.1-0.1c0-0.1,0-0.1-0.1-0.1V252.9z"/>
	<path class="st1" d="M141.2,139.6L141.2,139.6l-0.1,112.7c0,0.1,0.1,0.2,0.1,0.3V139.6z"/>
	
		<linearGradient id="SVGID_5_" gradientUnits="userSpaceOnUse" x1="41.1" y1="93.889" x2="141.3" y2="93.889" gradientTransform="matrix(1 0 0 -1 0 290)">
		<stop  offset="0" style="stop-color:#BA872C"/>
		<stop  offset="1" style="stop-color:#ECAE2B"/>
	</linearGradient>
	<path class="st5" d="M141.2,139.6L141.2,139.6l-0.1,112.7c0,0.1,0.1,0.2,0.1,0.3V139.6z"/>
	<g>
		<g>
			
				<image style="overflow:visible;enable-background:new    ;" width="929" height="1029" xlink:href="7F1DA8B9.png"  transform="matrix(0.239 0 0 0.239 30.3401 15.2696)">
			</image>
		</g>
	</g>
</g>
</svg>
