<?xml version="1.0" encoding="utf-8"?>
<!-- Generator: Adobe Illustrator 25.3.1, SVG Export Plug-In . SVG Version: 6.00 Build 0)  -->
<svg version="1.1" id="harry_x5F_pre_x5F_sort_xA0_Image_1_"
	 xmlns="http://www.w3.org/2000/svg" xmlns:xlink="http://www.w3.org/1999/xlink" x="0px" y="0px" viewBox="0 0 292.3 439.2"
	 style="enable-background:new 0 0 292.3 439.2;" xml:space="preserve">
<style type="text/css">
	.st0{fill:#582F00;}
	.st1{fill:#82623F;}
	.st2{fill:#F2EFEB;}
	.st3{fill:#F4F1EF;}
	.st4{fill:#A48D74;}
	.st5{fill:#A69078;}
	.st6{fill:#C9BCAC;}
	.st7{fill:#CBBEB0;}
	.st8{fill:#FAD7B5;}
	.st9{fill:#A2A2A4;}
	.st10{fill:#192524;}
	.st11{fill:#441100;}
	.st12{fill:#C26719;}
	.st13{fill:#2F0400;}
	.st14{fill:#C47B15;}
	.st15{fill:#F9D6B5;}
	.st16{fill:#80572C;}
	.st17{fill:#4D2200;}
	.st18{fill:#F7F5F3;}
	.st19{fill:#471503;}
	.st20{fill:#A47E55;}
	.st21{fill:#FEFEFE;}
	.st22{fill:#FEEBC6;}
	.st23{fill:#DC4519;}
	.st24{fill:#FEDB45;}
	.st25{fill:#DC4519;stroke:#000222;stroke-miterlimit:10;}
	.st26{fill:#F5C69E;}
	.st27{fill:#321006;}
	.st28{fill:#C47B16;}
	.st29{fill:#C16619;}
	.st30{fill:#051517;}
	.st31{fill:#EEEEEE;}
	.st32{fill:#D5A89C;}
	.st33{fill:#D4B8B1;}
	.st34{fill:#DD3A0B;}
	.st35{fill:#FEFCFA;}
	.st36{fill:#F7B61B;}
	.st37{fill:#F8B91B;}
	.st38{fill:#FEDA44;}
</style>
<g>
	<path class="st0" d="M292.3,127.6c-0.6,0.8-0.5,1.7-0.7,2.6c-1.3,5.2-4.1,9.3-9,11.8c-0.5,0.3-0.6,0.5-0.5,1.1
		c1.3,7.4,2.1,14.8,1.8,22.3c-0.5,12.6-4.4,23.8-12.4,33.6c-1,1.2-2.2,2.4-3.5,3.2c-1.6,1.3-3.2,0.8-4.1-1.1c-0.7-1.5-0.7-3.1-1-4.7
		c0-0.5,0-1.1,0-1.6c-0.5,0.3-0.8,0.7-1.2,0.9c-4.8,4.1-10,7.6-16.5,8.8c-1.8-0.1-3.7-0.3-5.3-1.3c-2.6-1.6-3.2-4.2-3.3-7
		c-0.2-4.9,1-9.5,2.4-14.1c0.4-1.1,0.8-2.2,1.1-3.5c-0.6,0-0.9,0.3-1.2,0.6c-2.6,1.8-5.3,3.4-8.3,4.6c-1.6,0.6-3.3,1.1-5,1.1
		c-2.8,0.1-4.8-1.1-6.1-3.6c-1.6-3-2.4-6.2-3-9.4c-0.7-4.1-1.1-8.3-1.3-12.6c-1.5,2.1-2.8,4.2-4.4,6.1c-3.1,3.6-6.2,7.1-10.4,9.5
		c-1.9,1.1-4,1.9-6.2,1.9c-3.3,0-5.9-1.3-7.8-4.1c-0.5-0.8-1-1.7-1.4-2.6c0.1,2.9,0.1,5.7-0.5,8.5c-0.3,1.4-0.7,2.8-1.4,4.1
		c-0.6,1.1-1.5,1.6-2.8,1.8c-1.4,0.2-2.8,0.3-4.2,0.2c-0.9,0-1.8,0-2.7,0.2c-1.6-0.6-3.4-0.6-5.1-1c-8.3-2.1-15.2-6.6-21.3-12.5
		c-6.8-6.6-12.3-14.2-16.8-22.6c-0.2-0.3-0.3-0.6-0.5-1c-0.1,0.3,0.1,0.5,0.2,0.7c0.5,2.8,0.6,5.7,0.9,8.6c0.5,5.3,0.9,10.6,1.1,16
		c0,0.6,0,1.2-0.1,1.8c-0.3,2.7-0.2,5.4,0,8c0.3,1.6-0.1,3-0.7,4.4c-1.4,1.9-3.2,2.6-5.5,2c-1.5-0.4-3-0.9-4.4-1.6
		c-4.2-2.1-8-4.6-11.8-7.3c-4.1-2.9-7.3-6.8-10.1-10.9c-2.5-3.6-4.8-7.3-6.9-11.2c-0.5-0.9-1.1-1.1-2-1.1s-0.9,0-1.1-0.6
		c0.6-0.4,1.3-0.1,1.9-0.3c-0.5-1.3-1.2-2.6-1.9-3.8c-0.3-0.6-0.9-0.7-1.5-0.7c-1.1-0.1-2.1,0.3-3.2-0.3c0.1-0.8,0.7-0.5,1.2-0.6
		c0.8-0.1,1.9,0.4,2.3-0.3c0.4-0.6-0.5-1.4-0.8-2.1c-1.3-2.9-2.6-5.9-4-8.9c-0.7,4-1.4,8.1-1.2,12.2c-0.5,1.9-0.3,3.7,0.4,5.4
		c-0.6,1.3-0.2,2.7-0.1,4c0.2,2.9,0.9,5.8,0.8,8.8c0,4.6-4.8,7.7-9,5.8c-1.6-0.7-2.9-1.8-4-3.2c-1.5-1.9-2.8-4-3.7-6.3
		c-0.2-0.6-0.5-1.2-0.9-1.7c-0.2-0.5,0-1.1-0.4-1.6c0,0.8-0.1,1.6-0.1,2.4c-0.6,8.1-1,16.3-0.8,24.4c0.1,3.4,0.4,6.8,0.4,10.2
		s-0.1,6.8-1.3,10.1c-0.6,1.7-1.4,3.3-3.1,4.3c-2.4,1.1-4.7,0.5-6.8-0.8c-0.6-0.3-1.1-0.8-1.7-1.1c-4.4-3.8-8.3-8-11.6-12.7
		c-0.2,2.7-0.5,5.4-1.6,7.9c-0.8,1.8-1.8,2.3-3.6,2c-0.6-0.2-0.8-0.8-0.9-1.3c-1.3-3.7-2.6-7.3-3.9-10.9c-0.4-1.1-0.8-2.3-1.4-3.3
		c-0.4-0.7-1-1-1.8-0.7s-0.9,1-0.8,1.8c0.1,1.2,0.7,2.3,0.8,3.5c-0.1,0.2-0.2,0.3-0.4,0.3c-2.8-5.7-4.6-11.6-5.8-17.8
		c-1.5-7.6-1.8-15.3-0.9-23.1c-4,2.8-8.3,2.5-12.6,1.5c-5.5-1.3-8.1-6.6-6.2-11.7c0.2-0.6,0.5-1.3,1.1-1.7c3-2.4,4.9-5.5,6.6-8.9
		c4.2-8.4,7.3-17.2,10.6-26c3.6-9.7,7.8-19.1,13.4-27.9c0.5-0.7,0.9-1.5,1.5-2.2c0.5-0.6,0.3-0.9-0.3-1.2c-1.7-0.9-3.2-2.1-4.3-3.7
		c-2.6-3.5-2.1-8.1,1.2-11c2.2-1.9,4.8-3.3,7.3-4.8c3-1.8,5.3-4.4,7.7-7c12.8-13.5,26.6-25.7,42.7-35.2c14.5-8.5,30-14.4,46.7-17.1
		c4.6-0.8,9.2-1.1,13.8-1.5c0.8-0.3,1.6-0.1,2.3-0.1c0.5,0,1,0,1.5,0c0.7,0,1.3,0,2,0c2.5,0,5,0,7.5,0c0.7,0,1.3,0,2,0
		c0.5,0,1,0,1.5,0c0.7,0,1.5,0,2.2,0c12,0.4,23.7,2.5,35.2,6.1c6.2,1.9,12.1,4.3,17.9,7.2c8.5,4.2,16.3,9.4,23.5,15.6
		c7.5,6.5,14,13.8,19.4,22.2c4.4,6.9,8,14.2,10.5,22c3.2,10.2,6.9,20.1,11.4,29.7c1.8,3.8,3.5,7.5,5,11.4c0.8,2.3,1.3,4.6,1.5,7
		C292.3,123,292.3,125.3,292.3,127.6z"/>
	<path class="st0" d="M292.3,120.7c-0.4-0.8-0.4-1.7-0.6-2.5c-1-4.7-3-9-5.1-13.3c-4.9-10.3-9-20.9-12.4-31.8
		C269.8,59,262.2,46.7,252,36c-17.1-18-38.3-28.5-62.4-33.6c-7.1-1.5-14.3-2.3-21.6-2.8c-0.1-0.1-0.1-0.1-0.1-0.2s0.1-0.1,0.1-0.1"
		/>
	<path class="st1" d="M162.4-0.5c-2.6,0-5.1,0-7.7,0c-0.1-0.1-0.1-0.1-0.1-0.2l0.1-0.1c2.6,0,5.1,0,7.7,0
		C162.4-0.7,162.5-0.6,162.4-0.5L162.4-0.5z"/>
	<path class="st2" d="M168.1-0.7c0,0.1,0,0.2,0,0.2c-0.8,0-1.6,0-2.4-0.1c-0.1,0-0.1-0.1-0.1-0.1l0.1-0.1
		C166.5-0.7,167.3-0.7,168.1-0.7z"/>
	<path class="st3" d="M151.3-0.5c-0.8,0-1.6,0-2.4,0c0-0.1,0-0.2,0-0.2c0.8,0,1.6,0,2.4,0C151.4-0.7,151.5-0.6,151.3-0.5
		C151.4-0.5,151.4-0.5,151.3-0.5z"/>
	<path class="st4" d="M162.4-0.5c0-0.1,0-0.1,0-0.2c0.6,0,1.3,0,1.9,0c0.1,0,0.1,0.1,0.1,0.1s0,0.1-0.1,0.1
		C163.7-0.5,163-0.5,162.4-0.5z"/>
	<path class="st5" d="M154.7-0.7c0,0.1,0,0.1,0,0.2c-0.6,0-1.3,0-1.9,0c-0.1-0.1-0.1-0.1-0.1-0.1l0.1-0.1
		C153.4-0.7,154.1-0.7,154.7-0.7z"/>
	<path class="st6" d="M164.3-0.5c0-0.1,0-0.1,0-0.2c0.5,0,1,0,1.4,0c0,0.1,0,0.1,0,0.2C165.3-0.5,164.8-0.5,164.3-0.5z"/>
	<path class="st7" d="M152.8-0.7c0,0.1,0,0.1,0,0.2c-0.5,0-1,0-1.4,0c0-0.1,0-0.1,0-0.2C151.8-0.7,152.3-0.7,152.8-0.7z"/>
	<path class="st8" d="M245.4,204.4c0.2-0.2,0.3-0.4,0.6-0.5c5.3-0.8,9.5-3.7,13.7-6.9c0.7-0.5,1.3-1,2-1.5c0.6,0,1.2,0.3,1.7,0.7
		c0.2,1.3,0.3,2.7,0.7,4c0.8,2.4,1.8,2.9,4.1,2c-0.3,0.4-0.2,0.9-0.2,1.4c0.3,5.2-2,9.3-5.1,13.2c-2.5,3-5.4,5.5-9.1,6.7
		c-3.9,1.3-8,1.3-12,0.9c-1-0.1-2-0.2-2.9-0.4c-0.5-0.1-0.7,0.2-1,0.5c-6.4,7.3-13.9,13.3-22.3,18c-6.7,3.7-13.7,6.6-21,8.8
		c-0.2,0.1-0.4,0.3-0.6,0.4c-0.7,0.5-1.5,0.6-2.2,0.8c-4.7,1.2-9.4,2.3-14.2,3.2c-5.6,0.9-11.2,1.5-16.8,2c-7.5,0.6-15,0.4-22.5,0.4
		c-0.8,0-1.4,0.2-2,0.7c-0.5-0.7-1.2-0.9-2.1-0.9c-4.5-0.3-9.1-0.6-13.6-1.3c-3.7-0.6-7.3-1.1-11-1.8c-11.3-2.3-22.1-5.8-32.2-11.3
		c-6.1-3.3-11.8-7.2-16.9-11.9c-1.6-1.5-3.2-3-4.7-4.6c-0.5-0.5-0.9-0.6-1.5-0.3c-3.7,1.3-7.4,1.3-11.1,0.3c-0.7-0.2-1.3-0.4-2-0.3
		c-0.4-0.2-0.5-0.6-0.7-0.9c-1.8-5-3.6-9.9-5.4-14.9c-0.2-0.4-0.6-0.9,0.1-1.3c1.6,0.3,2.4-0.1,3.2-1.7c0.9-1.7,1.2-3.5,1.4-5.4
		c0.1-1.1,0.2-2.1,0.3-3.2c0.3-0.1,0.4,0.2,0.5,0.4c3.2,4.3,6.7,8.4,10.8,11.9c0.2,0.2,0.4,0.5,0.6,0.7c0.4,0.3,0.7,0.7,0.9,1.1
		c5.2,8.3,12.7,13.5,22.1,15.9c10.2,2.6,20.1,1.7,29.7-2.6c6.8-3,12.4-7.5,16.5-13.8c3.1-4.8,4.9-10.1,5.3-15.9
		c0-0.5,0.1-0.9,0.2-1.4c0.2-2.1,0.2-2.1,2.4-2.5c5.2-0.8,10.4-1.4,15.7-1.3c0.5,0,1,0,1.4,0.1c0.8,0.2,1.6,0.2,2.4,0
		c3-0.3,6.1,0,9.1,0.2c2.9,0.2,5.7,0.6,8.6,1.1c2,0.3,2.2,0.5,2.3,2.5c0.4,4.5,1.4,8.8,3.1,13c3.5,8.3,9.3,14.3,17.4,18.1
		c6.6,3.1,13.5,4.3,20.6,3.8c9.4-0.7,17.8-4.2,24.9-10.5c4.3-3.8,7.5-8.5,9.8-13.7C244.6,205.5,244.7,204.8,245.4,204.4z"/>
	<path d="M113.3,401.6c-0.4,1.4-0.9,2.7-1.2,4.1c-0.2,1.1-0.8,1.2-1.8,1c-2.3-0.5-4.5-1.3-6.6-2.3c-2.6-1.3-5.1-2.9-7.3-4.9
		c-1.7-1.5-1.8-1.7-0.8-3.8c2.6-5.5,5.4-10.9,7.7-16.5c5.6-13.6,9.7-27.6,12.4-42c1.4-7.4,2.5-14.9,3.5-22.4c0.1-0.5,0.1-1,0.1-1.4
		c-0.2-0.2-0.3-0.1-0.5,0c-6,5.4-12.7,9.7-19.5,13.8c-4.7,2.8-8.6,6.5-12.8,10c-4.5,3.7-9.1,7.1-14,10.3c-0.6-0.5,0-0.9,0.2-1.2
		c1.1-1.6,2.2-3.3,3.2-5.1c3.3-5.9,5.2-12.2,6.1-18.9c0.4-3.2,0.6-6.4,0.5-9.7c-0.2-4.5-0.6-9.1-1.7-13.5c-0.1-0.4-0.1-0.7-0.2-1.1
		c-0.1-2.9,0.2-5.7-0.2-8.6c-0.4-3.5-1.9-6.4-4.5-8.8c-0.5-0.5-1.5-1-1.2-1.8c0.3-0.7,1.3-0.3,2-0.4c0.4,0,0.7,0,1.1-0.2
		c2.3-0.2,4.5-0.1,6.8-0.3c5.7-0.5,11.3-1.3,16.7-3c6.7-2.1,13-5.2,18.8-9c0.3-0.2,0.5-0.4,0.9-0.4c1.4,0.1,2.4,0.7,3.1,2.1
		c2.1,3.9,3.2,7.9,3.8,12.3c1.1,8.4,2.2,16.8,3.4,25.2c0,0.1,0,0.3-0.1,0.4c-0.2,0.7-0.1,1.5-0.1,2.2c-0.3,8.2-1.2,16.3-2.2,24.5
		c0,0.9-0.3,1.8-0.3,2.7c-0.2,0.7-0.2,1.5-0.3,2.2c-0.5,3.4-1,6.9-1.4,10.3c-0.6,4.2-1.5,8.4-2.3,12.6c-1.5,7-3.2,14-5.1,20.9
		c-1.7,6.2-3.5,12.4-5.3,18.5C114,400.4,113.9,401.1,113.3,401.6z"/>
	<path class="st9" d="M124.3,360.2c0.6-3,1.1-6.1,1.7-9.1c0.8-4.5,1.4-9,1.9-13.5c0-0.2,0.1-0.3,0.2-0.4c0.6,0.6,1.4,0.8,2.3,0.9
		c6,0.6,12,1,18,1.3c4.6,0.2,9.2,0.3,13.8,0.1c5.8-0.2,11.6-0.5,17.2-1.8c0.2,0,0.3,0,0.5,0c0.5,0.4,0.6,1,0.6,1.6
		c0.5,7.9,1.5,15.7,2.9,23.5c0.1,1.2-0.4,2-1.3,2.6c-1.2,0.8-1.6,1.8-1.3,3.3c2.4,11.9,4.5,23.8,7.4,35.6c0.1,0.5,0.3,0.9,0.2,1.4
		c0.2,2.1,1.2,4,1.9,6c1,2.7,2,5.5,2.4,8.4c-0.4,0.1-0.6-0.2-0.8-0.4c-3.1-3.3-7.1-4.6-11.5-4.8c-3.3-0.1-6.5,0.1-9.5,1.4
		c-1.4,0.6-2.7,1.3-3.9,2.3c-0.3,0.3-0.6,0.6-1.1,0.4c0.2-2.2,0.4-4.3,0.5-6.5c0.1-1.2,0.1-2.4,0.2-3.6c0-0.6-0.3-0.7-0.8-0.8
		c0.6-1.6,0.5-3.3,0.3-5c-0.8-9-1.7-18-2.6-27.1c-0.1-1.4-0.3-1.6-1.7-1.4c-4,0.6-8,0.6-12.1,0.3c-1-0.1-1.3,0.4-1.4,1.3
		c-0.4,3.8-0.9,7.5-1.3,11.3c-0.6,5.6-1.2,11.2-1.9,16.8c-0.1,1,0,2.1-0.4,3.1c-0.6,1.6-0.5,3.4-0.7,5.1c-0.2,2.4-0.1,4.9-1.2,7.1
		c-0.1,0.3,0,0.6,0,0.9c0,4.1,0,8.2,0,12.3c0,0.4,0.1,0.9-0.2,1.3c-0.5-0.4-0.4-0.9-0.4-1.5c0-3.6,0-7.3,0-10.9
		c0-1.4-0.1-1.5-1.4-1.2c-3.9,0.9-7.8,0.8-11.7,0.6c-4.4-0.3-8.7-1.1-13-2.2c-0.4-0.1-0.9-0.1-1.2-0.5c1.3-2.2,2.9-4.4,4-6.7
		c1.1-2.3,2.3-4.6,3.1-7.1c0.1-0.3,0.2-0.5,0-0.8c1.5-4.2,2.6-8.4,3.6-12.8c1.7-7.3,3.1-14.8,4.4-22.2c0.2-0.9-0.1-1.5-0.8-2.1
		c-1.8-1.5-3.2-3.3-4.5-5.2C124.5,361.1,124.3,360.7,124.3,360.2z"/>
	<path d="M183,362.9c-1.3-6.7-2.1-13.4-2.7-20.2c-0.2-1.7-0.3-3.3-0.5-5c-0.5-1-0.5-2.1-0.6-3.1c0-1-0.2-2-0.2-3
		c0.1-2.5-0.4-4.9-0.2-7.4c0-0.3-0.1-0.6-0.1-0.9c-0.2-1,0-2.1-0.1-3.1c-0.1-1.4,0.2-2.8-0.2-4.2c-0.1-2.3,0-4.5-0.1-6.8
		c0-0.7-0.1-1.3,0.2-2c0.8-0.6,1.7-0.4,2.5-0.3c3.3,0.3,6.6,0.2,9.8-0.7c1.5-0.4,1.8-1.7,0.8-2.9c-0.2-0.1-0.3-0.2-0.4-0.4
		c0-0.5,0.4-0.7,0.7-1c0.4-0.5,0.9-0.9,1.3-1.4c0.6-1,0.5-1.5-0.4-2.1c-0.6-0.4-0.6-0.7-0.3-1.2c0.4-0.7,1.1-1.2,1.6-1.8
		c1.5-1.7,1.5-2.5-0.3-3.9c-0.6-0.5-1.1-1-1.3-1.8c-0.1-0.4-0.1-0.7-0.1-1.1c0.1-0.4,0.3-0.8,0.7-0.8c0.5,0,0.3,0.5,0.3,0.8
		c0,0.9,0.4,1.5,1.2,1.6c0.9,0.2,1.6-0.1,2-0.9c0.5-1,0.1-2.5-0.9-3.1c-1-0.7-2-0.9-3.2-0.7c-0.8,0.2-1.6,0.6-2.3,0.9
		s-1.4,0.5-2.2,0.2c-0.9-0.4-1.2-1.1-0.8-2c0.6-1.3,0.3-1.8-1.1-2.1c-0.6-0.1-1.4-0.1-1.7-0.9c0.4-2.6,1.2-5.1,1.8-7.7
		c0.7-2.7,1.4-5.5,2.2-8.2c0.3-1,0.8-1.5,1.9-1.7c1.8-0.2,3.4-0.9,4.9-1.9c0.3-0.2,0.6-0.6,1.1-0.4c2.7,2.7,5,5.7,7.4,8.6
		c4.7,5.8,9.4,11.7,13.1,18.3c4.8,8.6,8,17.8,7.9,27.9c0,5-1.2,9.7-3.6,14.1c-2.3,4.2-4.7,8.4-7.6,12.3c-0.5,0.6-0.3,1,0,1.6
		c2.7,5.1,6.1,9.8,9,14.7c4.2,7.1,7.9,14.5,10.8,22.2c0.3,0.9,0.3,1.5-0.2,2.3c-3.5,5.3-7.4,10.2-11.9,14.7
		c-4.2,4.2-9.4,5.7-15.1,5.9c-2.2,0.1-4.3-0.1-6.5-0.3c-0.6,0-1.3-0.1-1.8-0.6c-0.7-0.2-1.2-0.6-1.6-1.2c-1.7-2.4-3-5.1-4.1-7.8
		c-3.8-9.2-7.2-18.6-9.2-28.5C183,365.1,183.3,364,183,362.9z"/>
	<path class="st8" d="M77.8,278.7c-1,0.3-2,0-3,0.2c0.6,0.6,1.2,1.3,1.8,1.9c3.3,3.3,4.5,7.4,4.5,11.9c0,1.8-0.1,3.6-0.1,5.4
		c-0.3,0.8,0.2,1.6,0,2.4c-1.1,5.1-4.5,8.5-8.8,11.1c-0.2,0.1-0.5,0.2-0.8,0.1c-0.2-0.2-0.2-0.5-0.3-0.8c0-0.2,0.1-0.5-0.3-0.8
		c-1.9,1.7-4.2,2.7-6.9,2.5c0,0.5,0.8,0.9,0.2,1.5c-0.2,0.1-0.3,0.2-0.5,0.2c-1.1,0-2.2,0-3.3,0c-3.7-0.3-6.7-1.8-9.1-4.6
		c-0.7-1.5-1.8-2.8-2.5-4.4c-2.2-4.7-3.5-9.5-3.1-14.7c0.3-3.2,1.5-6.1,3.7-8.5c0.5-0.6,1.2-0.9,1.4-1.7c0.9,0.3,1.9,0.5,2.9,0.4
		c0.6,0.4,0.7,1.1,1,1.7c0.5,1.3,0.5,1.3,1.6,0.5c1.2-0.8,2.5-1.5,4-1.2c-0.1-1.1-0.8-2-0.6-3.1c1.1-0.5,1.9-1.2,1.6-2.6
		c0-0.2,0.1-0.3,0.3-0.3c3.3-0.1,6.6,0.2,9.7,1.4c1.9,0.7,3.8,1.5,5.9,1.3C77.2,278.4,77.5,278.5,77.8,278.7z"/>
	<path class="st10" d="M51.2,309.7c0.3,0,0.4,0.2,0.6,0.3c2.3,2.4,5.1,3.7,8.4,4.1c0,0.1,0,0.2,0,0.2c1.2-0.1,2.3-0.2,3.4,0
		c0-0.1,0-0.2,0-0.2c0.2,0,0.4-0.1,0.6-0.1c0.7-0.2,1.1,0.2,1.7,0.4c0.2,0.2,0.3,0.5,0.4,0.7c0.7,1.8,2.4,2.1,3.8,0.9
		c0.5-0.5,0.8-1.1,0.6-1.8c-0.1-0.4-0.3-0.8-0.2-1.3c0.2-0.5,0.3-1,0.9-1.2c4.6-2.5,8.1-5.8,9.3-11.2c0.2-0.8,0.2-1.6,0.3-2.3
		c0.7,3.1,1.3,6.2,1.6,9.4c0.3,3.7,0.5,7.4,0.2,11.1c-0.3,3.6-0.7,7.2-1.6,10.7c-1.5,6.1-4.1,11.7-7.8,16.8
		c-0.3,0.4-0.9,0.8-0.8,1.5c-4,3.2-8.9,2.7-12.3-1.1c-3-3.4-4.5-7.5-5.7-11.7c-1.9-6.7-2.6-13.5-3.1-20.4
		C51.3,312.8,51.2,311.2,51.2,309.7z"/>
	<path class="st10" d="M144.6,407.3c-0.4-1,0-2.1,0.1-3.1c0.9-8.4,1.9-16.8,2.8-25.2c0.1-1.2,0.4-2.4,0.4-3.6c0-1,0.4-1.1,1.3-1
		c3.5,0.4,7.1,0.4,10.6,0c0.9-0.1,1.8-0.2,2.7-0.4c0.8-0.2,1.1,0,1.1,0.8c0.3,3.6,0.7,7.2,1.1,10.8c0.5,5.6,1.1,11.2,1.6,16.8
		c0.1,1.4,0.1,2.9,0.2,4.3c0.1,0.7-0.2,1-0.8,1.2C158.7,408.1,151.7,407.9,144.6,407.3z"/>
	<path class="st11" d="M165.8,418.8c5.8-4.6,12.3-5.3,19.3-3.6c3,0.7,5.5,2.4,7.5,4.8c2.7,4,3.3,8.5,2.7,13.2
		c-0.6,0.5-1.4,0.4-2.1,0.4c-9.7,0-19.5,0-29.2,0c-0.8,0-1.7,0-2.4,0.6c-0.9-5.5-0.2-10.6,3.8-14.9
		C165.6,419.2,165.7,419,165.8,418.8z"/>
	<path class="st11" d="M114.9,418.3c2.8,0.3,5.4,1.2,8.2,1.6c5.5,0.8,10.9,1.2,16.4,0.4c1-0.1,1.9-0.5,2.9-0.7c0,4.3,0,8.6,0,12.9
		c-0.5,0.4-1,0.4-1.6,0.4c-12.5,0-25.1,0-37.6,0c-0.6,0-1.1,0.1-1.6-0.4C101.9,424.7,107.4,419,114.9,418.3z"/>
	<path class="st12" d="M35,209.3c-0.2,0.2-0.1,0.3-0.1,0.5c2,5.5,4,11.1,6,16.6c1,1.2,1.3,2.6,1.8,4c4.4,12.2,8.9,24.3,13.2,36.5
		c0.6,1.6,1.4,3.1,1.6,4.8c-0.1,0.3-0.4,0.5-0.7,0.6c-1.6,0.6-3.2,1.1-4.8,1.6c-0.4,0.1-0.9,0.3-1.1-0.3c-1.8-5.5-3.6-11-5.3-16.5
		c-3.8-11.8-7.6-23.7-11.4-35.5c-0.1-0.3-0.2-0.5-0.3-0.8c-0.3-0.4-0.5-1-0.7-1.5c-1-3.3-2.4-6.4-2.9-9.8c-1.1-3.2-1.8-6.5-3.3-9.6
		c0-0.5-0.4-0.9-0.3-1.5c-0.3-1.1-0.6-2.1-0.9-3.2c-0.2-1-0.3-1.9,0.9-2.4c1-0.4,1.8-0.1,2.5,1.2c0.4,0.8,0.8,1.7,1.1,2.6
		c1.4,3.9,2.7,7.7,4.1,11.6C34.6,208.7,34.6,209.1,35,209.3z"/>
	<path class="st10" d="M196.5,261.9c-1.9,1.5-4,2.4-6.4,2.7c-0.6,0.1-0.8,0.5-1,1c-1.5,5.4-2.9,10.8-4.2,16.2
		c-0.2,0.1-0.4,0-0.5-0.1c-0.2-0.2-0.3-0.4-0.2-0.6c-0.4,1.1-1.4,1.4-2.4,1.6c-1.4,0.3-1.7,0.8-1.1,2c0.4,0.8,0.2,1.5-0.5,1.9
		c-0.8,0.5-1.5,0.3-2.1-0.5c-0.1-0.5-0.1-0.9-0.1-1.4c0.2-4.1-0.3-8.3-0.2-12.4c-0.1-1.8,0.2-3.6-0.1-5.4c-0.3-2.8-0.1-5.7-0.1-8.5
		c0-0.6,0.1-1.3-0.1-1.9c-0.1-0.5-0.1-0.9,0.3-1.3c4-0.9,8.1-1.6,12.1-2.7c1.4-0.4,2.7-1,4.1-1c2.8,1.4,4.2,3.6,4.2,6.7
		C197.9,259.7,197.2,260.8,196.5,261.9z"/>
	<path class="st10" d="M124.3,360.2c1.7,2.5,3.5,4.9,5.8,6.8c0.6,0.5,0.4,1.1,0.3,1.6c-1,5.8-2,11.6-3.3,17.4
		c-1.2,5.5-2.4,11.1-4.3,16.4c-0.2,0.5-0.1,1.1-0.7,1.3c-2.9-0.7-5.9-1.4-8.8-2.1c2.4-7.8,4.6-15.6,6.7-23.5
		c1.5-5.8,2.9-11.6,4.1-17.4C124.1,360.5,124.2,360.4,124.3,360.2z"/>
	<path class="st10" d="M183,362.9c0.4,1.9,0.7,3.9,1.1,5.8c1.1,5.4,2.8,10.6,4.7,15.8c1.9,5.4,3.9,10.7,6.6,15.7
		c0.7,1.3,1.5,2.5,2.7,3.4c-3,0.6-6,1.2-9,1.8c-0.3,0.1-0.5,0.1-0.8,0.1c-0.9-1.5-1-3.3-1.4-4.9c-2.5-11-4.6-22.1-6.7-33.2
		c-0.1-0.6-0.1-1.1,0.5-1.5s1.1-1,1.6-1.4C182.9,364.2,183.2,363.6,183,362.9z"/>
	<path class="st13" d="M101.7,432.4c13.6,0,27.2,0,40.7,0c0,0.5,0.1,1,0.1,1.4c-0.2,2.4-1.2,3.4-3.6,3.6c-0.8,0.1-1.6,0.1-2.4,0.1
		c-10.9,0-21.7,0-32.6,0c-1.3,0-1.9-0.5-2.1-1.7C101.6,434.8,101.3,433.6,101.7,432.4z"/>
	<path class="st13" d="M161.6,434.2c-0.1-1,0.5-1,1.3-1c10.8,0,21.5,0,32.3,0c0,0.1,0,0.2,0,0.2c-0.3,0.5,0,1-0.2,1.5
		c-0.2,3.3-0.2,3.3-3.5,3.3c-9.3,0-18.7,0-28,0c-0.9,0-1.3-0.2-1.4-1.1C162,436.1,161.6,435.2,161.6,434.2z"/>
	<path class="st12" d="M61.2,275.8c0.5,1.7,0.1,2.5-1.6,2.9c-0.5,0.6-1.2,0.8-1.9,1c-1.4,0.4-2.7,1.2-4.2,1.1
		c-1.1,0.5-2,0.4-2.8-0.5c-0.4-0.9-0.4-1.7,0.4-2.4c0.2-0.3,0.4-0.6,0.7-0.7c2.4-0.8,4.7-1.8,7.1-2.4c0.2,0,0.4-0.1,0.6,0
		C60.3,274.9,61,274.9,61.2,275.8z"/>
	<path class="st14" d="M59.6,275.1c-3,0.6-5.7,1.7-8.5,2.9c-0.1-0.3-0.5-0.3-0.7-0.4c-0.7-0.3-1.1-0.9-1.2-1.7c0-0.7,0.3-1.3,1-1.7
		c0.3-0.2,0.6-0.2,0.7-0.6c0.2,0.1,0.4,0.2,0.6,0.1c2-0.7,4-1.2,5.9-2.1c0.8-0.7,1.6-0.7,2.4,0c0.8,0.7,1,1.9,0.5,2.8
		C60.1,274.8,59.8,274.9,59.6,275.1z"/>
	<path class="st15" d="M30.3,209.6c1.2,3.7,2.5,7.5,3.6,11.3c-1.9-1.9-2.9-4.3-3.3-6.9C30.2,212.6,30.2,211.1,30.3,209.6z"/>
	<path class="st16" d="M26.7,198.6c0.2,0.5,0.6,0.9,0.3,1.5c-0.2-0.4-0.4-0.8-0.6-1.2C26.5,198.8,26.6,198.7,26.7,198.6z"/>
	<path class="st11" d="M195,434.9c0-0.5-0.2-1,0.2-1.5C195.3,433.9,195.3,434.4,195,434.9z"/>
	<path class="st8" d="M65.5,164.3c0.7-0.1,0.6,0.5,0.8,0.8c1.1,2.5,2.3,4.9,4,7c0.9,1.1,1.9,2.1,3.2,2.8c2.4,1.3,4.7,1,6.9-0.3
		c2-1.2,2.5-3.2,2.3-5.3c-0.3-3.7-0.7-7.3-1.1-10.9c-0.1-0.6-0.2-1.2,0.7-1.3c0.2-0.2,0.4-0.3,0.7-0.4c1.6-0.4,3.3-0.2,5-0.5
		c0.3,0,0.7,0,1,0.4l0.1,0.1c2.3-0.3,3.3,1.1,4.3,3c3.2,5.9,6.8,11.4,11.4,16.4c2.5,2.7,5.5,4.7,8.5,6.7c2.5,1.6,5.1,3.2,7.7,4.6
		c0.2,0.2,0.3,0.5,0.3,0.8c1.1,10.5-1.2,19.9-9,27.4c-5.6,5.4-12.5,8.3-20.1,9.6c-6.6,1.1-13,0.5-19.3-1.7
		c-4.5-1.6-8.4-4.1-11.8-7.4c-0.5-0.5-1.1-1-1.2-1.8c3.3-2.6,3.7-6.3,4.1-10.1c0.6-5.8-0.2-11.6-0.3-17.5c0-6.1,0.2-12.1,0.7-18.2
		c0.1-1.2-0.1-2.5,0.4-3.7C65,164.5,65.2,164.4,65.5,164.3z"/>
	<path class="st8" d="M173.5,184.7c0.2-0.7,0.7-0.5,1.2-0.5c1.8,0.1,3.6-0.1,5.4-0.2c1.6-0.1,2.6-1,3.2-2.4c1.1-2.3,1.3-4.8,1.5-7.2
		c0.1-1.8,0-3.6,0-5.5c0.6,0.2,0.6,0.6,0.7,0.9c2.4,5.8,7.5,7.8,13.2,5.4c3.7-1.6,6.6-4.2,9.3-7.1c2.7-2.8,5-5.9,7.1-9.2
		c0.2-0.3,0.3-0.5,0.7-1c0.1,2,0.2,3.7,0.3,5.5c0.4,4.7,0.9,9.4,2.4,13.9c0.4,1.3,1,2.6,1.7,3.8c1.3,2.3,3.4,3.3,6,3.2
		c2.8-0.2,5.3-1.3,7.8-2.5c2-1,3.9-2.3,5.7-3.6c0.3-0.2,0.6-0.7,1-0.5c0.5,0.3,0.2,0.9,0,1.3c-1,2.9-1.9,5.8-2.5,8.7
		c-0.7,3.2-1.1,6.4-0.7,9.6c0.3,2.2,1.2,4.1,3,5.4c0.2,0.7-0.2,1.2-0.4,1.8c-3.7,8.2-9.8,14-18.1,17.6c-5,2.2-10.3,3.3-15.7,3.2
		c-7.7-0.2-14.9-2.3-21-7.2c-4.6-3.7-7.7-8.6-9.6-14.2c-2-5.9-2.3-12.1-2.1-18.2C173.1,185.4,173.1,185,173.5,184.7z"/>
	<path class="st11" d="M173.5,184.7c-0.2,5-0.1,10,0.9,15c2.9,14.2,13.1,23.6,27.5,25.1c13,1.4,24-2.8,32.7-12.6
		c2.4-2.7,4-6,5.5-9.4c1.5,0.7,3.1,1.1,4.8,1.2c0.2,0,0.3,0.2,0.5,0.3c-2.4,6.7-6.3,12.4-11.9,16.9c-8.5,6.8-18.2,10-29,9.4
		c-8.5-0.5-16.3-3-23-8.4c-7.8-6.3-11.6-14.7-13-24.4c-0.2-1.1-0.3-2.3-0.4-3.5c0-0.6-0.2-0.8-0.8-0.9c-6.2-1-12.4-1.7-18.7-1.6
		c-0.8,0.2-1.6,0.2-2.4,0c-6.2-0.1-12.3,0.5-18.3,1.5c-0.7,0.1-0.8,0.5-0.9,1.1c-0.3,10-4,18.5-11.4,25.3
		c-5.9,5.4-12.8,8.7-20.6,10.2c-10.8,2-21.1,0.7-30.6-4.9c-5.3-3.1-9.5-7.4-12.5-12.9c1.3,0.5,2.3,1.5,3.6,2
		c1.4,0.4,2.7,0.7,4.1,0.1c0.1-0.1,0.3,0.1,0.5,0.1c10.3,11.7,28.4,13.9,42.4,7.5c8.9-4,15.3-10.4,17.9-20.1
		c1.1-4.1,1.2-8.2,0.9-12.4c0-0.6-0.1-1.3-0.1-1.9c1.2,0.5,2.4,1,3.6,1.5c2.4,0.8,4.4,0.4,6-1.5c0.1-0.1,0.2-0.1,0.3-0.2
		c0.5-0.1,1-0.1,1.5-0.4c2.2-0.5,4.4-0.6,6.6-0.7c8.9-0.5,17.8-0.2,26.7,1.2c1.5,0.2,1.5,0.1,1.6-1.4c0-0.8-0.1-1.7,0.6-2.4
		c1.5,0.2,3,0.5,4.6,0.7C173.1,184.2,173.4,184.3,173.5,184.7z"/>
	<path class="st8" d="M130.9,187.3L130.9,187.3c-0.1,0-0.2,0-0.2,0c0.4-1.4,0.9-2.8,0.7-4.3c-0.1-1.7,0-3.4,0-5.1c0-1-0.4-2,0-3.1
		c0-5-0.5-9.9-0.9-14.8c-0.3-4-0.7-8-1.1-12c-0.1-0.3-0.4-0.6,0.2-0.7c5.9,11.2,13.3,21.3,23.5,28.9c4.3,3.2,8.9,5.5,14.1,6.9
		c0.3,0.1,0.6,0.1,0.8,0.3c-0.2,1.1-0.3,2.3-0.3,3.5c0,0.7-0.2,1-1,0.8c-6.9-1.2-13.9-1.6-21-1.6c-4.5,0-9,0.2-13.5,0.9
		C131.9,187.4,131.4,187.1,130.9,187.3z"/>
	<path class="st8" d="M81.8,151.6c-0.5-0.3-0.3-0.7-0.3-1.1c0.1-4,0.6-7.9,1.3-11.7c0-0.1,0.1-0.3,0.3-0.5c1.8,4.4,3.6,8.5,5.7,12.7
		c-1.5,0.2-3-0.1-4.4,0.3C83.6,151.8,82.7,151.9,81.8,151.6z"/>
	<path class="st11" d="M81.8,151.6c0.9-0.2,1.7-0.3,2.6-0.3c1.2,0,2.5,0,3.7,0c0.4,0,0.8-0.1,1.1,0.4c0.8,1.6,1.6,3.2,2.5,4.9
		c-1,0-1.9,0-2.7,0c-2.2,0-4.4,0.2-6.6,0.5c-0.3-0.1-0.7,0-0.7-0.4c-0.1-1.5-0.2-2.9-0.3-4.4C81.3,152,81.7,151.8,81.8,151.6z"/>
	<path class="st17" d="M131.5,174.8c0.2,2.7,0.3,5.4,0,8.2c-0.3-0.2-0.3-0.6-0.3-0.9c0-2.1,0-4.3,0-6.4
		C131.2,175.4,131.2,175.1,131.5,174.8z"/>
	<path class="st18" d="M263.3,196.2c-0.6,0-1.2-0.3-1.7-0.7c0.5-0.5,1-0.9,1.7-1.6C263.3,194.9,263.3,195.5,263.3,196.2z"/>
	<path class="st19" d="M65.5,164.3c-0.2,0.2-0.4,0.3-0.7,0.5c-0.1-0.9-0.1-1.8,0.2-2.8C65.4,162.8,66,163.4,65.5,164.3z"/>
	<path class="st20" d="M129.8,147.3c-0.3,0.2-0.1,0.5-0.2,0.7c-0.2-0.2-0.2-0.5-0.2-0.8c0-0.1,0-0.4,0.2-0.3
		C129.6,147,129.7,147.2,129.8,147.3z"/>
	<path class="st21" d="M177.5,255.2c0,0.4,0,0.8,0,1.2c0.3,1.9,0.1,3.7-0.8,5.6c-1.7,3.6-3.4,7.1-5.9,10.2c-1.1,1.4-2.3,2.6-4.1,3
		c-2.6,0.4-4.5-1-6.3-2.6c-0.6-0.5-1.1-1.1-1.6-1.6c-0.1-0.1-0.2-0.2-0.3-0.2c-2.9-3.4-5.3-7-7.4-11.1c-1.1,1.8-1.8,3.5-2.8,5.1
		c-1.5,2.5-3,4.9-5.1,7c-1.1,1.6-2.8,2.6-4.5,3.5c-1,0.5-2.1,0.5-3.2,0.5c-0.7,0-1.2-0.3-1.3-1.1c-0.1-2.5,0.4-4.9,0.5-7.4
		c0.2-2.5,0.3-5,0.7-7.5c0.1-0.4,0-0.9,0.4-1.2c0.2-0.7,0.4-1,1.3-1c5.6,0.1,11.3,0.2,16.9,0c7.6-0.3,15.2-1,22.8-2.3
		C177.2,255.2,177.4,255.2,177.5,255.2z"/>
	<path class="st10" d="M136.1,258.5c-0.4,5.3-0.9,10.7-1.3,16c-0.3,0.6,0.2,1.2,0.1,1.8c-0.2,1.2-0.2,2.4-0.3,3.5
		c-0.5,4.7-1,9.5-1.6,14.2c-0.4,3.4-0.9,6.8-1.4,10.2c-0.1,0.5,0.1,1.1-0.6,1.3c-0.6-4.4-1.3-8.8-1.9-13.2
		c-0.5-3.8-1.1-7.5-1.5-11.3c-0.5-4.8-1.7-9.4-4.2-13.7c-0.6-1.1-1.7-1-2.6-1.4c-4-2.5-4.3-6.5-0.6-9.8c5.1,0.5,10.1,1.1,15.2,1.3
		C136.3,257.4,135.9,258.1,136.1,258.5z"/>
	<path class="st11" d="M152.1,245.1c-5-0.2-9.8-1.1-14.1-3.9c-1.9-1.2-3.4-2.7-4.6-4.7c-0.7-1.2-0.5-2.2,0.4-2.7s1.7-0.2,2.4,1
		c1.7,2.8,4.3,4.4,7.2,5.4c8.4,2.8,16.2,1.7,23.4-3.4c1.1-0.8,2-0.8,2.6,0.1c0.7,0.8,0.4,1.8-0.7,2.7
		C164,243.3,158.3,245.1,152.1,245.1z"/>
	<path class="st11" d="M149.7,204.9c2.3,0,4.2,0.4,6.1,1.2c1.2,0.5,1.6,1.4,1.2,2.4c-0.4,0.9-1.3,1.2-2.5,0.7
		c-2.4-1-4.8-1.4-7.4-0.5c-2.3,0.8-4.1,2.2-4.4,4.7c-0.4,2.7,0.9,4.7,3.1,6.1c1.8,1.2,3.9,1.5,6.1,1.4c1.4,0,2.2,0.5,2.2,1.6
		s-0.7,1.7-2,1.7c-2.5,0.1-4.9-0.3-7.1-1.4c-3.9-2-6.2-6-5.6-10.1c0.5-3.7,3.9-6.9,8.1-7.7C148.3,204.9,149.1,204.8,149.7,204.9z"/>
	<path class="st22" d="M146.1,191.9c0.8-0.1,1.6-0.1,2.4,0C147.7,192.3,146.9,192.3,146.1,191.9z"/>
	<path class="st23" d="M131,305.6c0.7-3.2,1-6.5,1.4-9.8c0.7-5.3,1.2-10.6,1.9-15.9c0.7-0.1,1,0.5,1.3,0.8
		c4.7,4.3,9.7,8.3,15.1,11.8c1.1,0.7,2,0.7,3.1,0c7.7-5.3,15-11,21.4-17.7c0.4-0.4,0.7-0.9,1.1-1.3c0.5-0.5,0.9-1.2,1.6-1.3
		c0.1,4.8,0.2,9.5,0.3,14.3c-0.6,0.3-1.1-0.1-1.6-0.3c-1.4-0.5-2.7-0.9-4.1-0.1c-1.2,0.6-1.7,1.5-1.5,2.8c0.1,0.9,0.6,1.5,1.5,1.6
		s1.6-0.3,1.9-1.3c0.1-0.2,0.1-0.4,0.2-0.6c0.1-0.2,0.2-0.3,0.4-0.3c0.7,0.4,0.6,1,0.4,1.6c-0.3,0.8-0.8,1.4-1.5,1.9
		c-1.4,1-1.5,2-0.3,3.4c0.5,0.6,1.1,1.1,1.6,1.7c0.5,0.7,0.9,1.3-0.2,1.8c-0.6,0.3-0.6,1-0.4,1.6c0.3,0.7,0.8,1.3,1.4,1.8
		c0.3,0.3,0.7,0.5,0.8,1c0,0.2-0.1,0.3-0.3,0.4c-1.1,0.9-0.9,2.4,0.3,2.9c0.6,0.3,1.4,0.2,1.9,0.9c0,0.7,0,1.3,0,2
		c-0.3,2.1-0.1,4.1-0.1,6.2c0,0.6,0,1.2,0,1.8c0,0.2,0.2,0,0.1,0c-0.1,0-0.1,0-0.1-0.1c0.1-0.3-0.1-0.7,0.2-1
		c0.3,1.4,0.2,2.8,0.2,4.2c-0.2,1.2,0,2.4-0.1,3.7c0.1-0.4,0-0.6,0.2-0.7c0.3,2.8,0.4,5.6,0.4,8.5c-0.3,0.3-0.6,0.5-1,0.6
		c-6.4,1.4-12.8,2.1-19.3,2.2c-0.3,0-0.6,0-0.8-0.1c-2.5-0.3-5.1-0.3-7.6,0c-2.9,0.4-5.7,0-8.6-0.2c-3.9-0.2-7.7-0.6-11.5-1.1
		c-0.7-0.1-1.4-0.1-1.9-0.6c0.6-5.9,1.2-11.9,1.7-17.8c0.2-2.3,0.3-4.5,0.4-6.8C131,307.1,130.7,306.3,131,305.6L131,305.6z"/>
	<path class="st23" d="M179.6,334.6c0.2,1,0.3,2,0.2,3.1c-1,0.8-2.3,0.7-3.5,0.9c-2.5,0.4-5.1,0.6-7.7,0.8c-6,0.5-12,0.6-17.9,0.4
		c-4.7-0.2-9.5-0.3-14.2-0.8c-2.5-0.3-5-0.4-7.5-0.7c-0.8-0.1-1-0.4-1-1.1s0-1.4,0.3-2c0.6-0.3,1.2-0.2,1.8-0.1c5,0.7,10,1.1,15,1.4
		c1.6,0.1,3.3,0.2,4.9,0.2c3.5,0,7,0,10.6,0c5.9-0.1,11.8-0.8,17.6-2C178.6,334.5,179.1,334.2,179.6,334.6z"/>
	<path class="st24" d="M179.6,334.6c-6.2,1.5-12.5,2.2-18.9,2.3c-3.6-0.2-7.2-0.2-10.8,0c-4.5,0-8.9-0.4-13.4-0.8
		c-2.7-0.3-5.5-0.6-8.2-1c-0.1-0.9,0.2-1.8,0.3-2.8c6.7,0.9,13.4,1.5,20.1,1.7c0.6,0,1.3,0,1.9,0c2.6-0.2,5.1-0.2,7.7,0
		c7.1,0,14.2-0.8,21.1-2.4C179.6,332.7,179.7,333.7,179.6,334.6z"/>
	<path class="st10" d="M131,305.6c-0.1,0.7,0.1,1.5-0.2,2.2C130.7,307,130.5,306.3,131,305.6z"/>
	<path class="st8" d="M183.9,326.8c0.2-1.1,0.3-2.3,0.6-3.4c1.1-3.9,3.7-6.3,7.5-7.3c4.4-1.2,8.9-1,13.1,0.8c6.3,2.6,10,9.6,9.1,17
		c-0.3,2.6-1,5.1-1.8,7.5c-1.1,4.3-6.6,10-12.2,9.5c-2.3-0.2-4.2-1.1-6-2.4c-1.5-1-2.6-2.3-3.6-3.8c-3.6-5.1-6.2-10.6-6.8-16.9
		C183.7,327.6,183.8,327.2,183.9,326.8z"/>
	<path class="st10" d="M190.9,344.8c2.5,3.4,5.6,6,10.2,5.9c3.3-0.1,5.8-1.7,8-4c1.4-1.5,2.4-3.4,3.4-5.2c0.2,3.3-0.5,6.5-1,9.7
		c-0.7,4.4-1.6,8.8-3.3,12.9c-0.6,1.3-1.2,2.6-2.1,3.7c-2.1,2.7-5.2,2.7-7.9,0.3c-3.3-3-5.3-6.8-7.1-10.7c-2-4.1-3.5-8.4-5.1-12.7
		C187.5,344.9,189.2,344.3,190.9,344.8z"/>
	<path class="st25" d="M174.8,288.6c-0.1,1.6-0.8,2.2-2.1,2.2c-1.3-0.1-2.1-1.1-2-2.5c0.1-1.7,1.3-2.8,3.1-3
		c1.1-0.1,2.2,0.2,3.2,0.7c0.4,0.2,0.7,0.5,1.2,0.5c0.7,0.3,1.3,0.2,1.9-0.2c0.4-0.3,0.6-0.7,0.2-1.3c-0.9-1.2-0.5-2.2,1.1-2.5
		c1.8-0.3,1.8-0.3,2.7-1.3c0.3,0.2,0.4,0.7,0.9,0.8c0.6,0.5,1.3,0.4,2,0.6c1.2,0.3,1.7,1.3,1,2.4c-0.5,0.8-0.4,1.4,0.5,1.7
		c0.9,0.3,1.6,0,2.4-0.4c1.3-0.7,2.7-1.1,4.3-0.6c1.1,0.4,2,1,2.3,2.2c0.2,1,0.2,2-0.8,2.7c-0.7,0.5-1.6,0.6-2.4,0.1
		c-1-0.6-1-1.5-0.7-2.5c-0.9,0.7-0.7,1.5-0.3,2.3c0.3,0.6,0.8,1,1.4,1.3c1.3,0.9,1.5,2,0.6,3.2c-0.7,0.9-1.5,1.7-2.3,2.6
		c-0.1,0.1-0.2,0.3-0.3,0.5c1.6,0.6,1.9,1.3,1.1,2.8c-0.5,0.9-1.4,1.6-2.2,2.2c-0.1,0.2-0.2,0.4-0.5,0.4c0.2,0,0.5-0.1,0.7-0.2
		c0.6-0.1,0.9,0.1,1,0.8c0.1,2.1,0,2.3-2,2.8c-3.3,0.8-6.6,0.9-10,0.5c-0.6-0.1-1.3-0.1-1.9-0.1c-0.4-0.1-0.8-0.2-1.1-0.3
		c-2.1-0.6-2.2-0.8-2.1-2.9c0-0.8,0.4-0.9,1-0.7c0.6,0,1,0.3,1.6,0.5c-0.5-0.3-1.1-0.3-1.4-0.8c-0.9-0.6-1.7-1.3-2.3-2.3
		c-0.8-1.4-0.4-2.2,1.1-2.7c-0.2-0.7-0.8-1.2-1.3-1.7s-1-1-1.4-1.6c-0.8-1.2-0.6-2.2,0.6-3.1c1.6-1.1,2-1.9,1.5-3.3
		c-0.1,0-0.2-0.2-0.3-0.1C174.7,288.3,174.8,288.5,174.8,288.6z"/>
	<path class="st26" d="M190.9,344.8c-0.3-0.1-0.5-0.1-0.8,0c-1.4,0.5-2.8,0.4-4.2-0.1c-6.5-3.9-7.4-12.4-2-17.8
		c0.4,6.2,2.8,11.7,6.1,16.8C190.3,344,190.6,344.4,190.9,344.8z"/>
	<path class="st23" d="M178.7,316.1c0,0.7-0.1,1.3-0.1,2c-0.1,0-0.1,0-0.2,0c0-2.8,0-5.6,0-8.5c0-0.1,0.1-0.3,0.2-0.4
		C178.7,311.5,178.7,313.8,178.7,316.1z"/>
	<path class="st23" d="M179,323.3c0,0.3-0.1,0.7-0.1,1c0-1.4-0.4-2.7,0-4.1C178.9,321.2,178.9,322.2,179,323.3z"/>
	<path class="st27" d="M191.7,303.2c-0.4,0.3-0.8,0.6-1.5,0.3c0.5-0.2,0.9-0.4,1.2-0.6C191.5,303,191.6,303.1,191.7,303.2z"/>
	<path class="st26" d="M62.3,282.4c6-0.6,9.2,1.3,11.5,7.3c2.4,6.4,1.7,12.6-1.9,18.4c-0.1,0.2-0.2,0.4-0.6,0.4
		c1.7-3.2,1.6-6.6,1.4-9.9c-0.1-3.5-0.8-6.9-2.6-9.9c-1.6-2.7-3.8-4.6-6.7-5.7C63.1,282.9,62.6,282.9,62.3,282.4z"/>
	<path class="st14" d="M53.5,280.9c2-0.7,4.1-1.4,6.1-2.1c0.1,1.2,0.7,2.2,0.9,3.4c-2-0.3-3.5,0.5-4.9,1.7c-0.6,0.5-0.8,0.3-1-0.3
		C54.2,282.7,53.8,281.8,53.5,280.9z"/>
	<path class="st28" d="M65.7,314.5c-0.6,0-1-0.4-1.5-0.6c-0.2-0.6-0.8-0.9-0.9-1.7c3,0.2,5.6-0.6,7.7-2.9c0.5,0.8,0.2,1.6,0.3,2.3
		c-0.2,0.4-0.5,0.8-0.7,1.2c-0.2,0.3-0.4,0.6-0.7,0.7C68.4,313.9,67.2,314.9,65.7,314.5z"/>
	<path class="st28" d="M60,314.2c0-0.1,0-0.1,0.1-0.1c1.1,0,2.3,0,3.4,0c0.1,0,0.1,0.1,0.1,0.1C62.4,314.4,61.2,314.4,60,314.2z"/>
	<path class="st29" d="M65.7,314.5c1.7-0.4,3.4-0.8,4.9-1.7c0,0.2,0,0.4,0.1,0.6c0.7,2.1,0.1,3.1-2.1,3.6c-1.2,0.2-2-0.2-2.5-1.3
		C65.9,315.3,65.8,314.9,65.7,314.5z"/>
	<path class="st30" d="M60,314.2c1.2,0,2.4,0,3.5,0h0.1l0.1,0.1c-1.3,0.1-2.7,0.1-4,0v-0.1C59.9,314.2,60,314.2,60,314.2z"/>
	<path class="st23" d="M134.6,276.3c0-0.6-0.1-1.1,0.1-1.7c0,0.6,0.3,0.8,0.9,0.8c1.2,0,2.3-0.1,3.5-0.5c1.2,0.7,2,1.7,3.1,2.5
		c0.7,0.6,1.4,1.3,2.2,1.7c0.3,0.3,0.4,0.7,0.8,0.9c1.4,1.2,2.8,2.2,4.3,3.3c3,1.9,2.2,1.9,5.1,0c1.3-0.8,2.6-1.8,3.8-2.7
		c2-1.6,4-3.3,5.8-5.1c0.7-0.8,1.7-0.4,2.4-0.7c1.5-0.4,2.7-1.4,3.6-2.6c2.5-3,4.2-6.5,5.9-10.1c0.9-1.9,1.4-3.8,1.3-5.8
		c0.4,2.4,0.1,4.8,0.2,7.1c0.1,1.2,0.1,2.5,0.1,3.7c0,0.6-0.4,1.1-0.7,1.6c-2.7,3.6-5.9,6.7-9.2,9.7c-4.2,3.8-8.6,7.2-13.2,10.5
		c-2.4,1.7-2.4,1.8-4.9,0.1c-4.6-3.1-8.9-6.5-12.8-10.4C136.2,278,135,277.5,134.6,276.3z"/>
	<path class="st24" d="M134.6,276.3c4.7,4.4,9.5,8.7,14.8,12.3c2.8,1.9,2.8,1.9,5.5-0.1c6.7-4.8,13.1-9.9,18.7-16
		c1.5-1.6,2.9-3.4,4.1-5.3c0,1.6,0.1,3.3,0.1,4.9c-4.1,4.7-8.6,9-13.5,12.8c-3.6,2.9-7.3,5.6-11.2,8.2c-0.7,0.4-1.1,0.4-1.8,0
		c-6-3.5-11.3-7.9-16.4-12.6c-0.3-0.2-0.5-0.5-0.8-0.7C134.3,278.7,134.4,277.5,134.6,276.3z"/>
	<path class="st11" d="M95.1,188.5c0,2.9-0.7,5.5-2.9,7.6c-3,2.9-7.4,2.8-10.2-0.3c-3-3.4-3.5-9.5-1.1-13.2
		c2.1-3.3,7.1-4.5,10.5-2.6c1.2,0.7,2.1,1.7,2.6,3C94.8,184.8,95.1,186.6,95.1,188.5z"/>
	<path class="st11" d="M200,188.4c0-1.1,0.1-2.4,0.4-3.6c1.2-5.1,6.4-7.3,10.8-4.4c3.8,2.5,4.7,6.2,4.2,10.5
		c-0.6,4.9-4.4,7.8-9.3,7.2c-2.7-0.3-4.6-1.8-5.4-4.4C200.2,192,200,190.3,200,188.4z"/>
	<path class="st0" d="M130.9,187.3c0.5-0.2,1-0.2,1.5-0.2C131.9,187.5,131.4,187.3,130.9,187.3z"/>
	<path class="st23" d="M145,280.2c-0.4-0.2-0.7-0.5-0.6-1c-0.2-1.2,0.3-2.3,0.7-3.4c0.3-0.9,0.3-1.5-0.6-2.1
		c-0.7-0.5-1.3-1.2-1.3-2.2c2-2.1,3.4-4.5,5-6.9c1,0.1,1.7,0.8,2.6,1.2c2.7,1.5,5.6,2.9,8.2,4.7h0.1c0.3,0.9-0.4,1.4-0.8,1.8
		c-1,0.9-1.8,1.7-1.4,3.1c-2.4,1.3-5,2.1-7.5,3.1C147.9,279.2,146.6,280,145,280.2z"/>
	<path class="st31" d="M156.8,275.4c-0.1-0.3-0.1-0.6-0.3-0.8c-0.4-0.6-0.3-0.9,0.3-1.3c1-0.6,1.8-1.5,2.2-2.7c0.9,1.2,2,2.1,3.2,3
		c1.3,1,2.8,1.5,4.5,1.3c-2,0.1-3.1,1.8-4.4,2.9c-1.3,1-2.5,2.1-3.8,3.1c-0.3-0.2-0.5-0.6-0.6-0.9c-0.3-1.1-0.7-2.2-1-3.4
		C156.8,276.2,156.6,275.8,156.8,275.4z"/>
	<path class="st11" d="M158.9,270.6c-0.9-0.1-1.6-0.7-2.3-1.2c-2.8-1.6-5.7-3-8.4-4.8c1-1.9,1.9-3.7,3-5.8
		C153.4,263.1,155.9,267,158.9,270.6z"/>
	<path class="st31" d="M143.2,271.5c0.6,1,1.1,1.9,2.2,2.4c0.5,0.2,0.4,0.5,0.2,0.8c-0.5,1.5-0.9,3-1.3,4.4c-0.7,0.3-1-0.4-1.3-0.7
		c-1.4-1.1-2.8-2.2-3.9-3.6C140.6,273.9,142.1,273,143.2,271.5z"/>
	<path class="st23" d="M158.3,334.1c-2.6,0.1-5.1,0.1-7.7,0c0.3-0.3,0.6-0.2,1-0.2c1.9,0,3.8,0,5.7,0
		C157.7,333.9,158,333.8,158.3,334.1z"/>
	<path class="st32" d="M176.8,303c0.5,0.3,1,0.5,1.9,0.9c-1,0-1.6-0.3-2.1-0.6C176.6,303.1,176.7,303,176.8,303z"/>
	<path class="st33" d="M174.8,288.6c-0.2-0.3-0.4-0.6-0.6-0.9c0.5,0,0.7,0.3,0.9,0.6C175,288.4,174.9,288.5,174.8,288.6z"/>
	<path class="st34" d="M149.9,337c0.1,0,0.1-0.1,0.2-0.1c3.5-0.1,6.9-0.1,10.4,0c0.1,0,0.1,0.1,0.2,0.1
		C157.1,337.1,153.5,337.1,149.9,337z"/>
	<path class="st35" d="M176,292.1c0-0.6,0-1.1,0-1.6c-0.1-2.7-0.6-2.3,2.2-3c4.1-1,8.3-0.9,12.5,0.2c1.1,0.3,1.6,0.7,1.5,2
		c-0.1,2.7-0.1,5.3-0.5,8c-0.4,3.1-4.1,6.8-7.2,7.4c-0.6,0.1-1.2-0.1-1.7-0.3c-3.6-1.8-6.4-4.1-6.4-8.6
		C176.2,294.7,176.1,293.3,176,292.1z"/>
	<path class="st36" d="M184.7,284.1c0,0.2-0.1,0.5-0.2,0.8c-0.1,0.2-0.2,0.4-0.5,0.4s-0.4-0.2-0.5-0.5s-0.1-0.6-0.1-0.9
		c0-0.5-0.2-1.4,0.6-1.4C184.8,282.6,184.6,283.5,184.7,284.1z"/>
	<path class="st11" d="M156.8,275.4c0.6,1.5,1.1,3,1.4,4.6c-0.1,0.4-0.5,0.5-0.8,0.7c-2.3,0.9-4.6,1.8-6.9,2.8
		c-0.3,0.1-0.7,0.2-1.1,0.1c-1.6-1-3.1-2.1-4.5-3.4c3-1.5,6.2-2.5,9.2-3.8C155.1,276,155.9,275.7,156.8,275.4z"/>
	<path class="st23" d="M149.5,283.5c2.9-1.2,5.8-2.4,8.8-3.6c0.1,0.3,0.2,0.6,0.3,0.9c-1.7,1.4-3.6,2.6-5.5,3.9
		c-0.7,0.5-1.2,0.4-1.8,0S150.1,283.9,149.5,283.5z"/>
	<path class="st37" d="M176.6,291.7c0-3.1,0-3.1,2.6-3.7c3.8-0.8,7.6-0.7,11.4,0.4c0.8,0.2,1.1,0.5,1.1,1.4
		c-0.1,2.8-0.1,5.7-0.6,8.5c-0.5,2.4-4.1,5.7-6.5,6.1c-0.6,0.1-1.2-0.1-1.7-0.4c-3.4-1.6-5.8-4-5.9-8
		C176.8,294.4,176.6,292.8,176.6,291.7z"/>
	<path class="st24" d="M177.7,295.8c0-1.7,0-3.4-0.3-5.1c-0.1-0.7,0.2-1.1,0.9-1.3c1.5-0.4,3-0.6,4.5-0.8c0.8-0.1,1.1,0.2,1,1
		c0,2.1,0,4.1,0,6.2c-0.3,0.2-0.6,0.4-1,0.3C181.2,296,179.5,296.5,177.7,295.8z"/>
	<path class="st23" d="M184.2,295.7c0-2.1,0-4.1,0-6.2c0-0.6,0.1-1,0.8-0.9c1.5,0.2,3.1,0.4,4.6,0.8c0.6,0.2,1,0.5,0.9,1.2
		c-0.2,1.7,0.2,3.5-0.3,5.2c-1.2,0.7-2.5,0.3-3.7,0.4C185.7,296.1,184.9,296.3,184.2,295.7z"/>
	<path class="st23" d="M177.7,295.8c2.1,0,4.1,0,6.2,0c0,2.2,0,4.3,0,6.5c0,1-0.3,1.1-1.1,0.7C179.9,301.5,177.8,299.3,177.7,295.8z
		"/>
	<path class="st38" d="M184.2,295.7c2,0,4,0,6,0c0.3,3.6-2.1,5.7-4.9,7.1c-0.7,0.3-1.1,0.3-1.1-0.7
		C184.2,300,184.2,297.9,184.2,295.7z"/>
</g>
</svg>
