<?xml version="1.0" encoding="utf-8"?>
<!-- Generator: Adobe Illustrator 25.2.3, SVG Export Plug-In . SVG Version: 6.00 Build 0)  -->
<svg version="1.1" id="Layer_1" xmlns="http://www.w3.org/2000/svg" xmlns:xlink="http://www.w3.org/1999/xlink" x="0px" y="0px"
	 viewBox="0 0 288 288" style="enable-background:new 0 0 288 288;" xml:space="preserve">
<style type="text/css">
	.st0{fill:url(#SVGID_1_);}
	.st1{fill:#580F10;}
	.st2{fill:url(#SVGID_2_);}
</style>
<g>
	
		<image style="overflow:visible;opacity:0.25;" width="245" height="268" xlink:href="7F1DA8BB.png"  transform="matrix(1 0 0 1 24.6528 10.5598)">
	</image>
	<g>
		<linearGradient id="SVGID_1_" gradientUnits="userSpaceOnUse" x1="141.2047" y1="82.7475" x2="226.9634" y2="82.7475">
			<stop  offset="0" style="stop-color:#ECAE2B"/>
			<stop  offset="1" style="stop-color:#BA872C"/>
		</linearGradient>
		<path class="st0" d="M213.1,139.5C191.9,93.6,227,51.2,227,51.2L199.7,26c-24.5,25.9-58.5,23.2-58.5,23.2v90.3H213.1z"/>
		<path class="st1" d="M83,26.5l-27.2,25c0,0,35,42.2,13.9,88h71.6V50.2h0C141.2,50.2,107.5,52.3,83,26.5z"/>
		<path class="st1" d="M141.2,252.9c6-16.6,18.7-25.2,39.2-30.5c20.6-5.3,22.6-18.6,22.6-18.6l8.6,4l29.9-33.1
			c-14.1-11.6-23.1-24.3-28.5-35.1h-71.9V252.9z"/>
		<linearGradient id="SVGID_2_" gradientUnits="userSpaceOnUse" x1="41.186" y1="196.1964" x2="141.2889" y2="196.1964">
			<stop  offset="0" style="stop-color:#BA872C"/>
			<stop  offset="1" style="stop-color:#ECAE2B"/>
		</linearGradient>
		<path class="st2" d="M69.6,139.5c-5.4,10.9-14.4,23.6-28.5,35.1L71,207.8l8.6-4c0,0,2,13.3,22.6,18.6
			c20.6,5.3,33.8,13.9,39.1,30.5l-0.1,0V139.5H69.6z"/>
		<g>
			
				<image style="overflow:visible;" width="926" height="1024" xlink:href="7F1DA8B9.png"  transform="matrix(0.24 0 0 0.24 30.24 15.36)">
			</image>
		</g>
	</g>
</g>
</svg>
