<?xml version="1.0" encoding="utf-8"?>
<!-- Generator: Adobe Illustrator 25.3.1, SVG Export Plug-In . SVG Version: 6.00 Build 0)  -->
<svg version="1.1" id="harry_x5F_pre_x5F_sort_xA0_Image_1_"
	 xmlns="http://www.w3.org/2000/svg" xmlns:xlink="http://www.w3.org/1999/xlink" x="0px" y="0px" viewBox="0 0 292.3 439.2"
	 style="enable-background:new 0 0 292.3 439.2;" xml:space="preserve">
<style type="text/css">
	.st0{fill:#592F00;}
	.st1{fill:#340A06;}
	.st2{fill:#82623F;}
	.st3{fill:#F2EFEB;}
	.st4{fill:#F4F1EF;}
	.st5{fill:#A69078;}
	.st6{fill:#A48D74;}
	.st7{fill:#C9BCAC;}
	.st8{fill:#CBBEB0;}
	.st9{fill:#FAD7B5;}
	.st10{fill:#441100;}
	.st11{fill:#C26719;}
	.st12{fill:#4D2200;}
	.st13{fill:#F7F5F3;}
	.st14{fill:#471503;}
	.st15{fill:#80572C;}
	.st16{fill:#A47E55;}
	.st17{fill:#A2A2A4;}
	.st18{fill:#192524;}
	.st19{fill:#2F0400;}
	.st20{fill:#C47B15;}
	.st21{fill:#F9D6B5;}
	.st22{fill:#FEFEFE;}
	.st23{fill:#FEEAC6;}
	.st24{fill:#D2D2D3;}
	.st25{fill:#7B7B7B;}
	.st26{fill:#F5C69E;}
	.st27{fill:#C47B16;}
	.st28{fill:#C16619;}
	.st29{fill:#051517;}
	.st30{fill:#E3E3E4;}
	.st31{fill:#DFDFE0;}
	.st32{fill:#211917;}
	.st33{fill:#7A7A7A;}
	.st34{fill:#EEEEEE;}
	.st35{fill:#222222;}
	.st36{fill:#D4DFE3;}
	.st37{fill:#BCB7B6;}
	.st38{fill:#BFBAB8;}
	.st39{fill:#FCFCFC;}
	.st40{fill:#898989;}
	.st41{fill:#898988;}
	.st42{fill:#A1A1A1;}
	.st43{fill:none;stroke:#592F00;stroke-width:6;stroke-linecap:round;stroke-miterlimit:10;}
</style>
<g>
	<path class="st0" d="M0,153.1c0-0.1,0-0.2,0-0.2c0.2-0.7,0.2-1.4,0-2.2c0-0.1,0-0.2,0-0.2c0.2-0.5,0.1-1,0.3-1.5
		c0.2-0.9,0.6-1.8,1.4-2.5c2.6-2,4.4-4.7,5.9-7.6c2.4-4.7,4.4-9.5,6.3-14.4c3.2-8,5.9-16.3,9.5-24.2c2.9-6.3,5.9-12.4,9.9-18.1
		c0.7-1,0.6-1-0.4-1.7c-2.5-1.7-4.7-3.7-5.3-6.8c-0.6-3.2,0.4-5.9,2.9-8c2.3-2,5-3.3,7.5-5c1.2-0.8,2.4-1.7,3.5-2.7
		c2.7-2.8,5.5-5.5,8.1-8.3c3.2-3.4,6.7-6.6,10.2-9.8c4.4-4,9-7.8,13.8-11.4c6.7-5,13.7-9.4,21.1-13.3C106.5,9,118.9,4.6,132,2.1
		c5.1-1,10.3-1.7,15.6-1.8c0.5,0,1-0.2,1.6-0.1c0.7,0,1.5,0,2.2,0c0.5,0,1,0,1.5,0c0.7,0,1.3,0,2,0c2.5,0,5,0,7.5,0c0.7,0,1.3,0,2,0
		c0.5,0,1,0,1.5,0c0.7,0,1.5,0,2.2,0c12,0.4,23.7,2.6,35.2,6.1c6.2,1.9,12.1,4.3,17.9,7.2c8.5,4.2,16.3,9.4,23.5,15.6
		c7.5,6.5,14.1,13.9,19.4,22.2c4.4,6.9,8.1,14.2,10.5,22c3.2,10.2,6.9,20.1,11.4,29.8c1.8,3.8,3.5,7.5,5,11.4c0.8,2.3,1.3,4.6,1.5,7
		c0,2.3,0,4.6,0,7c-0.3,1.8-0.5,3.5-1.1,5.2c-1.5,3.9-4,6.9-7.6,9c-0.9,0.5-1.2,1.1-1,2.1c1.4,7.5,1.9,15,1.6,22.6
		c-0.4,8.8-2.6,17-7,24.7c-1.9,3.4-4,6.5-6.7,9.3c-0.7,0.8-1.5,1.4-2.4,1.9c-2.4,1.4-3.9-0.2-4.4-2c-0.4-1.3-0.5-2.7-0.7-4
		c-0.1-0.5,0.1-1.1-0.1-1.6c-0.5,0.3-0.8,0.6-1.2,0.9c-4.8,4.1-10,7.6-16.4,8.7c-1.9-0.1-3.8-0.3-5.4-1.4c-2.6-1.6-3.2-4.2-3.3-7
		c-0.2-4.9,1-9.6,2.4-14.2c0.4-1.1,0.9-2.2,1-3.4c-0.6-0.1-0.9,0.3-1.2,0.5c-2.6,1.8-5.3,3.4-8.3,4.6c-1.6,0.6-3.2,1.1-4.9,1.1
		c-2.9,0.1-5-1.1-6.3-3.7c-1.5-2.9-2.3-6-2.9-9.1c-0.7-4.2-1.1-8.5-1.3-13c-0.8,1.3-1.6,2.4-2.4,3.5c-2.9,4.1-6.3,7.8-10.3,10.8
		c-1.6,1.2-3.5,2.2-5.4,2.8c-4.5,1.4-8.6-0.1-11.1-4.1c-0.4-0.6-0.7-1.3-1.1-2.1c0.1,2.9,0.1,5.7-0.5,8.5c-0.3,1.5-0.7,3-1.5,4.3
		c-0.6,0.9-1.4,1.4-2.5,1.6c-1.4,0.2-2.9,0.3-4.3,0.2c-0.9,0-1.8,0-2.7,0.2c-1.6-0.6-3.4-0.6-5.1-1c-8.3-2.1-15.2-6.6-21.4-12.5
		c-6.8-6.6-12.3-14.2-16.8-22.6c-0.2-0.3-0.3-0.6-0.5-1c-0.1,0.3,0.1,0.5,0.2,0.7c0.5,2.8,0.6,5.7,0.9,8.6c0.5,5.3,0.9,10.6,1.1,16
		c0,0.6,0,1.2-0.1,1.8c-0.3,2.7-0.2,5.4,0,8c0.3,1.6-0.1,3-0.7,4.4c-1.4,1.9-3.2,2.6-5.5,2c-1.5-0.4-3-0.9-4.4-1.6
		c-4.2-2.1-8-4.6-11.8-7.3c-4.1-2.9-7.3-6.8-10.1-10.9c-2.5-3.6-4.8-7.3-6.9-11.2c-0.5-0.9-1.1-1.1-2.1-1.1c-0.9,0-0.9,0-1.1-0.6
		c0.6-0.4,1.3-0.1,1.9-0.3c-0.5-1.3-1.2-2.6-1.9-3.8c-0.3-0.6-0.9-0.7-1.5-0.7c-1.1-0.1-2.1,0.3-3.2-0.3c0.1-0.8,0.7-0.5,1.2-0.6
		c0.8-0.1,1.9,0.4,2.3-0.3c0.4-0.6-0.5-1.4-0.8-2.1c-1.3-3-2.7-5.9-4-8.9c-0.7,4-1.5,8.1-1.3,12.2c-0.5,1.9-0.3,3.7,0.4,5.4
		c-0.6,1.3-0.2,2.7-0.1,4c0.2,2.9,0.9,5.8,0.8,8.8c0,4.6-4.8,7.7-9,5.8c-1.6-0.7-2.9-1.8-4-3.2c-1.5-1.9-2.8-4-3.7-6.3
		c-0.2-0.6-0.5-1.2-0.9-1.7c-0.2-0.5,0-1.1-0.4-1.6c0,0.8-0.1,1.6-0.1,2.4c-0.6,8.1-1,16.3-0.8,24.4c0.1,3.4,0.5,6.8,0.4,10.2
		c0,3.4-0.1,6.8-1.3,10.1c-0.6,1.7-1.4,3.3-3.1,4.3c-2.4,1.1-4.7,0.5-6.8-0.8c-0.6-0.3-1.1-0.8-1.7-1.1c-4.4-3.8-8.3-8-11.6-12.7
		c-0.2,2.7-0.5,5.4-1.6,7.9c-0.8,1.8-1.8,2.3-3.6,2c-0.6-0.2-0.8-0.8-0.9-1.3c-1.3-3.6-2.6-7.3-3.9-10.9c-0.4-1.2-0.8-2.3-1.5-3.4
		c-0.4-0.6-1-0.9-1.7-0.7c-0.8,0.3-1,0.9-0.9,1.6c0.1,0.8,0.4,1.6,0.6,2.4c0.1,0.4,0.3,0.8,0.2,1.3c-0.1,0.2-0.2,0.3-0.5,0.2
		c-0.6-0.4-0.8-1.1-1.1-1.7c-3.2-7.3-5.1-15-5.9-23c-0.4-3.4-0.5-6.8-0.4-10.3c0-1.7,0.3-3.4,0.4-5.2c-3.6,2.2-7.4,1.8-11.3,1.3
		c-1.6-0.2-3.1-0.9-4.4-1.8C1.3,157.6,0.3,155.6,0,153.1z"/>
	<path class="st1" d="M194.2,439c0,0.1,0,0.1-0.1,0.2c-10.6,0-21.3,0-31.9,0c0-0.1,0-0.2,0-0.2c0.4-0.4,1-0.4,1.6-0.4
		c9.6,0,19.2,0,28.8,0C193.2,438.6,193.8,438.5,194.2,439z"/>
	<path class="st2" d="M162.3,0.2c-2.6,0-5.1,0-7.7,0c-0.1-0.1-0.1-0.1-0.1-0.2l0.1-0.1c2.6,0,5.1,0,7.7,0
		C162.3,0.1,162.3,0.1,162.3,0.2L162.3,0.2z"/>
	<path class="st3" d="M168,0c0,0.1,0,0.2,0,0.2c-0.8,0-1.6,0-2.4-0.1c-0.1,0-0.1-0.1-0.1-0.1l0.1-0.1C166.4,0,167.2,0,168,0z"/>
	<path class="st4" d="M148.8,0.3c0-0.1,0-0.2,0-0.2c0.8,0,1.6,0,2.4,0c0.1,0.1,0.1,0.1,0.1,0.1l-0.1,0.1
		C150.4,0.2,149.6,0.3,148.8,0.3z"/>
	<path class="st5" d="M0,150.7c0.4,0.7,0.4,1.4,0,2.2C0,152.2,0,151.4,0,150.7z"/>
	<path class="st6" d="M162.3,0.2c0-0.1,0-0.1,0-0.2c0.6,0,1.3,0,1.9,0c0.1,0,0.1,0.1,0.1,0.1s0,0.1-0.1,0.1
		C163.5,0.2,162.9,0.2,162.3,0.2z"/>
	<path class="st5" d="M154.6,0c0,0.1,0,0.1,0,0.2c-0.6,0-1.3,0-1.9,0c-0.1-0.1-0.1-0.1-0.1-0.1l0.1-0.1C153.3,0,153.9,0,154.6,0z"/>
	<path class="st7" d="M164.2,0.2c0-0.1,0-0.1,0-0.2c0.5,0,1,0,1.4,0c0,0.1,0,0.1,0,0.2C165.1,0.2,164.7,0.2,164.2,0.2z"/>
	<path class="st8" d="M152.6,0c0,0.1,0,0.1,0,0.2c-0.5,0-1,0-1.4,0c0-0.1,0-0.1,0-0.2C151.7,0,152.2,0,152.6,0z"/>
	<path class="st9" d="M268,203c-0.3,0.4-0.2,0.9-0.2,1.4c0.3,5.2-2,9.3-5.1,13.2c-2.5,3-5.4,5.5-9.1,6.7c-3.9,1.3-8,1.3-12.1,0.9
		c-1-0.1-2-0.2-2.9-0.4c-0.5-0.1-0.7,0.2-1,0.5c-6.4,7.3-13.9,13.3-22.3,18c-6.7,3.7-13.7,6.6-21,8.8c-0.2,0.1-0.4,0.3-0.6,0.4
		c-0.7,0.5-1.5,0.6-2.2,0.8c-4.7,1.2-9.4,2.3-14.2,3.2c-5.6,0.9-11.2,1.5-16.9,2c-7.5,0.6-15,0.4-22.5,0.4c-0.8,0-1.4,0.2-2,0.7
		c-0.5-0.7-1.2-0.9-2.1-0.9c-4.5-0.3-9.1-0.6-13.6-1.3c-3.7-0.6-7.3-1.1-11-1.8c-11.3-2.3-22.1-5.8-32.2-11.3
		c-6.1-3.3-11.8-7.2-16.9-11.9c-1.6-1.5-3.2-3-4.7-4.6c-0.5-0.5-0.9-0.6-1.5-0.3c-3.7,1.3-7.4,1.3-11.1,0.3c-0.7-0.2-1.3-0.4-2-0.3
		c-0.4-0.2-0.5-0.6-0.7-0.9c-1.8-5-3.6-9.9-5.4-14.9c-0.2-0.4-0.6-0.9,0.1-1.3c1.6,0.3,2.4-0.1,3.2-1.7c0.9-1.7,1.2-3.5,1.4-5.4
		c0.1-1.1,0.2-2.1,0.3-3.2c0.3-0.1,0.4,0.2,0.5,0.4c3.2,4.3,6.7,8.4,10.8,11.9c0.2,0.2,0.4,0.5,0.6,0.7c0.4,0.3,0.7,0.7,0.9,1.1
		c5.2,8.3,12.7,13.5,22.1,15.9c10.2,2.6,20.1,1.7,29.7-2.6c6.8-3,12.4-7.5,16.5-13.8c3.1-4.8,4.9-10.1,5.3-15.9
		c0-0.5,0.1-0.9,0.2-1.4c0.2-2.1,0.2-2.1,2.4-2.5c5.2-0.8,10.5-1.4,15.7-1.3c0.5,0,1,0,1.4,0.1c0.8,0.2,1.6,0.2,2.4,0
		c3-0.3,6.1,0,9.1,0.2c2.9,0.2,5.7,0.6,8.6,1.1c2,0.3,2.2,0.5,2.3,2.5c0.4,4.5,1.4,8.8,3.1,13c3.5,8.3,9.3,14.3,17.4,18.1
		c6.6,3.1,13.5,4.3,20.7,3.8c9.4-0.7,17.8-4.2,25-10.5c4.3-3.8,7.5-8.5,9.8-13.7c0.3-0.6,0.4-1.3,1-1.7c0.2-0.2,0.3-0.4,0.6-0.5
		c5.3-0.8,9.6-3.7,13.7-6.9c0.7-0.5,1.3-1,2-1.5c0.6,0,1.2,0.3,1.7,0.7c0.2,1.3,0.3,2.7,0.7,4C264.7,203.4,265.8,203.9,268,203z"/>
	<path class="st9" d="M88.8,157.5l0.1,0.1c2.3-0.3,3.3,1.1,4.4,3c3.2,5.9,6.8,11.5,11.4,16.4c2.5,2.7,5.5,4.7,8.6,6.7
		c2.5,1.6,5.1,3.2,7.7,4.6c0.2,0.2,0.3,0.5,0.3,0.8c1.1,10.5-1.2,19.9-9,27.4c-5.6,5.4-12.5,8.3-20.2,9.6
		c-6.6,1.1-13.1,0.5-19.4-1.7c-4.5-1.6-8.4-4.1-11.8-7.4c-0.5-0.5-1.1-1-1.2-1.8c3.3-2.6,3.7-6.3,4.1-10.1
		c0.6-5.8-0.2-11.6-0.3-17.5c0-6.1,0.2-12.1,0.7-18.2c0.1-1.2-0.1-2.5,0.4-3.7c0.1-0.3,0.3-0.5,0.7-0.5c0.7-0.1,0.6,0.5,0.8,0.8
		c1.1,2.5,2.3,4.9,4,7c0.9,1.1,1.9,2.1,3.2,2.8c2.4,1.3,4.7,1,6.9-0.3c2-1.2,2.5-3.2,2.3-5.3c-0.3-3.7-0.7-7.3-1.1-11
		c-0.1-0.6-0.2-1.2,0.7-1.3c0.2-0.2,0.4-0.3,0.7-0.4c1.6-0.4,3.3-0.2,5-0.5C88.1,157.1,88.5,157.2,88.8,157.5z"/>
	<path class="st9" d="M173.3,185.6c0.2-0.7,0.7-0.5,1.2-0.5c1.8,0.1,3.6-0.1,5.4-0.2c1.6-0.1,2.6-1,3.2-2.4c1.1-2.3,1.3-4.8,1.5-7.2
		c0.1-1.8,0-3.6,0-5.5c0.6,0.2,0.6,0.6,0.7,0.9c2.4,5.8,7.5,7.8,13.2,5.4c3.7-1.6,6.6-4.2,9.3-7.1c2.7-2.8,5-6,7.1-9.2
		c0.2-0.3,0.3-0.5,0.7-1c0.1,2,0.2,3.7,0.3,5.5c0.4,4.7,1,9.5,2.4,14c0.5,1.5,1.1,2.8,1.9,4.1c1.3,2.1,3.3,2.9,5.7,2.8
		c2.8-0.2,5.3-1.2,7.8-2.5c2-1.1,3.9-2.3,5.8-3.6c0.3-0.2,0.5-0.7,0.9-0.4s0.2,0.8,0.1,1.2c-1,2.9-1.9,5.8-2.6,8.8
		c-0.7,3.2-1.2,6.4-0.7,9.6c0.3,2.2,1.2,4.1,3,5.4c0.2,0.7-0.2,1.2-0.4,1.8c-3.7,8.2-9.9,14-18.1,17.6c-5,2.2-10.3,3.3-15.7,3.2
		c-7.8-0.2-14.9-2.3-21-7.2c-4.6-3.7-7.7-8.6-9.6-14.2c-2-5.9-2.3-12.1-2.1-18.2C173,186.3,172.9,185.9,173.3,185.6z"/>
	<path class="st10" d="M173.3,185.6c-0.2,5-0.1,10.1,0.9,15c2.9,14.2,13.1,23.6,27.6,25.1c13,1.4,24-2.8,32.7-12.6
		c2.4-2.7,4-6,5.5-9.4c1.6,0.7,3.2,1.3,5,1.1c0.3,0,0.3,0.2,0.3,0.4c-2.4,6.7-6.3,12.4-11.9,16.9c-8.5,6.8-18.2,10-29.1,9.4
		c-8.5-0.5-16.3-3-23-8.5c-7.8-6.3-11.6-14.7-13-24.4c-0.2-1.1-0.3-2.3-0.4-3.5c0-0.6-0.2-0.8-0.8-0.9c-6.2-1-12.4-1.7-18.7-1.6
		c-0.8,0.2-1.6,0.2-2.4,0c-6.2-0.1-12.3,0.5-18.4,1.5c-0.7,0.1-0.8,0.5-0.9,1.1c-0.3,10-4,18.5-11.4,25.3
		c-5.9,5.4-12.8,8.7-20.6,10.2c-10.8,2-21.1,0.7-30.6-4.9c-5.3-3.2-9.5-7.4-12.5-12.9c1.3,0.5,2.3,1.5,3.6,2
		c1.4,0.4,2.7,0.7,4.1,0.1c0.1-0.1,0.3,0.1,0.5,0.1c10.3,11.7,28.4,13.9,42.4,7.5c9-4,15.3-10.4,17.9-20.1c1.1-4.1,1.2-8.2,0.9-12.4
		c0-0.6-0.1-1.3-0.1-1.9c1.2,0.5,2.4,1,3.7,1.5c2.4,0.8,4.4,0.4,6-1.5c0.1-0.1,0.2-0.1,0.3-0.2c0.5-0.1,1-0.1,1.5-0.4
		c2.2-0.5,4.4-0.6,6.7-0.7c8.9-0.5,17.9-0.2,26.7,1.2c1.5,0.2,1.5,0.1,1.6-1.4c0-0.8-0.1-1.7,0.6-2.4c1.5,0.2,3,0.5,4.6,0.7
		C172.9,185.1,173.3,185.1,173.3,185.6z"/>
	<path class="st9" d="M168,184.3c-0.2,1.1-0.3,2.3-0.3,3.5c0,0.7-0.2,1-1,0.8c-6.9-1.2-14-1.6-21-1.6c-4.5,0-9,0.2-13.5,0.9
		c-0.5,0.3-1,0-1.5,0.2h-0.1h-0.1c0.4-1.4,0.9-2.8,0.7-4.3c-0.1-1.7,0-3.4,0-5.1c0-1-0.4-2,0-3.1c0-5-0.5-9.9-0.9-14.8
		c-0.3-4-0.7-8-1.1-12c-0.1-0.3-0.4-0.6,0.2-0.7c5.9,11.2,13.3,21.3,23.5,28.9c4.3,3.2,8.9,5.6,14.1,6.9
		C167.5,184.1,167.8,184.1,168,184.3z"/>
	<path class="st11" d="M34.8,210.1c-0.2,0.2-0.1,0.3-0.1,0.5c2,5.5,4,11.1,6,16.6c0.5,0.3,0.6,0.9,0.8,1.4
		c4.2,11.7,8.5,23.4,12.7,35.1c0.9,2.4,1.7,4.8,2.6,7.2c0.2,0.5,0.4,1,0.4,1.6c-0.1,0.3-0.4,0.5-0.7,0.6c-1.6,0.6-3.2,1.1-4.8,1.6
		c-0.4,0.1-0.9,0.3-1.1-0.3c-1.8-5.5-3.6-11-5.3-16.5c-3.8-11.8-7.6-23.7-11.4-35.5c-0.1-0.3-0.2-0.5-0.3-0.8
		c-0.3-0.4-0.5-1-0.7-1.5c-1-3.3-2.4-6.4-2.9-9.8c-1.1-3.2-1.8-6.5-3.3-9.6c0-0.5-0.4-0.9-0.3-1.5c-0.3-1.1-0.6-2.1-0.9-3.2
		c-0.2-1-0.3-1.9,0.9-2.4c1-0.4,1.8-0.1,2.5,1.2c0.4,0.8,0.8,1.7,1.1,2.6c1.4,3.9,2.8,7.7,4.1,11.6
		C34.3,209.5,34.4,209.9,34.8,210.1z"/>
	<path class="st9" d="M81.6,152.4c-0.3-0.1-0.3-0.4-0.3-0.7c0.1-4.2,0.6-8.3,1.5-12.5c1.9,4.2,3.7,8.4,5.8,12.6
		c-1.5,0.2-3-0.1-4.4,0.3C83.4,152.6,82.5,152.8,81.6,152.4z"/>
	<path class="st10" d="M81.6,152.4c0.9-0.2,1.7-0.3,2.6-0.3c1.2,0,2.5,0,3.7,0c0.4,0,0.8-0.1,1.1,0.4c0.8,1.6,1.6,3.2,2.5,4.9
		c-1,0-1.9,0-2.7,0c-2.2,0-4.4,0.2-6.6,0.5c-0.3-0.1-0.7,0-0.7-0.4c-0.1-1.5-0.2-2.9-0.3-4.4C81.1,152.8,81.4,152.7,81.6,152.4z"/>
	<path class="st12" d="M131.3,175.7c0.2,2.7,0.3,5.5,0,8.2c-0.3-0.2-0.3-0.6-0.3-0.9c0-2.1,0-4.3,0-6.4
		C131,176.2,131,175.9,131.3,175.7z"/>
	<path class="st13" d="M263.3,197c-0.6,0-1.2-0.3-1.7-0.7c0.5-0.5,1-0.9,1.7-1.6C263.3,195.7,263.3,196.4,263.3,197z"/>
	<path class="st14" d="M65.3,165.1c-0.2,0.2-0.4,0.3-0.7,0.5c-0.1-0.9-0.1-1.8,0.2-2.8C65.1,163.6,65.8,164.2,65.3,165.1z"/>
	<path class="st15" d="M26.5,199.4c0.2,0.5,0.6,0.9,0.3,1.5c-0.2-0.4-0.4-0.8-0.6-1.2C26.3,199.6,26.4,199.5,26.5,199.4z"/>
	<path class="st16" d="M129.6,148.1c-0.3,0.2-0.1,0.5-0.2,0.7c-0.2-0.2-0.2-0.5-0.2-0.8c0-0.1,0-0.4,0.2-0.3
		C129.5,147.8,129.5,148,129.6,148.1z"/>
	<path d="M113.1,402.5c-0.4,1.4-0.9,2.7-1.2,4.1c-0.2,1.1-0.8,1.2-1.8,1c-2.3-0.5-4.5-1.3-6.6-2.3c-2.7-1.3-5.1-2.9-7.3-4.9
		c-1.7-1.5-1.8-1.8-0.8-3.8c2.6-5.5,5.4-10.9,7.7-16.5c5.7-13.6,9.7-27.7,12.5-42.2c1.4-7.4,2.5-14.8,3.5-22.2
		c0.1-0.5,0.1-1,0.1-1.4c-0.2-0.2-0.3-0.1-0.5,0c-6,5.4-12.7,9.7-19.5,13.8c-4.7,2.8-8.6,6.6-12.8,10c-4.5,3.7-9.1,7.1-14,10.3
		c-0.6-0.5,0-0.9,0.2-1.2c1.1-1.6,2.2-3.3,3.2-5.1c3.3-5.9,5.2-12.2,6.1-18.9c0.4-3.2,0.6-6.4,0.5-9.7c-0.2-4.5-0.6-9.1-1.7-13.5
		c-0.1-0.4-0.1-0.7-0.2-1.1c-0.1-2.9,0.2-5.7-0.2-8.6c-0.4-3.5-1.9-6.4-4.5-8.8c-0.5-0.5-1.5-1-1.2-1.8c0.3-0.7,1.3-0.3,2-0.4
		c0.4,0,0.7,0,1.1-0.2c2.3-0.2,4.5-0.1,6.8-0.3c5.7-0.5,11.3-1.3,16.7-3c6.7-2.1,13-5.2,18.9-9c0.3-0.2,0.5-0.4,0.9-0.4
		c1.4,0.1,2.4,0.7,3.1,2.1c2.1,3.9,3.2,7.9,3.8,12.3c1.1,8.4,2.2,16.8,3.4,25.2c0,0.1,0,0.3-0.1,0.4c-0.2,0.7-0.1,1.5-0.1,2.2
		c0,4.8-0.6,9.6-1.1,14.4c-0.3,2.9-0.5,5.7-0.9,8.6c-0.3,1.4-0.2,2.8-0.4,4.1c-0.2,0.7-0.2,1.5-0.3,2.2c-0.5,3.4-1,6.9-1.4,10.3
		c-0.6,4.2-1.5,8.4-2.3,12.6c-1.5,7-3.2,14-5.1,21c-1.7,6.2-3.5,12.4-5.3,18.6C113.8,401.3,113.7,402,113.1,402.5z"/>
	<path class="st17" d="M124.1,361.1c0.6-3,1.1-6.1,1.7-9.2c0.8-4.5,1.4-9,1.9-13.5c0-0.2,0.1-0.3,0.2-0.4c0.6,0.6,1.4,0.8,2.3,0.9
		c6,0.6,12,1,18,1.3c4.6,0.2,9.2,0.3,13.8,0.1c5.8-0.2,11.6-0.5,17.3-1.8c0.2,0,0.3,0,0.5,0c0.5,0.4,0.6,1,0.6,1.6
		c0.5,7.9,1.5,15.7,2.9,23.5c0.1,1.2-0.4,2-1.3,2.6c-1.2,0.8-1.6,1.8-1.3,3.3c2.4,11.9,4.5,23.8,7.4,35.6c0.1,0.5,0.3,0.9,0.2,1.4
		c0.2,2.1,1.2,4,1.9,6c1,2.7,2,5.5,2.4,8.4c-0.4,0.1-0.6-0.2-0.8-0.4c-3.1-3.3-7.1-4.6-11.5-4.8c-3.3-0.1-6.5,0.1-9.5,1.4
		c-1.4,0.6-2.7,1.3-3.9,2.3c-0.3,0.3-0.6,0.6-1.1,0.4c0.2-2.2,0.4-4.3,0.5-6.5c0.1-1.2,0.1-2.4,0.2-3.6c0-0.6-0.3-0.7-0.8-0.8
		c0.6-1.6,0.5-3.2,0.3-4.9c-0.8-8.6-1.6-17.3-2.5-25.9c-0.1-0.5,0-1-0.1-1.6c-0.2-1.2-0.3-1.4-1.4-1.2c-3.3,0.6-6.7,0.5-10,0.5
		c-0.6,0-1.2,0-1.8-0.1c-1.6-0.2-1.8-0.1-1.9,1.4c-0.4,3.7-0.9,7.4-1.3,11.1c-0.6,5.6-1.2,11.2-1.9,16.8c-0.1,1,0,2.1-0.4,3.1
		c-0.6,1.6-0.5,3.4-0.7,5.1c-0.2,2.4-0.1,4.9-1.2,7.1c-0.1,0.3,0,0.6,0,0.9c0,4.1,0,8.2,0,12.3c0,0.4,0.1,0.9-0.2,1.3
		c-0.5-0.4-0.4-0.9-0.4-1.5c0-3.6,0-7.3,0-10.9c0-1.4-0.1-1.5-1.4-1.2c-3.9,0.9-7.8,0.8-11.7,0.6c-4.4-0.3-8.7-1.1-13-2.2
		c-0.4-0.1-0.9-0.1-1.2-0.5c1.3-2.2,2.9-4.4,4-6.7c1.1-2.3,2.3-4.6,3.2-7.1c0.1-0.3,0.2-0.5,0-0.8c1.5-4.2,2.6-8.5,3.6-12.8
		c1.7-7.4,3.1-14.8,4.4-22.2c0.2-0.9-0.1-1.5-0.8-2.1c-1.8-1.5-3.2-3.3-4.5-5.2C124.3,362,124.2,361.6,124.1,361.1z"/>
	<path class="st9" d="M77.5,279.6c-1,0.3-2,0-3,0.2c0.6,0.7,1.2,1.3,1.8,1.9c3.3,3.3,4.5,7.4,4.5,11.9c0,1.8-0.1,3.6-0.1,5.4
		c-0.3,0.8,0.2,1.6,0,2.4c-1.1,5.1-4.5,8.5-8.8,11.1c-0.2,0.1-0.5,0.2-0.8,0.1c-0.2-0.2-0.2-0.5-0.3-0.8c0-0.2,0.1-0.5-0.3-0.8
		c-1.9,1.7-4.2,2.7-6.9,2.5c0,0.5,0.8,0.9,0.2,1.5c-0.2,0.1-0.3,0.2-0.5,0.2c-1.1,0-2.2,0-3.3,0c-3.7-0.3-6.7-1.8-9.1-4.6
		c-0.7-1.5-1.8-2.8-2.5-4.4c-2.2-4.7-3.5-9.5-3.1-14.7c0.3-3.2,1.5-6.1,3.7-8.5c0.5-0.6,1.2-0.9,1.4-1.7c0.9,0.3,1.9,0.5,2.9,0.4
		c0.7,0.5,0.8,1.3,1.1,2.1c0.3,0.8,0.6,0.9,1.3,0.4c1.2-0.9,2.5-1.6,4.2-1.4c-0.1-1.1-0.8-2-0.6-3.2c1.1-0.5,1.9-1.2,1.6-2.6
		c0-0.2,0.1-0.3,0.3-0.3c3.3-0.1,6.6,0.2,9.7,1.4c1.9,0.7,3.8,1.5,5.9,1.3C77,279.2,77.3,279.3,77.5,279.6z"/>
	<path class="st18" d="M50.9,310.6c0.3,0,0.4,0.2,0.6,0.3c2.3,2.4,5.1,3.7,8.4,4.1c0,0.1,0,0.2,0,0.2c1.2-0.1,2.3-0.2,3.4,0
		c0-0.1,0-0.2,0-0.2c0.2,0,0.4-0.1,0.6-0.1c0.7-0.2,1.1,0.2,1.7,0.4c0.2,0.2,0.3,0.5,0.4,0.7c0.7,1.8,2.4,2.1,3.8,0.9
		c0.5-0.5,0.8-1.1,0.6-1.8c-0.1-0.4-0.3-0.8-0.2-1.3c0.2-0.5,0.3-1,0.9-1.2c4.6-2.5,8.1-5.8,9.3-11.2c0.2-0.8,0.2-1.6,0.3-2.3
		c0.7,3.1,1.3,6.2,1.6,9.4c0.3,3.7,0.5,7.4,0.2,11.1c-0.3,3.6-0.7,7.2-1.6,10.7c-1.5,6.1-4.1,11.7-7.8,16.8
		c-0.3,0.4-0.9,0.8-0.8,1.5c-4,3.2-8.9,2.7-12.3-1.1c-3-3.4-4.5-7.5-5.7-11.7c-1.9-6.7-2.6-13.5-3.1-20.4
		C51,313.7,51,312.1,50.9,310.6z"/>
	<path class="st18" d="M144.5,408.2c-0.4-1,0-2.1,0.1-3.1c0.9-8.4,1.9-16.8,2.8-25.2c0.1-1.2,0.4-2.4,0.4-3.6c0-1,0.4-1.1,1.3-1
		c3.5,0.4,7.1,0.4,10.6,0c0.9-0.1,1.8-0.2,2.7-0.4c0.8-0.2,1.1,0,1.1,0.8c0.3,3.6,0.7,7.2,1.1,10.8c0.5,5.6,1.1,11.2,1.6,16.8
		c0.1,1.4,0.1,2.9,0.2,4.3c0.1,0.7-0.2,1-0.8,1.2C158.5,409.1,151.5,408.8,144.5,408.2z"/>
	<path class="st10" d="M165.6,419.8c5.8-4.6,12.3-5.3,19.3-3.6c3,0.7,5.5,2.4,7.5,4.8c2.7,4,3.3,8.5,2.7,13.2
		c-0.6,0.5-1.4,0.4-2.1,0.4c-9.7,0-19.5,0-29.2,0c-0.8,0-1.7,0-2.4,0.6c-0.9-5.5-0.2-10.6,3.8-14.9
		C165.4,420.1,165.5,419.9,165.6,419.8z"/>
	<path class="st10" d="M114.7,419.2c2.8,0.3,5.4,1.2,8.2,1.6c5.5,0.8,10.9,1.2,16.4,0.4c1-0.1,1.9-0.5,2.9-0.7c0,4.3,0,8.6,0,12.9
		c-0.5,0.4-1,0.4-1.6,0.4c-12.5,0-25.1,0-37.6,0c-0.6,0-1.1,0.1-1.6-0.4C101.7,425.7,107.2,419.9,114.7,419.2z"/>
	<path class="st18" d="M124.1,361.1c1.7,2.5,3.5,4.9,5.8,6.8c0.6,0.5,0.4,1.1,0.3,1.6c-1,5.8-2,11.6-3.3,17.4
		c-1.2,5.5-2.4,11.1-4.3,16.4c-0.2,0.5-0.1,1.1-0.7,1.3c-2.9-0.7-5.9-1.4-8.8-2.1c2.4-7.8,4.6-15.6,6.7-23.5
		c1.5-5.8,2.9-11.6,4.1-17.4C123.9,361.4,124,361.3,124.1,361.1z"/>
	<path class="st19" d="M101.5,433.4c13.6,0,27.2,0,40.8,0c0,0.5,0.1,1,0.1,1.5c-0.2,2.4-1.2,3.4-3.6,3.6c-0.8,0.1-1.6,0.1-2.4,0.1
		c-10.9,0-21.7,0-32.6,0c-1.3,0-1.9-0.5-2.1-1.7C101.4,435.8,101.1,434.6,101.5,433.4z"/>
	<path class="st19" d="M161.5,435.1c-0.1-1,0.5-1,1.3-1c10.8,0,21.6,0,32.3,0c0,0.1,0,0.2,0,0.2c-0.3,0.5,0,1-0.2,1.5
		c0,1.1-0.3,2.1-0.7,3.1c-10.6,0-21.3,0-31.9,0C161.8,437.7,161.6,436.4,161.5,435.1z"/>
	<path class="st11" d="M61,276.7c0.5,1.7,0.1,2.5-1.6,2.9c-0.5,0.6-1.2,0.8-1.9,1c-1.4,0.4-2.7,1.2-4.2,1.1c-1.1,0.5-2,0.4-2.8-0.5
		c-0.4-0.9-0.4-1.7,0.4-2.4c0.2-0.3,0.4-0.6,0.7-0.7c2.4-0.8,4.7-1.8,7.1-2.4c0.2,0,0.4-0.1,0.6,0C60,275.7,60.8,275.7,61,276.7z"/>
	<path class="st20" d="M59.4,276c-3,0.6-5.7,1.8-8.5,2.9c-0.1-0.3-0.5-0.3-0.7-0.4c-0.7-0.3-1.1-0.9-1.2-1.7c0-0.7,0.3-1.3,1-1.7
		c0.3-0.2,0.6-0.2,0.7-0.6c0.2,0.1,0.4,0.2,0.6,0.1c2-0.7,4-1.2,5.9-2.1c0.8-0.7,1.6-0.7,2.4,0c0.8,0.7,1,1.9,0.5,2.8
		C59.8,275.6,59.6,275.8,59.4,276z"/>
	<path class="st21" d="M30,210.5c1.2,3.8,2.5,7.5,3.6,11.3c-1.9-1.9-2.9-4.3-3.3-6.9C30,213.4,30,212,30,210.5z"/>
	<path d="M182.9,363.8c-1.3-6.7-2.1-13.4-2.7-20.2c-0.2-1.7-0.3-3.3-0.5-5c-0.5-1-0.5-2.1-0.6-3.1c0-1-0.2-2-0.2-3
		c0.1-2.5-0.4-4.9-0.2-7.4c0-0.3-0.1-0.6-0.1-0.9c-0.2-1,0-2.1-0.1-3.1c-0.1-1.4,0.2-2.8-0.2-4.2c-0.1-2.3,0-4.5-0.1-6.8
		c0-0.7-0.1-1.3,0.2-2c0.8-0.6,1.7-0.4,2.5-0.3c3.3,0.3,6.6,0.2,9.8-0.7c1.5-0.4,1.8-1.7,0.8-2.9c-0.2-0.1-0.3-0.2-0.4-0.4
		c0-0.6,0.5-0.8,0.8-1.1c0.4-0.5,0.9-0.9,1.2-1.5c0.4-0.8,0.5-1.6-0.5-2c-0.6-0.3-0.6-0.7-0.3-1.1c0.4-0.7,1.1-1.2,1.6-1.8
		c1.6-1.7,1.6-2.5-0.3-4c-0.9-0.7-1.4-1.5-1.3-2.7c0-0.5,0.2-1,0.8-1c0.5,0,0.3,0.6,0.3,0.9c0.1,1,0.6,1.6,1.6,1.6s1.7-0.6,1.8-1.7
		c0.2-2-1.6-3.5-3.8-3.2c-1,0.1-1.8,0.6-2.7,1c-0.7,0.4-1.4,0.5-2.2,0.2c-1-0.4-1.2-1.1-0.8-2c0.6-1.3,0.3-1.8-1.1-2.1
		c-0.6-0.1-1.4-0.1-1.7-0.9c0.4-2.6,1.2-5.1,1.8-7.7c0.7-2.7,1.4-5.5,2.2-8.2c0.3-1,0.8-1.5,1.9-1.7c1.8-0.2,3.4-0.9,4.9-1.9
		c0.3-0.2,0.6-0.6,1.1-0.4c2.7,2.7,5,5.7,7.4,8.6c4.7,5.8,9.4,11.7,13.1,18.3c4.8,8.6,8,17.9,8,27.9c0,5-1.2,9.7-3.6,14.1
		c-2.3,4.2-4.7,8.4-7.6,12.3c-0.5,0.6-0.3,1,0,1.6c2.7,5.1,6.1,9.8,9,14.7c4.2,7.1,8,14.5,10.9,22.2c0.3,0.9,0.3,1.5-0.2,2.3
		c-3.5,5.3-7.4,10.2-11.9,14.7c-4.1,4.2-9.3,5.6-15,5.9c-2.2,0.1-4.5-0.1-6.7-0.3c-0.6,0-1.2-0.1-1.6-0.6c-0.7-0.2-1.2-0.6-1.6-1.2
		c-1.7-2.4-3-5.1-4.1-7.8c-3.8-9.2-7.2-18.6-9.2-28.5C182.9,366,183.1,364.9,182.9,363.8z"/>
	<path class="st18" d="M196.4,262.8c-1.9,1.5-4,2.4-6.4,2.7c-0.6,0.1-0.8,0.5-1,1c-1.5,5.4-2.9,10.8-4.2,16.2
		c-1.5-0.1-2.7,0.8-4,1.1c-0.8,0.2-0.7,1-0.3,1.7c0.4,0.9,0.2,1.5-0.6,2c-1,0.5-1.7,0.2-1.8-1c0-0.5-0.1-1-0.2-1.5
		c0-3.9-0.4-7.9-0.2-11.8c-0.1-2.6,0-5.2,0-7.9c0-0.6,0-1.1-0.2-1.6c-0.2-1.6,0-3.2-0.1-4.8c0-0.6,0-1.1-0.1-1.7
		c-0.1-0.5-0.1-0.9,0.3-1.3c4-0.9,8.1-1.6,12.1-2.7c1.4-0.4,2.7-1,4.1-1c2.8,1.4,4.2,3.6,4.2,6.8
		C197.8,260.6,197.1,261.7,196.4,262.8z"/>
	<path class="st18" d="M182.9,363.8c0.4,1.9,0.7,3.9,1.1,5.8c1.1,5.4,2.8,10.6,4.7,15.8c1.9,5.4,3.9,10.7,6.6,15.7
		c0.7,1.3,1.5,2.5,2.7,3.5c-3,0.6-6,1.2-9,1.8c-0.3,0.1-0.6,0.1-0.8,0.1c-0.9-1.5-1-3.3-1.4-4.9c-2.5-11-4.6-22.1-6.7-33.2
		c-0.1-0.6-0.1-1.1,0.5-1.5s1.1-1,1.6-1.4C182.7,365.1,183,364.6,182.9,363.8z"/>
	<path class="st10" d="M194.9,435.9c0-0.5-0.2-1,0.2-1.5C195.1,434.9,195.1,435.4,194.9,435.9z"/>
	<path class="st22" d="M177.4,256.1c0,0.4,0,0.8,0,1.2c0.3,1.9,0.1,3.7-0.8,5.6c-1.7,3.6-3.4,7.1-5.9,10.2c-1.1,1.4-2.3,2.6-4.1,3
		c-3.1,0.4-5-1.4-7-3.3c-0.3-0.3-0.6-0.6-0.8-1c-0.1-0.1-0.2-0.3-0.4-0.4c-3-3.2-5.1-7-7.4-10.9c-1.1,1.8-1.8,3.5-2.7,5.1
		c-1.5,2.5-3,5-5.1,7c-1.2,1.6-2.8,2.6-4.5,3.5c-1,0.5-2.1,0.5-3.2,0.5c-0.7,0-1.2-0.3-1.3-1.1c-0.1-2.5,0.4-4.9,0.5-7.4
		c0.2-2.5,0.3-5,0.7-7.5c0.1-0.4,0-0.9,0.4-1.2c0.2-0.7,0.4-1,1.3-1c5.6,0.1,11.3,0.2,16.9,0c7.6-0.3,15.2-1,22.8-2.3
		C177.1,256.1,177.2,256.1,177.4,256.1z"/>
	<path class="st18" d="M135.9,259.4c-0.4,5.3-0.9,10.7-1.3,16c-0.3,0.6,0.2,1.1,0.1,1.6c0,1.6-0.4,3.2-0.5,4.8
		c-0.5,5.2-1.1,10.5-1.8,15.7c-0.3,2.6-0.7,5.2-1.1,7.8c-0.1,0.4,0,1-0.6,1.1c-0.6-4.4-1.3-8.8-1.9-13.2c-0.5-3.8-1.1-7.5-1.5-11.3
		c-0.5-4.8-1.8-9.4-4.2-13.7c-0.6-1.1-1.7-1-2.6-1.4c-4-2.5-4.3-6.5-0.6-9.8c5.1,0.5,10.1,1.1,15.2,1.3
		C136.2,258.3,135.7,259,135.9,259.4z"/>
	<path class="st10" d="M151.2,221.7c0.4,0,0.9,0,1.3,0c0.8,0.1,1.3,0.6,1.4,1.4c0.1,0.8-0.2,1.7-1,1.8c-4.1,0.5-7.9-0.2-10.8-3.2
		c-2.7-2.7-3.8-6.1-2.3-9.8c1.6-4,4.9-5.7,9-6.2c2.4-0.2,4.7,0.2,6.9,1.2c1.2,0.5,1.7,1.4,1.3,2.3c-0.4,0.9-1.3,1.2-2.5,0.7
		c-2.4-1-4.8-1.4-7.4-0.5c-2.3,0.8-4.1,2.2-4.4,4.7c-0.4,2.7,0.9,4.7,3.1,6.2C147.4,221.4,149.2,221.8,151.2,221.7z"/>
	<path class="st23" d="M145.9,192.7c0.8-0.1,1.6-0.1,2.4,0C147.5,193.1,146.7,193.1,145.9,192.7z"/>
	<path class="st10" d="M94.9,189.8c0,2.4-0.7,5-2.9,7.1c-3,2.9-7.5,2.7-10.2-0.4c-3-3.4-3.4-9.5-1-13.2c2.1-3.3,7.2-4.5,10.5-2.6
		c1.2,0.7,2.1,1.7,2.6,3.1C94.6,185.6,94.9,187.5,94.9,189.8z"/>
	<path class="st10" d="M199.9,189.3c0-1.2,0.1-2.4,0.4-3.6c1.2-5.2,6.5-7.4,10.9-4.4c3.8,2.5,4.6,6.2,4.1,10.4
		c-0.6,4.9-4.4,7.8-9.2,7.3c-2.7-0.3-4.7-1.9-5.5-4.5C200.1,192.8,199.9,191,199.9,189.3z"/>
	<path class="st0" d="M130.7,188.1c0.5-0.2,1-0.2,1.5-0.2C131.8,188.3,131.2,188.1,130.7,188.1z"/>
	<path class="st24" d="M130.8,306.5c0.7-3.1,1-6.2,1.4-9.4c0.6-5.1,1.2-10.2,1.7-15.4c0.3-0.3-0.1-0.8,0.3-1
		c0.5-0.2,0.8,0.3,1.1,0.6c4.8,4.4,9.8,8.5,15.4,12c1.1,0.7,1.8,0.7,2.9,0c7.7-5.3,15-11,21.5-17.8c0.6-0.7,1.1-1.4,1.8-2.1
		c0.3-0.3,0.5-0.7,1-0.4c0.1,4.1,0.2,8.1,0.3,12.2c0,0.1,0.1,0.1,0.1,0.2c0.1,2.1,0.1,2.1-1.8,1.4c-1.3-0.5-2.7-0.8-4,0
		c-1.1,0.6-1.5,1.5-1.4,2.7c0.1,0.9,0.6,1.5,1.5,1.6s1.6-0.3,1.9-1.2c0.1-0.2,0.1-0.4,0.2-0.6c0.1-0.2,0.2-0.3,0.4-0.3
		c0.7,0.4,0.6,1,0.4,1.6c-0.3,0.9-0.9,1.5-1.6,2c-1.3,0.9-1.4,1.9-0.4,3.1c0.5,0.7,1.2,1.2,1.7,1.8c0.5,0.7,0.9,1.3-0.2,1.8
		c-0.6,0.3-0.6,1-0.4,1.6c0.3,0.7,0.8,1.3,1.4,1.8c0.3,0.3,0.7,0.5,0.8,1c0,0.2-0.1,0.3-0.3,0.4c-1.1,0.9-0.9,2.3,0.3,2.9
		c0.6,0.3,1.5,0.1,1.8,1c0,0.6,0,1.3,0,1.9c-0.3,2.1,0,4.1-0.1,6.2c0,0.6,0,1.2,0,1.9c0,0,0.3-0.1,0.1-0.1c-0.1,0-0.1,0-0.1-0.1
		c0.1-0.3-0.1-0.7,0.2-1c0.3,1.4,0.2,2.8,0.2,4.2c-0.2,1.2,0,2.4-0.1,3.7c0.1-0.3,0-0.5,0.2-0.7c0.3,2.8,0.4,5.6,0.4,8.5
		c-0.3,0.4-0.8,0.6-1.4,0.7c-4.7,1-9.5,1.7-14.3,1.9c-1.8,0.1-3.6,0.3-5.5,0.1c-2.6-0.3-5.1-0.3-7.7,0c-2.8,0.4-5.7-0.1-8.5-0.2
		c-3.9-0.2-7.7-0.6-11.5-1.1c-0.1,0-0.2,0-0.4,0c-1.5-0.2-1.7-0.4-1.5-2c0.8-7.4,1.6-14.9,2-22.4c0-0.3,0-0.6,0-0.8
		C130.9,308,130.5,307.2,130.8,306.5L130.8,306.5z"/>
	<path class="st24" d="M179.5,335.5c0.2,1,0.3,2.1,0.3,3.1c-1,0.8-2.3,0.7-3.5,0.9c-2.5,0.4-5.1,0.6-7.7,0.8c-6,0.5-12,0.6-17.9,0.4
		c-4.7-0.2-9.5-0.3-14.2-0.8c-2.5-0.3-5-0.4-7.5-0.7c-0.8-0.1-1.1-0.4-1-1.1c0-0.7,0-1.4,0.3-2.1c1.2-0.4,2.4,0,3.5,0.2
		c4.4,0.5,8.7,0.8,13.1,1.1c5.9,0.4,11.7,0.3,17.6,0.1c5.2-0.1,10.3-0.8,15.4-1.9C178.4,335.4,178.9,335.1,179.5,335.5z"/>
	<path class="st25" d="M179.5,335.5c-4.9,1.2-9.8,1.8-14.8,2.2c-5.9,0.4-11.8,0.3-17.7,0.1c-6.1-0.2-12.2-0.8-18.2-1.6
		c-0.2,0-0.4-0.1-0.6-0.2c0.1-1.4,0.1-2.8,0.4-4.1c-0.1,0.9,0,1.5,1.2,1.7c6.9,0.7,13.7,1.5,20.6,1.5c2.6-0.2,5.1-0.2,7.7,0
		c7.1,0,14.2-0.8,21.1-2.4C179.4,333.6,179.6,334.6,179.5,335.5z"/>
	<path class="st18" d="M130.8,306.5c-0.1,0.7,0.1,1.5-0.2,2.2C130.6,307.9,130.3,307.2,130.8,306.5z"/>
	<path class="st26" d="M62.1,283.3c5.9-0.7,9.2,1.3,11.5,7.3c2.5,6.5,1.7,12.7-2.1,18.6c-0.1,0.1-0.2,0.2-0.3,0.2
		c1.6-3.2,1.5-6.6,1.3-9.9c-0.1-3.5-0.8-6.9-2.6-10c-1.6-2.7-3.8-4.6-6.7-5.7c-0.3-0.1-0.6-0.2-0.9-0.3
		C62.2,283.6,62.2,283.5,62.1,283.3z"/>
	<path class="st20" d="M53.3,281.8c2-0.7,4.1-1.4,6.1-2.2c0.1,1.2,0.7,2.2,0.9,3.4c-2-0.3-3.5,0.5-4.9,1.7c-0.6,0.5-0.8,0.3-1-0.3
		C54,283.5,53.6,282.7,53.3,281.8z"/>
	<path class="st27" d="M65.4,315.4c-0.6,0-1-0.4-1.5-0.6c-0.2-0.6-0.8-0.9-0.9-1.7c3,0.2,5.7-0.6,7.8-2.9c0.5,0.8,0.2,1.6,0.3,2.3
		c-0.2,0.4-0.5,0.8-0.7,1.2c-0.2,0.3-0.4,0.6-0.7,0.7C68.2,314.8,67,315.8,65.4,315.4z"/>
	<path class="st27" d="M59.8,315.1c0-0.1,0-0.1,0.1-0.1c1.1,0,2.3,0,3.4,0c0.1,0,0.1,0.1,0.1,0.1C62.2,315.3,61,315.3,59.8,315.1z"
		/>
	<path class="st28" d="M65.4,315.4c1.7-0.4,3.4-0.8,4.9-1.7c0,0.2,0,0.4,0.1,0.6c0.7,2.1,0.1,3.1-2.1,3.6c-1.2,0.2-2-0.2-2.5-1.3
		C65.7,316.2,65.6,315.8,65.4,315.4z"/>
	<path class="st29" d="M59.8,315.1c1.2,0,2.4,0,3.5,0h0.1l0.1,0.1c-1.3,0.1-2.7,0.1-4,0v-0.1C59.7,315.1,59.7,315.1,59.8,315.1z"/>
	<path class="st9" d="M183.8,327.7c0.2-1.1,0.3-2.3,0.6-3.4c1.1-3.9,3.7-6.3,7.5-7.3c4.4-1.2,8.9-1,13.1,0.8c6.3,2.6,10,9.6,9.1,17
		c-0.3,2.6-1,5.1-1.9,7.5c-1.1,4.3-6.7,10-12.2,9.5c-2.3-0.2-4.2-1.1-6-2.4c-1.5-1-2.6-2.3-3.6-3.8c-3.6-5.1-6.2-10.6-6.8-16.9
		C183.6,328.5,183.7,328.1,183.8,327.7z"/>
	<path class="st18" d="M190.8,345.7c2.5,3.4,5.6,6,10.2,5.9c3.3-0.1,5.8-1.7,8-4c1.4-1.5,2.4-3.4,3.4-5.2c0.2,3.3-0.5,6.5-1,9.7
		c-0.7,4.4-1.6,8.8-3.3,12.9c-0.6,1.3-1.2,2.6-2.1,3.7c-2.1,2.7-5.2,2.7-7.9,0.3c-3.3-3-5.3-6.8-7.1-10.7c-2-4.1-3.5-8.5-5.1-12.8
		C187.4,345.8,189.1,345.2,190.8,345.7z"/>
	<path class="st25" d="M174.7,289.5c-0.1,1.5-0.8,2.2-2.1,2.2c-1.2-0.1-2.1-1-2-2.3c0-2,1.9-3.4,4.1-3.2c0.9,0.1,1.7,0.3,2.5,0.8
		c0.7,0.4,1,0.4,0.9-0.5c0-0.4,0-0.7,0.1-1.1c0.3,0.4,0.1,0.8,0.2,1.2c0.1,0.4-0.2,0.9,0.4,1c0.6,0.1,1.2-0.1,1.6-0.6
		c0.3-0.4,0.2-0.7-0.1-1.1c-0.9-1.3-0.4-2.3,1.1-2.5c0.6-0.1,1.4-0.1,1.8-0.6c0.6-0.7,1.1-0.6,1.7,0c0.6,0.5,1.3,0.4,2,0.6
		c1.3,0.3,1.7,1.3,1,2.3c-0.5,0.8-0.4,1.4,0.5,1.7c0.9,0.3,1.6,0,2.4-0.4c1.4-0.8,2.8-1.1,4.4-0.6c1.1,0.4,2,1.1,2.2,2.3
		c0.2,1,0.1,2-0.8,2.6c-0.7,0.5-1.6,0.6-2.4,0.1c-1-0.6-1.1-1.5-0.8-2.5c-0.9,0.7-0.7,1.6-0.2,2.4c0.3,0.5,0.8,0.9,1.3,1.2
		c1.3,0.9,1.5,1.9,0.6,3.2c-0.7,0.9-1.5,1.7-2.3,2.6c-0.1,0.1-0.2,0.3-0.3,0.5c1.6,0.6,1.9,1.3,1.1,2.8c-0.5,0.9-1.4,1.6-2.2,2.2
		c-0.1,0.2-0.2,0.4-0.5,0.4c0.2,0,0.5-0.1,0.7-0.2c0.6-0.1,0.9,0.1,1,0.8c0.1,2.1,0,2.3-2,2.8c-3.1,0.8-6.3,0.8-9.5,0.6
		c-0.8-0.1-1.6-0.2-2.4-0.1c-0.7-0.5-1.6-0.5-2.4-0.9c-1.3-0.6-0.7-1.8-0.8-2.7c-0.1-0.7,0.5-0.5,0.9-0.5c0.5,0.1,1,0.2,1.4,0.5
		c-0.4-0.3-0.9-0.3-1.2-0.7c-0.8-0.6-1.5-1.1-2.1-2c-0.9-1.3-0.8-2,0.6-2.8c0.4-0.3,0.2-0.5,0-0.6c-0.6-0.7-1.2-1.3-1.8-2
		c-1.6-1.7-1.5-2.8,0.4-4.2c1.2-0.9,1.5-1.8,1.2-3.1c-0.1,0-0.2-0.2-0.3-0.1C174.6,289.2,174.6,289.3,174.7,289.5z"/>
	<path class="st26" d="M190.8,345.7c-0.3-0.1-0.5-0.1-0.8,0c-1.4,0.5-2.8,0.4-4.2-0.1c-6.5-3.9-7.4-12.4-2-17.9
		c0.4,6.2,2.8,11.7,6.1,16.8C190.1,345,190.5,345.3,190.8,345.7z"/>
	<path class="st30" d="M178.6,317c0,0.7-0.1,1.3-0.1,2c-0.1,0-0.1,0-0.2,0c0-2.8,0-5.6,0-8.5c0-0.1,0.1-0.3,0.2-0.4
		C178.6,312.4,178.6,314.7,178.6,317z"/>
	<path class="st31" d="M178.8,324.2c0,0.3-0.1,0.7-0.1,1c0-1.4-0.4-2.7,0-4.1C178.8,322.1,178.8,323.1,178.8,324.2z"/>
	<path class="st32" d="M191.5,304.1c-0.4,0.3-0.8,0.6-1.5,0.3c0.5-0.2,0.9-0.4,1.2-0.6C191.4,303.9,191.5,304,191.5,304.1z"/>
	<path class="st24" d="M134.4,276.9c0.1-0.5-0.1-1,0.2-1.5c0,0.6,0.3,0.8,0.9,0.8c1.2,0,2.3-0.1,3.5-0.5c1.2,0.7,2,1.7,3.1,2.6
		c0.7,0.6,1.4,1.3,2.2,1.7c0.3,0.4,0.4,0.8,0.9,1.1c1.4,1,2.8,2.1,4.2,3.1c3,1.9,2.2,1.9,5.1,0c1.3-0.8,2.6-1.8,3.8-2.7
		c2-1.6,4-3.3,5.8-5.1c0.7-0.8,1.7-0.4,2.4-0.7c1.5-0.4,2.7-1.4,3.6-2.6c2.5-3,4.2-6.5,5.9-10.1c0.9-1.9,1.4-3.8,1.3-5.8
		c0.4,2.2,0.1,4.3,0.2,6.5c0.2,1.5,0.1,2.9,0.1,4.4c0,0.6-0.3,1-0.7,1.5c-2.6,3.5-5.7,6.6-8.9,9.5c-4.3,3.9-8.8,7.4-13.5,10.8
		c-2.4,1.8-2.4,1.8-4.9,0.1c-4.6-3.1-8.9-6.5-12.8-10.4C136,278.8,134.7,278.3,134.4,276.9z"/>
	<path class="st33" d="M134.4,276.9c2.2,2.4,4.7,4.5,7.2,6.7c3.1,2.6,6.3,5.1,9.7,7.2c0.6,0.4,1,0.3,1.5,0
		c7.5-5.3,14.6-10.9,20.9-17.6c0.6-0.6,1.1-1.4,1.7-2c1.6-1.7,2.5-3.6,2.1-6c-0.1-0.5,0-1,0.1-1.4c0.4,2,0.1,4,0.2,6.1
		c0,1.1,0,2.2,0,3.3c-0.2,0-0.4,0.1-0.5,0.3c-5.9,7-12.9,12.6-20.3,17.9c-1.4,1-2.8,1.9-4.1,2.9c-0.5,0.4-0.9,0.4-1.5,0
		c-5-3-9.6-6.5-13.9-10.4c-1.1-0.9-2.1-1.9-3.2-2.9c-0.1,0.3-0.2,0.6-0.3,0.9C134.1,280.2,134.3,278.5,134.4,276.9z"/>
	<path class="st25" d="M145,281.2c-0.5-0.2-0.8-0.6-0.8-1.2c-0.2-1.1,0.3-2.2,0.6-3.2s0.5-1.7-0.6-2.4c-0.6-0.4-1.3-1.1-1.2-2.1
		c2-2.1,3.5-4.5,5-7c2.6,1.2,5,2.7,7.5,4.1c1,0.6,2,1.2,3.1,1.7c0.1,0.1,0.2,0.1,0.3,0.2c0.2,0.9-0.4,1.5-0.9,1.9
		c-1,0.8-1.7,1.6-1.3,3c-0.4,0.4-0.9,0.5-1.4,0.7C151.9,278.5,148.4,279.8,145,281.2z"/>
	<path class="st34" d="M156.7,276.3c-0.1-0.2-0.1-0.5-0.2-0.7c-0.5-0.7-0.3-1.1,0.4-1.5c1-0.6,1.7-1.5,2.1-2.6
		c1.1,1.5,2.5,2.6,4.1,3.6c1.1,0.7,2.3,0.7,3.6,0.7c-2,0.1-3.1,1.8-4.4,2.9c-1.3,1-2.5,2.1-3.8,3.1c-0.5-0.3-0.5-1-0.7-1.5
		c-0.3-0.9-0.6-1.9-0.9-2.8C156.7,277.1,156.4,276.7,156.7,276.3z"/>
	<path class="st35" d="M158.6,271.2c-0.3,0.4-0.5,0.1-0.7-0.1c-3.1-1.7-6.2-3.5-9.3-5.2c-0.2-0.1-0.5-0.3-0.6-0.6
		c1-1.8,1.9-3.7,3-5.7C153.3,263.9,155.6,267.8,158.6,271.2z"/>
	<path class="st34" d="M143,272.4c0.6,1,1.1,2,2.2,2.4c0.5,0.2,0.3,0.5,0.2,0.9c-0.4,1.5-0.8,2.9-1.3,4.4c-0.7,0.4-1-0.4-1.3-0.7
		c-1.4-1.1-2.8-2.2-3.9-3.6C140.4,274.7,142,273.9,143,272.4z"/>
	<path class="st36" d="M158.2,335c-2.6,0-5.1,0-7.7,0c0.3-0.4,0.7-0.2,1.1-0.2c1.8,0,3.6,0,5.5,0C157.4,334.8,157.9,334.7,158.2,335
		z"/>
	<path class="st37" d="M176.6,303.8c0.5,0.3,1,0.5,1.5,0.8c-0.7,0.1-1.3-0.1-1.8-0.5C176.4,304,176.5,303.9,176.6,303.8z"/>
	<path class="st38" d="M174.7,289.5c-0.2-0.3-0.4-0.6-0.6-0.9c0.5,0,0.7,0.3,0.9,0.6C174.9,289.3,174.8,289.4,174.7,289.5z"/>
	<path class="st39" d="M175.7,290.8c0.1-1.9,0.1-1.9,2-2.4c4.4-1.1,8.8-1,13.3,0.2c0.8,0.2,1.1,0.6,1.1,1.5
		c-0.1,2.8-0.1,5.7-0.5,8.5c-0.4,3.1-4.2,6.9-7.3,7.3c-0.5,0.1-1-0.1-1.5-0.3c-2.1-0.9-3.9-2.3-5.3-4.1c-0.9-1.1-1-2.5-1.2-3.8
		c-0.1-0.9-0.2-1.8-0.3-2.7C175.6,293.6,176,292.2,175.7,290.8z"/>
	<path class="st40" d="M184.6,284.9c-0.1,0.3-0.1,0.6-0.2,0.9c-0.1,0.3-0.2,0.6-0.6,0.4c-0.7-0.3-0.4-0.9-0.5-1.4
		c0-0.5-0.2-1.1,0.5-1.3c0.3-0.1,0.5,0.2,0.6,0.5C184.5,284.2,184.5,284.6,184.6,284.9z"/>
	<path class="st41" d="M175.7,290.8c0.3,1.4,0.2,2.8,0.2,4.2C175.4,293.6,175.7,292.2,175.7,290.8z"/>
	<path class="st35" d="M156.7,276.3c0.4,1.3,0.9,2.7,1.3,4c0.2,0.6,0,0.9-0.5,1.2c-2.4,1-4.9,2-7.3,2.9c-0.3,0.1-0.5,0.1-0.8,0
		c-1.5-0.9-2.9-2.1-4.3-3.2c0-0.4,0.2-0.5,0.5-0.6C149.2,279.2,152.9,277.7,156.7,276.3z"/>
	<path class="st25" d="M149.3,284.4c2.6-1,5.2-2.1,7.8-3.1c0.5-0.2,1-0.3,0.9-1c0.4,0.4,0.2,1,0.4,1.5c-1.7,1.4-3.6,2.6-5.4,3.8
		c-0.7,0.5-1.3,0.5-1.9,0C150.5,285.2,149.9,284.8,149.3,284.4z"/>
	<path class="st40" d="M176.4,292.5c0-3,0-3,2.5-3.6c3.8-0.8,7.6-0.7,11.4,0.3c0.8,0.2,1.2,0.6,1.1,1.5c-0.2,2.8-0.1,5.7-0.7,8.5
		c-0.5,2.4-4.2,5.8-6.6,6c-0.6,0.1-1.1-0.1-1.6-0.3c-3.4-1.6-5.8-3.9-5.9-8C176.6,295.3,176.5,293.6,176.4,292.5z"/>
	<path class="st42" d="M177.6,296.6c0-1.7,0-3.3-0.2-5c-0.1-0.8,0.3-1.2,1-1.4c1.5-0.5,3.1-0.5,4.7-0.8c0.7-0.1,0.8,0.3,0.8,0.9
		c0,2.1,0,4.2,0,6.3c-1.1,0.7-2.3,0.3-3.5,0.3C179.4,297,178.4,297.3,177.6,296.6z"/>
	<path class="st25" d="M184.1,296.6c0-2.1,0-4.1,0-6.2c0-0.6,0.1-1.1,0.8-0.9c1.4,0.3,2.9,0.3,4.3,0.7c0.7,0.2,1.2,0.5,1.1,1.4
		c-0.2,1.7,0.3,3.4-0.3,5.1c-1.2,0.7-2.5,0.3-3.7,0.4C185.6,297,184.8,297.2,184.1,296.6z"/>
	<path class="st25" d="M177.6,296.6c2.1,0,4.2,0,6.2,0c0,2.1,0,4.2,0,6.4c0,1-0.2,1.2-1.2,0.8C179.7,302.3,177.7,300.2,177.6,296.6z
		"/>
	<path class="st42" d="M184.1,296.6c2,0,4,0,6,0c0.3,3.6-2.1,5.7-4.9,7.1c-0.9,0.4-1.1,0.1-1.1-0.8
		C184.1,300.8,184.1,298.7,184.1,296.6z"/>
</g>
<ellipse transform="matrix(9.925818e-02 -0.9951 0.9951 9.925818e-02 -100.9502 363.3998)" class="st10" cx="150.3" cy="237.5" rx="6.7" ry="18.1"/>
<line class="st43" x1="70.4" y1="181.1" x2="91" y2="165.4"/>
<line class="st43" x1="224.3" y1="182.9" x2="203.6" y2="167.2"/>
</svg>
