<?xml version="1.0" encoding="utf-8"?>
<!-- Generator: Adobe Illustrator 25.2.3, SVG Export Plug-In . SVG Version: 6.00 Build 0)  -->
<svg version="1.1" xmlns="http://www.w3.org/2000/svg" xmlns:xlink="http://www.w3.org/1999/xlink" x="0px" y="0px"
	 viewBox="0 0 1190.6 850.4" style="enable-background:new 0 0 1190.6 850.4;" xml:space="preserve">
<style type="text/css">
	.st0{fill:#FFFFFF;}
	.st1{stroke:#000000;stroke-linejoin:round;stroke-miterlimit:10;}
	.st2{fill:#FBB03B;}
</style>
<g>
	<rect class="st0" width="1190.6" height="850.4"/>
</g>
<g>
	<g>
		<path d="M502.5,152.5c0,0-133.3,2.4-182.9,126.4c0,0,86.1-83.1,159.3-77.4"/>
		<path d="M499.2,163.9c0,0-68.1-33.9-138.1,4.7c0,0,93.6-7.1,125.1,44.3"/>
		<g>
			<path class="st1" d="M800.1,584.6c43.6-95.4-25.6-177-25.6-177c-6.8,26.5,20.5,87.2,20.5,87.2
				c-79.5-20.5-108.6-115.4-108.6-115.4c0,73.5,45.3,118,45.3,118c-101.7-50.4-129.9-165-129.9-165c-8.5,94,70.1,176.1,70.1,176.1
				c-166.7-88.9-162.4-237.7-162.4-237.7C502.6,417,393.2,487.1,393.2,487.1c24.8-41.9,12.8-78.6,12.8-78.6
				c-76.9,52.1-41.9,176.1-41.9,176.1c-9.7-11.4-17.8-25.1-24.2-38.3c-13.4-27.7-21.4-57.6-24.4-88.2C287,166.5,543,136.3,543,136.3
				s39.1-44.1,110.1-50.9c0,0-58.4,23.3-66.4,48.4c0,0,27.7-34.4,99.9-48.4c0,0-43.6,11-64.9,52.1c0,0-0.7-1.9,12.3-2.8
				c10.5-0.7,21-0.1,31.4,1.6c55.4,9,236.5,56.4,209,289.4C874.4,425.7,863.8,525.3,800.1,584.6"/>
			<g>
				<g>
					<path d="M703,713c-55.1,0-99.9-44.8-99.9-99.9c0-55.1,44.8-99.9,99.9-99.9c55.1,0,99.9,44.8,99.9,99.9
						C802.9,668.2,758,713,703,713z M703,526.9c-47.5,0-86.2,38.7-86.2,86.2c0,47.5,38.7,86.2,86.2,86.2c47.5,0,86.2-38.7,86.2-86.2
						C789.2,565.6,750.5,526.9,703,526.9z"/>
				</g>
				<g>
					<path d="M462.2,713c-55.1,0-99.9-44.8-99.9-99.9c0-55.1,44.8-99.9,99.9-99.9s99.9,44.8,99.9,99.9
						C562.1,668.2,517.3,713,462.2,713z M462.2,526.9c-47.5,0-86.2,38.7-86.2,86.2c0,47.5,38.7,86.2,86.2,86.2
						c47.5,0,86.2-38.7,86.2-86.2C548.4,565.6,509.8,526.9,462.2,526.9z"/>
				</g>
				<g>
					<path d="M606.7,603.1c-23.7-20.4-45.9-1-46.8-0.1l-9.2-10.1c10.9-10,38.5-22.9,64.9-0.1L606.7,603.1z"/>
				</g>
			</g>
			<path class="st2" d="M516.5,379.9c0,0-13.2,37.5-43,57.4l21.4,7.1c0,0-11.4,5.4-40,56.3c0,0,32.3-46.8,72.3-62.5l-24.7-6.8
				C502.6,431.4,507.6,420.3,516.5,379.9z"/>
		</g>
		<path class="st1" d="M671.7,125.4"/>
		<path class="st1" d="M569.6,158.5c0,0-43.5-66.1-115.4-80.2c0,0,64,30.3,78.1,109.3"/>
	</g>
</g>
</svg>
