<?xml version="1.0" encoding="utf-8"?>
<!-- Generator: Adobe Illustrator 25.3.1, SVG Export Plug-In . SVG Version: 6.00 Build 0)  -->
<svg version="1.1" id="Layer_1" xmlns="http://www.w3.org/2000/svg" xmlns:xlink="http://www.w3.org/1999/xlink" x="0px" y="0px"
	 viewBox="0 0 576 144" style="enable-background:new 0 0 576 144;" xml:space="preserve">
<style type="text/css">
	.st0{fill:#0B0B0C;}
	.st1{fill:#FFFFFF;}
	.st2{fill-rule:evenodd;clip-rule:evenodd;fill:#0B0B0C;}
</style>
<path class="st0" d="M179.8,125.9h-0.2v0.3h0.2v8.1h-0.2v0.3h0.2v8.1h-0.2v0.3h0.2v1.8H257v-2.4h0.2V142H257v-8.1h0.2v-0.3H257v-8.1
	h0.2v-0.3H257v-8.1h0.2v-0.3H257v-3.6h0v-2.8l-0.4-0.7h-0.8l-0.4,0.7v2h-0.6v-2l-0.4-0.7h-0.4v0h0.1v-0.3h-0.1v-2h0.1v-0.3h-0.1v-2
	h0.1V105h-0.1v-2h0.1v-0.3h-0.1v-2.2h0.1v-0.3h-0.1v-2h0.1v-0.3h-0.1v-3.2h0.2v-0.2l-0.2-0.2v-0.3l-2.5-5.6h0v-0.1l-0.8-0.8v-0.3h0
	v-0.1h-0.1c0,0,0-0.1,0-0.1c0-0.1,0-0.1-0.1-0.1v-0.9c0.2-0.1,0.3-0.2,0.3-0.4c0-0.2-0.1-0.4-0.3-0.4v-1.8l-0.1-0.2l-0.1,0.2v0.1
	h-1.8l0.9,0.5l-0.9,0.5h1.8v0.7c-0.2,0.1-0.3,0.2-0.3,0.4s0.1,0.4,0.3,0.4V87c-0.1,0-0.1,0.1-0.1,0.2c0,0,0,0.1,0,0.1h-0.1v0.1h0.1
	v0.3l-0.7,0.8v0.1h0l-2.5,5.6v0.3l-0.2,0.2v0.2h0.4v2.3h-0.9V93h0.4l-0.2-1.6h-3.4l-0.2,1.6h0.3v2.8l-1.6-1.9h-0.2v-0.4
	c0.3-0.1,0.5-0.3,0.5-0.6c0-0.3-0.2-0.5-0.5-0.6v-2.1l-0.2-1.4l-0.2,1.4v2.1c-0.3,0.1-0.4,0.3-0.4,0.6c0,0.3,0.2,0.5,0.4,0.6v0.4
	h-0.2l-3.6,4.6h-1.4v-5h-0.3v5h-1v-1.6h0.4l-0.2-1.6h-3.4l-0.2,1.6h0.3v1.6h-3.4V98h0.1v-0.2h-0.1v-2.1h0.1v-0.2h-0.1v-2.1h0.1v-0.2
	h-0.1v-0.8h0.5v-0.7l-1-1.5h-0.4V87l-0.1-0.2L227,87v0.1h-1.9l0.9,0.5l-0.9,0.5h1.9v2.2h-0.4l-1,1.5v0.7h0.5v0.8H226v0.2h0.1v2.1
	H226v0.2h0.1v2.1H226V98h0.1v0.5h-7.5v-4.6h0.2v-0.3h-0.2v-6h0.2v-0.3h-0.3v-3.3h-0.6l-1,0.8v2.5h-0.4v-2.6l-0.4-0.7h-0.8l-0.4,0.7
	v2.6h-0.6v-2.6l-0.4-0.7h-0.4v-0.8h1.1v-0.6l-0.5-0.3l-2.6-5.5h0v-0.6c0.3-0.1,0.5-0.3,0.5-0.6c0-0.3-0.2-0.5-0.5-0.6v-2.1l-0.2-1.4
	l-0.2,1.4v2.1c-0.3,0.1-0.4,0.3-0.4,0.6c0,0.3,0.2,0.5,0.4,0.6v0.6h0l-2.5,5.5l-0.5,0.3v0.6h1.1v0.8h-0.4l-0.4,0.7v2.6h-0.6v-2.6
	l-0.4-0.7h-0.8l-0.4,0.7v2.6h-0.4v-2.5l-1-0.8h-0.6v3.3h-0.2v0.3h0.1v6h-0.1v0.3h0.1v6h-0.1v0.3h0.1v3.4h-0.1l-2.5,5.5l-0.5,0.3v0.6
	h0.9v0.9h-0.1l-0.4,0.7v0.7h-0.6v-0.7l-0.4-0.7h-0.8l-0.4,0.7v0.7h-0.5v-4.7h0.6v-0.5h-0.3v-1.3L193.4,92h0v-0.1h-0.1l-0.7-0.8v-0.3
	h0v-0.1h-0.2v-1.1c0.2-0.1,0.3-0.2,0.3-0.4c0-0.2-0.1-0.4-0.3-0.4v-1.8l-0.1-0.2l-0.1,0.2V87h-1.8l0.9,0.5l-0.9,0.5h1.8v0.7
	c-0.2,0.1-0.3,0.2-0.3,0.4s0.1,0.4,0.3,0.4v1.1h-0.2v0.1h0.1v0.3l-0.6,0.8h-0.1V92h0l-5.2,13.9v1.3h-0.4v0.5h0.7v7.8l-0.3-0.2v-1.8
	h-0.1v-1.3h0.2v-0.1l-0.6-0.7h-0.1l-0.6,0.7v0.1h0.2v1.3h-0.1v1.8l-0.4,0.2l-0.6,0.6v-2.3h0.1v-0.2h-0.1v-2.1h0.1v-0.2h-0.1v-2.1
	h0.1v-0.2h-0.1v-0.8h0.5v-0.7l-1-1.5h-0.4v-3.3l-0.1-0.2l-0.1,0.2v0.1h-1.9l0.9,0.5l-0.9,0.5h1.9v2.2h-0.4l-1,1.5v0.7h0.5v0.8h-0.1
	v0.2h0.1v2.1h-0.1v0.2h0.1v2.1h-0.1v0.2h0.1v3l-0.3-0.5h-0.8l-0.4,0.7v2.6l-1.1,1.1l-0.4,0.5v0.2h0.5V125.9z M209.6,83.2h0.9
	l-0.1,0.5l-0.1,0v0.1h1.7v-0.1l-0.1,0l-0.1-0.5h0.8v1.2l-0.2,0.2v2.6H212v-2.6l-0.4-0.7h-0.8l-0.4,0.7v2.6h-0.6v-2.6l-0.1-0.2V83.2z
	"/>
<polygon class="st0" points="347.9,115.7 347.6,115.1 347.6,113.2 348.1,113.2 348.1,112.6 347.3,111.4 346.7,108.4 346,111.4 
	345.7,111.8 343.5,108.2 343.5,108 343.3,108 343.3,107.2 343.5,107.2 343.5,107 343.3,107 343.3,105.2 343.6,105.2 343.6,104.9 
	342.6,103.3 342.6,103 342.4,102.9 342.4,102.3 342.6,102.2 342.6,102 342.4,102 342.4,99.3 342.3,97.2 342.1,99.3 342.1,102 
	341.9,102 341.9,102.2 342.1,102.3 342.1,102.9 341.9,103 341.9,103.3 341,104.9 341,105.2 341.3,105.2 341.3,107 341,107 
	341,107.2 341.3,107.2 341.3,108 341,108 341,108.2 337.2,114.3 337.2,111.3 336.2,111.3 336.2,110.8 336.5,110.8 336.5,110.5 
	336.3,110.5 336.3,110.2 336.2,110.2 336.2,110.1 334.7,110.1 334.7,110.2 334.5,110.2 334.5,110.5 334.4,110.5 334.4,110.8 
	334.7,110.8 334.7,111.3 333.9,111.3 333.9,108.4 331.9,107.6 331.9,107.5 332.2,107.5 332.2,107.1 331.2,105.6 330.5,105.6 
	329.7,106.8 326.5,105.6 325.6,104.1 324.8,104.1 323.9,105.7 323.9,106.1 324.2,106.1 324.2,106.7 322.4,106.7 322.4,104.6 
	319.9,100 319.6,100 319.6,98.3 319.8,98.3 319.8,98 319.6,98 319.6,97.3 319.8,97.3 319.8,97 319.6,97 319.6,92.2 319.6,92.2 
	319.6,89.6 319.5,89.4 319.3,89.6 319.3,89.7 317.5,89.7 317.5,90.7 319.3,90.7 319.3,92.2 319.3,92.2 319.3,97 319.1,97 
	319.1,97.3 319.3,97.3 319.3,98 319.1,98 319.1,98.3 319.3,98.3 319.3,100 319,100 316.5,103.4 316.1,103.1 314.5,103.1 
	313.6,103.9 313.6,104.2 313.8,104.4 313.8,105.7 309.9,99.2 309.9,98.9 309.7,98.9 309.7,98.1 309.9,98.1 309.9,97.9 309.7,97.9 
	309.7,96.2 310.1,96.2 310.1,95.8 309,94.2 309,93.9 308.9,93.8 308.9,93.2 309,93.1 309,92.9 308.9,92.9 308.9,90.3 308.7,88.1 
	308.5,90.3 308.5,92.9 308.4,92.9 308.4,93.1 308.5,93.2 308.5,93.8 308.3,93.9 308.3,94.2 307.4,95.8 307.4,96.2 307.7,96.2 
	307.7,97.9 307.4,97.9 307.4,98.1 307.7,98.1 307.7,98.9 307.4,98.9 307.4,99.2 302.8,106.6 301.8,107.1 301.1,108.3 300.9,108.4 
	300.9,108.6 301.1,108.6 301.1,110.4 300.8,110.5 300.8,111.6 299.5,111.6 299.5,111 300.2,110.6 300.2,108.8 298.7,107.4 
	298.6,107 298.6,103.2 299,103.2 299,102.6 298.2,101.4 297.6,98.5 296.9,101.4 296.4,102.1 294.8,98.7 294.6,98.7 294.6,97.6 
	294.8,97.6 294.8,97.3 294.6,97.3 294.6,96.6 294.8,96.6 294.8,96.3 294.6,96.3 294.6,91.5 294.6,91.5 294.6,88.8 294.5,88.7 
	294.4,88.8 294.4,88.9 292.5,88.9 292.5,89.9 294.4,89.9 294.4,91.5 294.3,91.5 294.3,96.3 294.1,96.3 294.1,96.6 294.3,96.6 
	294.3,97.3 294.1,97.3 294.1,97.6 294.3,97.6 294.3,98.7 294.1,98.7 289.3,107.5 287.8,108.8 287.8,110.6 288.6,111 288.6,112.5 
	287.8,112.5 287.8,112.1 288.1,112.1 288.1,111.8 287.9,111.8 287.9,111.5 287.8,111.5 287.8,111.4 286.3,111.4 286.3,111.5 
	286.1,111.5 286.1,111.8 286,111.8 286,112.1 286.3,112.1 286.3,112.5 283.8,112.5 283.8,114.8 282.9,114.8 282.9,114.2 
	283.3,114.2 283.3,113.8 282.3,112.3 281.5,112.3 280.6,113.8 280.6,114.2 280.9,114.2 280.9,114.8 279.7,114.8 277.9,109.6 
	276.5,109.6 274.9,113.4 274.3,113.4 274.3,113 274.6,113 274.6,112.6 273.6,111 272.9,111 272,112.6 272,113 272.3,113 
	272.3,114.7 272,114.7 272,114.9 272.3,114.9 272.3,115.7 272,115.7 272,116 271,117.5 270.3,117.5 270.5,116.2 268.8,114.8 
	264.3,107.4 264.3,107.2 264.1,107.2 264.1,106.4 264.3,106.4 264.3,106.2 264.1,106.2 264.1,104.4 264.5,104.4 264.5,104 
	263.4,102.5 263.4,102.1 263.3,102.1 263.3,101.4 263.4,101.4 263.4,101.2 263.3,101.1 263.3,98.5 263.1,96.3 262.9,98.5 
	262.9,101.1 262.7,101.2 262.7,101.4 262.9,101.4 262.9,102.1 262.7,102.1 262.7,102.5 261.8,104 261.8,104.4 262.1,104.4 
	262.1,106.2 261.8,106.2 261.8,106.4 262.1,106.4 262.1,107.2 261.8,107.2 261.8,107.4 257.2,114.8 255.6,116.2 255.8,118.9 
	256.1,119.3 256.3,144.7 348.5,144.7 348.8,120 349.3,119.7 349.6,117 "/>
<g>
	<polygon class="st0" points="185.7,138.8 185.7,138.2 186.1,137.9 186.1,137.2 185.7,137 185.7,132.8 173.6,126 173.6,120 
		173.4,120 173.4,118.2 173.2,118.2 173.2,117.9 169.1,117.9 169.1,118.2 168.9,118.2 168.9,120 168.1,120 168.1,118.2 167.9,118.2 
		167.9,117.9 163.9,117.9 163.9,118.2 163.6,118.2 163.6,120 162.8,120 162.8,118.2 162.6,118.2 162.6,117.9 158.6,117.9 
		158.6,118.2 158.3,118.2 158.3,120 157.4,120 157.4,112.7 157.7,112.7 157.7,112.4 157.9,112.4 157.9,111.9 157.8,111.9 
		157.8,108.1 157.7,108.1 157.7,107.5 157.9,107.5 157.9,106.1 157.7,106.1 157.7,105.7 157.3,105.7 157.3,102.3 157.7,102.3 
		157.7,100.1 157.5,100.1 157.5,99.9 156.6,99.9 156.6,100.1 156.3,100.1 156.3,101.3 155.7,101.3 155.7,100.1 155.5,100.1 
		155.5,99.9 154,99.9 154,100.1 153.7,100.1 153.7,101.3 153,101.3 153,100.1 152.8,100.1 152.8,99.9 151.9,99.9 151.9,100.1 
		151.6,100.1 151.6,102.3 151.9,102.3 151.9,105.7 151.5,105.7 151.5,106.1 151.3,106.1 151.3,107.5 151.5,107.5 151.5,108.1 
		150.5,108.1 150.5,104.5 150.8,104.5 150.8,102.3 150.6,102.3 150.6,102.1 149.7,102.1 149.7,102.3 149.5,102.3 149.5,103.5 
		148.7,103.5 148.7,102.3 148.4,102.3 148.4,102.1 146.9,102.1 146.9,102.3 146.6,102.3 146.6,103.5 145.9,103.5 145.9,102.3 
		145.7,102.3 145.7,102.1 144.2,102.1 144.2,102.3 143.9,102.3 143.9,103.5 143.2,103.5 143.2,102.3 142.9,102.3 142.9,102.1 
		141.4,102.1 141.4,102.3 141.2,102.3 141.2,103.5 140.4,103.5 140.4,102.3 140.2,102.3 140.2,102.1 139.3,102.1 139.3,102.3 
		139.1,102.3 139.1,104.5 139.4,104.5 139.4,108.1 138.5,108.1 138.5,107.5 138.7,107.5 138.7,106.1 138.5,106.1 138.5,105.7 
		138.1,105.7 138.1,102.3 138.4,102.3 138.4,100.1 138.2,100.1 138.2,99.9 137.2,99.9 137.2,100.1 137.1,100.1 137.1,101.3 
		136.3,101.3 136.3,100.1 136,100.1 136,99.9 134.5,99.9 134.5,100.1 134.3,100.1 134.3,101.3 133.7,101.3 133.7,100.1 133.5,100.1 
		133.5,99.9 132.5,99.9 132.5,100.1 132.4,100.1 132.4,102.3 132.7,102.3 132.7,105.7 132.3,105.7 132.3,106.1 132.1,106.1 
		132.1,107.5 132.3,107.5 132.3,108.1 132.2,108.1 132.2,108.7 131.8,108.7 131.8,111.7 131.5,111.7 131.5,111.9 131.3,111.9 
		131.3,112.4 131.5,112.4 131.5,112.7 131.8,112.7 131.8,120 130.9,120 130.9,118.2 130.6,118.2 130.6,117.9 126.6,117.9 
		126.6,118.2 126.3,118.2 126.3,120 125.6,120 125.6,118.2 125.3,118.2 125.3,117.9 121.3,117.9 121.3,118.2 121,118.2 121,120 
		120.3,120 120.3,118.2 120,118.2 120,117.9 116,117.9 116,118.2 115.8,118.2 115.8,120 115.5,120 115.5,126 116.6,127.2 
		116.8,127.2 116.8,134.9 116.4,135.2 116.4,136 116.8,136.3 116.7,138.8 116.2,139 116.2,144.7 186.2,144.7 186.2,139 	"/>
	<rect x="132.8" y="100.5" class="st1" width="0.4" height="0.8"/>
	<rect x="137.5" y="100.5" class="st1" width="0.4" height="0.8"/>
	<rect x="135.2" y="100.5" class="st1" width="0.4" height="0.8"/>
	<rect x="152.1" y="100.5" class="st1" width="0.4" height="0.8"/>
	<rect x="156.8" y="100.4" class="st1" width="0.4" height="0.8"/>
	<rect x="154.6" y="100.5" class="st1" width="0.4" height="0.8"/>
	<g>
		<path class="st0" d="M135.4,93.9l-0.1,0.8V95c-0.9-0.2-2-0.3-2.6,0.5c-0.8,1.1-1.2,1.2-2.2,0.8c-0.8-0.3-0.9-0.1-1.2,0
			c0.5,0,0.9,0.2,1.1,0.4c-0.5,0.1-1,0.1-1.1,0.5c0.6-0.2,0.5,0,1.2,0.1c1.1,0.2,1.6,0.2,2.4-0.4c0.7-0.7,1.5-1,2.4-0.5v3.8h0.2
			v-5.5L135.4,93.9z"/>
	</g>
	<g>
		<path class="st0" d="M117.1,112l-0.1,0.8v0.2c-0.9-0.2-2-0.3-2.6,0.5c-0.8,1.1-1.2,1.2-2.2,0.8c-0.8-0.3-0.9-0.1-1.2,0
			c0.5,0,0.9,0.2,1.1,0.4c-0.5,0.1-1,0.1-1.1,0.5c0.6-0.2,0.5,0,1.2,0.1c1.1,0.2,1.6,0.2,2.4-0.4c0.7-0.7,1.5-1,2.4-0.5v3.8h0.2
			v-5.5L117.1,112z"/>
	</g>
	<g>
		<path class="st0" d="M172.2,112l-0.1,0.8v0.2c-0.9-0.2-2-0.3-2.6,0.5c-0.8,1.1-1.2,1.2-2.2,0.8c-0.8-0.3-0.9-0.1-1.2,0
			c0.5,0,0.9,0.2,1.1,0.4c-0.5,0.1-1,0.1-1.1,0.5c0.6-0.2,0.5,0,1.2,0.1c1.1,0.2,1.6,0.2,2.4-0.4c0.7-0.7,1.5-1,2.4-0.5v3.8h0.2
			v-5.5L172.2,112z"/>
	</g>
	<g>
		<path class="st0" d="M154.7,93.9l-0.1,0.8V95c-0.9-0.2-2-0.3-2.6,0.5c-0.8,1.1-1.2,1.2-2.2,0.8c-0.8-0.3-0.9-0.1-1.2,0
			c0.5,0,0.9,0.2,1.1,0.4c-0.5,0.1-1,0.1-1.1,0.5c0.6-0.2,0.5,0,1.2,0.1c1.1,0.2,1.6,0.2,2.4-0.4c0.7-0.7,1.5-1,2.4-0.5v3.8h0.2
			v-5.5L154.7,93.9z"/>
	</g>
</g>
<path class="st0" d="M13.7,123C13.7,123,13.7,123,13.7,123C13.7,123,13.7,123,13.7,123z M81.1,114.7
	C81.1,114.7,81.1,114.7,81.1,114.7C81.1,114.7,81.1,114.7,81.1,114.7z M11,126.1C11,126.1,11,126,11,126.1C11,126,11,126.1,11,126.1
	z M51,108.8C51,108.8,51,108.8,51,108.8C51,108.8,51,108.8,51,108.8z M113.1,132.7c-0.7-0.3-1.1-0.8-1.5-1.5c0.3,0.1,0.7,0.3,1,0.2
	c-0.6-0.3-0.8-0.8-0.9-1.3c0.2,0.4,0.8,0.8,1.1,0.7c-0.6-0.2-1.4-1.5-1.7-2.3c0-0.1,0.3,0.1,0.4,0.1c-0.1-0.2-0.3-0.4-0.3-0.6
	c0,0,0.1,0.2,0.3,0c-0.1,0-0.3-0.2-0.3-0.2c-0.2-0.7-0.3-1.3-0.3-1.6c-0.1,0.3-0.3,2.4-1.7,2.5c0.6,0.2,1-0.2,1-0.1
	c-0.1,0.2-0.2,0.3-0.3,0.5c-0.2,0-0.5-0.1-0.7-0.2c-0.2,0,0.4,0.1,0.5-0.1c-0.6,0-1.2-0.2-1.3-0.2c-0.2-0.1-0.4-0.3-0.5-0.5
	c0.2,0.2,0.4,0.3,0.6,0.3c-0.1-0.1-0.3-0.2-0.2-0.3c0.5,0.3,0.8,0.3,1.1,0.3c-0.3-0.1-0.6-0.2-0.9-0.3c0.6,0.1,0.9,0.1,1.3,0.1
	c-1-0.2-1.8-0.8-2.1-1.5c0,0,0.6,0.4,1.5,0.3c-1.2-0.2-1.6-0.9-1.8-1.6c0-0.1-0.3-0.5-0.3-0.5c0-0.2,0.6,0.3,0.6,0.2
	c0-0.4-1.6-1-1.8-1.2c1.3,1.6-0.8,2.1-0.9,2.1c0.4,0.1,1.3-0.2,1.2-0.2c-0.1,0.2-0.6,0.4-0.9,0.5c0.1,0,0.9-0.1,0.8,0
	c-0.3,0.3-0.7,0.6-1.1,0.9c-0.3-0.3-0.6-0.6-0.9-1c0,0,0.1,0.1,0.4,0c-0.3-0.1-1.5-1.7-1.8-2.3c-0.1-0.1,0.6,0.1,0.7,0
	c-0.2-0.3-0.7-0.6-0.8-1c-0.1-0.1,0.7,0.6,1,0.3c-0.8-0.2-2-2.9-1.1-2.5c-0.1-0.7-0.3-1.4-0.1-1.2c-0.1-0.1,0.1-0.8,0.3-1.1
	c-0.6,0.5-1.6,2.2-1.5,3c0,0.1,0.5-0.9,0.5-0.5c-0.1,0.2-0.5,1.6-0.4,1.6c0,0.1,0.4-0.7,0.4-0.6c-0.1,0.1-0.3,0.7-0.3,0.8
	c-0.1,1.3-0.4,1.9-1,2.3c-0.2-0.7-0.2-1.6,0.1-2.8c-0.2,0.4-1.3,1.7-1.3,2.5c0,0.1,0.5-0.9,0.5-0.5c0,0.1-0.2,1-0.2,1.1
	c0,0.6-0.1,1.3-0.3,1.9c-0.2-0.6-0.4-1.4-0.5-1.9c0-0.1,0.3,0.2,0.4,0.2c-0.1-0.2-0.2-0.5-0.2-0.7c0,0,0.1,0.2,0.3,0.1
	c-0.1,0-0.3-0.2-0.3-0.3c0-0.8,0-1.5,0.1-1.9c-0.2,0.3-1,2.6-2.6,2.3c0.6,0.3,1.2,0.1,1.1,0.1c-0.3,0.4-0.6,0.6-1,0.8
	c-0.6-0.5-1.1-1.2-1.5-1.7c-0.1-0.1,0.4,0.1,0.4,0c-0.2-0.2-0.4-0.3-0.5-0.6c0,0,0.2,0.1,0.3,0c-0.1,0.1-0.4-0.1-0.4-0.1
	c-0.4-0.7-0.6-1.4-0.7-1.7c0,0.3,0.1,1.7-0.5,2.6c-0.2-0.2-0.4-0.5-0.5-0.6c-0.1-0.1,0.4,0.1,0.4,0c-0.2-0.2-0.4-0.3-0.5-0.6
	c0,0,0.2,0.1,0.3,0c-0.1,0-0.4-0.1-0.4-0.1c-0.4-0.7-0.6-1.4-0.7-1.7c0,0.4,0.2,2.6-1.3,3.1c-0.2-0.1-0.3-0.2-0.5-0.3
	c-0.7-0.7-0.3-0.7,0-0.6c0.9,0.4,1.2,0.1,1.4,0c-0.3-0.1-1.6-0.2-2-1.1c0.1,0.2,0.3,0.3,0.4,0.3c-0.1-0.1-0.2-0.2-0.2-0.4
	c0.3,0.4,0.6,0.4,0.8,0.3l-0.6-0.4c0.5,0.2,0.7,0.2,0.9,0.1c-0.7-0.2-1.3-0.8-1.5-1.7c0-0.1,0.4,0.4,1.1,0.3
	c-1.6-0.4-1.4-2.8-1.4-3.1c-0.1,0.3-0.3,1-0.7,1.7c0,0-0.3,0.2-0.4,0.1c0.1,0.2,0.3,0,0.3,0c0,0.2-0.3,0.4-0.5,0.6
	c0.1,0,0.5-0.1,0.4,0c-0.5,0.8-1.6,2.2-2.4,2.3c0.3,0.2,1.1-0.1,1.4-0.5c-0.2,0.5-0.5,1-1.2,1.2c-1.2-0.6-1-2.7-1.1-3
	c-0.1,0.3-0.3,1-0.7,1.7c0,0-0.3,0.2-0.4,0.1c0.1,0.2,0.3,0,0.3,0c0,0.2-0.3,0.4-0.5,0.6c0.1,0,0.5-0.1,0.4,0
	c-0.1,0.2-0.2,0.3-0.4,0.5c-0.5-0.1-1.3-0.3-1.6-1c0.1,0.2,0.3,0.3,0.4,0.3c-0.1-0.1-0.2-0.2-0.2-0.4c0.3,0.4,0.6,0.4,0.8,0.3
	l-0.6-0.4c0.5,0.2,0.7,0.2,0.9,0.1c-0.7-0.2-1.3-0.8-1.5-1.7c0-0.1,0.4,0.4,1.1,0.3c-1.6-0.4-1.4-2.8-1.4-3.1
	c-0.1,0.3-0.3,1-0.7,1.7c0,0-0.3,0.2-0.4,0.1c0.1,0.2,0.3,0,0.3,0c0,0.2-0.3,0.4-0.5,0.6c0.1,0,0.5-0.1,0.4,0
	c-0.4,0.6-1.1,1.5-1.8,2c0-0.1-0.1-0.3-0.1-0.4c0-0.1,0.1,0.1,0.4,0.2c-0.3-0.2-0.5-0.5-0.5-0.6c-0.2-0.8-0.3-1.6-0.3-2.3
	c0-0.1,0.5,0.3,0.6,0.3c-0.1-0.3-0.4-0.8-0.3-1.2c0-0.1,0.4,0.8,0.8,0.7c-0.2,0-1.4-1.6,0.7-4.3c-0.3,0.3-1.9,1.1-2.2,1.8
	c0,0.1,0.8-0.6,0.7-0.3c0,0.1-0.6,0.8-0.6,0.9c-0.6,1.2-1.4,2.4-2.5,2.5c0.7,0.4,1.5-0.2,1.4-0.2c-0.7,1.3-1.8,2.1-2.7,2.3
	c0.2,0.2,0.5,0.3,1,0.2c-0.3,0.2-0.6,0.4-0.9,0.4c0.2,0.2,0.5,0.3,1.1-0.2c0,0.3-0.2,0.4-0.4,0.6c0.2,0,0.4-0.1,0.7-0.4
	c-0.2,0.3-0.5,0.6-0.7,0.7c-0.1,0.1-0.5,0.2-0.9,0.1c-0.7-1-1.3-2.3-1.6-3.2c-0.1-0.1,0.6,0.3,0.7,0.2c-0.2-0.4-0.6-0.8-0.6-1.2
	c0-0.1,0.3,0.3,0.5,0c-0.2,0-0.6-0.3-0.6-0.4c-0.4-1.4-0.5-2.7-0.5-3.3c-0.1,0.3-0.3,1.3-0.7,2.4c-0.9-1.1-1.8-2.9-2.3-4.1
	c-0.1-0.1,0.6,0.3,0.7,0.2c-0.2-0.4-0.6-0.8-0.6-1.2c0-0.1,0.3,0.3,0.5,0c-0.2,0-0.6-0.3-0.6-0.4c-0.4-1.4-0.5-2.7-0.5-3.3
	c-0.2,0.7-0.7,4.8-3.7,4.9c1.1,0.4,2.1-0.3,2-0.2c-0.7,1.4-2,2.2-3.3,2.3c0.2,0.3,0.6,0.4,1.6,0.2l-1.2,0.4c0.4,0.2,0.8,0.3,1.5-0.2
	c0,0.3-0.2,0.4-0.5,0.6c0.3,0,0.6-0.1,0.9-0.4c-0.5,0.8-1.4,1.1-2.3,1.2c-1.5-1.4-1.2-4.4-1.3-4.9c-0.1,0.6-0.6,1.8-1.2,3.1
	c0,0.1-0.5,0.3-0.7,0.2c0.2,0.3,0.5,0,0.5,0.1c-0.1,0.4-0.5,0.7-0.8,1c0.1,0.1,0.9-0.2,0.8-0.1c-0.9,1.4-2.9,3.9-4.3,4
	c0.5,0.4,2-0.3,2.5-0.9c-0.2,0.8-0.7,1.4-1.5,1.9l0.1-0.4c-0.6-0.1-1.1-0.3-1.7-0.7c-0.7-0.7-0.3-0.7,0-0.6c0.9,0.4,1.2,0.1,1.4,0
	c-0.3-0.1-1.6-0.2-2-1.1c0.1,0.2,0.3,0.3,0.4,0.3c-0.1-0.1-0.2-0.2-0.2-0.4c0.3,0.4,0.6,0.4,0.8,0.3l-0.6-0.4
	c0.5,0.2,0.7,0.2,0.9,0.1c-0.7-0.2-1.3-0.8-1.5-1.7c0-0.1,0.4,0.4,1.1,0.3c-1.6-0.4-1.4-2.8-1.4-3.1c-0.1,0.3-0.3,1-0.7,1.7
	c0,0-0.3,0.2-0.4,0.1c0.1,0.2,0.3,0,0.3,0c0,0.2-0.3,0.4-0.5,0.6c0.1,0,0.5-0.1,0.4,0c-0.3,0.5-0.9,1.2-1.4,1.7
	c-0.4-0.4-0.8-0.9-1.3-1.6c0-0.1,0.1,0.1,0.5,0c-0.4-0.1-0.7-0.4-0.8-0.5c-0.5-0.9-1-1.8-1.3-2.5c-0.1-0.2,0.7,0.2,0.8,0.1
	c-0.3-0.4-0.8-0.8-0.9-1.3c-0.1-0.1,0.8,0.7,1.2,0.4c-0.2,0.1-2.3-1.3-1-5.3c-0.2,0.5-1.8,2-1.8,3c0,0.2,0.7-1.1,0.7-0.6
	c0,0.1-0.3,1.2-0.3,1.3c-0.2,1.6-0.6,3.4-1.8,3.9c0.9,0.1,1.6-0.9,1.6-0.8c-0.3,1.9-1.1,3.2-2.1,3.8c0.4,0.1,0.7,0.2,1.3-0.2
	c-0.2,0.4-0.5,0.7-0.9,0.8c0.3,0.1,0.7,0.1,1.2-0.7c0.1,0.3-0.1,0.6-0.2,0.8c0.2-0.1,0.4-0.3,0.6-0.7c-0.1,0.5-0.3,0.9-0.5,1.2
	c-0.1,0.1-0.7,0.6-1.3,0.5c0.1,0.3,0.7,0.1,0.5,0.2c-0.3,0.2-0.6,0.3-0.9,0.4c-1-0.9-2-2.1-2.6-3c-0.1-0.1,0.6,0.1,0.8,0
	c-0.3-0.3-0.8-0.6-0.8-1c0-0.1,0.4,0.3,0.5-0.1c-0.2,0.1-0.7-0.2-0.7-0.2c-0.7-1.3-1.1-2.5-1.3-3.1c-0.1,0.7,0.4,4.9-2.4,5.7
	c1.2,0.1,2-0.7,1.9-0.6c-0.3,1.5-1.4,2.6-2.6,3c0.3,0.2,0.7,0.3,1.6-0.1l-1.1,0.7c0.4,0.1,0.8,0.1,1.4-0.6c0.1,0.3-0.1,0.5-0.3,0.7
	c0.3-0.1,0.6-0.2,0.8-0.6c-0.4,1-1.4,1.5-2.2,1.8c0-0.1-0.1-0.1-0.1-0.2c0,0,0.2,0.1,0.3,0c-0.1,0-0.4-0.1-0.4-0.1
	c-0.4-0.7-0.6-1.4-0.7-1.7c0,0.3,0.1,1.7-0.5,2.6c-0.2-0.2-0.4-0.5-0.5-0.6c-0.1-0.1,0.4,0.1,0.4,0c-0.2-0.2-0.4-0.3-0.5-0.6
	c0,0,0.6,0.1,0.7-0.1c-0.1,0.1-1.5-1.4-1.3-3.2c-0.5,0.6-0.3,4.1-1.5,4.5c-0.2-0.1-0.3-0.2-0.5-0.3c-0.7-0.7-0.3-0.7,0-0.6
	c0.9,0.4,1.2,0.1,1.4,0c-0.3-0.1-1.6-0.2-2-1.1c0.1,0.2,0.3,0.3,0.4,0.3c-0.1-0.1-0.2-0.2-0.2-0.4c0.3,0.4,0.6,0.4,0.8,0.3l-0.6-0.4
	c0.5,0.2,0.7,0.2,0.9,0.1c-0.7-0.2-1.3-0.8-1.5-1.7c0-0.1,1,0.4,1.7,0.3c-1.6-0.4-1.8-3.9-1.8-4.3c-0.1,0.3-1,3-1.6,3.2
	c0.1,0.2,0.7-0.2,0.6-0.1c0,0.2-0.3,0.4-0.5,0.6c0.1,0,0.5-0.1,0.4,0c-0.5,0.8-1.6,2.2-2.4,2.3c0.3,0.2,1.1-0.1,1.4-0.5
	c-0.2,0.5-0.5,1-1.2,1.2c-1.2-0.6-1-2.7-1.1-3c0,0.2-0.2,0.6-0.4,1.1c-0.5-0.1-0.9-0.3-1.3-0.6c-0.7-0.7-0.3-0.7,0-0.6
	c0.9,0.4,1.2,0.1,1.4,0c-0.3-0.1-1.6-0.2-2-1.1c0.1,0.2,0.3,0.3,0.4,0.3c-0.1-0.1-0.2-0.2-0.2-0.4c0.3,0.4,0.6,0.4,0.8,0.3l-0.6-0.4
	c0.5,0.2,0.7,0.2,0.9,0.1c-0.7-0.2-1.3-0.8-1.5-1.7c0-0.1,0.4,0.4,1.1,0.3c-1.6-0.4-1.4-2.8-1.4-3.1c-0.1,0.3-0.3,1-0.7,1.7
	c0,0-0.3,0.2-0.4,0.1c0.1,0.2,0.3,0,0.3,0c0,0.2-0.3,0.4-0.5,0.6c0.1,0,0.5-0.1,0.4,0c-0.5,0.8-1.6,2.2-2.4,2.3
	c0.3,0.2,1.1-0.1,1.4-0.5c-0.2,0.5-0.6,1-1.3,1.2c0.3,0.2,0.8,0.1,1.1,0c-0.4,0.5-0.8,0.9-1.3,1.1c-0.2-0.4-0.3-0.8-0.3-1
	c0,0.2,0,0.6-0.1,1.2c-0.1,0-0.1,0-0.2,0l0.1,0.5c-0.2,0.6-0.5,1.1-1.1,1.4c-0.6-0.4-1.2-0.9-1.6-1.2c-0.1-0.1,0.4,0,0.4-0.1
	c-0.2-0.1-0.5-0.2-0.6-0.4c0,0,0.2,0.1,0.3-0.1c-0.1,0.1-0.4,0-0.4,0c-0.5-0.6-0.9-1.2-1.1-1.5c0,0.4,0.7,2.3-0.4,3.2
	c-0.1-0.1-0.2-0.2-0.2-0.4c0,0,0.2,0.1,0.3,0c-0.1,0-0.4-0.1-0.4-0.1c-0.4-0.7-0.6-1.4-0.7-1.7c0,0.4,0.2,2.7-1.4,3.1
	c0.7,0.1,1.1-0.4,1.1-0.3c-0.2,0.8-0.8,1.4-1.5,1.7c0.2,0.1,0.4,0.2,0.9-0.1l-0.6,0.4c0.2,0.1,0.5,0.1,0.8-0.3
	c0.1,0.1-0.1,0.3-0.2,0.4c0.2,0,0.3-0.1,0.4-0.3c-0.3,0.9-1.5,1-1.9,1.1c-0.1,0-0.1-0.1-0.2-0.1c0.3,0.1,0.4,0,0.6-0.1
	c-0.5-0.1-1-0.6-1.3-1.2c0,0,0.4,0.3,0.8,0.1c-0.6-0.1-1-0.7-1.2-1.3c0-0.1-0.2-0.4-0.3-0.5c-0.1-0.2,0.4,0.2,0.3,0.2
	c-0.1-0.4-0.9-0.8-1.1-1c0.9,1.4,0.1,2.2,0,2.1c0.2,0.1,0.5-0.3,0.5-0.3c0,0.2-0.2,0.4-0.3,0.6c0,0,0.4-0.2,0.4-0.1
	c-0.1,0.3-0.2,0.7-0.4,1.1c0,0-0.1,0.2-0.3,0.3c0.2,0,0.2-0.1,0.2-0.1c-0.2,0.5-0.5,0.9-0.7,1c0.2,0.2,0.7-0.3,0.8-0.6
	c0,0.5-0.8,1.2-1.3,1.5c-0.3-0.3-0.5-0.7-0.7-1.1c0-0.1-0.2-0.4-0.3-0.5c-0.1-0.2,0.4,0.2,0.3,0.2c-0.1-0.4-0.9-0.8-1.1-1
	c0.9,1.4,0.1,2.2,0,2.1c0.2,0.1,0.5-0.3,0.5-0.3c0,0.2-0.2,0.4-0.3,0.6c0,0,0.4-0.2,0.4-0.1c-0.1,0.3-0.2,0.7-0.4,1.1
	c0,0-0.1,0.2-0.3,0.3c0.2,0,0.2-0.1,0.2-0.1c-0.2,0.5-0.5,0.9-0.7,1c0.2,0.2,0.7-0.3,0.8-0.6c0,0.5-1.1,2-1.5,2.3
	c0.6,0.2,1.5-0.5,1.7-0.7c-0.3,1.8-2.2,2.7-3,2.6c0.2,0.2,1.1,0.4,1.8,0c0.2,0-0.1,0.3-0.4,0.9c0.6,0.1,1.1-0.9,1-1.3
	c0.1-0.1,0.3-0.2,0.5-0.4c-0.1,0.7-0.3,1.4-0.7,1.9c-0.5,0.8-1.1,1.1-1.8,1.5l1.4-0.5l-2.1,2.5l2.1-1.3c0,0,1,0.1-0.7,1.4
	c-1.4,1.7-2.6,0.4-3.8,0.5c-0.7,1.3-1.4,2-2,2.3c-0.4,1.2-0.7,1-1,1c-1.1,1-2,1.8-2.4,2.3c35.6-0.5,37.5-0.2,60-0.3
	c28.4-0.1,38.9,0.1,58.4,0.1c0-0.2,0-0.3,0-0.5c-0.3-1.6-0.7-1.3-1.4-4.7c-0.6,0.1-1.3-1.3-2-2.4c-0.3-0.4,0.3-1.2-0.1-1.6
	c-0.6,0.3-0.5-0.2-0.5-0.6C112.6,134.8,112.8,133.5,113.1,132.7z M13.1,130.4c-0.1-0.1-0.2-0.2-0.3-0.4c0.1,0.2,0.2,0.2,0.3,0.2
	c-0.1-0.1-0.2-0.2-0.2-0.3c0.1,0.1,0.2,0.2,0.3,0.2l0.1,0.4C13.3,130.5,13.2,130.4,13.1,130.4z M13.1,129.8c0,0,0.1,0,0.1,0l0,0.1
	C13.2,129.9,13.1,129.9,13.1,129.8z M13.1,129.4L13.1,129.4c-0.3-0.2-0.5-0.5-0.7-0.9c0,0,0.4,0.3,0.8,0.1c-0.2,0-0.3-0.1-0.4-0.2
	c0.3,0,1.2-0.3,1.3-0.5C13.9,128.6,13.6,129.2,13.1,129.4z M15.9,128c-0.2-0.3,0-0.3,0.1-0.2c0.2,0.1,0.3,0.1,0.4,0.1
	C16.3,127.9,16.1,128,15.9,128z M17.2,127.5c-0.1,0.1-0.2,0.1-0.3,0.2c0,0,0,0,0,0c-0.1,0-0.4,0-0.8-0.1c-0.1,0,0.2,0,0.2-0.1
	c-0.3,0.1-0.6,0-0.6-0.1c-0.1-0.1-0.2-0.2-0.3-0.4c0.1,0.2,0.2,0.2,0.3,0.2c-0.1-0.1-0.2-0.2-0.2-0.3c0.2,0.2,0.4,0.2,0.5,0.2
	c0.2,0.1,0.5,0.1,1.1-0.1C17.5,126.8,17.9,126.8,17.2,127.5z M20,124.9C20,124.8,20,124.8,20,124.9C20,124.9,20.1,124.9,20,124.9
	C20,124.9,20,124.9,20,124.9z M19.6,124.4c-0.2-0.3-0.4-0.5-0.5-0.7c0,0,0,0,0,0c0,0,0,0,0,0c0.1,0,0.3,0.1,0.4,0.1
	c0,0-0.1-0.1-0.1-0.1c0.4-0.2,0.7-0.5,0.7-0.5C20,123.6,19.9,124.1,19.6,124.4z M20.2,125.1C20.2,125.1,20.2,125.1,20.2,125.1
	c0-0.1,0-0.2,0.1-0.3C20.3,124.9,20.3,125,20.2,125.1z M22.9,125.2C22.9,125.2,22.9,125.2,22.9,125.2
	C22.9,125.2,22.9,125.2,22.9,125.2L22.9,125.2z M22.4,124c0.2,0.2,0.5,0.3,0.8,0.3c-0.1,0.1-0.2,0.2-0.3,0.3
	C22.8,124.4,22.6,124.2,22.4,124z M23.1,125.3c0.1,0,0.1-0.1,0.2-0.1c0,0,0,0,0.1,0c0,0.1,0,0.2-0.1,0.2
	C23.1,125.4,23.1,125.3,23.1,125.3z M23.3,125.5c0,0-0.1,0-0.1-0.1c0.1,0,0.2-0.1,0.3-0.3C23.5,125.3,23.4,125.4,23.3,125.5z
	 M23.4,124.1c-0.2-0.1-0.4-0.2-0.7-0.3c0.6,0,0.9-0.4,0.9-0.3C23.6,123.7,23.5,123.9,23.4,124.1z M31.5,124.8
	c-0.3-0.3-0.6-0.7-0.7-1.2c0,0,0.4,0.4,1,0.3c0.3,0,0.5,0,0.8-0.1C32.2,124.2,31.9,124.6,31.5,124.8z M36.8,125.2
	c-0.2-0.1-0.5-0.1-0.7-0.2c0.6,0,1-0.4,0.9-0.4C37,124.8,36.9,125,36.8,125.2z M41.2,125.7c-0.1,0.1-0.2,0.1-0.3,0.2
	c-0.3-0.3-0.5-0.6-0.8-0.9c0.3,0,0.6-0.2,1-0.3C41.7,124.4,42.4,124.5,41.2,125.7z M46.9,124.5c-0.1-0.1-0.2-0.2-0.3-0.3
	c0.2,0.1,0.4,0.1,0.7,0.1C47.1,124.4,47,124.5,46.9,124.5z M48.4,123.3c-0.2,0.2-0.3,0.4-0.5,0.5c-0.8-0.4-1.3-1.1-1.6-1.9
	c0,0,0.1,0.1,0.1,0.1c0,0,0,0-0.1,0c0.1,0.1,0.3,0.2,0.5,0.3c0.6,0.4,1.3,0.6,1.8,0.4C48.5,123,48.5,123.2,48.4,123.3z M48.7,122.8
	c-0.3-0.1-0.6-0.2-0.9-0.4c0.2-0.1,0.4-0.2,0.6-0.3C48.7,121.8,49.1,121.8,48.7,122.8z M52.4,118.7c0.2,0.4,0.5,0.7,0.9,1
	c-0.1,0.1-0.2,0.1-0.2,0.1C52.8,119.5,52.5,119.1,52.4,118.7z M53.6,120.3c-0.1-0.1-0.2-0.2-0.3-0.3c0.1,0,0.2-0.1,0.4-0.1
	c0.1,0,0.2,0.1,0.3,0.1C53.8,120.1,53.7,120.2,53.6,120.3z M54.1,119.7C54,119.6,54,119.6,54.1,119.7c0-0.1,0-0.2,0.1-0.2
	C54.1,119.5,54.1,119.6,54.1,119.7z M58.4,124.3l-0.9-1.5l1.1,0.2c0.4,0,0.9,0,1.3-0.2C59.4,123.4,59,123.9,58.4,124.3z M65.2,119.6
	c-0.2,0.1-0.3,0.1-0.5,0.2c-0.3-0.3-0.5-0.7-0.7-1.1c0.2,0,0.6,0.1,0.9,0c0.3,0.1,0.5,0.1,0.8,0.1c-0.1,0-0.3-0.1-0.4-0.1
	C66,118.5,66.6,118.7,65.2,119.6z M70.9,119.7c0-0.1-0.1-0.2-0.1-0.2c0.1,0,0.2,0.1,0.2,0.1C71,119.6,71,119.6,70.9,119.7z
	 M71.3,120.2C71.3,120.2,71.2,120.2,71.3,120.2C71.2,120.2,71.2,120.2,71.3,120.2C71.3,120.1,71.3,120.1,71.3,120.2z M71.6,118.8
	c-0.4-0.5-0.6-1.1-0.6-1.7c0.2,0.4,0.5,0.8,1,1.1C71.9,118.4,71.8,118.6,71.6,118.8z M75.2,123.4C75.2,123.4,75.2,123.4,75.2,123.4
	C75.1,123.4,75.1,123.4,75.2,123.4C75.2,123.4,75.2,123.4,75.2,123.4z M74.5,123.5C74.5,123.5,74.4,123.5,74.5,123.5
	C74.5,123.5,74.5,123.5,74.5,123.5C74.5,123.5,74.5,123.5,74.5,123.5z M75,125c-0.2-0.3-0.3-0.6-0.4-0.9c0.1,0,0.2,0,0.4,0
	c0.2,0.2,0.4,0.3,0.5,0.4C75.4,124.7,75.2,124.8,75,125z M75.6,124c0,0,0.1,0.1,0.1,0.1C75.7,124.1,75.7,124.1,75.6,124z
	 M79.4,122.7C79.4,122.7,79.4,122.7,79.4,122.7c0,0.2,0.1,0.4,0.2,0.6c0,0-0.1,0-0.1,0.1C79.4,123.1,79.4,122.9,79.4,122.7z
	 M79.8,124.1c-0.1-0.2-0.2-0.4-0.3-0.6c0.1,0,0.1,0,0.2,0c0.1,0.1,0.2,0.3,0.3,0.4C79.9,123.9,79.8,124,79.8,124.1z M80.2,123.6
	c0,0-0.1-0.1-0.1-0.1c0.1,0,0.2,0,0.3-0.1C80.3,123.5,80.3,123.5,80.2,123.6z M80,123c0-0.1-0.1-0.3-0.1-0.4
	c0.3-0.1,0.6-0.3,0.7-0.5C80.5,122.5,80.3,122.8,80,123z M83.7,124.3c-0.1-0.1-0.2-0.1-0.3-0.2c-0.7-0.7-0.3-0.7,0-0.6
	c0.3,0.1,0.6,0.2,0.8,0.2C84,124,83.9,124.1,83.7,124.3z M86.6,124.5c-0.3-0.3-0.6-0.7-0.7-1.2c0,0,0.4,0.4,1,0.3
	c0.3,0,0.5,0,0.8-0.1C87.3,123.9,87,124.3,86.6,124.5z M91.9,124.9c-0.2-0.1-0.5-0.1-0.7-0.2c0.6,0,1-0.4,0.9-0.4
	C92.1,124.5,92,124.7,91.9,124.9z M94,124.9C94,124.8,94,124.8,94,124.9C94,124.8,94,124.8,94,124.9C94,124.8,94,124.8,94,124.9z
	 M96.2,126.2C96.2,126.2,96.2,126.2,96.2,126.2C96.2,126.2,96.2,126.2,96.2,126.2C96.2,126.2,96.2,126.2,96.2,126.2z M96.3,126.6
	C96.3,126.6,96.3,126.6,96.3,126.6C96.3,126.6,96.3,126.6,96.3,126.6L96.3,126.6z M96.5,126.8C96.5,126.7,96.5,126.7,96.5,126.8
	C96.5,126.7,96.5,126.7,96.5,126.8C96.5,126.7,96.5,126.7,96.5,126.8z M96.6,126.9C96.6,126.9,96.6,126.9,96.6,126.9
	C96.7,126.9,96.7,126.9,96.6,126.9C96.7,126.9,96.7,126.9,96.6,126.9z M98.9,127.5c0,0.1,0.1,0.2,0.1,0.3c0,0.1-0.1,0.2-0.1,0.2
	C98.9,127.8,98.9,127.7,98.9,127.5z M99.1,129.5l-0.3,0c-0.1-0.3-0.2-0.5-0.3-0.8c0,0,0,0,0,0c0.2,0.2,0.4,0.3,0.7,0.4
	C99.2,129.2,99.2,129.4,99.1,129.5z M99.3,128.9c-0.1-0.1-0.2-0.3-0.3-0.4c0.1-0.1,0.2-0.2,0.3-0.3c0,0,0.1,0.1,0.1,0.1
	C99.4,128.5,99.4,128.7,99.3,128.9z M101.5,124.6c-0.1,0.6-0.2,1.2-0.4,1.7c-0.2-0.2-0.4-0.5-0.6-1
	C101.1,125.2,101.5,124.5,101.5,124.6z M100.6,126.3c0,0,0.1,0.1,0.4,0.2c0,0.1-0.1,0.2-0.1,0.2
	C100.7,126.6,100.6,126.5,100.6,126.3z M100.9,127.7C100.9,127.7,100.9,127.7,100.9,127.7c0-0.1,0-0.1,0.1-0.1
	C101,127.6,100.9,127.7,100.9,127.7z M101.1,127.9c0.1-0.1,0.1-0.2,0.2-0.3c0.1,0.2,0,0.3-0.1,0.5
	C101.1,128.1,101.1,128,101.1,127.9z M101.3,128.4c0-0.1-0.1-0.1-0.1-0.2c0.1-0.1,0.2-0.3,0.3-0.5
	C101.5,128,101.4,128.2,101.3,128.4z M104.1,127c0.1,0.2,0.2,0.3,0.4,0.5c0,0-0.1,0-0.1,0C104.3,127.3,104.2,127.1,104.1,127z
	 M104.6,127.5C104.6,127.5,104.5,127.5,104.6,127.5c-0.1,0-0.1,0-0.1,0C104.6,127.5,104.6,127.5,104.6,127.5z M109.2,129.9
	C109.2,129.9,109.2,129.9,109.2,129.9C109.3,129.9,109.3,129.9,109.2,129.9L109.2,129.9z M109.5,130C109.5,130,109.5,130,109.5,130
	C109.5,130,109.5,130,109.5,130C109.5,130,109.5,130,109.5,130z M108.8,129.8c-0.1,0-0.1-0.1-0.2-0.1c-0.9-0.6-0.4-0.6,0-0.5
	c0.4,0.1,0.7,0.2,0.9,0.2C109.3,129.6,109.1,129.7,108.8,129.8z M109.7,130.1C109.7,130.1,109.7,130.1,109.7,130.1
	C109.7,130.1,109.7,130.1,109.7,130.1C109.7,130.1,109.7,130.1,109.7,130.1z M100.5,122.4C100.5,122.3,100.5,122.3,100.5,122.4
	C100.5,122.3,100.5,122.3,100.5,122.4z"/>
<g>
	<polygon class="st0" points="397.6,96.1 397.6,100.6 397.4,100.6 397.4,96.1 397.5,94.5 	"/>
	<path class="st0" d="M397.9,99c0,0.2-0.2,0.4-0.4,0.4c-0.2,0-0.4-0.2-0.4-0.4c0-0.2,0.2-0.4,0.4-0.4
		C397.7,98.6,397.9,98.8,397.9,99z"/>
	<polygon class="st0" points="353,98.3 353,102.8 352.8,102.8 352.8,98.3 352.9,96.8 	"/>
	<path class="st0" d="M353.3,101.2c0,0.2-0.2,0.4-0.4,0.4c-0.2,0-0.4-0.2-0.4-0.4c0-0.2,0.2-0.4,0.4-0.4
		C353.1,100.9,353.3,101,353.3,101.2z"/>
	<polygon class="st0" points="377.3,104.9 377.3,109.3 377.1,109.3 377.1,104.9 377.2,103.3 	"/>
	<path class="st0" d="M377.6,107.8c0,0.2-0.2,0.4-0.4,0.4c-0.2,0-0.4-0.2-0.4-0.4c0-0.2,0.2-0.4,0.4-0.4
		C377.4,107.4,377.6,107.5,377.6,107.8z"/>
	<polygon class="st0" points="347.2,144.7 407.5,144.7 404.6,115.6 402.5,114.5 401.4,114.5 401.4,111.3 401.7,111.3 401.7,111.3 
		397.5,99.4 393.7,111.3 393.7,111.3 393.9,111.3 393.9,114.5 393.1,114.5 391.6,116.8 391.6,107.4 392.4,107.4 391.9,102.5 
		392.1,102.5 392.1,102.2 389.5,102.2 389.5,99 390.1,98.8 390.1,98 389.8,97.9 387.5,95.1 385.4,97.9 385.2,98 385.2,98.9 
		385.7,99 385.7,102.2 381.5,102.2 381.5,102.5 381.7,102.5 381.1,107.4 382,107.4 382,110.2 378.1,110.2 377.2,108.4 376.3,110.2 
		368.4,110.2 368.4,108.7 368.8,108.7 368.8,107.8 367.3,107.8 367.3,108.7 367.7,108.7 367.7,110.2 367.1,110.2 367.1,112.1 
		366.6,109.8 365.5,114.5 365.5,111.7 364,111.7 364,111.2 360,106 359,107.1 357.2,107.1 357.2,103.4 355.4,103.4 355.4,105.6 
		352.9,101.8 349.4,108.3 349.6,108.9 349.6,118.3 348.9,118.3 348.1,119.1 348.1,119.8 348.5,119.8 	"/>
</g>
<path class="st0" d="M575.5,144.7c-1.5-1.1-3.4-2.2-6.5-2.4c-7.8,1-12.3-6.1-15-9.5c-1-0.8-2-1.4-3.2-1.5c-0.9-0.2-4.1-0.4-6.5-2
	c-0.9-0.6-2-0.4-2.2-1c-0.1-0.7-0.7-0.8-0.8-1.1c-0.1-0.3-0.3-0.6-0.5-0.5c-0.7,0.5-1.1,0.5-1.4,0c0-0.1,0-0.2-0.1-0.3
	c0-0.1-0.2-0.2-0.2-0.3c-0.1-0.3-0.5-0.1-0.5-0.9c-0.4-1-8.6,4.5-12.6,3c-0.3-0.1-0.5,0.3-0.5,0.5c-0.4,4.3-3.6,3.2-4.9,2.1
	c-3-2.1-6.1-0.2-9.1,1.1c-1.5,0.5-2.3,0-3-0.6c-1.5,0-2.3-2.2-3.6-2.2c-1.7,0-3.8-0.7-4.5-2c-0.6,0.2-0.4-0.6-0.3-1.2
	c-0.4,0.1-0.8,0.1-0.9-0.2c-1.8-0.5-1.7-0.2-2.6-2.1c-1-1.2-3.1,2.5-4.4,2.7c-0.6-0.3-1.2-0.3-1.8,0.5c-0.6,0.9-1,0.1-1.5,0.3
	c-4.3,2.9-4.8,7-8.3,7c-9.2,0.1-10.3-5-12.2-3.2c-1.9,2.3-3.5,3.5-4.8,3.7c-1.6,3.3-2.9,3.3-4.2,3.2c-1.5,0.4-1.2,1.7-2,1.3
	c-2-0.6-5.4,3.4-6.6,4.3c-0.5,0.5-0.9,0.9-1,1.3H575.5z"/>
<path class="st0" d="M419.9,65.1v3.8h0.6v0.5h-0.6v0.7h0.6v6.6h-1.7v2.5h0.8v15.4h-0.4v7.8H417v-0.9h-0.4l-2.5-2.6v-1.2H414
	c0,0,0,0,0,0c0-0.3-0.2-0.6-0.6-0.7v-6.1l-0.1-1.6l-0.1,1.6v6c-0.3,0-0.6,0.3-0.6,0.7c0,0,0,0,0,0h-0.1v1.1l-2.8,2.7h-0.4v0.9h-0.5
	v0.8l-4.4,5h0.8v3.4h-0.6v0.8h0.6v4.5h-0.4v0.8h0.4v4.1h-1.3v22.9h56.7v-34.3H460v-3.7h-3v-6h1.1v-2.5h-3.4v-8h0.5v-4.4h-1.8v-8.2h0
	v-0.9h0v-6.6h0.3v-2h1v-2.5"/>
<polyline class="st0" points="431.2,63.8 428.6,66.3 428.6,63.1 "/>
<path class="st0" d="M441.9,64.3c0,0.3,0.3,0.6,0.6,0.7v0.5l-1.7,5.7l-5-5.2l-0.5,0.5l-2.5-2.5"/>
<path class="st0" d="M443.9,63.6v2.5h1v2h0.4v6.4l-2.6-9.1V65c0.3,0,0.6-0.3,0.6-0.7"/>
<path class="st2" d="M163.5,64.2c-5.8,0-10.5-4.7-10.5-10.5c0-3.9,2.1-7.3,5.3-9.1c-5.1,0.8-9,5.1-9,10.4c0,5.8,4.7,10.5,10.5,10.5
	c1.9,0,3.7-0.5,5.3-1.4C164.6,64.2,164.1,64.2,163.5,64.2z"/>
</svg>
