<?xml version="1.0" encoding="utf-8"?>
<!-- Generator: Adobe Illustrator 25.3.1, SVG Export Plug-In . SVG Version: 6.00 Build 0)  -->
<svg version="1.1" id="Layer_1" xmlns="http://www.w3.org/2000/svg" xmlns:xlink="http://www.w3.org/1999/xlink" x="0px" y="0px"
	 viewBox="0 0 576 144" style="enable-background:new 0 0 576 144;" xml:space="preserve">
<style type="text/css">
	.st0{clip-path:url(#SVGID_2_);fill:#0B0B0C;}
	.st1{clip-path:url(#SVGID_4_);fill:#0B0B0C;}
	.st2{clip-path:url(#SVGID_6_);fill:#0B0B0C;}
	.st3{clip-path:url(#SVGID_8_);}
	.st4{fill:#0B0B0C;}
	.st5{fill:#FFFFFF;}
	.st6{clip-path:url(#SVGID_12_);}
	.st7{clip-path:url(#SVGID_14_);fill:#0B0B0C;}
	.st8{clip-path:url(#SVGID_16_);}
	.st9{clip-path:url(#SVGID_18_);fill:#FEFEFF;}
	.st10{clip-path:url(#SVGID_20_);fill:#FEFEFF;}
	.st11{clip-path:url(#SVGID_22_);fill:#FEFEFF;}
	.st12{clip-path:url(#SVGID_24_);fill:#FEFEFF;}
	.st13{clip-path:url(#SVGID_26_);}
	.st14{fill:#FEFEFF;}
	.st15{clip-path:url(#SVGID_28_);}
	.st16{clip-path:url(#SVGID_30_);}
	.st17{clip-path:url(#SVGID_32_);}
	.st18{clip-path:url(#SVGID_34_);}
	.st19{clip-path:url(#SVGID_36_);}
	.st20{clip-path:url(#SVGID_38_);}
	.st21{clip-path:url(#SVGID_40_);}
	.st22{clip-path:url(#SVGID_42_);}
	.st23{clip-path:url(#SVGID_44_);}
	.st24{clip-path:url(#SVGID_46_);}
	.st25{clip-path:url(#SVGID_48_);}
	.st26{clip-path:url(#SVGID_50_);}
	.st27{clip-path:url(#SVGID_52_);}
	.st28{clip-path:url(#SVGID_54_);}
	.st29{clip-path:url(#SVGID_56_);}
	.st30{clip-path:url(#SVGID_58_);}
	.st31{clip-path:url(#SVGID_60_);}
	.st32{clip-path:url(#SVGID_62_);}
	.st33{clip-path:url(#SVGID_64_);}
	.st34{clip-path:url(#SVGID_66_);}
	.st35{clip-path:url(#SVGID_68_);}
	.st36{clip-path:url(#SVGID_70_);}
	.st37{clip-path:url(#SVGID_72_);}
	.st38{clip-path:url(#SVGID_74_);}
	.st39{clip-path:url(#SVGID_76_);}
	.st40{clip-path:url(#SVGID_78_);}
	.st41{clip-path:url(#SVGID_80_);}
	.st42{clip-path:url(#SVGID_82_);}
	.st43{clip-path:url(#SVGID_84_);}
	.st44{clip-path:url(#SVGID_86_);}
	.st45{clip-path:url(#SVGID_88_);}
	.st46{clip-path:url(#SVGID_90_);}
	.st47{clip-path:url(#SVGID_92_);}
	.st48{clip-path:url(#SVGID_94_);}
	.st49{clip-path:url(#SVGID_96_);}
	.st50{clip-path:url(#SVGID_98_);}
	.st51{clip-path:url(#SVGID_100_);}
	.st52{clip-path:url(#SVGID_102_);}
	.st53{clip-path:url(#SVGID_104_);}
	.st54{clip-path:url(#SVGID_106_);}
	.st55{clip-path:url(#SVGID_108_);}
	.st56{clip-path:url(#SVGID_110_);}
	.st57{clip-path:url(#SVGID_112_);}
	.st58{clip-path:url(#SVGID_114_);}
	.st59{clip-path:url(#SVGID_116_);}
	.st60{clip-path:url(#SVGID_118_);}
	.st61{clip-path:url(#SVGID_120_);}
	.st62{clip-path:url(#SVGID_122_);}
	.st63{clip-path:url(#SVGID_124_);}
	.st64{clip-path:url(#SVGID_126_);}
	.st65{clip-path:url(#SVGID_128_);}
	.st66{clip-path:url(#SVGID_130_);}
	.st67{clip-path:url(#SVGID_132_);}
	.st68{clip-path:url(#SVGID_134_);}
	.st69{clip-path:url(#SVGID_136_);}
	.st70{clip-path:url(#SVGID_138_);}
	.st71{clip-path:url(#SVGID_140_);}
	.st72{clip-path:url(#SVGID_142_);}
	.st73{clip-path:url(#SVGID_144_);}
	.st74{clip-path:url(#SVGID_146_);}
	.st75{clip-path:url(#SVGID_148_);}
	.st76{clip-path:url(#SVGID_150_);}
	.st77{clip-path:url(#SVGID_152_);}
	.st78{clip-path:url(#SVGID_154_);}
	.st79{fill:none;stroke:#FFFFFF;stroke-miterlimit:10;}
</style>
<g>
	<g>
		<defs>
			<rect id="SVGID_1_" width="576" height="144"/>
		</defs>
		<clipPath id="SVGID_2_">
			<use xlink:href="#SVGID_1_"  style="overflow:visible;"/>
		</clipPath>
		<path class="st0" d="M179.8,125.9h-0.2v0.3h0.2v8.1h-0.2v0.3h0.2v8.1h-0.2v0.3h0.2v1.8H257v-2.4h0.2V142H257v-8.1h0.2v-0.3H257
			v-8.1h0.2v-0.3H257v-8.1h0.2v-0.3H257v-3.6l0,0v-2.8l-0.4-0.7h-0.8l-0.4,0.7v2h-0.6v-2l-0.4-0.7H254l0,0h0.1v-0.3H254v-2h0.1v-0.3
			H254v-2h0.1V105H254v-2h0.1v-0.3H254v-2.2h0.1v-0.3H254v-2h0.1v-0.3H254v-3.2h0.2v-0.2l-0.2-0.2V94l-2.5-5.6l0,0v-0.1l-0.8-0.8
			v-0.3l0,0v-0.1h-0.1V87c0-0.1,0-0.1-0.1-0.1V86c0.2-0.1,0.3-0.2,0.3-0.4c0-0.2-0.1-0.4-0.3-0.4v-1.8l-0.1-0.2l-0.1,0.2v0.1h-1.8
			l0.9,0.5l-0.9,0.5h1.8v0.7c-0.2,0.1-0.3,0.2-0.3,0.4s0.1,0.4,0.3,0.4v1c-0.1,0-0.1,0.1-0.1,0.2v0.1h-0.1v0.1h0.1v0.3l-0.7,0.8v0.1
			l0,0l-2.5,5.6v0.3l-0.2,0.2v0.2h0.4v2.3h-0.9V93h0.4l-0.2-1.6h-3.4l-0.2,1.6h0.3v2.8l-1.6-1.9h-0.2v-0.4c0.3-0.1,0.5-0.3,0.5-0.6
			c0-0.3-0.2-0.5-0.5-0.6v-2.1l-0.2-1.4l-0.2,1.4v2.1c-0.3,0.1-0.4,0.3-0.4,0.6c0,0.3,0.2,0.5,0.4,0.6v0.4h-0.2l-3.6,4.6h-1.4v-5
			h-0.3v5h-1v-1.6h0.4l-0.2-1.6h-3.4l-0.2,1.6h0.3v1.6H228V98h0.1v-0.2H228v-2.1h0.1v-0.2H228v-2.1h0.1v-0.2H228v-0.8h0.5v-0.7
			l-1-1.5h-0.4V87l-0.1-0.2l0,0.2v0.1h-1.9l0.9,0.5l-0.9,0.5h1.9v2.2h-0.4l-1,1.5v0.7h0.5v0.8H226v0.2h0.1v2.1H226v0.2h0.1v2.1H226
			V98h0.1v0.5h-7.5v-4.6h0.2v-0.3h-0.2v-6h0.2v-0.3h-0.3V84h-0.6l-1,0.8v2.5h-0.4v-2.6l-0.4-0.7h-0.8l-0.4,0.7v2.6h-0.6v-2.6
			l-0.4-0.7h-0.4v-0.8h1.1v-0.6l-0.5-0.3l-2.6-5.5l0,0v-0.6c0.3-0.1,0.5-0.3,0.5-0.6c0-0.3-0.2-0.5-0.5-0.6v-2.1l-0.2-1.4l-0.2,1.4
			V75c-0.3,0.1-0.4,0.3-0.4,0.6c0,0.3,0.2,0.5,0.4,0.6v0.6l0,0l-2.5,5.5l-0.5,0.3v0.6h1.1V84h-0.4l-0.4,0.7v2.6h-0.6v-2.6l-0.4-0.7
			h-0.8l-0.4,0.7v2.6h-0.4v-2.5l-1-0.8h-0.6v3.3H204v0.3h0.1v6H204v0.3h0.1v6H204v0.3h0.1v3.4H204l-2.5,5.5l-0.5,0.3v0.6h0.9v0.9
			h-0.1l-0.4,0.7v0.7h-0.6v-0.7l-0.4-0.7h-0.8l-0.4,0.7v0.7h-0.5v-4.7h0.6v-0.5H199v-1.3L193.4,92l0,0v-0.1h-0.1l-0.7-0.8v-0.3l0,0
			v-0.1h-0.2v-1.1c0.2-0.1,0.3-0.2,0.3-0.4c0-0.2-0.1-0.4-0.3-0.4V87l-0.1-0.2l-0.1,0.2v0h-1.8l0.9,0.5l-0.9,0.5h1.8v0.7
			c-0.2,0.1-0.3,0.2-0.3,0.4s0.1,0.4,0.3,0.4v1.1H192v0.1h0.1V91l-0.6,0.8h-0.1V92l0,0l-5.2,13.9v1.3h-0.4v0.5h0.7v7.8l-0.3-0.2
			v-1.8h-0.1v-1.3h0.2v-0.1l-0.6-0.7h-0.1l-0.6,0.7v0.1h0.2v1.3h-0.1v1.8l-0.4,0.2l-0.6,0.6v-2.3h0.1v-0.2h-0.1v-2.1h0.1v-0.2h-0.1
			v-2.1h0.1V109h-0.1v-0.8h0.5v-0.7l-1-1.5h-0.4v-3.3l-0.1-0.2l-0.1,0.2v0.1h-1.9l0.9,0.5l-0.9,0.5h1.9v2.2h-0.4l-1,1.5v0.7h0.5v0.8
			H182v0.2h0.1v2.1H182v0.2h0.1v2.1H182v0.2h0.1v3l-0.3-0.5H181l-0.4,0.7v2.6l-1.1,1.1l-0.4,0.5v0.2h0.5v4.5H179.8z M209.6,83.2h0.9
			l-0.1,0.5h-0.1v0.1h1.7v-0.1h-0.1l-0.1-0.5h0.8v1.2l-0.2,0.2v2.6H212v-2.6l-0.4-0.7h-0.8l-0.4,0.7v2.6h-0.6v-2.6l-0.1-0.2
			L209.6,83.2L209.6,83.2z"/>
	</g>
	<g>
		<defs>
			<rect id="SVGID_3_" width="576" height="144"/>
		</defs>
		<clipPath id="SVGID_4_">
			<use xlink:href="#SVGID_3_"  style="overflow:visible;"/>
		</clipPath>
		<path class="st1" d="M384.4,125.7h-0.2v0.3h0.2v8.1h-0.2v0.3h0.2v8.1h-0.2v0.3h0.2v1.8h77.2v-2.4h0.2v-0.3h-0.2v-8.1h0.2v-0.3
			h-0.2v-8.1h0.2v-0.3h-0.2V117h0.2v-0.3h-0.2v-3.6l0,0v-2.8l-0.4-0.7h-0.8l-0.4,0.7v2h-0.6v-2l-0.4-0.7h-0.4l0,0h0.1v-0.3h-0.1v-2
			h0.1V107h-0.1v-2h0.1v-0.3h-0.1v-2h0.1v-0.3h-0.1v-2.2h0.1v-0.3h-0.1v-2h0.1V98h-0.1v-3.2h0.2v-0.2l-0.2-0.2v-0.3l-2.5-5.6l0,0
			v-0.1l-0.8-0.8v-0.3l0,0v-0.1h-0.1v-0.1c0-0.1,0-0.1-0.1-0.1v-1c0.2-0.1,0.3-0.2,0.3-0.4c0-0.2-0.1-0.4-0.3-0.4v-1.8l-0.1-0.2
			l-0.1,0.2v0.1h-1.8L454,84l-0.9,0.5h1.8v0.7c-0.2,0.1-0.3,0.2-0.3,0.4c0,0.2,0.1,0.4,0.3,0.4v0.9c-0.1,0-0.1,0.1-0.1,0.2v0.1h-0.1
			v0.1h0.1v0.3l-0.7,0.8v0.1l0,0l-2.5,5.6v0.3l-0.2,0.2v0.2h0.4v2.3H451v-4.2h0.4l-0.2-1.6h-3.4l-0.2,1.6h0.3v2.8l-1.6-1.9h-0.2
			v-0.4c0.3-0.1,0.5-0.3,0.5-0.6c0-0.3-0.2-0.5-0.5-0.6V90l-0.2-1.4l-0.2,1.4v2.1c-0.3,0.1-0.4,0.3-0.4,0.6c0,0.3,0.2,0.5,0.4,0.6
			v0.4h-0.2l-3.6,4.6h-1.4v-5h-0.3v5h-1v-1.6h0.4l-0.2-1.6H436l-0.2,1.6h0.3v1.6h-3.4v-0.5h0.1v-0.2h-0.1v-2.1h0.1v-0.2h-0.1v-2.1
			h0.1V93h-0.1v-0.8h0.5v-0.7l-1-1.5h-0.4v-3.3l-0.1-0.2l-0.1,0.2V87h-1.9l0.9,0.5l-0.9,0.5h1.9v2.2h-0.4l-1,1.5v0.7h0.5v0.8h-0.1
			v0.2h0.1v2.1h-0.1v0.2h0.1v2.1h-0.1V98h0.1v0.5h-7.5v-4.6h0.2v-0.3h-0.2v-6h0.2v-0.3h-0.3V84h-0.6l-1,0.8v2.5h-0.4v-2.6l-0.4-0.7
			h-0.8l-0.4,0.7v2.6h-0.6v-2.6l-0.4-0.7h-0.4v-1h1.1v-0.6l-0.5-0.3l-2.6-5.5l0,0V76c0.3-0.1,0.5-0.3,0.5-0.6c0-0.3-0.2-0.5-0.5-0.6
			v-2.1l-0.2-1.4l-0.2,1.4v2.1c-0.3,0.1-0.4,0.3-0.4,0.6c0,0.3,0.2,0.5,0.4,0.6v0.6l0,0l-2.5,5.5l-0.5,0.3V83h1.1v0.8h-0.4l-0.4,0.7
			v2.6h-0.6v-2.6l-0.4-0.7h-0.8l-0.4,0.7v2.6h-0.4v-2.5l-1-0.8h-0.6v3.3h-0.2v0.3h0.1v6h-0.1v0.3h0.1v6h-0.1v0.3h0.1v3.4h-0.1
			l-2.5,5.5l-0.5,0.3v0.6h0.9v0.9h-0.1l-0.4,0.7v0.7h-0.6v-0.7l-0.4-0.7h-0.8l-0.4,0.7v0.7h-0.5v-4.7h0.6v-0.5h-0.3v-1.3L398,91.9
			l0,0v-0.1l0,0l-0.7-0.8v-0.3l0,0v-0.1h-0.2v-1.1c0.2-0.1,0.3-0.2,0.3-0.4c0-0.2-0.1-0.4-0.3-0.4v-1.8l-0.1-0.2l-0.1,0.2V87h-1.8
			l0.9,0.5l-0.9,0.5h1.8v0.7c-0.2,0.1-0.3,0.2-0.3,0.4s0.1,0.4,0.3,0.4v1.1h-0.2v0.1h0.1V91l-0.6,0.8h-0.1v0.1l0,0l-5.2,13.9v1.3
			h-0.4v0.5h0.7v7.8l-0.3-0.2v-1.8h-0.1v-1.3h0.2V112l-0.6-0.7h-0.1l-0.6,0.7v0.1h0.2v1.3h-0.1v1.8l-0.4,0.2l-0.6,0.6v-2.3h0.1v-0.2
			h-0.1v-2.1h0.1v-0.2h-0.1v-2.1h0.1V109h-0.1v-0.8h0.5v-0.7l-1-1.5H388v-3.3l-0.1-0.2l-0.1,0.2v0.1h-1.9l0.9,0.5l-0.9,0.5h1.9v2.2
			h-0.4l-1,1.5v0.7h0.5v0.8h-0.1v0.2h0.1v2.1h-0.1v0.2h0.1v2.1h-0.1v0.2h0.1v3l-0.3-0.5h-0.8l-0.4,0.7v2.6l-1.1,1.1l-0.4,0.5v0.2
			h0.5L384.4,125.7L384.4,125.7z M414.3,83h0.9l-0.1,0.5H415v0.1h1.7v-0.1h-0.1l-0.1-0.5h0.8v1.2l-0.2,0.2V87h-0.6v-2.6l-0.4-0.7
			h-0.8l-0.4,0.7V87h-0.6v-2.6l-0.1-0.2V83H414.3z"/>
	</g>
	<g>
		<defs>
			<rect id="SVGID_5_" width="576" height="144"/>
		</defs>
		<clipPath id="SVGID_6_">
			<use xlink:href="#SVGID_5_"  style="overflow:visible;"/>
		</clipPath>
		<polygon class="st2" points="347.9,115.7 347.6,115.1 347.6,113.2 348.1,113.2 348.1,112.6 347.3,111.4 346.7,108.4 346,111.4 
			345.7,111.8 343.5,108.2 343.5,108 343.3,108 343.3,107.2 343.5,107.2 343.5,107 343.3,107 343.3,105.2 343.6,105.2 343.6,104.9 
			342.6,103.3 342.6,103 342.4,102.9 342.4,102.3 342.6,102.2 342.6,102 342.4,102 342.4,99.3 342.3,97.2 342.1,99.3 342.1,102 
			341.9,102 341.9,102.2 342.1,102.3 342.1,102.9 341.9,103 341.9,103.3 341,104.9 341,105.2 341.3,105.2 341.3,107 341,107 
			341,107.2 341.3,107.2 341.3,108 341,108 341,108.2 337.2,114.3 337.2,111.3 336.2,111.3 336.2,110.8 336.5,110.8 336.5,110.5 
			336.3,110.5 336.3,110.2 336.2,110.2 336.2,110.1 334.7,110.1 334.7,110.2 334.5,110.2 334.5,110.5 334.4,110.5 334.4,110.8 
			334.7,110.8 334.7,111.3 333.9,111.3 333.9,108.4 331.9,107.6 331.9,107.5 332.2,107.5 332.2,107.1 331.2,105.6 330.5,105.6 
			329.7,106.8 326.5,105.6 325.6,104.1 324.8,104.1 323.9,105.7 323.9,106.1 324.2,106.1 324.2,106.7 322.4,106.7 322.4,104.6 
			319.9,100 319.6,100 319.6,98.3 319.8,98.3 319.8,98 319.6,98 319.6,97.3 319.8,97.3 319.8,97 319.6,97 319.6,92.2 319.6,92.2 
			319.6,89.6 319.5,89.4 319.3,89.6 319.3,89.7 317.5,89.7 317.5,90.7 319.3,90.7 319.3,92.2 319.3,92.2 319.3,97 319.1,97 
			319.1,97.3 319.3,97.3 319.3,98 319.1,98 319.1,98.3 319.3,98.3 319.3,100 319,100 316.5,103.4 316.1,103.1 314.5,103.1 
			313.6,103.9 313.6,104.2 313.8,104.4 313.8,105.7 309.9,99.2 309.9,98.9 309.7,98.9 309.7,98.1 309.9,98.1 309.9,97.9 309.7,97.9 
			309.7,96.2 310.1,96.2 310.1,95.8 309,94.2 309,93.9 308.9,93.8 308.9,93.2 309,93.1 309,92.9 308.9,92.9 308.9,90.3 308.7,88.1 
			308.5,90.3 308.5,92.9 308.4,92.9 308.4,93.1 308.5,93.2 308.5,93.8 308.3,93.9 308.3,94.2 307.4,95.8 307.4,96.2 307.7,96.2 
			307.7,97.9 307.4,97.9 307.4,98.1 307.7,98.1 307.7,98.9 307.4,98.9 307.4,99.2 302.8,106.6 301.8,107.1 301.1,108.3 300.9,108.4 
			300.9,108.6 301.1,108.6 301.1,110.4 300.8,110.5 300.8,111.6 299.5,111.6 299.5,111 300.2,110.6 300.2,108.8 298.7,107.4 
			298.6,107 298.6,103.2 299,103.2 299,102.6 298.2,101.4 297.6,98.5 296.9,101.4 296.4,102.1 294.8,98.7 294.6,98.7 294.6,97.6 
			294.8,97.6 294.8,97.3 294.6,97.3 294.6,96.6 294.8,96.6 294.8,96.3 294.6,96.3 294.6,91.5 294.6,91.5 294.6,88.8 294.5,88.7 
			294.4,88.8 294.4,88.9 292.5,88.9 292.5,89.9 294.4,89.9 294.4,91.5 294.3,91.5 294.3,96.3 294.1,96.3 294.1,96.6 294.3,96.6 
			294.3,97.3 294.1,97.3 294.1,97.6 294.3,97.6 294.3,98.7 294.1,98.7 289.3,107.5 287.8,108.8 287.8,110.6 288.6,111 288.6,112.5 
			287.8,112.5 287.8,112.1 288.1,112.1 288.1,111.8 287.9,111.8 287.9,111.5 287.8,111.5 287.8,111.4 286.3,111.4 286.3,111.5 
			286.1,111.5 286.1,111.8 286,111.8 286,112.1 286.3,112.1 286.3,112.5 283.8,112.5 283.8,114.8 282.9,114.8 282.9,114.2 
			283.3,114.2 283.3,113.8 282.3,112.3 281.5,112.3 280.6,113.8 280.6,114.2 280.9,114.2 280.9,114.8 279.7,114.8 277.9,109.6 
			276.5,109.6 274.9,113.4 274.3,113.4 274.3,113 274.6,113 274.6,112.6 273.6,111 272.9,111 272,112.6 272,113 272.3,113 
			272.3,114.7 272,114.7 272,114.9 272.3,114.9 272.3,115.7 272,115.7 272,116 271,117.5 270.3,117.5 270.5,116.2 268.8,114.8 
			264.3,107.4 264.3,107.2 264.1,107.2 264.1,106.4 264.3,106.4 264.3,106.2 264.1,106.2 264.1,104.4 264.5,104.4 264.5,104 
			263.4,102.5 263.4,102.1 263.3,102.1 263.3,101.4 263.4,101.4 263.4,101.2 263.3,101.1 263.3,98.5 263.1,96.3 262.9,98.5 
			262.9,101.1 262.7,101.2 262.7,101.4 262.9,101.4 262.9,102.1 262.7,102.1 262.7,102.5 261.8,104 261.8,104.4 262.1,104.4 
			262.1,106.2 261.8,106.2 261.8,106.4 262.1,106.4 262.1,107.2 261.8,107.2 261.8,107.4 257.2,114.8 255.6,116.2 255.8,118.9 
			256.1,119.3 256.3,144.7 348.5,144.7 348.8,120 349.3,119.7 349.6,117 		"/>
		<polygon class="st2" points="119.1,94.8 118.8,94.2 118.8,92.3 119.3,92.3 119.3,91.7 118.5,90.5 117.9,87.5 117.2,90.5 
			116.9,90.9 114.7,87.3 114.7,87.1 114.5,87.1 114.5,86.3 114.7,86.3 114.7,86.1 114.5,86.1 114.5,84.3 114.8,84.3 114.8,84 
			113.8,82.4 113.8,82.1 113.6,82 113.6,81.4 113.8,81.3 113.8,81.1 113.6,81.1 113.6,78.4 113.5,76.3 113.3,78.4 113.3,81.1 
			113.1,81.1 113.1,81.3 113.3,81.4 113.3,82 113.1,82.1 113.1,82.4 112.2,84 112.2,84.3 112.5,84.3 112.5,86.1 112.2,86.1 
			112.2,86.3 112.5,86.3 112.5,87.1 112.2,87.1 112.2,87.3 108.4,93.4 108.4,90.4 107.4,90.4 107.4,89.9 107.7,89.9 107.7,89.6 
			107.5,89.6 107.5,89.3 107.4,89.3 107.4,89.2 105.9,89.2 105.9,89.3 105.7,89.3 105.7,89.6 105.6,89.6 105.6,89.9 105.9,89.9 
			105.9,90.4 105.1,90.4 105.1,87.5 103.1,86.7 103.1,86.6 103.4,86.6 103.4,86.2 102.4,84.7 101.7,84.7 100.9,85.9 97.7,84.7 
			96.8,83.2 96,83.2 95.1,84.8 95.1,85.2 95.4,85.2 95.4,85.8 93.6,85.8 93.6,83.7 91.1,79.1 90.8,79.1 90.8,77.4 91,77.4 91,77.1 
			90.8,77.1 90.8,76.4 91,76.4 91,76.1 90.8,76.1 90.8,71.3 90.8,71.3 90.8,68.7 90.7,68.5 90.5,68.7 90.5,68.8 88.7,68.8 
			88.7,69.8 90.5,69.8 90.5,71.3 90.5,71.3 90.5,76.1 90.3,76.1 90.3,76.4 90.5,76.4 90.5,77.1 90.3,77.1 90.3,77.4 90.5,77.4 
			90.5,79.1 90.2,79.1 87.7,82.5 87.3,82.2 85.7,82.2 84.8,83 84.8,83.3 85,83.5 85,84.8 81.1,78.3 81.1,78 80.9,78 80.9,77.2 
			81.1,77.2 81.1,77 80.9,77 80.9,75.3 81.3,75.3 81.3,74.9 80.2,73.3 80.2,73 80.1,72.9 80.1,72.3 80.2,72.2 80.2,72 80.1,72 
			80.1,69.4 79.9,67.2 79.7,69.4 79.7,72 79.6,72 79.6,72.2 79.7,72.3 79.7,72.9 79.5,73 79.5,73.3 78.6,74.9 78.6,75.3 78.9,75.3 
			78.9,77 78.6,77 78.6,77.2 78.9,77.2 78.9,78 78.6,78 78.6,78.3 74,85.7 73,86.2 72.3,87.4 72.1,87.5 72.1,87.7 72.3,87.7 
			72.3,89.5 72,89.6 72,107.2 70.7,107.3 70.7,90.1 71.4,89.7 71.4,87.9 69.9,86.5 69.8,86.1 69.8,82.3 70.2,82.3 70.2,81.7 
			69.4,80.5 68.8,77.6 68.1,80.5 67.6,81.2 66,77.8 65.8,77.8 65.8,76.7 66,76.7 66,76.4 65.8,76.4 65.8,75.7 66,75.7 66,75.4 
			65.8,75.4 65.8,70.6 65.8,70.6 65.8,67.9 65.7,67.8 65.6,67.9 65.6,68 63.7,68 63.7,69 65.6,69 65.6,70.6 65.5,70.6 65.5,75.4 
			65.3,75.4 65.3,75.7 65.5,75.7 65.5,76.4 65.3,76.4 65.3,76.7 65.5,76.7 65.5,77.8 65.3,77.8 60.5,86.6 59,87.9 59,89.7 
			59.8,90.1 59.8,91.6 59,91.6 59,91.2 59.3,91.2 59.3,90.9 59.1,90.9 59.1,90.6 59,90.6 59,90.5 57.5,90.5 57.5,90.6 57.3,90.6 
			57.3,90.9 57.2,90.9 57.2,91.2 57.5,91.2 57.5,91.6 55,91.6 55,93.9 54.1,93.9 54.1,93.3 54.5,93.3 54.5,92.9 53.5,91.4 
			52.7,91.4 51.8,92.9 51.8,93.3 52.1,93.3 52.1,93.9 50.9,93.9 49.1,88.7 47.7,88.7 46.1,92.5 45.5,92.5 45.5,92.1 45.8,92.1 
			45.8,91.7 44.8,90.1 44.1,90.1 43.2,91.7 43.2,92.1 43.5,92.1 43.5,93.8 43.2,93.8 43.2,94 43.5,94 43.5,94.8 43.2,94.8 
			43.2,95.1 42.2,96.6 41.5,96.6 41.7,95.3 40,93.9 35.5,86.5 35.5,86.3 35.3,86.3 35.3,85.5 35.5,85.5 35.5,85.3 35.3,85.3 
			35.3,83.5 35.7,83.5 35.7,83.1 34.6,81.6 34.6,81.2 34.5,81.2 34.5,80.5 34.6,80.5 34.6,80.3 34.5,80.2 34.5,77.6 34.3,75.4 
			34.1,77.6 34.1,80.2 33.9,80.3 33.9,80.5 34.1,80.5 34.1,81.2 33.9,81.2 33.9,81.6 33,83.1 33,83.5 33.3,83.5 33.3,85.3 33,85.3 
			33,85.5 33.3,85.5 33.3,86.3 33,86.3 33,86.5 28.4,93.9 26.8,95.3 27,98 27.3,98.4 27.7,144 120.2,144 120,99.1 120.5,98.8 
			120.8,96.1 		"/>
	</g>
	<g>
		<defs>
			<rect id="SVGID_7_" width="576" height="144"/>
		</defs>
		<clipPath id="SVGID_8_">
			<use xlink:href="#SVGID_7_"  style="overflow:visible;"/>
		</clipPath>
		<g class="st3">
			<polygon class="st4" points="185.7,138.8 185.7,138.2 186.1,137.9 186.1,137.2 185.7,137 185.7,132.8 173.6,126 173.6,120 
				173.4,120 173.4,118.2 173.2,118.2 173.2,117.9 169.1,117.9 169.1,118.2 168.9,118.2 168.9,120 168.1,120 168.1,118.2 
				167.9,118.2 167.9,117.9 163.9,117.9 163.9,118.2 163.6,118.2 163.6,120 162.8,120 162.8,118.2 162.6,118.2 162.6,117.9 
				158.6,117.9 158.6,118.2 158.3,118.2 158.3,120 157.4,120 157.4,112.7 157.7,112.7 157.7,112.4 157.9,112.4 157.9,111.9 
				157.8,111.9 157.8,108.1 157.7,108.1 157.7,107.5 157.9,107.5 157.9,106.1 157.7,106.1 157.7,105.7 157.3,105.7 157.3,102.3 
				157.7,102.3 157.7,100.1 157.5,100.1 157.5,99.9 156.6,99.9 156.6,100.1 156.3,100.1 156.3,101.3 155.7,101.3 155.7,100.1 
				155.5,100.1 155.5,99.9 154,99.9 154,100.1 153.7,100.1 153.7,101.3 153,101.3 153,100.1 152.8,100.1 152.8,99.9 151.9,99.9 
				151.9,100.1 151.6,100.1 151.6,102.3 151.9,102.3 151.9,105.7 151.5,105.7 151.5,106.1 151.3,106.1 151.3,107.5 151.5,107.5 
				151.5,108.1 150.5,108.1 150.5,104.5 150.8,104.5 150.8,102.3 150.6,102.3 150.6,102.1 149.7,102.1 149.7,102.3 149.5,102.3 
				149.5,103.5 148.7,103.5 148.7,102.3 148.4,102.3 148.4,102.1 146.9,102.1 146.9,102.3 146.6,102.3 146.6,103.5 145.9,103.5 
				145.9,102.3 145.7,102.3 145.7,102.1 144.2,102.1 144.2,102.3 143.9,102.3 143.9,103.5 143.2,103.5 143.2,102.3 142.9,102.3 
				142.9,102.1 141.4,102.1 141.4,102.3 141.2,102.3 141.2,103.5 140.4,103.5 140.4,102.3 140.2,102.3 140.2,102.1 139.3,102.1 
				139.3,102.3 139.1,102.3 139.1,104.5 139.4,104.5 139.4,108.1 138.5,108.1 138.5,107.5 138.7,107.5 138.7,106.1 138.5,106.1 
				138.5,105.7 138.1,105.7 138.1,102.3 138.4,102.3 138.4,100.1 138.2,100.1 138.2,99.9 137.2,99.9 137.2,100.1 137.1,100.1 
				137.1,101.3 136.3,101.3 136.3,100.1 136,100.1 136,99.9 134.5,99.9 134.5,100.1 134.3,100.1 134.3,101.3 133.7,101.3 
				133.7,100.1 133.5,100.1 133.5,99.9 132.5,99.9 132.5,100.1 132.4,100.1 132.4,102.3 132.7,102.3 132.7,105.7 132.3,105.7 
				132.3,106.1 132.1,106.1 132.1,107.5 132.3,107.5 132.3,108.1 132.2,108.1 132.2,108.7 131.8,108.7 131.8,111.7 131.5,111.7 
				131.5,111.9 131.3,111.9 131.3,112.4 131.5,112.4 131.5,112.7 131.8,112.7 131.8,120 130.9,120 130.9,118.2 130.6,118.2 
				130.6,117.9 126.6,117.9 126.6,118.2 126.3,118.2 126.3,120 125.6,120 125.6,118.2 125.3,118.2 125.3,117.9 121.3,117.9 
				121.3,118.2 121,118.2 121,120 120.3,120 120.3,118.2 120,118.2 120,117.9 116,117.9 116,118.2 115.8,118.2 115.8,120 115.5,120 
				115.5,126 116.6,127.2 116.8,127.2 116.8,134.9 116.4,135.2 116.4,136 116.8,136.3 116.7,138.8 116.2,139 116.2,144.7 
				186.2,144.7 186.2,139 			"/>
			<rect x="132.8" y="100.5" class="st5" width="0.4" height="0.8"/>
			<rect x="137.5" y="100.5" class="st5" width="0.4" height="0.8"/>
			<rect x="135.2" y="100.5" class="st5" width="0.4" height="0.8"/>
			<rect x="152.1" y="100.5" class="st5" width="0.4" height="0.8"/>
			<rect x="156.8" y="100.4" class="st5" width="0.4" height="0.8"/>
			<rect x="154.6" y="100.5" class="st5" width="0.4" height="0.8"/>
			<g>
				<path class="st4" d="M135.4,93.9l-0.1,0.8V95c-0.9-0.2-2-0.3-2.6,0.5c-0.8,1.1-1.2,1.2-2.2,0.8c-0.8-0.3-0.9-0.1-1.2,0
					c0.5,0,0.9,0.2,1.1,0.4c-0.5,0.1-1,0.1-1.1,0.5c0.6-0.2,0.5,0,1.2,0.1c1.1,0.2,1.6,0.2,2.4-0.4c0.7-0.7,1.5-1,2.4-0.5v3.8h0.2
					v-5.5L135.4,93.9z"/>
			</g>
			<g>
				<path class="st4" d="M117.1,112l-0.1,0.8v0.2c-0.9-0.2-2-0.3-2.6,0.5c-0.8,1.1-1.2,1.2-2.2,0.8c-0.8-0.3-0.9-0.1-1.2,0
					c0.5,0,0.9,0.2,1.1,0.4c-0.5,0.1-1,0.1-1.1,0.5c0.6-0.2,0.5,0,1.2,0.1c1.1,0.2,1.6,0.2,2.4-0.4c0.7-0.7,1.5-1,2.4-0.5v3.8h0.2
					v-5.5L117.1,112z"/>
			</g>
			<g>
				<path class="st4" d="M172.2,112l-0.1,0.8v0.2c-0.9-0.2-2-0.3-2.6,0.5c-0.8,1.1-1.2,1.2-2.2,0.8c-0.8-0.3-0.9-0.1-1.2,0
					c0.5,0,0.9,0.2,1.1,0.4c-0.5,0.1-1,0.1-1.1,0.5c0.6-0.2,0.5,0,1.2,0.1c1.1,0.2,1.6,0.2,2.4-0.4c0.7-0.7,1.5-1,2.4-0.5v3.8h0.2
					v-5.5L172.2,112z"/>
			</g>
			<g>
				<path class="st4" d="M154.7,93.9l-0.1,0.8V95c-0.9-0.2-2-0.3-2.6,0.5c-0.8,1.1-1.2,1.2-2.2,0.8c-0.8-0.3-0.9-0.1-1.2,0
					c0.5,0,0.9,0.2,1.1,0.4c-0.5,0.1-1,0.1-1.1,0.5c0.6-0.2,0.5,0,1.2,0.1c1.1,0.2,1.6,0.2,2.4-0.4c0.7-0.7,1.5-1,2.4-0.5v3.8h0.2
					v-5.5L154.7,93.9z"/>
			</g>
		</g>
	</g>
	<g>
		<defs>
			<rect id="SVGID_9_" width="576" height="144"/>
		</defs>
		<clipPath id="SVGID_10_">
			<use xlink:href="#SVGID_9_"  style="overflow:visible;"/>
		</clipPath>
	</g>
	<g>
		<defs>
			<rect id="SVGID_11_" width="576" height="144"/>
		</defs>
		<clipPath id="SVGID_12_">
			<use xlink:href="#SVGID_11_"  style="overflow:visible;"/>
		</clipPath>
		<g class="st6">
			<polygon class="st4" points="509.4,96.6 509.4,101 509.2,101 509.2,96.6 509.3,95 			"/>
			<path class="st4" d="M509.7,99.4c0,0.2-0.2,0.4-0.4,0.4c-0.2,0-0.4-0.2-0.4-0.4c0-0.2,0.2-0.4,0.4-0.4
				C509.5,99.1,509.7,99.2,509.7,99.4z"/>
			<polygon class="st4" points="464.8,98.8 464.8,103.3 464.6,103.3 464.6,98.8 464.7,97.3 			"/>
			<path class="st4" d="M465.1,101.7c0,0.2-0.2,0.4-0.4,0.4c-0.2,0-0.4-0.2-0.4-0.4c0-0.2,0.2-0.4,0.4-0.4
				C464.9,101.4,465.1,101.5,465.1,101.7z"/>
			<polygon class="st4" points="489.1,105.4 489.1,109.8 489,109.8 489,105.4 489,103.8 			"/>
			<path class="st4" d="M489.4,108.2c0,0.2-0.2,0.4-0.4,0.4c-0.2,0-0.4-0.2-0.4-0.4c0-0.2,0.2-0.4,0.4-0.4
				C489.3,107.9,489.4,108,489.4,108.2z"/>
			<polygon class="st4" points="459,145.2 519.3,145.2 516.4,116.1 514.4,115 513.3,115 513.3,111.8 513.5,111.8 513.5,111.8 
				509.3,99.9 505.5,111.8 505.5,111.8 505.7,111.8 505.7,115 504.9,115 503.4,117.3 503.4,107.9 504.2,107.9 503.7,103 503.9,103 
				503.9,102.7 501.3,102.7 501.3,99.5 501.9,99.3 501.9,98.5 501.6,98.4 499.4,95.6 497.2,98.4 497,98.5 497,99.4 497.5,99.5 
				497.5,102.7 493.3,102.7 493.3,103 493.5,103 492.9,107.9 493.8,107.9 493.8,110.7 489.9,110.7 489,108.9 488.1,110.7 
				480.3,110.7 480.3,109.2 480.7,109.2 480.7,108.3 479.2,108.3 479.2,109.2 479.5,109.2 479.5,110.7 479,110.7 479,112.6 
				478.5,110.3 477.3,115 477.3,112.2 475.8,112.2 475.8,111.6 471.8,106.5 470.8,107.5 469,107.5 469,103.9 467.2,103.9 
				467.2,106.1 464.7,102.3 461.2,108.8 461.4,109.3 461.4,118.7 460.8,118.7 460,119.6 459.9,120.3 460.3,120.3 			"/>
		</g>
	</g>
	<g>
		<defs>
			<rect id="SVGID_13_" width="576" height="144"/>
		</defs>
		<clipPath id="SVGID_14_">
			<use xlink:href="#SVGID_13_"  style="overflow:visible;"/>
		</clipPath>
		<path class="st7" d="M535.2,65.1v3.8h0.6v0.5h-0.6v0.7h0.6v6.6h-1.7v2.5h0.8v15.4h-0.4v7.8h-2.2v-0.9H532l-2.5-2.6v-1.2h-0.1l0,0
			c0-0.3-0.2-0.6-0.6-0.7v-6.1l-0.1-1.6l-0.1,1.6v6c-0.3,0-0.6,0.3-0.6,0.7l0,0h-0.1v1.1l-2.8,2.7h-0.4v0.9h-0.5v0.8l-4.4,5h0.8v3.4
			H520v0.8h0.6v4.5h-0.4v0.8h0.4v4.1h-1.3v22.9H576v-34.3h-0.6v-3.7h-3v-6h1.1v-2.5H570v-8h0.5v-4.4h-1.8v-8.2l0,0v-0.9l0,0V70h0.3
			v-2h1v-2.5"/>
	</g>
	<g>
		<defs>
			<rect id="SVGID_15_" width="576" height="144"/>
		</defs>
		<clipPath id="SVGID_16_">
			<use xlink:href="#SVGID_15_"  style="overflow:visible;"/>
		</clipPath>
		<g class="st8">
			<polygon class="st4" points="404.7,138.7 404.7,138 405,137.7 405,137.1 404.7,136.8 404.7,132.6 392.6,125.9 392.6,119.8 
				392.3,119.8 392.3,118 392.1,118 392.1,117.7 388.1,117.7 388.1,118 387.8,118 387.8,119.8 387.1,119.8 387.1,118 386.8,118 
				386.8,117.7 382.8,117.7 382.8,118 382.5,118 382.5,119.8 381.8,119.8 381.8,118 381.5,118 381.5,117.7 377.5,117.7 377.5,118 
				377.2,118 377.2,119.8 376.3,119.8 376.3,112.5 376.6,112.5 376.6,112.3 376.8,112.3 376.8,111.7 376.7,111.7 376.7,108 
				376.6,108 376.6,107.3 376.8,107.3 376.8,106 376.6,106 376.6,105.6 376.2,105.6 376.2,102.2 376.6,102.2 376.6,100 376.4,100 
				376.4,99.8 375.5,99.8 375.5,100 375.2,100 375.2,101.2 374.6,101.2 374.6,100 374.4,100 374.4,99.8 372.9,99.8 372.9,100 
				372.6,100 372.6,101.2 371.9,101.2 371.9,100 371.7,100 371.7,99.8 370.8,99.8 370.8,100 370.5,100 370.5,102.2 370.8,102.2 
				370.8,105.6 370.4,105.6 370.4,106 370.2,106 370.2,107.3 370.4,107.3 370.4,108 369.4,108 369.4,104.4 369.7,104.4 369.7,102.2 
				369.5,102.2 369.5,102 368.6,102 368.6,102.2 368.4,102.2 368.4,103.3 367.6,103.3 367.6,102.2 367.4,102.2 367.4,102 365.8,102 
				365.8,102.2 365.6,102.2 365.6,103.3 364.8,103.3 364.8,102.2 364.6,102.2 364.6,102 363.1,102 363.1,102.2 362.8,102.2 
				362.8,103.3 362.1,103.3 362.1,102.2 361.9,102.2 361.9,102 360.4,102 360.4,102.2 360.1,102.2 360.1,103.3 359.3,103.3 
				359.3,102.2 359.2,102.2 359.2,102 358.3,102 358.3,102.2 358,102.2 358,104.4 358.3,104.4 358.3,108 357.5,108 357.5,107.3 
				357.7,107.3 357.7,106 357.5,106 357.5,105.6 357,105.6 357,102.2 357.3,102.2 357.3,100 357.1,100 357.1,99.8 356.2,99.8 
				356.2,100 356,100 356,101.2 355.2,101.2 355.2,100 355,100 355,99.8 353.5,99.8 353.5,100 353.2,100 353.2,101.2 352.6,101.2 
				352.6,100 352.4,100 352.4,99.8 351.5,99.8 351.5,100 351.3,100 351.3,102.2 351.6,102.2 351.6,105.6 351.3,105.6 351.3,106 
				351,106 351,107.3 351.3,107.3 351.3,108 351.1,108 351.1,108.5 350.8,108.5 350.8,111.6 350.5,111.6 350.5,111.7 350.3,111.7 
				350.3,112.3 350.5,112.3 350.5,112.5 350.8,112.5 350.8,119.8 349.8,119.8 349.8,118 349.5,118 349.5,117.7 345.5,117.7 
				345.5,118 345.3,118 345.3,119.8 344.5,119.8 344.5,118 344.2,118 344.2,117.7 340.2,117.7 340.2,118 340,118 340,119.8 
				339.2,119.8 339.2,118 338.9,118 338.9,117.7 334.9,117.7 334.9,118 334.7,118 334.7,119.8 334.5,119.8 334.5,125.9 335.5,127 
				335.8,127 335.8,134.7 335.3,135.1 335.3,135.9 335.8,136.2 335.7,138.6 335.2,138.9 335.2,144.5 405.1,144.5 405.1,138.9 			"/>
			<path class="st4" d="M-11.4,113.2v5.6h48.8c-1.1-1.5-2.4-2.5-4.2-3.5c-2.5-1.4-4.6-2.6-5.7-5.4c-0.5-1.4,0.1-2.9,1.1-3.9
				c-0.2-0.2-0.4-0.3-0.5-0.5c-1.7-1.9-1.8-4.2-2.6-6.5c-1.2-3,1.4-4.9,3.9-4.8c0.1-0.2,0.1-0.4,0.2-0.6v-6.8H30v-0.2h0.2V86h-0.1
				v-3.7H30v-0.7h0.2v-1.3H30v-0.4h-0.4v-3.4H30v-2.2h-0.2v-0.2h-0.9v0.2h-0.3v1.2H28v-1.2h-0.2v-0.2h-1.5v0.2H26v1.2h-0.7v-1.2
				h-0.2v-0.2h-0.9v0.2h-0.3v2.2h0.3v3.4h-0.4v0.4h-0.2v1.3h0.2v0.7h-1v-3.6h0.3v-2.2h-0.2v-0.2H22v0.2h-0.2v1.1H21v-1.1h-0.2v-0.2
				h-1.6v0.2H19v1.1h-0.8v-1.1H18v-0.2h-1.5v0.2h-0.3v1.1h-0.7v-1.1h-0.2v-0.2h-1.5v0.2h-0.3v1.1h-0.8v-1.1h-0.1v-0.2h-0.9v0.2h-0.3
				v2.2h0.3v3.6h-0.8v-0.7h0.2v-1.3h-0.2v-0.4h-0.5v-3.4h0.3v-2.2h-0.2v-0.2H9.6v0.2H9.4v1.2H8.6v-1.2H8.4v-0.2H6.9v0.2H6.6v1.2H6
				v-1.2H5.8v-0.2H4.9v0.2H4.7v2.2H5v3.4H4.7v0.4H4.4v1.3h0.3v0.7H4.5v0.5H4.2v3.1H3.9V86H3.7v0.6h0.2v0.2h0.3v7.3h-1v-1.8H2.9V92
				h-4v0.3h-0.2v1.8h-0.8v-1.8h-0.3V92h-4v0.3h-0.2v1.8h-0.8v-1.8h-0.3V92h-4v0.3h-0.2v1.8h-0.2v6.1l1,1.1h0.3v7.7l-0.5,0.4v0.8
				l0.5,0.3l-0.1,2.4L-11.4,113.2z"/>
			<rect x="351.8" y="100.3" class="st5" width="0.4" height="0.8"/>
			<rect x="356.5" y="100.3" class="st5" width="0.4" height="0.8"/>
			<rect x="354.1" y="100.3" class="st5" width="0.4" height="0.8"/>
			<rect x="371" y="100.3" class="st5" width="0.4" height="0.8"/>
			<rect x="375.8" y="100.3" class="st5" width="0.4" height="0.8"/>
			<rect x="373.5" y="100.3" class="st5" width="0.4" height="0.8"/>
			<g>
				<path class="st4" d="M354.3,93.8l-0.1,0.8v0.2c-0.9-0.2-2-0.3-2.6,0.5c-0.8,1.1-1.2,1.2-2.2,0.8c-0.8-0.3-0.9-0.1-1.2,0
					c0.5,0,0.9,0.2,1.1,0.4c-0.5,0.1-1,0.1-1.1,0.5c0.6-0.2,0.5,0,1.2,0.1c1.1,0.2,1.6,0.2,2.4-0.4c0.7-0.7,1.5-1,2.4-0.5v3.8h0.2
					v-5.5L354.3,93.8z"/>
			</g>
			<g>
				<path class="st4" d="M336.1,111.9l-0.1,0.8v0.2c-0.9-0.2-2-0.3-2.6,0.5c-0.8,1.1-1.2,1.2-2.2,0.8c-0.8-0.3-0.9-0.1-1.2,0
					c0.5,0,0.9,0.2,1.1,0.4c-0.5,0.1-1,0.1-1.1,0.5c0.6-0.2,0.5,0,1.2,0.1c1.1,0.2,1.6,0.2,2.4-0.4c0.7-0.7,1.5-1,2.4-0.5v3.8h0.2
					v-5.5L336.1,111.9z"/>
			</g>
			<g>
				<path class="st4" d="M391.2,111.9l-0.1,0.8v0.2c-0.9-0.2-2-0.3-2.6,0.5c-0.8,1.1-1.2,1.2-2.2,0.8c-0.8-0.3-0.9-0.1-1.2,0
					c0.5,0,0.9,0.2,1.1,0.4c-0.5,0.1-1,0.1-1.1,0.5c0.6-0.2,0.5,0,1.2,0.1c1.1,0.2,1.6,0.2,2.4-0.4c0.7-0.7,1.5-1,2.4-0.5v3.8h0.2
					v-5.5L391.2,111.9z"/>
			</g>
			<g>
				<path class="st4" d="M373.7,93.8l-0.1,0.8v0.2c-0.9-0.2-2-0.3-2.6,0.5c-0.8,1.1-1.2,1.2-2.2,0.8c-0.8-0.3-0.9-0.1-1.2,0
					c0.5,0,0.9,0.2,1.1,0.4c-0.5,0.1-1,0.1-1.1,0.5c0.6-0.2,0.5,0,1.2,0.1c1.1,0.2,1.6,0.2,2.4-0.4c0.7-0.7,1.5-1,2.4-0.5v3.8h0.2
					v-5.5L373.7,93.8z"/>
			</g>
		</g>
	</g>
	<g>
		<defs>
			<rect id="SVGID_17_" width="576" height="144"/>
		</defs>
		<clipPath id="SVGID_18_">
			<use xlink:href="#SVGID_17_"  style="overflow:visible;"/>
		</clipPath>
		<rect x="414.3" y="95" class="st9" width="0.9" height="0.9"/>
	</g>
	<g>
		<defs>
			<rect id="SVGID_19_" width="576" height="144"/>
		</defs>
		<clipPath id="SVGID_20_">
			<use xlink:href="#SVGID_19_"  style="overflow:visible;"/>
		</clipPath>
		<rect x="415.9" y="95" class="st10" width="0.9" height="0.9"/>
	</g>
	<g>
		<defs>
			<rect id="SVGID_21_" width="576" height="144"/>
		</defs>
		<clipPath id="SVGID_22_">
			<use xlink:href="#SVGID_21_"  style="overflow:visible;"/>
		</clipPath>
		<rect x="417.4" y="95" class="st11" width="0.9" height="0.9"/>
	</g>
	<g>
		<defs>
			<rect id="SVGID_23_" width="576" height="144"/>
		</defs>
		<clipPath id="SVGID_24_">
			<use xlink:href="#SVGID_23_"  style="overflow:visible;"/>
		</clipPath>
		<rect x="423.7" y="101.5" class="st12" width="0.6" height="0.6"/>
	</g>
	<g>
		<defs>
			<rect id="SVGID_25_" width="576" height="144"/>
		</defs>
		<clipPath id="SVGID_26_">
			<use xlink:href="#SVGID_25_"  style="overflow:visible;"/>
		</clipPath>
		<g class="st13">
			<g>
				<g>
					<rect x="424.9" y="108.6" class="st14" width="0.6" height="0.6"/>
				</g>
			</g>
		</g>
	</g>
	<g>
		<defs>
			<rect id="SVGID_27_" width="576" height="144"/>
		</defs>
		<clipPath id="SVGID_28_">
			<use xlink:href="#SVGID_27_"  style="overflow:visible;"/>
		</clipPath>
		<g class="st15">
			<g>
				<g>
					<rect x="436.3" y="101.7" class="st14" width="0.6" height="0.6"/>
				</g>
			</g>
		</g>
	</g>
	<g>
		<defs>
			<rect id="SVGID_29_" width="576" height="144"/>
		</defs>
		<clipPath id="SVGID_30_">
			<use xlink:href="#SVGID_29_"  style="overflow:visible;"/>
		</clipPath>
		<g class="st16">
			<g>
				<g>
					<rect x="431.3" y="104.6" class="st14" width="0.6" height="0.6"/>
				</g>
			</g>
		</g>
	</g>
	<g>
		<defs>
			<rect id="SVGID_31_" width="576" height="144"/>
		</defs>
		<clipPath id="SVGID_32_">
			<use xlink:href="#SVGID_31_"  style="overflow:visible;"/>
		</clipPath>
		<g class="st17">
			<g>
				<g>
					<rect x="432.6" y="104.7" class="st14" width="0.6" height="0.6"/>
				</g>
			</g>
		</g>
	</g>
	<g>
		<defs>
			<rect id="SVGID_33_" width="576" height="144"/>
		</defs>
		<clipPath id="SVGID_34_">
			<use xlink:href="#SVGID_33_"  style="overflow:visible;"/>
		</clipPath>
		<g class="st18">
			<g>
				<g>
					<rect x="454.6" y="94.5" class="st14" width="0.6" height="0.6"/>
				</g>
			</g>
		</g>
	</g>
	<g>
		<defs>
			<rect id="SVGID_35_" width="576" height="144"/>
		</defs>
		<clipPath id="SVGID_36_">
			<use xlink:href="#SVGID_35_"  style="overflow:visible;"/>
		</clipPath>
		<g class="st19">
			<g>
				<g>
					<rect x="454.6" y="94.9" class="st14" width="0.6" height="0.6"/>
				</g>
			</g>
		</g>
	</g>
	<g>
		<defs>
			<rect id="SVGID_37_" width="576" height="144"/>
		</defs>
		<clipPath id="SVGID_38_">
			<use xlink:href="#SVGID_37_"  style="overflow:visible;"/>
		</clipPath>
		<g class="st20">
			<g>
				<g>
					<rect x="449.1" y="105" class="st14" width="0.6" height="0.6"/>
				</g>
			</g>
		</g>
	</g>
	<g>
		<defs>
			<rect id="SVGID_39_" width="576" height="144"/>
		</defs>
		<clipPath id="SVGID_40_">
			<use xlink:href="#SVGID_39_"  style="overflow:visible;"/>
		</clipPath>
		<g class="st21">
			<g>
				<g>
					<rect x="498.5" y="109.6" class="st14" width="0.6" height="0.6"/>
				</g>
			</g>
		</g>
	</g>
	<g>
		<defs>
			<rect id="SVGID_41_" width="576" height="144"/>
		</defs>
		<clipPath id="SVGID_42_">
			<use xlink:href="#SVGID_41_"  style="overflow:visible;"/>
		</clipPath>
		<g class="st22">
			<g>
				<g>
					<rect x="507.9" y="112.7" class="st14" width="0.6" height="0.6"/>
				</g>
			</g>
		</g>
	</g>
	<g>
		<defs>
			<rect id="SVGID_43_" width="576" height="144"/>
		</defs>
		<clipPath id="SVGID_44_">
			<use xlink:href="#SVGID_43_"  style="overflow:visible;"/>
		</clipPath>
		<g class="st23">
			<g>
				<g>
					<rect x="510" y="112.7" class="st14" width="0.6" height="0.6"/>
				</g>
			</g>
		</g>
	</g>
	<g>
		<defs>
			<rect id="SVGID_45_" width="576" height="144"/>
		</defs>
		<clipPath id="SVGID_46_">
			<use xlink:href="#SVGID_45_"  style="overflow:visible;"/>
		</clipPath>
		<g class="st24">
			<g>
				<g>
					<rect x="545" y="73.6" class="st14" width="0.6" height="0.6"/>
				</g>
			</g>
		</g>
	</g>
	<g>
		<defs>
			<rect id="SVGID_47_" width="576" height="144"/>
		</defs>
		<clipPath id="SVGID_48_">
			<use xlink:href="#SVGID_47_"  style="overflow:visible;"/>
		</clipPath>
		<g class="st25">
			<g>
				<g>
					<rect x="552.6" y="84.6" class="st14" width="0.6" height="0.6"/>
				</g>
			</g>
		</g>
	</g>
	<g>
		<defs>
			<rect id="SVGID_49_" width="576" height="144"/>
		</defs>
		<clipPath id="SVGID_50_">
			<use xlink:href="#SVGID_49_"  style="overflow:visible;"/>
		</clipPath>
		<g class="st26">
			<g>
				<g>
					<rect x="547" y="84.9" class="st14" width="0.6" height="0.6"/>
				</g>
			</g>
		</g>
	</g>
	<g>
		<defs>
			<rect id="SVGID_51_" width="576" height="144"/>
		</defs>
		<clipPath id="SVGID_52_">
			<use xlink:href="#SVGID_51_"  style="overflow:visible;"/>
		</clipPath>
		<g class="st27">
			<g>
				<g>
					<rect x="308.8" y="112.5" class="st14" width="0.6" height="0.6"/>
				</g>
			</g>
		</g>
	</g>
	<g>
		<defs>
			<rect id="SVGID_53_" width="576" height="144"/>
		</defs>
		<clipPath id="SVGID_54_">
			<use xlink:href="#SVGID_53_"  style="overflow:visible;"/>
		</clipPath>
		<g class="st28">
			<g>
				<g>
					<rect x="311.1" y="113" class="st14" width="0.6" height="0.6"/>
				</g>
			</g>
		</g>
	</g>
	<g>
		<defs>
			<rect id="SVGID_55_" width="576" height="144"/>
		</defs>
		<clipPath id="SVGID_56_">
			<use xlink:href="#SVGID_55_"  style="overflow:visible;"/>
		</clipPath>
		<g class="st29">
			<g>
				<g>
					<rect x="324.6" y="120.9" class="st14" width="0.6" height="0.6"/>
				</g>
			</g>
		</g>
	</g>
	<g>
		<defs>
			<rect id="SVGID_57_" width="576" height="144"/>
		</defs>
		<clipPath id="SVGID_58_">
			<use xlink:href="#SVGID_57_"  style="overflow:visible;"/>
		</clipPath>
		<g class="st30">
			<g>
				<g>
					<rect x="324.9" y="114.5" class="st14" width="0.6" height="0.6"/>
				</g>
			</g>
		</g>
	</g>
	<g>
		<defs>
			<rect id="SVGID_59_" width="576" height="144"/>
		</defs>
		<clipPath id="SVGID_60_">
			<use xlink:href="#SVGID_59_"  style="overflow:visible;"/>
		</clipPath>
		<g class="st31">
			<g>
				<g>
					<rect x="353.5" y="104" class="st14" width="0.6" height="0.6"/>
				</g>
			</g>
		</g>
	</g>
	<g>
		<defs>
			<rect id="SVGID_61_" width="576" height="144"/>
		</defs>
		<clipPath id="SVGID_62_">
			<use xlink:href="#SVGID_61_"  style="overflow:visible;"/>
		</clipPath>
		<g class="st32">
			<g>
				<g>
					<rect x="353.7" y="105.8" class="st14" width="0.6" height="0.6"/>
				</g>
			</g>
		</g>
	</g>
	<g>
		<defs>
			<rect id="SVGID_63_" width="576" height="144"/>
		</defs>
		<clipPath id="SVGID_64_">
			<use xlink:href="#SVGID_63_"  style="overflow:visible;"/>
		</clipPath>
		<g class="st33">
			<g>
				<g>
					<rect x="353.7" y="108.1" class="st14" width="0.6" height="0.6"/>
				</g>
			</g>
		</g>
	</g>
	<g>
		<defs>
			<rect id="SVGID_65_" width="576" height="144"/>
		</defs>
		<clipPath id="SVGID_66_">
			<use xlink:href="#SVGID_65_"  style="overflow:visible;"/>
		</clipPath>
		<g class="st34">
			<g>
				<g>
					<rect x="360.1" y="106.8" class="st14" width="0.6" height="0.6"/>
				</g>
			</g>
		</g>
	</g>
	<g>
		<defs>
			<rect id="SVGID_67_" width="576" height="144"/>
		</defs>
		<clipPath id="SVGID_68_">
			<use xlink:href="#SVGID_67_"  style="overflow:visible;"/>
		</clipPath>
		<g class="st35">
			<g>
				<g>
					<rect x="362.7" y="108.1" class="st14" width="0.6" height="0.6"/>
				</g>
			</g>
		</g>
	</g>
	<g>
		<defs>
			<rect id="SVGID_69_" width="576" height="144"/>
		</defs>
		<clipPath id="SVGID_70_">
			<use xlink:href="#SVGID_69_"  style="overflow:visible;"/>
		</clipPath>
		<g class="st36">
			<g>
				<g>
					<rect x="363.2" y="114" class="st14" width="0.6" height="0.6"/>
				</g>
			</g>
		</g>
	</g>
	<g>
		<defs>
			<rect id="SVGID_71_" width="576" height="144"/>
		</defs>
		<clipPath id="SVGID_72_">
			<use xlink:href="#SVGID_71_"  style="overflow:visible;"/>
		</clipPath>
		<g class="st37">
			<g>
				<g>
					<rect x="359.1" y="112.7" class="st14" width="0.6" height="0.6"/>
				</g>
			</g>
		</g>
	</g>
	<g>
		<defs>
			<rect id="SVGID_73_" width="576" height="144"/>
		</defs>
		<clipPath id="SVGID_74_">
			<use xlink:href="#SVGID_73_"  style="overflow:visible;"/>
		</clipPath>
		<g class="st38">
			<g>
				<g>
					<rect x="277.4" y="117.8" class="st14" width="0.6" height="0.6"/>
				</g>
			</g>
		</g>
	</g>
	<g>
		<defs>
			<rect id="SVGID_75_" width="576" height="144"/>
		</defs>
		<clipPath id="SVGID_76_">
			<use xlink:href="#SVGID_75_"  style="overflow:visible;"/>
		</clipPath>
		<g class="st39">
			<g>
				<g>
					<rect x="261.8" y="115" class="st14" width="0.6" height="0.6"/>
				</g>
			</g>
		</g>
	</g>
	<g>
		<defs>
			<rect id="SVGID_77_" width="576" height="144"/>
		</defs>
		<clipPath id="SVGID_78_">
			<use xlink:href="#SVGID_77_"  style="overflow:visible;"/>
		</clipPath>
		<g class="st40">
			<g>
				<g>
					<rect x="263.6" y="120.6" class="st14" width="0.6" height="0.6"/>
				</g>
			</g>
		</g>
	</g>
	<g>
		<defs>
			<rect id="SVGID_79_" width="576" height="144"/>
		</defs>
		<clipPath id="SVGID_80_">
			<use xlink:href="#SVGID_79_"  style="overflow:visible;"/>
		</clipPath>
		<g class="st41">
			<g>
				<g>
					<rect x="260" y="119.6" class="st14" width="0.6" height="0.6"/>
				</g>
			</g>
		</g>
	</g>
	<g>
		<defs>
			<rect id="SVGID_81_" width="576" height="144"/>
		</defs>
		<clipPath id="SVGID_82_">
			<use xlink:href="#SVGID_81_"  style="overflow:visible;"/>
		</clipPath>
		<g class="st42">
			<g>
				<g>
					<rect x="244.2" y="108.1" class="st14" width="0.6" height="0.6"/>
				</g>
			</g>
		</g>
	</g>
	<g>
		<defs>
			<rect id="SVGID_83_" width="576" height="144"/>
		</defs>
		<clipPath id="SVGID_84_">
			<use xlink:href="#SVGID_83_"  style="overflow:visible;"/>
		</clipPath>
		<g class="st43">
			<g>
				<g>
					<rect x="241.1" y="113.2" class="st14" width="0.6" height="0.6"/>
				</g>
			</g>
		</g>
	</g>
	<g>
		<defs>
			<rect id="SVGID_85_" width="576" height="144"/>
		</defs>
		<clipPath id="SVGID_86_">
			<use xlink:href="#SVGID_85_"  style="overflow:visible;"/>
		</clipPath>
		<g class="st44">
			<g>
				<g>
					<rect x="236.8" y="108.1" class="st14" width="0.6" height="0.6"/>
				</g>
			</g>
		</g>
	</g>
	<g>
		<defs>
			<rect id="SVGID_87_" width="576" height="144"/>
		</defs>
		<clipPath id="SVGID_88_">
			<use xlink:href="#SVGID_87_"  style="overflow:visible;"/>
		</clipPath>
		<g class="st45">
			<g>
				<g>
					<rect x="222.8" y="106.6" class="st14" width="0.6" height="0.6"/>
				</g>
			</g>
		</g>
	</g>
	<g>
		<defs>
			<rect id="SVGID_89_" width="576" height="144"/>
		</defs>
		<clipPath id="SVGID_90_">
			<use xlink:href="#SVGID_89_"  style="overflow:visible;"/>
		</clipPath>
		<g class="st46">
			<g>
				<g>
					<rect x="225.6" y="114.5" class="st14" width="0.6" height="0.6"/>
				</g>
			</g>
		</g>
	</g>
	<g>
		<defs>
			<rect id="SVGID_91_" width="576" height="144"/>
		</defs>
		<clipPath id="SVGID_92_">
			<use xlink:href="#SVGID_91_"  style="overflow:visible;"/>
		</clipPath>
		<g class="st47">
			<g>
				<g>
					<rect x="218.4" y="112.5" class="st14" width="0.6" height="0.6"/>
				</g>
			</g>
		</g>
	</g>
	<g>
		<defs>
			<rect id="SVGID_93_" width="576" height="144"/>
		</defs>
		<clipPath id="SVGID_94_">
			<use xlink:href="#SVGID_93_"  style="overflow:visible;"/>
		</clipPath>
		<g class="st48">
			<g>
				<g>
					<rect x="395.1" y="108.1" class="st14" width="0.6" height="0.6"/>
				</g>
			</g>
		</g>
	</g>
	<g>
		<defs>
			<rect id="SVGID_95_" width="576" height="144"/>
		</defs>
		<clipPath id="SVGID_96_">
			<use xlink:href="#SVGID_95_"  style="overflow:visible;"/>
		</clipPath>
		<g class="st49">
			<g>
				<g>
					<rect x="396.9" y="115.5" class="st14" width="0.6" height="0.6"/>
				</g>
			</g>
		</g>
	</g>
	<g>
		<defs>
			<rect id="SVGID_97_" width="576" height="144"/>
		</defs>
		<clipPath id="SVGID_98_">
			<use xlink:href="#SVGID_97_"  style="overflow:visible;"/>
		</clipPath>
		<g class="st50">
			<g>
				<g>
					<rect x="399.2" y="110.2" class="st14" width="0.6" height="0.6"/>
				</g>
			</g>
		</g>
	</g>
	<g>
		<defs>
			<rect id="SVGID_99_" width="576" height="144"/>
		</defs>
		<clipPath id="SVGID_100_">
			<use xlink:href="#SVGID_99_"  style="overflow:visible;"/>
		</clipPath>
		<g class="st51">
			<g>
				<g>
					<rect x="396.4" y="112.5" class="st14" width="0.6" height="0.6"/>
				</g>
			</g>
		</g>
	</g>
	<g>
		<defs>
			<rect id="SVGID_101_" width="576" height="144"/>
		</defs>
		<clipPath id="SVGID_102_">
			<use xlink:href="#SVGID_101_"  style="overflow:visible;"/>
		</clipPath>
		<g class="st52">
			<g>
				<g>
					<rect x="391.8" y="120.4" class="st14" width="0.6" height="0.6"/>
				</g>
			</g>
		</g>
	</g>
	<g>
		<defs>
			<rect id="SVGID_103_" width="576" height="144"/>
		</defs>
		<clipPath id="SVGID_104_">
			<use xlink:href="#SVGID_103_"  style="overflow:visible;"/>
		</clipPath>
		<g class="st53">
			<g>
				<g>
					<rect x="380" y="124.2" class="st14" width="0.6" height="0.6"/>
				</g>
			</g>
		</g>
	</g>
	<g>
		<defs>
			<rect id="SVGID_105_" width="576" height="144"/>
		</defs>
		<clipPath id="SVGID_106_">
			<use xlink:href="#SVGID_105_"  style="overflow:visible;"/>
		</clipPath>
		<g class="st54">
			<g>
				<g>
					<rect x="366.5" y="122.9" class="st14" width="0.6" height="0.6"/>
				</g>
			</g>
		</g>
	</g>
	<g>
		<defs>
			<rect id="SVGID_107_" width="576" height="144"/>
		</defs>
		<clipPath id="SVGID_108_">
			<use xlink:href="#SVGID_107_"  style="overflow:visible;"/>
		</clipPath>
		<g class="st55">
			<g>
				<g>
					<rect x="358.1" y="120.6" class="st14" width="0.6" height="0.6"/>
				</g>
			</g>
		</g>
	</g>
	<g>
		<defs>
			<rect id="SVGID_109_" width="576" height="144"/>
		</defs>
		<clipPath id="SVGID_110_">
			<use xlink:href="#SVGID_109_"  style="overflow:visible;"/>
		</clipPath>
		<g class="st56">
			<g>
				<g>
					<rect x="435.4" y="116.3" class="st14" width="0.6" height="0.6"/>
				</g>
			</g>
		</g>
	</g>
	<g>
		<defs>
			<rect id="SVGID_111_" width="576" height="144"/>
		</defs>
		<clipPath id="SVGID_112_">
			<use xlink:href="#SVGID_111_"  style="overflow:visible;"/>
		</clipPath>
		<g class="st57">
			<g>
				<g>
					<rect x="480.4" y="127.8" class="st14" width="0.6" height="0.6"/>
				</g>
			</g>
		</g>
	</g>
	<g>
		<defs>
			<rect id="SVGID_113_" width="576" height="144"/>
		</defs>
		<clipPath id="SVGID_114_">
			<use xlink:href="#SVGID_113_"  style="overflow:visible;"/>
		</clipPath>
		<g class="st58">
			<g>
				<g>
					<rect x="482.4" y="127.8" class="st14" width="0.6" height="0.6"/>
				</g>
			</g>
		</g>
	</g>
	<g>
		<defs>
			<rect id="SVGID_115_" width="576" height="144"/>
		</defs>
		<clipPath id="SVGID_116_">
			<use xlink:href="#SVGID_115_"  style="overflow:visible;"/>
		</clipPath>
		<g class="st59">
			<g>
				<g>
					<rect x="484.7" y="127.8" class="st14" width="0.6" height="0.6"/>
				</g>
			</g>
		</g>
	</g>
	<g>
		<defs>
			<rect id="SVGID_117_" width="576" height="144"/>
		</defs>
		<clipPath id="SVGID_118_">
			<use xlink:href="#SVGID_117_"  style="overflow:visible;"/>
		</clipPath>
		<g class="st60">
			<g>
				<g>
					<rect x="492.4" y="127.5" class="st14" width="0.6" height="0.6"/>
				</g>
			</g>
		</g>
	</g>
	<g>
		<defs>
			<rect id="SVGID_119_" width="576" height="144"/>
		</defs>
		<clipPath id="SVGID_120_">
			<use xlink:href="#SVGID_119_"  style="overflow:visible;"/>
		</clipPath>
		<g class="st61">
			<g>
				<g>
					<rect x="500" y="127.5" class="st14" width="0.6" height="0.6"/>
				</g>
			</g>
		</g>
	</g>
	<g>
		<defs>
			<rect id="SVGID_121_" width="576" height="144"/>
		</defs>
		<clipPath id="SVGID_122_">
			<use xlink:href="#SVGID_121_"  style="overflow:visible;"/>
		</clipPath>
		<g class="st62">
			<g>
				<g>
					<rect x="465" y="119.3" class="st14" width="0.6" height="0.6"/>
				</g>
			</g>
		</g>
	</g>
	<g>
		<defs>
			<rect id="SVGID_123_" width="576" height="144"/>
		</defs>
		<clipPath id="SVGID_124_">
			<use xlink:href="#SVGID_123_"  style="overflow:visible;"/>
		</clipPath>
		<g class="st63">
			<g>
				<g>
					<rect x="468.1" y="119.6" class="st14" width="0.6" height="0.6"/>
				</g>
			</g>
		</g>
	</g>
	<g>
		<defs>
			<rect id="SVGID_125_" width="576" height="144"/>
		</defs>
		<clipPath id="SVGID_126_">
			<use xlink:href="#SVGID_125_"  style="overflow:visible;"/>
		</clipPath>
		<g class="st64">
			<g>
				<g>
					<rect x="468.4" y="116.5" class="st14" width="0.6" height="0.6"/>
				</g>
			</g>
		</g>
	</g>
	<g>
		<defs>
			<rect id="SVGID_127_" width="576" height="144"/>
		</defs>
		<clipPath id="SVGID_128_">
			<use xlink:href="#SVGID_127_"  style="overflow:visible;"/>
		</clipPath>
		<g class="st65">
			<g>
				<g>
					<rect x="191.1" y="108.9" class="st14" width="0.6" height="0.6"/>
				</g>
			</g>
		</g>
	</g>
	<g>
		<defs>
			<rect id="SVGID_129_" width="576" height="144"/>
		</defs>
		<clipPath id="SVGID_130_">
			<use xlink:href="#SVGID_129_"  style="overflow:visible;"/>
		</clipPath>
		<g class="st66">
			<g>
				<g>
					<rect x="191.1" y="110.2" class="st14" width="0.6" height="0.6"/>
				</g>
			</g>
		</g>
	</g>
	<g>
		<defs>
			<rect id="SVGID_131_" width="576" height="144"/>
		</defs>
		<clipPath id="SVGID_132_">
			<use xlink:href="#SVGID_131_"  style="overflow:visible;"/>
		</clipPath>
		<g class="st67">
			<g>
				<g>
					<rect x="191.1" y="111.7" class="st14" width="0.6" height="0.6"/>
				</g>
			</g>
		</g>
	</g>
	<g>
		<defs>
			<rect id="SVGID_133_" width="576" height="144"/>
		</defs>
		<clipPath id="SVGID_134_">
			<use xlink:href="#SVGID_133_"  style="overflow:visible;"/>
		</clipPath>
		<g class="st68">
			<g>
				<g>
					<rect x="117.3" y="122.7" class="st14" width="0.6" height="0.6"/>
				</g>
			</g>
		</g>
	</g>
	<g>
		<defs>
			<rect id="SVGID_135_" width="576" height="144"/>
		</defs>
		<clipPath id="SVGID_136_">
			<use xlink:href="#SVGID_135_"  style="overflow:visible;"/>
		</clipPath>
		<g class="st69">
			<g>
				<g>
					<rect x="121.6" y="123.2" class="st14" width="0.6" height="0.6"/>
				</g>
			</g>
		</g>
	</g>
	<g>
		<defs>
			<rect id="SVGID_137_" width="576" height="144"/>
		</defs>
		<clipPath id="SVGID_138_">
			<use xlink:href="#SVGID_137_"  style="overflow:visible;"/>
		</clipPath>
		<g class="st70">
			<g>
				<g>
					<rect x="125" y="126" class="st14" width="0.6" height="0.6"/>
				</g>
			</g>
		</g>
		<g class="st70">
			<g>
				<g>
					<rect x="7.7" y="81.8" class="st14" width="0.6" height="0.6"/>
				</g>
			</g>
		</g>
		<g class="st70">
			<g>
				<g>
					<rect x="6.7" y="88.1" class="st14" width="0.6" height="0.6"/>
				</g>
			</g>
		</g>
		<g class="st70">
			<g>
				<g>
					<rect x="14.7" y="94.4" class="st14" width="0.6" height="0.6"/>
				</g>
			</g>
		</g>
		<g class="st70">
			<g>
				<g>
					<rect x="19" y="80.7" class="st14" width="0.6" height="0.6"/>
				</g>
			</g>
		</g>
		<g class="st70">
			<g>
				<g>
					<rect x="27.2" y="94.5" class="st14" width="0.6" height="0.6"/>
				</g>
			</g>
		</g>
		<g class="st70">
			<g>
				<g>
					<rect x="81" y="100" class="st14" width="0.6" height="0.6"/>
				</g>
			</g>
		</g>
		<g class="st70">
			<g>
				<g>
					<rect x="86.7" y="99.6" class="st14" width="0.6" height="0.6"/>
				</g>
			</g>
		</g>
		<g class="st70">
			<g>
				<g>
					<rect x="82.7" y="94.5" class="st14" width="0.6" height="0.6"/>
				</g>
			</g>
		</g>
		<g class="st70">
			<g>
				<g>
					<rect x="87" y="91" class="st14" width="0.6" height="0.6"/>
				</g>
			</g>
		</g>
		<g class="st70">
			<g>
				<g>
					<rect x="81.6" y="88.3" class="st14" width="0.6" height="0.6"/>
				</g>
			</g>
		</g>
		<g class="st70">
			<g>
				<g>
					<rect x="76.6" y="93.9" class="st14" width="0.6" height="0.6"/>
				</g>
			</g>
		</g>
		<g class="st70">
			<g>
				<g>
					<rect x="106" y="96.1" class="st14" width="0.6" height="0.6"/>
				</g>
			</g>
		</g>
		<g class="st70">
			<g>
				<g>
					<rect x="98.8" y="92" class="st14" width="0.6" height="0.6"/>
				</g>
			</g>
		</g>
		<g class="st70">
			<g>
				<g>
					<rect x="98.8" y="95.9" class="st14" width="0.6" height="0.6"/>
				</g>
			</g>
		</g>
		<g class="st70">
			<g>
				<g>
					<rect x="57.3" y="93.5" class="st14" width="0.6" height="0.6"/>
				</g>
			</g>
		</g>
		<g class="st70">
			<g>
				<g>
					<rect x="59.4" y="93.5" class="st14" width="0.6" height="0.6"/>
				</g>
			</g>
		</g>
		<g class="st70">
			<g>
				<g>
					<rect x="46.5" y="98.9" class="st14" width="0.6" height="0.6"/>
				</g>
			</g>
		</g>
		<g class="st70">
			<g>
				<g>
					<rect x="34.1" y="93.9" class="st14" width="0.6" height="0.6"/>
				</g>
			</g>
		</g>
		<g class="st70">
			<g>
				<g>
					<rect x="36.5" y="96.4" class="st14" width="0.6" height="0.6"/>
				</g>
			</g>
		</g>
		<g class="st70">
			<g>
				<g>
					<rect x="40.7" y="101" class="st14" width="0.6" height="0.6"/>
				</g>
			</g>
		</g>
		<g class="st70">
			<g>
				<g>
					<rect x="64" y="87.3" class="st14" width="0.6" height="0.6"/>
				</g>
			</g>
		</g>
		<g class="st70">
			<g>
				<g>
					<rect x="66" y="90.7" class="st14" width="0.6" height="0.6"/>
				</g>
			</g>
		</g>
		<g class="st70">
			<g>
				<g>
					<rect x="65.9" y="98.1" class="st14" width="0.6" height="0.6"/>
				</g>
			</g>
		</g>
		<g class="st70">
			<g>
				<g>
					<rect x="114.1" y="95.9" class="st14" width="0.6" height="0.6"/>
				</g>
			</g>
		</g>
		<g class="st70">
			<g>
				<g>
					<rect x="32.7" y="96.6" class="st14" width="0.6" height="0.6"/>
				</g>
			</g>
		</g>
		<g class="st70">
			<g>
				<g>
					<rect x="24.8" y="84.7" class="st14" width="0.6" height="0.6"/>
				</g>
			</g>
		</g>
		<g class="st70">
			<g>
				<g>
					<rect x="26.6" y="84.8" class="st14" width="0.6" height="0.6"/>
				</g>
			</g>
		</g>
		<g class="st70">
			<g>
				<g>
					<rect x="17" y="83.8" class="st14" width="0.6" height="0.6"/>
				</g>
			</g>
		</g>
		<g class="st70">
			<g>
				<g>
					<rect x="14.7" y="87" class="st14" width="0.6" height="0.6"/>
				</g>
			</g>
		</g>
		<g class="st70">
			<g>
				<g>
					<rect x="13" y="98.3" class="st14" width="0.6" height="0.6"/>
				</g>
			</g>
		</g>
		<g class="st70">
			<g>
				<g>
					<rect x="12" y="85.2" class="st14" width="0.6" height="0.6"/>
				</g>
			</g>
		</g>
		<g class="st70">
			<g>
				<g>
					<rect x="7.7" y="92.4" class="st14" width="0.6" height="0.6"/>
				</g>
			</g>
		</g>
		<g class="st70">
			<g>
				<g>
					<rect x="2.1" y="91.2" class="st14" width="0.6" height="0.6"/>
				</g>
			</g>
		</g>
		<g class="st70">
			<g>
				<g>
					<rect x="9.3" y="95" class="st14" width="0.6" height="0.6"/>
				</g>
			</g>
		</g>
	</g>
	<g>
		<defs>
			<rect id="SVGID_139_" width="576" height="144"/>
		</defs>
		<clipPath id="SVGID_140_">
			<use xlink:href="#SVGID_139_"  style="overflow:visible;"/>
		</clipPath>
		<g class="st71">
			<g>
				<g>
					<rect x="128" y="122.9" class="st14" width="0.6" height="0.6"/>
				</g>
			</g>
		</g>
	</g>
	<g>
		<defs>
			<rect id="SVGID_141_" width="576" height="144"/>
		</defs>
		<clipPath id="SVGID_142_">
			<use xlink:href="#SVGID_141_"  style="overflow:visible;"/>
		</clipPath>
		<g class="st72">
			<g>
				<g>
					<rect x="138" y="112.2" class="st14" width="0.6" height="0.6"/>
				</g>
			</g>
		</g>
	</g>
	<g>
		<defs>
			<rect id="SVGID_143_" width="576" height="144"/>
		</defs>
		<clipPath id="SVGID_144_">
			<use xlink:href="#SVGID_143_"  style="overflow:visible;"/>
		</clipPath>
		<g class="st73">
			<g>
				<g>
					<rect x="140" y="116.5" class="st14" width="0.6" height="0.6"/>
				</g>
			</g>
		</g>
	</g>
	<g>
		<defs>
			<rect id="SVGID_145_" width="576" height="144"/>
		</defs>
		<clipPath id="SVGID_146_">
			<use xlink:href="#SVGID_145_"  style="overflow:visible;"/>
		</clipPath>
		<g class="st74">
			<g>
				<g>
					<rect x="144.4" y="112.2" class="st14" width="0.6" height="0.6"/>
				</g>
			</g>
		</g>
	</g>
	<g>
		<defs>
			<rect id="SVGID_147_" width="576" height="144"/>
		</defs>
		<clipPath id="SVGID_148_">
			<use xlink:href="#SVGID_147_"  style="overflow:visible;"/>
		</clipPath>
		<g class="st75">
			<g>
				<g>
					<rect x="151.3" y="125.2" class="st14" width="0.6" height="0.6"/>
				</g>
			</g>
		</g>
	</g>
	<g>
		<defs>
			<rect id="SVGID_149_" width="576" height="144"/>
		</defs>
		<clipPath id="SVGID_150_">
			<use xlink:href="#SVGID_149_"  style="overflow:visible;"/>
		</clipPath>
		<g class="st76">
			<g>
				<g>
					<rect x="161.2" y="123.7" class="st14" width="0.6" height="0.6"/>
				</g>
			</g>
		</g>
	</g>
	<g>
		<defs>
			<rect id="SVGID_151_" width="576" height="144"/>
		</defs>
		<clipPath id="SVGID_152_">
			<use xlink:href="#SVGID_151_"  style="overflow:visible;"/>
		</clipPath>
		<g class="st77">
			<g>
				<g>
					<rect x="164.8" y="123.7" class="st14" width="0.6" height="0.6"/>
				</g>
			</g>
		</g>
	</g>
	<g>
		<defs>
			<rect id="SVGID_153_" width="576" height="144"/>
		</defs>
		<clipPath id="SVGID_154_">
			<use xlink:href="#SVGID_153_"  style="overflow:visible;"/>
		</clipPath>
		<g class="st78">
			<g>
				<g>
					<rect x="168.1" y="123.7" class="st14" width="0.6" height="0.6"/>
				</g>
			</g>
		</g>
	</g>
</g>
<path class="st4" d="M-5.4,87.3v3.8h0.6v0.5h-0.6v0.7h0.6v6.6h-1.7v2.5h0.8v15.4h-0.4v7.8h-2.2v-0.9h-0.3l-2.5-2.6v-1.2h-0.1l0,0
	c0-0.3-0.2-0.6-0.6-0.7v-6.1l-0.1-1.6l-0.1,1.6v6c-0.3,0-0.6,0.3-0.6,0.7l0,0h-0.1v1.1l-2.8,2.7h-0.4v0.9h-0.5v0.8l-4.4,5h0.8v3.4
	h-0.6v0.8h0.6v4.5h-0.4v0.8h0.4v4.1h-1.3l0,0l56.1,0.1l0.6-11.5h-0.6v-3.7h-3v-6h1.1v-2.5h-3.5v-8h0.5v-4.4h-1.8v-8.2l0,0v-0.9l0,0
	v-6.6h0.3v-2h1v-2.5"/>
<g>
	<g>
		<path class="st79" d="M56,121.9"/>
	</g>
</g>
<g>
	<g>
		<path class="st79" d="M55.2,108.7"/>
	</g>
</g>
<g>
	<g>
		<path class="st79" d="M8,113.8"/>
	</g>
</g>
</svg>
