<?xml version="1.0" encoding="utf-8"?>
<!-- Generator: Adobe Illustrator 25.2.3, SVG Export Plug-In . SVG Version: 6.00 Build 0)  -->
<svg version="1.1" id="Layer_1" xmlns="http://www.w3.org/2000/svg" xmlns:xlink="http://www.w3.org/1999/xlink" x="0px" y="0px"
	 viewBox="0 0 288 288" style="enable-background:new 0 0 288 288;" xml:space="preserve">
<style type="text/css">
	.st0{fill:#1A1A1A;}
	.st1{fill:url(#SVGID_1_);}
	.st2{fill:url(#SVGID_2_);}
</style>
<g>
	
		<image style="overflow:visible;opacity:0.25;" width="245" height="268" xlink:href="232D10A.png"  transform="matrix(1 0 0 1 25.042 10.5508)">
	</image>
	<g>
		<path class="st0" d="M212.7,138.8c-21.2-44.7,13.9-87.9,13.9-87.9l-27.6-25c-24.6,25.9-58.8,23.4-58.8,23.4v89.6H212.7z"/>
		<linearGradient id="SVGID_1_" gradientUnits="userSpaceOnUse" x1="55.3976" y1="82.4253" x2="140.8167" y2="82.4253">
			<stop  offset="0" style="stop-color:#BA872C"/>
			<stop  offset="1" style="stop-color:#ECAE2B"/>
		</linearGradient>
		<path class="st1" d="M82.6,26.1L55.4,50.9c0,0,35,43.2,13.9,87.9h71V49.4h0.5C140.8,49.4,107.2,52,82.6,26.1z"/>
		<linearGradient id="SVGID_2_" gradientUnits="userSpaceOnUse" x1="140.273" y1="195.8419" x2="241.1487" y2="195.8419">
			<stop  offset="0" style="stop-color:#ECAE2B"/>
			<stop  offset="1" style="stop-color:#BA872C"/>
		</linearGradient>
		<path class="st2" d="M140.3,252.9c6-16.6,18.9-25.2,39.5-30.5c20.6-5.3,22.7-18.6,22.7-18.6l8.7,4l29.9-33.5
			c-14.1-11.6-23-23.4-28.4-35.5h-72.5V252.9z"/>
		<path class="st0" d="M69.3,138.8c-5.4,12.1-14.4,24-28.5,35.5l29.9,33.4l8.6-3.9c0,0,2,13.3,22.6,18.6c20.6,5.3,33.5,14,38.8,30.5
			l-0.4,0V138.8H69.3z"/>
		<g>
			
				<image style="overflow:visible;" width="925" height="1024" xlink:href="232D10E.png"  transform="matrix(0.24 0 0 0.24 30 15.36)">
			</image>
		</g>
	</g>
</g>
</svg>
