<?xml version="1.0" encoding="utf-8"?>
<!-- Generator: Adobe Illustrator 25.3.1, SVG Export Plug-In . SVG Version: 6.00 Build 0)  -->
<svg version="1.1" id="Layer_1__x2B__Hue_x2F_Saturation_1_xA0_Image_1_"
	 xmlns="http://www.w3.org/2000/svg" xmlns:xlink="http://www.w3.org/1999/xlink" x="0px" y="0px" viewBox="0 0 292.3 439.2"
	 style="enable-background:new 0 0 292.3 439.2;" xml:space="preserve">
<style type="text/css">
	.st0{fill:#592F00;}
	.st1{fill:#340A06;}
	.st2{fill:#82623F;}
	.st3{fill:#F2EFEB;}
	.st4{fill:#F4F1EF;}
	.st5{fill:#A69078;}
	.st6{fill:#A48D74;}
	.st7{fill:#C9BCAC;}
	.st8{fill:#CBBEB0;}
	.st9{fill:#FAD7B5;}
	.st10{fill:#441100;}
	.st11{fill:#C26719;}
	.st12{fill:#4D2200;}
	.st13{fill:#F7F5F3;}
	.st14{fill:#471503;}
	.st15{fill:#80572C;}
	.st16{fill:#A47E55;}
	.st17{fill:#A2A2A4;}
	.st18{fill:#192524;}
	.st19{fill:#2F0400;}
	.st20{fill:#C47B15;}
	.st21{fill:#F9D6B5;}
	.st22{fill:#FEFEFE;}
	.st23{fill:#FEEAC6;}
	.st24{fill:#D2D2D3;}
	.st25{fill:#7B7B7B;}
	.st26{fill:#F5C69E;}
	.st27{fill:#C47B16;}
	.st28{fill:#C16619;}
	.st29{fill:#051517;}
	.st30{fill:#E3E3E4;}
	.st31{fill:#DFDFE0;}
	.st32{fill:#211917;}
	.st33{fill:#7A7A7A;}
	.st34{fill:#EEEEEE;}
	.st35{fill:#222222;}
	.st36{fill:#D4DFE3;}
	.st37{fill:#BCB7B6;}
	.st38{fill:#BFBAB8;}
	.st39{fill:#FCFCFC;}
	.st40{fill:#898989;}
	.st41{fill:#898988;}
	.st42{fill:#A1A1A1;}
	.st43{fill:#FFF208;}
	.st44{fill:none;stroke:#BCBCBC;stroke-width:0.5;stroke-miterlimit:10;}
	.st45{fill:none;stroke:#D8C805;stroke-miterlimit:10;}
</style>
<g>
	<path class="st0" d="M0,153.1c0-0.1,0-0.2,0-0.2c0.2-0.7,0.2-1.4,0-2.2c0-0.1,0-0.2,0-0.2c0.2-0.5,0.2-1.1,0.3-1.6
		c0.2-0.9,0.5-1.8,1.3-2.4c2.7-2.1,4.5-4.9,6-8c4-8,7.2-16.4,10.3-24.8c3.6-9.8,7.7-19.3,13.1-28.2c0.8-1.4,1.8-2.7,2.6-4
		c-0.2-0.7-0.7-0.9-1.1-1.2c-2.4-1.7-4.4-3.7-5-6.8c-0.6-3.2,0.5-5.8,2.9-7.9c2.3-2,5-3.3,7.5-5c1.3-0.8,2.5-1.7,3.6-2.8
		c2.6-2.7,5.3-5.3,7.9-8.1c3.2-3.5,6.8-6.7,10.3-9.9c3.8-3.5,7.8-6.8,11.9-10c7.1-5.5,14.7-10.4,22.7-14.6c7.1-3.7,14.4-6.8,22-9.3
		c8.1-2.6,16.4-4.4,24.9-5.4c2.7-0.3,5.3-0.3,8-0.5c0.7,0,1.5,0,2.2,0c0.5,0,1,0,1.5,0c0.7,0,1.3,0,2,0c2.5,0,5,0,7.4,0
		c0.7,0,1.3,0,2,0c0.5,0,1,0,1.5,0c0.7,0,1.5,0,2.2,0c12,0.3,23.7,2.5,35.1,6c6.2,1.9,12.3,4.3,18.1,7.3c8.5,4.2,16.3,9.4,23.5,15.6
		c7.5,6.5,14,13.9,19.4,22.2c4.4,6.9,8.1,14.2,10.5,22c3.4,11,7.6,21.7,12.5,32.2c1.7,3.6,3.3,7.2,4.5,11c0.5,1.7,0.5,3.4,0.8,5
		c0,2.3,0,4.6,0,7c-0.3,1.6-0.4,3.3-1,4.9c-1.5,3.9-3.9,7.1-7.6,9.3c-0.4,0.2-0.9,0.4-1.1,0.9c-0.2,0.5,0,1.1,0.1,1.6
		c1.3,7.4,1.9,14.8,1.5,22.3c-0.4,9.5-3.1,18.4-8.1,26.5c-1.6,2.6-3.4,5.1-5.5,7.4c-0.7,0.8-1.5,1.4-2.5,1.9c-2.3,1-3.7,0.4-4.5-2.1
		c-0.4-1.3-0.5-2.6-0.7-3.9c-0.1-0.5,0.1-1-0.1-1.5c-0.5,0.1-0.8,0.5-1.2,0.8c-3.5,3-7.3,5.7-11.6,7.4c-1.6,0.6-3.2,1-4.8,1.3
		c-1.9-0.1-3.8-0.3-5.4-1.4c-2.6-1.7-3.2-4.3-3.3-7.1c-0.2-5.1,1.1-9.9,2.6-14.7c0.3-0.9,0.7-1.7,0.8-2.7c-0.6,0-0.9,0.3-1.2,0.6
		c-2.6,1.8-5.2,3.4-8.2,4.5c-1.7,0.6-3.3,1.1-5.1,1.1c-2.7,0-4.6-1.2-5.9-3.5c-1.7-3-2.4-6.2-3-9.6c-0.7-4.1-1-8.2-1.3-12.5
		c-0.8,1.2-1.5,2.2-2.3,3.3c-3.4,4.7-7.2,9.1-12.3,12.1c-1.6,0.9-3.2,1.6-5,1.9c-3.8,0.6-6.9-0.7-9.2-3.9c-0.5-0.7-1-1.6-1.4-2.5
		c0.1,2.9,0,5.7-0.5,8.4c-0.3,1.4-0.6,2.7-1.4,3.9c-0.6,1.1-1.6,1.7-2.9,1.9c-1.2,0.2-2.5,0.3-3.7,0.2c-1.1,0-2.2,0-3.2,0.2
		c-1.6-0.6-3.4-0.5-5.1-1c-8.3-2.1-15.3-6.6-21.4-12.5c-6.8-6.5-12.2-14-16.7-22.3c-0.2-0.4-0.4-0.7-0.5-1.1
		c-0.1,0.2,0.1,0.4,0.1,0.6c0.4,2.8,0.6,5.6,0.9,8.5c0.5,5.3,0.9,10.6,1.1,15.9c0,0.6,0,1.3-0.1,1.9c-0.4,2.7-0.3,5.3,0,8
		c0.3,1.6,0,3-0.7,4.5c-1.5,2-3.1,2.6-5.5,2.1c-1.6-0.4-3-0.9-4.4-1.7c-5.5-2.9-10.9-6.1-15.5-10.3c-2.6-2.4-4.7-5.2-6.7-8.1
		c-2.4-3.5-4.7-7.2-6.7-10.9c-0.5-0.9-1.1-1.1-2.1-1.1c-0.9,0-0.9,0-1.1-0.7c0.5-0.4,1.2-0.1,1.9-0.5c-0.7-1.4-1.3-2.9-2.1-4.1
		c-1.5-0.6-3,0.2-4.4-0.6c0.1-0.7,0.6-0.6,1.1-0.6c0.8-0.1,1.6,0.1,2.6-0.2c-1.5-3.7-3.4-7.2-4.9-10.9c-0.8,4-1.4,8-1.2,12
		c-0.5,1.8-0.2,3.6,0.4,5.4c-0.7,2.1,0,4.1,0.2,6.2c0.2,2.2,0.6,4.4,0.6,6.7c-0.1,4.6-4.8,7.7-9.1,5.8c-1.6-0.7-3-1.9-4.1-3.3
		c-1.4-1.8-2.6-3.8-3.5-6c-0.3-0.7-0.6-1.3-1-1.9c-0.3-0.4-0.1-0.9-0.4-1.4c0,0.8-0.1,1.5-0.1,2.3c-0.5,7.7-1,15.4-0.8,23.1
		c0.1,3.1,0.3,6.1,0.4,9.2c0.1,4,0.1,8.1-1.2,12c-0.6,1.8-1.4,3.5-3.1,4.5c-2.8,1.3-5.2,0.4-7.6-1.2c-0.3-0.2-0.6-0.5-1-0.7
		c-3.6-3-6.8-6.5-9.8-10.2c-0.6-0.8-1.3-1.5-1.8-2.4c-0.2,2.7-0.5,5.3-1.6,7.7c-0.8,1.8-1.9,2.4-3.6,2.1c-0.6-0.3-0.8-0.9-1-1.4
		c-1.3-3.6-2.6-7.2-3.8-10.8c-0.4-1.1-0.8-2.3-1.4-3.3c-0.4-0.7-1-1-1.8-0.7c-0.8,0.3-0.9,1-0.8,1.7c0.1,0.8,0.4,1.6,0.6,2.3
		c0.1,0.4,0.3,0.8,0.1,1.3c-0.1,0.2-0.3,0.3-0.5,0.2c-0.6-0.4-0.8-1-1.1-1.6c-3.2-7.3-5.1-14.9-5.9-22.8c-0.6-5.2-0.7-10.3-0.1-15.5
		c-0.3-0.2-0.4-0.1-0.6,0c-4.5,2-9.1,1.8-13.6-0.1C1.8,158.6,0.2,156.3,0,153.1z"/>
	<path class="st1" d="M194.2,439c0,0.1,0,0.1-0.1,0.2c-10.6,0-21.3,0-31.9,0c0-0.1,0-0.2,0-0.2c0.4-0.5,1-0.4,1.6-0.4
		c9.6,0,19.2,0,28.8,0C193.2,438.5,193.8,438.5,194.2,439z"/>
	<path class="st2" d="M162.3,0.2c-2.6,0-5.2,0-7.7,0c-0.1-0.1-0.1-0.1-0.1-0.2c0,0,0.1-0.1,0.1-0.1c2.6,0,5.1,0,7.7,0
		C162.3,0,162.3,0.1,162.3,0.2C162.3,0.2,162.3,0.2,162.3,0.2z"/>
	<path class="st3" d="M168,0c0,0.1,0,0.2,0,0.2c-0.8,0-1.6,0-2.4-0.1c-0.1,0-0.1-0.1-0.1-0.1c0,0,0.1-0.1,0.1-0.1
		C166.4,0,167.2,0,168,0z"/>
	<path class="st4" d="M148.8,0.2c0-0.1,0-0.2,0-0.2c0.8,0,1.6,0,2.4,0c0.1,0.1,0.1,0.1,0.1,0.1c0,0-0.1,0.1-0.1,0.1
		C150.4,0.2,149.6,0.2,148.8,0.2z"/>
	<path class="st5" d="M0,150.7c0.4,0.7,0.4,1.4,0,2.2C0,152.2,0,151.4,0,150.7z"/>
	<path class="st6" d="M162.3,0.2c0-0.1,0-0.1,0-0.2c0.6,0,1.3,0,1.9,0c0.1,0,0.1,0.1,0.1,0.1c0,0,0,0.1-0.1,0.1
		C163.5,0.2,162.9,0.2,162.3,0.2z"/>
	<path class="st5" d="M154.6,0c0,0.1,0,0.1,0,0.2c-0.6,0-1.3,0-1.9,0c-0.1-0.1-0.1-0.1-0.1-0.1c0,0,0.1-0.1,0.1-0.1
		C153.3,0,153.9,0,154.6,0z"/>
	<path class="st7" d="M164.2,0.2c0-0.1,0-0.1,0-0.2c0.5,0,1,0,1.4,0c0,0.1,0,0.1,0,0.2C165.1,0.2,164.7,0.2,164.2,0.2z"/>
	<path class="st8" d="M152.6,0c0,0.1,0,0.1,0,0.2c-0.5,0-1,0-1.4,0c0-0.1,0-0.1,0-0.2C151.7,0,152.2,0,152.6,0z"/>
	<path class="st9" d="M268.1,203c-0.2,1.7-0.2,3.5-0.5,5.2c-1.5,8-9.5,15.7-17.4,16.8c-4,0.5-8,0.6-12-0.4c-5,5.7-10.6,10.8-16.9,15
		c-8.3,5.5-17.3,9.5-26.8,12.4c-0.3,0.1-0.5,0.3-0.8,0.4c-0.4,0.4-1,0.5-1.5,0.7c-5,1.3-9.9,2.5-15,3.4c-4.4,0.8-8.8,1.3-13.3,1.7
		c-8.6,0.9-17.3,0.7-25.9,0.7c-0.8,0-1.4,0.2-2,0.6c-0.4-0.1-0.5-0.5-0.9-0.8c-4.8-0.4-9.8-0.7-14.7-1.4c-2-0.4-4.1-0.6-6.2-0.9
		c-10.6-1.8-20.9-4.6-30.8-9.1c-8.6-3.9-16.5-8.8-23.5-15.2c-1.8-1.6-3.4-3.4-5.1-4.9c-0.4-0.1-0.7,0-1,0.1
		c-3.8,1.3-7.6,1.3-11.5,0.2c-0.5-0.1-1.1-0.2-1.7-0.2c-0.4-0.1-0.6-0.5-0.7-0.9c-1.9-5-3.7-10-5.4-15.1c-0.1-0.4-0.5-0.9,0.2-1.2
		c2,0.5,2.8-0.7,3.4-2.2c1.1-2.6,1.2-5.3,1.5-8.4c3.6,5,7.5,9.4,11.9,13.3c0.5,0.4,0.8,0.9,1.2,1.4c6.1,9.5,15.1,14.7,26.1,16.4
		c9.5,1.5,18.6,0.2,27.2-4.2c11.2-5.7,18.3-14.7,20-27.4c0.2-1.2,0.3-2.5,0.3-3.7c0.1-0.9,0.5-1.5,1.4-1.6c3.4-0.6,6.8-1,10.2-1.2
		c2.6-0.2,5.3-0.3,7.9-0.1c0.8,0.2,1.6,0.2,2.4,0c3-0.3,6.1,0,9.1,0.2c2.9,0.2,5.7,0.6,8.6,1.1c2,0.3,2.2,0.6,2.4,2.5
		c0.3,3.7,1.1,7.3,2.3,10.9c3.3,9.3,9.3,16.2,18.3,20.3c11.6,5.2,23.3,5.2,35,0.1c4.5-2,8.5-4.7,11.9-8.1c3.5-3.4,6.1-7.4,8.1-11.8
		c0.4-0.8,0.5-1.8,1.3-2.4c0.5-0.8,1.4-0.5,2.1-0.7c5.5-1.4,9.9-4.7,14.2-8.2c0.7,0,1.2,0.2,1.7,0.7c0.2,1.3,0.4,2.7,0.7,4
		C264.6,203.1,265.8,204.2,268.1,203z"/>
	<path class="st9" d="M88.8,157.5c0.9,0.1,1.9,0.2,3.1,0.4c6.2,13.3,15.4,24,29,30.3c0.6,0.7,0.5,1.5,0.6,2.3
		c0.3,5.6-0.2,11-2.4,16.2c-2.9,6.7-7.7,11.6-14.1,15c-6.4,3.5-13.4,5.1-20.7,4.8c-8.7-0.4-16.6-3.2-23.1-9.3
		c-0.6-0.6-1.4-1.1-1.5-2.1c5.1-4.7,4.4-10.9,4.1-16.8c-0.4-10.5-0.3-21.1,0.5-31.6c0-0.3,0.2-0.7,0.2-1c0.1-0.3,0.3-0.5,0.7-0.5
		c0.7-0.1,0.6,0.5,0.8,0.8c1.4,3.1,2.9,6.1,5.4,8.5c2.5,2.3,5.1,2.8,8,1.4c2.9-1.3,3.3-3.8,3-6.5c-0.3-3.7-0.8-7.3-1.2-11
		c0.3-0.1,0.5-0.3,0.8-0.4c0.2-0.3,0.5-0.4,0.8-0.4c1.6-0.3,3.3-0.3,4.9-0.4C88.2,157,88.5,157.1,88.8,157.5z"/>
	<path class="st9" d="M173.3,185.6c0.1-0.6,0.6-0.5,1-0.5c7.9,0,9.1,0.7,10.2-9.8c0.2-1.8,0-3.6,0-5.7c0.3,0.4,0.4,0.5,0.5,0.6
		c2.8,6.7,8.2,8.8,14.6,5.3c6.6-3.6,10.9-9.4,15-15.5c0.2-0.3,0.4-0.6,0.8-1.2c0.2,5.5,0.6,10.8,1.7,15.9c0.4,1.9,0.9,3.7,1.7,5.5
		c1.9,4.7,4.5,6,9.4,4.7c4.5-1.2,8.2-3.7,11.9-6.3c0.6,0.5,0.3,1.1,0.1,1.6c-1.9,5.5-3.6,11.1-3.3,17.1c0.1,2.6,0.9,5,3.1,6.6
		c0.2,0.8-0.2,1.4-0.5,2c-3.7,8.1-9.8,13.8-17.9,17.4c-5.1,2.2-10.5,3.4-16.1,3.3c-7.4-0.2-14.4-2.2-20.3-6.8
		c-4.9-3.8-8.2-8.8-10.2-14.6c-2-5.9-2.3-12-2.1-18.2C172.9,186.3,172.9,185.9,173.3,185.6z"/>
	<path class="st10" d="M173.3,185.6c-0.3,5.9-0.1,11.7,1.5,17.3c3.8,13.3,12.8,21,26.4,22.7c14.2,1.8,26-3,34.8-14.5
		c1.7-2.2,2.9-4.8,4-7.4c1.6,1,3.6,0.8,5.3,1.5c-5.2,13.7-15.2,21.8-29.1,25.3c-16.9,4.2-34.8-2.9-42.9-16.7
		c-3.1-5.4-4.7-11.2-5.3-17.4c-0.1-0.6-0.1-1.3-0.2-2c-6.5-1.1-12.9-1.8-19.4-1.7c-0.8,0.2-1.6,0.2-2.4,0
		c-6.4-0.1-12.8,0.5-19.1,1.6c-0.6,16.6-8.9,28-24,33.9c-15.2,6-29.9,4.6-43.2-5.6c-3.4-2.6-6-5.9-8-9.7c2,1.1,3.8,2.6,6.2,2.4
		c0.7-0.1,1.3-0.2,2-0.2c15.2,17.1,45.3,13.2,56.7-4.2c4.5-7,5.2-14.7,4.5-22.7c2.3,0.9,4.4,2.2,7,1.7c1.2-0.2,1.8-1.1,2.6-1.8
		c0.1-0.1,0.2-0.1,0.3-0.2c0.5-0.1,1.1-0.2,1.5-0.4c2.2-0.5,4.4-0.6,6.5-0.7c8.8-0.5,17.5-0.2,26.3,1.1c0.6,0.1,1.2,0.3,1.8,0.1
		c0.7-1.1-0.2-2.7,0.9-3.7C169.8,184.8,171.7,184.3,173.3,185.6z"/>
	<path class="st9" d="M168,184.3c-0.1,1.4-0.3,2.8-0.4,4.4c-11.8-1.8-23.5-2.3-35.3-0.8c-0.5,0.3-1,0-1.5,0.2l-0.1,0
		c0,0-0.1,0-0.1,0c0.4-1.4,0.9-2.8,0.7-4.3c-0.1-1.6,0-3.3,0-4.9c0-1.1-0.4-2.2,0-3.3c-0.2-9-1.1-17.9-2-26.9
		c-0.1-0.3-0.4-0.6,0.2-0.7C138.5,164.3,149.2,178.6,168,184.3z"/>
	<path class="st11" d="M34.8,210.1c0.5,1.6,0.9,3.2,1.5,4.7c1.5,4.2,3,8.3,4.5,12.5c0.6,0.3,0.7,0.9,0.9,1.5
		c5.1,14.1,10.2,28.2,15.3,42.3c0.2,0.5,0.4,1,0.3,1.5c-0.1,0.3-0.4,0.5-0.7,0.6c-1.6,0.6-3.2,1.1-4.8,1.6c-0.4,0.1-0.9,0.2-1.1-0.3
		c-4.2-13.1-8.5-26.3-12.7-39.4c-1.4-4.5-2.9-8.9-4.4-13.4c-0.4-0.4-0.6-1-0.7-1.5c-1-3.2-2.4-6.4-2.9-9.8c-1.1-3.2-1.8-6.5-3.3-9.6
		c0-0.5-0.4-0.9-0.3-1.5c-0.3-1.1-0.7-2.2-0.9-3.3c-0.2-0.9-0.2-1.9,0.9-2.3c1.1-0.5,2,0,2.4,1c1.6,4.1,3,8.2,4.6,12.3
		C33.8,208.2,34.3,209.1,34.8,210.1z"/>
	<path class="st9" d="M81.6,152.4c-0.6-2.2-0.1-4.5,0.2-6.7c0.2-2.2,0.6-4.3,1-6.9c2.1,4.6,3.9,8.8,5.8,13c-1.5,0.1-2.9,0.2-4.3,0.3
		C83.4,152.7,82.5,152.8,81.6,152.4z"/>
	<path class="st10" d="M81.6,152.4c0.9-0.1,1.8-0.2,2.6-0.3c1.5,0,3,0,4.6,0c0.9,1.7,1.7,3.4,2.7,5.3c-1.1,0-1.9,0-2.7,0
		c-2.2,0.2-4.4,0.3-6.6,0.5C81.1,157.6,80.7,153.5,81.6,152.4z"/>
	<path class="st12" d="M131.3,175.7c0,2.7,0,5.5,0,8.2C130.9,181.1,130.9,178.4,131.3,175.7z"/>
	<path class="st13" d="M263.3,197c-0.6-0.2-1.1-0.5-1.7-0.7c0.5-0.5,1-0.9,1.7-1.6C263.3,195.7,263.3,196.4,263.3,197z"/>
	<path class="st14" d="M65.3,165.1c-0.2,0.2-0.4,0.3-0.7,0.5c0-0.9,0-1.8,0-2.7C65.1,163.6,65.7,164.2,65.3,165.1z"/>
	<path class="st15" d="M26.4,199.4c0.2,0.5,0.6,0.9,0.3,1.5c-0.2-0.4-0.4-0.8-0.6-1.2C26.3,199.6,26.3,199.5,26.4,199.4z"/>
	<path class="st16" d="M129.6,148.1c-0.1,0.2-0.2,0.5-0.2,0.7c-0.1-0.3-0.2-0.7-0.4-1.8C129.4,147.8,129.5,148,129.6,148.1z"/>
	<path d="M113.1,402.5c-0.5,1.7-1,3.4-1.6,5.1c-4.1,0.5-14.7-5.2-17.1-9.4c6.7-12.8,12.4-26.4,16.4-40.6c4-14.2,6.4-28.7,8.3-43.5
		c-0.3,0.1-0.5,0.2-0.6,0.3c-5.1,4.6-10.7,8.6-16.7,12c-9.4,5.3-16.5,13.5-25.5,19.3c-1.4,0.9-2.7,1.8-4.1,2.8c-0.7-0.5,0-1,0.2-1.3
		c1-1.5,2-3,3-4.6c3.4-5.9,5.3-12.2,6.2-18.9c1-7.6,0.5-15.1-0.9-22.6c-0.1-0.7-0.4-1.3-0.4-2c-0.1-2,0-4.1,0-6.1
		c0-4.4-1.3-8.2-4.6-11.3c-0.5-0.5-1.2-0.9-1.2-1.9c1-0.7,2.1-0.1,3.1-0.5c2.2-0.3,4.5-0.1,6.7-0.3c8.6-0.6,16.8-2.4,24.7-5.9
		c3.7-1.7,7.3-3.7,10.7-5.9c0.4-0.2,0.7-0.5,1.2-0.6c1.4,0.1,2.4,0.7,3.1,2c1.7,3.3,3,6.6,3.5,10.4c1.2,8.5,2.3,17.1,3.5,25.6
		c0.1,0.5,0.3,1,0.2,1.5c0,0.1,0,0.3-0.1,0.4c-0.2,0.7-0.2,1.5-0.1,2.2c0,4.8-0.6,9.6-1.1,14.4c-0.3,2.9-0.5,5.7-0.9,8.6
		c-0.4,1.4-0.1,2.8-0.4,4.1c-0.1,0.7-0.2,1.5-0.3,2.2c-0.4,2.9-0.8,5.8-1.2,8.8c-0.6,4.8-1.6,9.4-2.6,14.2c-0.7,3.3-1.5,6.5-2.3,9.8
		c-2.4,10-5.2,19.9-8.1,29.7C113.9,401.4,113.7,402.1,113.1,402.5z"/>
	<path class="st17" d="M124.1,361.2c1.3-7.7,2.5-15.4,3.8-23.1c0.7,0.6,1.6,0.8,2.6,0.9c5.9,0.6,11.8,0.9,17.7,1.2
		c4.3,0.2,8.5,0.3,12.8,0.1c6-0.2,12-0.5,18-1.7c0.3-0.1,0.5-0.1,0.8-0.1c0.5,0.4,0.6,1,0.7,1.6c0.5,7.9,1.5,15.7,2.9,23.5
		c0.1,1.3-0.5,2.1-1.5,2.8c-1.1,0.7-1.4,1.7-1.1,3c2.3,11.8,4.5,23.7,7.3,35.4c0.1,0.6,0.4,1.1,0.2,1.8c0.4,2.7,1.7,5.1,2.5,7.7
		c0.7,2.2,1.5,4.4,1.7,6.7c-0.4,0.1-0.7-0.2-0.9-0.5c-2.9-3-6.5-4.4-10.5-4.6c-3.6-0.3-7.1-0.1-10.5,1.4c-1.4,0.6-2.7,1.3-3.8,2.2
		c-0.3,0.3-0.7,0.6-1.2,0.4c0.2-3.2,0.5-6.5,0.7-9.7c0-0.6,0.1-1.1-0.8-1.1c0.7-2.6,0.2-5.2,0-7.7c-0.7-8-1.6-16.1-2.3-24.1
		c-0.1-0.5-0.1-1-0.5-1.7c-4.6,0.7-9.4,0.7-14.1,0.4c-0.5,0.7-0.5,1.3-0.6,1.9c-1.1,9.2-2.1,18.3-3.1,27.5c-0.1,1,0,2-0.5,2.9
		c-0.8,2.9-0.2,5.9-1,8.8c-1.5,5.7-0.7,11.4-0.9,17.1c0,0.3-0.1,0.5-0.2,0.8c-0.5-0.4-0.4-0.9-0.4-1.4c-0.2-4,0.1-8-0.1-12.2
		c-1.3,0-2.5,0.4-3.6,0.6c-6.1,0.6-12.2,0.1-18.2-1.1c-1.4-0.3-2.7-0.6-4.1-0.9c-0.4-0.1-0.9-0.1-1.2-0.5c2.8-4.3,5.3-8.7,7-13.5
		c0.1-0.3,0.1-0.7,0.2-1.1c0.5-2,1.3-3.9,1.9-5.9c2.2-8.4,4-16.9,5.4-25.4c0.2-1.1,0.4-2.2,0.6-3.3c0.2-1,0-1.7-0.9-2.4
		c-1.7-1.4-3-3.2-4.3-5C124.3,362.2,124.1,361.7,124.1,361.2z"/>
	<path class="st9" d="M77.5,279.6c-1,0.1-2,0.1-3.3,0.2c3.7,3,6,6.5,6.4,11.1c0.2,2.7,0.1,5.3,0.1,8c-0.3,0.9,0.2,1.7,0,2.6
		c-1.2,5-4.5,8.3-8.7,10.9c-0.3,0.2-0.6,0.3-0.9,0.1c-0.4-0.3-0.2-0.9-0.5-1.4c-1.1,0.6-2,1.4-3.2,1.8c-1.2,0.4-2.4,0.6-3.6,0.6
		c-0.1,0.5,0.6,1,0,1.5c-0.2,0.1-0.3,0.1-0.5,0.2c-1.1,0-2.1,0-3.2,0c-3.7-0.2-6.8-1.7-9.1-4.7c-2.6-4.1-4.6-8.5-5.3-13.3
		c-0.8-5.8-0.1-11.1,4.4-15.3c0.2-0.2,0.3-0.5,0.4-0.7c0.9,0.2,1.9,0.5,2.9,0.4c0.9,0.6,0.8,1.9,1.6,2.8c1.5-0.8,2.9-2,4.8-1.8
		c0-1.1-0.8-2-0.5-3.1c1-0.5,1.8-1.2,1.6-2.5c0-0.2,0.1-0.4,0.4-0.4c4.2-0.1,8.2,0.5,12,2.3c0.8,0.4,1.7,0.3,2.6,0.3
		C76.4,279.2,77,279.1,77.5,279.6z"/>
	<path class="st18" d="M50.9,310.6c2.6,2.3,5.4,4.1,9,4.4c0,0.1,0.1,0.1,0.1,0.2c1,0,2,0,3,0c0.1,0,0.1-0.1,0.2-0.1
		c0.2,0,0.4-0.1,0.7-0.1c0.7-0.3,1.1,0.1,1.7,0.4c0.3,0.3,0.3,0.6,0.5,1c0.3,0.7,0.7,1.3,1.5,1.3c0.9,0,1.8-0.2,2.4-1
		c0.3-0.4,0.4-0.9,0.3-1.5c-0.1-0.4-0.3-0.8-0.2-1.3c0.2-0.5,0.3-1,0.9-1.2c5.4-2.9,9.2-7.1,9.6-13.5c1.4,5.8,2.1,11.7,1.9,17.7
		c-0.2,11-3,21.2-9.5,30.3c-0.3,0.4-0.5,1-0.8,1.5c-4,3.2-8.9,2.8-12.3-1.1c-3.6-4-5.1-9.1-6.3-14.2
		C51.9,325.8,51.2,318.2,50.9,310.6z"/>
	<path class="st18" d="M144.5,408.2c-0.2-3,0.4-5.9,0.7-8.8c0.8-8,1.8-16,2.7-24.1c5.2,0.4,10.3,0.5,15.6-0.5
		c1.1,11.3,2.1,22.5,3.2,33.6c-0.5,0.3-0.8,0.4-1.1,0.5C158.5,409.1,151.5,408.8,144.5,408.2z"/>
	<path class="st10" d="M165.6,419.8c5.9-4.7,12.6-5.3,19.7-3.5c2.9,0.7,5.2,2.4,7.1,4.7c2.7,4,3.3,8.5,2.7,13.2
		c-0.6,0.6-1.4,0.4-2.2,0.4c-9.6,0-19.2,0-28.8,0c-0.9,0-1.8-0.1-2.6,0.6C160.5,429.4,161.4,424.2,165.6,419.8z"/>
	<path class="st10" d="M114.7,419.2c4.7,0.7,9.3,2.1,14.2,2.3c4.5,0.2,8.9,0.4,13.4-1.1c0,4.4,0,8.7,0,13c-0.4,0.5-1,0.4-1.6,0.4
		c-12.6,0-25.1,0-37.7,0c-0.6,0-1.1,0-1.6-0.4C101.4,426.1,107.1,420,114.7,419.2z"/>
	<path class="st18" d="M124.1,361.2c1.8,2.6,3.7,5.1,6.4,7.2c-0.9,4.9-1.8,10-2.8,15c-1.4,6.8-2.7,13.5-5,20.1
		c-0.2,0.5-0.1,1.1-0.7,1.3c-2.9-0.7-5.9-1.4-8.8-2.1c4.1-13.4,7.9-27,10.8-40.7C123.9,361.6,124,361.4,124.1,361.2z"/>
	<path class="st19" d="M101.5,433.4c13.6,0,27.2,0,40.8,0c0,0.5,0.1,1,0.1,1.4c-0.1,2.2-1.2,3.6-3.4,3.6c-12,0.1-24,0.1-36,0.2
		c-0.7,0-1-0.4-1.2-1C101.4,436.3,101.1,434.9,101.5,433.4z"/>
	<path class="st19" d="M161.5,435.2c0.1-0.3,0.1-0.6,0.2-1c11.2,0,22.3,0,33.5,0c0,0.1,0,0.2,0,0.2c-0.3,0.5,0,1-0.2,1.5
		c-0.2,1-0.5,2.1-0.7,3.1c-10.7,0-21.3,0-32,0C162,437.7,161.8,436.4,161.5,435.2z"/>
	<path class="st11" d="M60.9,276.7c0.6,1.6,0.1,2.6-1.6,2.9c-0.4,0.5-0.9,0.8-1.6,1c-1.5,0.3-2.9,1.3-4.5,1.2
		c-1.1,0.5-2,0.4-2.8-0.5c-0.4-0.9-0.4-1.7,0.4-2.4c0.1-0.3,0.4-0.6,0.7-0.8c2.4-0.8,4.8-1.9,7.2-2.4c0.2,0,0.3,0,0.5,0
		C60,275.7,60.8,275.7,60.9,276.7z"/>
	<path class="st20" d="M59.4,276c-3,0.6-5.7,1.7-8.5,2.9c-2.5-1.4-2.5-2.1-0.2-4.3c2.3-0.1,4.3-1.2,6.5-1.9c0.8-0.7,1.7-0.7,2.5,0.1
		c0.8,0.8,0.9,2,0.3,2.8C59.8,275.7,59.5,275.8,59.4,276z"/>
	<path class="st21" d="M30,210.5c1.2,3.8,2.4,7.5,3.6,11.3C30.5,218.6,29.9,214.7,30,210.5z"/>
	<path d="M182.9,363.8c-1.6-8.3-2.4-16.8-3.2-25.2c-0.6-1-0.5-2-0.6-3.1c0-1-0.2-2-0.2-3c0-2.4-0.5-4.8-0.2-7.3c0-0.4,0-0.7-0.2-1.1
		c-0.1-1,0-2.1-0.1-3.1c-0.2-1.4,0.3-2.8-0.1-4.2c-0.1-2.3,0-4.5-0.1-6.8c-0.1-0.7-0.1-1.3,0.2-1.9c0.7-0.7,1.6-0.4,2.5-0.4
		c3.1,0.3,6.1,0.2,9.1-0.5c0.7-0.1,1.3-0.3,1.9-0.8c0.2-0.7,0.4-1.5-0.3-2.1c-0.2-0.1-0.3-0.2-0.4-0.4c0-0.8,0.7-1,1.1-1.5
		c0.6-0.7,1.2-1.4,1.2-2.2c-0.2-0.8-0.9-0.9-1.2-1.4c0-0.6,0.3-1,0.7-1.4c0.4-0.4,0.8-0.8,1.2-1.2c1.5-1.7,1.5-2.5-0.3-3.9
		c-0.7-0.6-1.3-1.3-1.3-2.3c0-0.7,0.1-1.3,0.9-1.5c0.4,0.3,0.3,0.8,0.3,1.1c0.1,0.9,0.6,1.4,1.5,1.4c0.9,0,1.5-0.5,1.7-1.4
		c0.2-1.2-0.3-2.3-1.4-2.9c-1.4-0.7-2.8-0.5-4.2,0.1c-0.6,0.3-1.3,0.7-2,0.8c-1.6,0.1-2.4-1-1.8-2.4c0.4-1,0.1-1.5-1-1.8
		c-0.7-0.2-1.6-0.1-1.9-1c0.2-2,0.8-3.9,1.3-5.8c0.8-3.3,1.7-6.6,2.6-10c0.3-1.1,0.9-1.7,2-1.8c1.7-0.2,3.2-0.9,4.6-1.8
		c0.3-0.2,0.7-0.6,1.2-0.4c12.1,14.2,24.6,28.1,27.8,47.5c1.3,8.1,0.5,15.8-3.8,23c-2.3,3.9-4.5,7.8-7.4,11.6
		c7.6,12.6,16,24.7,20.9,39.3c-6.4,7.6-10.8,17.5-21.8,20.6c-4.3,1.2-8.6,0.9-13,0.4c-0.4,0-0.8-0.4-1.2-0.5
		c-0.8-0.2-1.3-0.7-1.8-1.3c-1.6-2.4-2.9-5-4-7.6c-3.8-9.3-7.2-18.7-9.2-28.5C182.8,366,183.2,364.9,182.9,363.8z"/>
	<path class="st18" d="M196.4,262.8c-2.1,1.7-4.5,2.5-7.2,2.9c-1.5,5.8-2.9,11.4-4.4,17.1c-1.4,0-2.5,0.8-3.8,1.1
		c-0.8,0.2-0.8,1-0.5,1.7c0.3,0.6,0.4,1.2-0.1,1.8c-0.5,0.5-1,0.6-2,0.3c-0.5-0.8-0.2-1.8-0.6-2.6c0-3.9-0.4-7.8-0.2-11.7
		c-0.2-2.6,0.1-5.1,0-7.7c0-0.6,0-1.2-0.2-1.8c-0.2-1.6,0-3.2,0-4.8c0-0.6,0-1.1-0.2-1.7c-0.1-0.5-0.1-0.9,0.3-1.3
		c5.4-1.2,10.8-2.4,16.3-3.7C198.1,255,199,258.6,196.4,262.8z"/>
	<path class="st18" d="M182.9,363.8c0.8,5.1,1.9,10.2,3.6,15.1c2.9,8.3,5.3,16.9,10.3,24.4c0.3,0.5,0.8,0.8,1.2,1.3
		c-3.3,0.7-6.5,1.3-9.8,2c-1.5-4-2.1-8.2-3-12.3c-1.8-8.9-3.6-17.8-5.4-26.6c1.1-1,2-1.9,3.1-2.8
		C182.9,364.5,182.9,364.2,182.9,363.8z"/>
	<path class="st10" d="M194.9,435.9c0.1-0.5,0.1-1,0.2-1.5C195,434.9,195,435.4,194.9,435.9z"/>
	<path class="st22" d="M177.4,256.1c0,0.4,0,0.8,0,1.2c0.2,1.9,0.1,3.7-0.7,5.5c-1.7,3.6-3.4,7.2-6,10.4c-1.1,1.4-2.3,2.6-4.1,3
		c-3.6,0.4-5.8-1.9-7.9-4.3c-0.1-0.1-0.2-0.3-0.4-0.4c-2.9-3.2-5.1-6.9-7.3-10.8c-1.2,1.6-1.8,3.4-2.8,5c-1.5,2.5-3,5-5.1,7
		c-1.2,1.6-2.8,2.6-4.5,3.6c-1,0.5-2,0.5-3,0.4c-0.8,0-1.3-0.3-1.4-1.2c-0.1-2.4,0.3-4.8,0.5-7.3c0.2-2.5,0.3-5,0.7-7.5
		c0.1-0.5,0-1,0.5-1.3c0.1-0.3,0.2-0.7,0.3-1c13.6,0.4,27.2,0,40.7-2.3C177.1,256.1,177.2,256.1,177.4,256.1z"/>
	<path class="st18" d="M135.9,259.4c-0.4,5.3-0.9,10.7-1.3,16c-0.3,0.6,0.2,1.1,0.2,1.6c0.1,1.6-0.4,3.2-0.4,4.8
		c-0.4,5.2-1.1,10.4-1.7,15.6c-0.3,2.6-0.7,5.2-1.1,7.8c-0.1,0.5,0,1.1-0.7,1.2c-1.4-10.1-2.8-20.3-4.4-30.4c-0.4-2.9-2-5.5-3.3-8
		c-0.5-1-1.7-0.8-2.5-1.2c-4-2.5-4.3-6.5-0.6-9.8c5.3,0.5,10.5,1,15.8,1.5C135.8,258.7,135.9,259.1,135.9,259.4z"/>
	<path class="st10" d="M151.8,246c-6.3-0.3-12.5-1.6-17.2-6.7c-0.6-0.7-1.2-1.5-1.6-2.4c-0.4-0.8-0.2-1.7,0.7-2.2
		c0.8-0.5,1.6-0.3,2.1,0.5c3.8,6,9.9,7.2,16.3,7.4c5.4,0.1,10.4-1.6,14.7-4.9c0.9-0.7,1.9-0.9,2.6,0.1c0.8,1,0.3,1.9-0.6,2.6
		C163.9,244.1,158.3,245.9,151.8,246z"/>
	<path class="st10" d="M149.8,205.7c2.1,0,4.1,0.5,6,1.3c1,0.5,1.5,1.3,1,2.3c-0.5,1-1.3,1.1-2.3,0.7c-2.4-1-4.9-1.5-7.5-0.6
		c-2.3,0.8-4.1,2.2-4.4,4.7c-0.4,2.7,0.9,4.7,3.1,6.2c2,1.3,4.2,1.5,6.4,1.4c1,0,1.6,0.4,1.8,1.4c0.1,0.9-0.2,1.6-1.2,1.8
		c-5.5,1.8-13-3.2-13.6-9C138.6,210.3,143.3,205.7,149.8,205.7z"/>
	<path class="st23" d="M145.9,192.7c0.8,0,1.6,0,2.4,0C147.5,193.1,146.7,193.1,145.9,192.7z"/>
	<path class="st10" d="M94.9,189.3c0.2,6-4.3,10.7-9.3,9.6c-4.5-1-7.2-6.2-6.2-12c0.8-4.6,4.5-7.5,9.2-7c2.8,0.3,4.6,1.8,5.5,4.5
		C94.6,186,94.9,187.6,94.9,189.3z"/>
	<path class="st10" d="M199.9,189.3c0-6.5,3.6-10.2,8.8-9.1c5,1.1,7.9,6.7,6.4,12.5c-1.2,4.7-5.7,7.3-10.2,6
		C201.5,197.7,199.9,194.7,199.9,189.3z"/>
	<path class="st0" d="M130.7,188.1c0.5-0.1,1-0.1,1.5-0.2C131.7,188,131.2,188.1,130.7,188.1z"/>
	<path class="st24" d="M130.8,306.5c1.4-8.2,2.3-16.5,3.1-24.7c0.2-0.3-0.1-0.7,0.5-1.1c5.5,4.9,11.1,9.8,17.4,13.4
		c0.8,0,1.2-0.4,1.6-0.6c7.8-5.2,15.1-11,21.6-17.8c0.6-0.6,1.1-1.4,1.7-2c0.3-0.3,0.5-0.8,1.1-0.5c0.1,4.1,0.2,8.1,0.3,12.2
		c0.2,0.6,0,1.3,0.1,1.9c-0.7,0.5-1.2,0-1.7-0.2c-1.4-0.5-2.7-0.8-4.2,0c-1,0.6-1.4,1.4-1.3,2.5c0.1,0.9,0.4,1.5,1.4,1.7
		c0.9,0.2,1.6-0.2,1.9-1.2c0.1-0.2,0.1-0.4,0.2-0.6c0.1-0.2,0.2-0.3,0.4-0.3c0.7,0.3,0.6,0.9,0.5,1.5c-0.2,0.9-0.8,1.5-1.6,2.1
		c-1.3,1-1.4,1.9-0.3,3.2c0.5,0.6,1,1,1.5,1.6c0.3,0.4,0.7,0.8,0.6,1.3c-0.1,0.3-0.3,0.4-0.5,0.6c-0.8,0.5-0.8,1.2-0.4,2
		c0.3,0.6,0.7,1.1,1.2,1.5c0.3,0.3,0.7,0.5,0.8,1c0,0.2-0.1,0.3-0.3,0.4c-1,0.6-0.6,1.4-0.5,2.2c0.4,0.6,1.1,0.7,1.7,0.9
		c0.4,0.2,1,0.1,1,0.8c0,0.6,0,1.3,0,1.9c-0.3,2.1-0.1,4.2-0.1,6.2c0,0.5,0,0.9,0,1.4c0.1-0.3-0.1-0.6,0.2-0.8
		c0.1,1.4,0.1,2.8,0.2,4.2c-0.2,1,0,2.1-0.1,3.1c0,0,0,0.1,0,0.1c0.2,0.1,0.1-0.2,0.2-0.2c0.1,2.8,0.3,5.6,0.4,8.5
		c-0.3,0.4-0.8,0.6-1.3,0.7c-4.7,1-9.3,1.6-14.1,1.9c-1.9,0.1-3.8,0.4-5.7,0.1c-2.6-0.3-5.1-0.3-7.7,0c-2.8,0.4-5.7-0.1-8.5-0.2
		c-3.8-0.2-7.6-0.6-11.4-1.1c-0.7-0.1-1.4-0.1-1.9-0.6c-0.2-0.5-0.2-1,0-1.5c0.8-7.7,1.7-15.4,2-23.2
		C130.8,308,130.5,307.2,130.8,306.5L130.8,306.5z"/>
	<path class="st24" d="M179.5,335.5c0.1,1,0.2,2.1,0.3,3.1c-2.3,1.1-4.8,1.1-7.2,1.4c-7.3,0.8-14.6,1-22,0.7
		c-7.5-0.3-15-0.6-22.5-1.7c-0.1-0.4-0.1-0.7-0.2-1c0.1-0.7,0.2-1.4,0.3-2.1c0.5-0.3,1.1-0.2,1.6-0.1c5,0.7,10.1,1.1,15.1,1.4
		c5.9,0.4,11.7,0.3,17.6,0.1c5.1-0.1,10.2-0.8,15.2-1.9C178.3,335.4,178.9,335.1,179.5,335.5z"/>
	<path class="st25" d="M179.5,335.5c-12.3,3-24.7,2.8-37.2,2c-4.7-0.3-9.5-0.7-14.1-1.5c0.1-1.4,0.3-2.8,0.4-4.1
		c0,0.4,0,0.9,0.1,1.4c7.2,1,14.5,1.7,21.8,1.7c2.6-0.2,5.1-0.2,7.7,0c7.1,0,14.2-0.8,21.1-2.4C179.3,333.6,179.4,334.6,179.5,335.5
		z"/>
	<path class="st18" d="M130.8,306.5c-0.1,0.7-0.1,1.5-0.2,2.2C130.6,308,130.3,307.2,130.8,306.5z"/>
	<path class="st26" d="M61.5,283.3c6.8-0.7,10.2,1.7,12.3,8.1c2.1,6.4,1.2,12.4-2.9,18.6c2.3-5.6,1.9-10.7,0.8-15.7
		C70.6,289,67.5,285.2,61.5,283.3z"/>
	<path class="st20" d="M53.2,281.8c2-0.7,4.1-1.4,6.1-2.2c0.3,1.1,0.5,2.2,0.8,3.4c-2.3-0.4-3.9,0.9-5.6,2.2
		C54.2,284,53.7,282.9,53.2,281.8z"/>
	<path class="st27" d="M65.4,315.4c-0.5-0.2-1-0.4-1.5-0.6c-0.3-0.5-0.6-1-1.1-1.7c3.2,0.2,5.8-0.6,8.2-3.2c0,1.2,0,1.9,0,2.6
		c-0.2,0.4-0.5,0.8-0.7,1.2c-0.2,0.5-0.6,0.8-1.1,1C67.9,314.9,66.8,315.9,65.4,315.4z"/>
	<path class="st27" d="M59.8,315.1c0-0.1,0-0.1,0.1-0.1c1.1,0,2.2,0,3.4,0c0.1,0,0.1,0.1,0.1,0.1C62.2,315.3,61,315.3,59.8,315.1z"
		/>
	<path class="st28" d="M65.4,315.4c1.7-0.4,3.4-0.9,4.9-1.7c0.2,1.3,1,2.6-0.6,3.6C67.7,318.6,66.3,318,65.4,315.4z"/>
	<path class="st29" d="M59.8,315.1c1.2,0,2.4,0,3.5,0c0,0,0.1,0,0.1,0c0,0,0.1,0.1,0.1,0.2c-1.3,0-2.6,0-4,0c0,0,0-0.1,0-0.1
		C59.7,315.2,59.7,315.1,59.8,315.1z"/>
	<path class="st9" d="M183.8,327.7c0.5-9.4,7.7-11.7,14.5-11.4c8.7,0.4,14.8,5.8,15.8,13.7c0.5,4.3-0.3,8.3-1.7,12.3
		c-0.9,4.1-6.6,10-12.2,9.6c-3.3-0.3-5.9-1.9-8.2-4.2c-0.6-0.6-1.1-1.2-1.6-2c-3.5-5-6.1-10.4-6.8-16.7
		C183.6,328.7,183.6,328.2,183.8,327.7z"/>
	<path class="st18" d="M190.8,345.7c5.4,7.9,14.2,7.9,19.7,0c0.7-1,1.3-2.2,1.9-3.3c-0.6,8.9-1.4,17.8-6.1,25.7
		c-2,3.4-5.4,3.6-8.3,0.9c-4.3-4-6.6-9.3-8.8-14.6c-1.2-2.9-2.3-5.9-3.4-8.8c0.2-0.2,0.4-0.2,0.7-0.2c1.1,0.3,2.1,0.1,3.2,0
		C190,345.3,190.4,345.3,190.8,345.7z"/>
	<path class="st25" d="M174.7,289.5c0,1.2-0.4,2-1.6,2.1c-1,0.2-2-0.2-2.3-1.3c-0.4-1.3-0.3-2.6,1-3.4c2.1-1.5,4.2-0.7,6.3,0.4
		c0.1-0.8,0.1-1.4,0.1-2c0.1,0.7,0.2,1.3,0.3,2c1,0.3,1.7,0,2.1-1c-2.5-4.4,3-2.3,3.3-4.4c0.5,0.3,0.8,0.6,1.1,0.8
		c0.4,0.2,0.8,0.4,1.2,0.4c2.1,0.3,2.8,1.2,1.3,3.1c0.8,1.6,2,1.4,3.3,0.7c1.8-1,3.7-1.4,5.5-0.1c1.5,1.1,1.7,2.6,0.6,4.1
		c-0.6,0.8-1.6,0.9-2.5,0.4c-1.1-0.5-1.1-1.5-1-2.6c-0.9,1.2-0.6,2.4,0.5,3.1c2.8,1.8,1.8,3.4,0.1,5.1c-0.5,0.5-1,1.1-1.6,1.8
		c0.9,0.2,1.7,0.4,1.6,1.3c0,1.8-1.4,2.7-2.6,3.7c-0.1,0.1-0.1,0.2-0.2,0.3c0.2,0.1,0.3,0,0.5,0c0.3,0,0.6,0,0.9,0.1
		c0,1,0,1.8,0,2.8c-4.5,2-9.2,1.3-13.8,1.2c-1-0.4-2.1-0.8-3.1-1.2c0-0.9,0-1.8,0-2.7c0.2-0.4,0.5-0.2,0.9-0.2
		c0.4,0,0.7,0.2,0.9,0.2c-0.1,0-0.4-0.2-0.6-0.5c-0.9-0.6-1.8-1.4-2.3-2.4c-0.7-1.3-0.3-2.1,1.1-2.6c-0.4-1.2-1.4-1.8-2.1-2.7
		c-1.2-1.5-1.5-2.8,0.4-4c1.1-0.7,1.9-1.7,1.3-3.1c-0.1-0.1-0.2-0.1-0.3,0C174.6,289.3,174.6,289.4,174.7,289.5z"/>
	<path class="st26" d="M190.8,345.7c-1.7,0.1-3.3,0.7-5-0.1c-6.5-3.9-7.4-12.4-2-17.9C184.3,334.4,186.9,340.3,190.8,345.7z"/>
	<path class="st30" d="M178.6,317c0,0.6-0.1,1.3-0.1,1.9c0-2.9-0.5-5.9,0.1-8.8C178.6,312.4,178.6,314.7,178.6,317z"/>
	<path class="st31" d="M178.8,324.2c0,0.3-0.1,0.6-0.1,0.9c-0.1,0-0.2,0-0.2,0c0.1-1.3,0.2-2.6,0.3-4
		C178.8,322.1,178.8,323.2,178.8,324.2z"/>
	<path class="st32" d="M191.6,304.1c-0.4,0.3-0.8,0.6-1.5,0.3c0.5-0.2,0.9-0.4,1.2-0.6C191.4,303.9,191.5,304,191.6,304.1z"/>
	<path class="st24" d="M134.4,276.9c0.1-0.5,0.1-1,0.2-1.5c0.7,1.6,2.1,0.6,3.1,0.6c0.4,0,0.8-0.2,1.2-0.3c1.2,0.6,2.1,1.7,3.1,2.5
		c0.7,0.6,1.4,1.2,2.2,1.7c0.3,0.3,0.5,0.8,0.9,1.1c1.4,1,2.8,2.1,4.2,3.1c0.8,0.5,1.6,1,2.6,1.5c2.2-1.1,4.2-2.7,6.3-4.2
		c2-1.6,4-3.2,5.7-5c0.8-0.8,1.7-0.4,2.5-0.7c3.2-1.1,4.8-3.8,6.3-6.4c2.1-3.8,4.8-7.4,4.6-12.1c0.1,2.2,0.2,4.3,0.2,6.5
		c0.2,1.5,0.1,3,0.1,4.5c0,0.6-0.4,1-0.7,1.5c-2.3,3.3-5.2,6.1-8.1,8.8c-4.5,4.1-9.3,7.9-14.2,11.4c-2.5,1.8-2.5,1.8-5.1,0.1
		c-4.5-3.1-8.7-6.5-12.7-10.2c-0.4-0.4-0.8-0.8-1.3-1.1C135,278.2,134.6,277.7,134.4,276.9z"/>
	<path class="st33" d="M134.4,276.9c1.5,1.5,3,3,4.6,4.4c4.1,3.6,8.3,7,13.3,10c3.4-2.5,6.8-5.1,10.2-7.7c4.3-3.4,8.2-7.1,12-11
		c2.4-2.5,3.7-5.3,3.2-8.8c0.1,3.1,0.1,6.2,0.2,9.4c-3,3-6,6.1-9.1,8.9c-5.1,4.6-10.7,8.7-16.5,12.5c-6.6-3.8-12.4-8.6-17.9-13.7
		c-0.1,0.3-0.2,0.6-0.3,0.9C134.1,280.2,134.3,278.6,134.4,276.9z"/>
	<path class="st25" d="M145,281.2c-0.5-0.2-0.8-0.6-0.8-1.2c-0.4-0.7,0.1-1.3,0.2-2c0.2-0.9,0.7-1.7,0.7-2.7c-0.7-1-2.1-1.5-2-3
		c2-2.1,3.5-4.5,5-7c2,0.8,3.8,2.1,5.8,3.1c1.6,0.9,3.2,1.8,4.8,2.8c0.1,0.1,0.2,0.1,0.3,0.2c0.2,1.1-0.7,1.6-1.2,2.3
		c-0.3,0.4-0.8,0.6-1.1,1c-0.2,0.6,0.4,1.1,0,1.7c-0.2,0.2-0.5,0.4-0.8,0.5C152.3,278.4,148.6,279.8,145,281.2z"/>
	<path class="st34" d="M156.7,276.3c-0.2-0.5-0.4-1-0.6-1.6c1.2-0.9,2.4-1.8,2.9-3.2c2.1,2.3,4.1,4.6,7.6,4.3
		c-3.5,0.9-5.2,4.4-8.2,6c-0.6-0.3-0.5-1-0.7-1.4c-0.3-0.9-0.6-1.9-0.9-2.8C156.6,277.1,156.4,276.7,156.7,276.3z"/>
	<path class="st35" d="M158.6,271.2c-1.1,0.1-1.8-0.7-2.7-1.2c-2.7-1.5-5.3-3.1-7.9-4.6c1-1.8,1.9-3.7,3-5.7
		C153.3,263.9,155.6,267.8,158.6,271.2z"/>
	<path class="st34" d="M143,272.4c0.6,1.1,1.3,2.1,2.6,2.6c-0.5,1.7-1,3.4-1.4,5.1c-2.2-0.9-3.6-2.7-5.2-4.3
		C140.4,274.7,142,273.9,143,272.4z"/>
	<path class="st36" d="M158.2,335c-2.6,0-5.1,0-7.7,0C153,334.6,155.6,334.6,158.2,335z"/>
	<path class="st37" d="M176.6,303.9c0.5,0.2,1,0.5,1.5,0.7c0,0.1-0.1,0.2-0.1,0.3c-0.6-0.2-1.1-0.5-1.7-0.7
		C176.4,304,176.5,303.9,176.6,303.9z"/>
	<path class="st38" d="M174.7,289.5c-0.2-0.3-0.4-0.6-0.5-0.9c0.1,0,0.1-0.1,0.2-0.1c0.2,0.2,0.4,0.5,0.6,0.7
		C174.9,289.3,174.8,289.4,174.7,289.5z"/>
	<path class="st39" d="M175.7,290.8c0-0.6,0.1-1.1,0.1-1.8c5.4-1.8,10.7-1.8,16.3,0c-0.8,5.1,1.2,10.9-4,14.8
		c-4.3,3.3-10.8,0.7-11.7-4.7c-0.2-1.4-0.3-2.8-0.5-4.2C175.6,293.6,176,292.2,175.7,290.8z"/>
	<path class="st40" d="M183.9,283.2c0.8,1.2,0.8,2.1,0,3.3C183.2,285.3,183.1,284.4,183.9,283.2z"/>
	<path class="st41" d="M175.7,290.8c0.1,1.4,0.1,2.8,0.2,4.2C175.4,293.6,175.7,292.2,175.7,290.8z"/>
	<path class="st35" d="M156.7,276.3c0.4,1.3,0.9,2.7,1.3,4c0.2,0.6,0,1-0.6,1.2c-2.3,1-4.7,1.9-7.1,2.8c-0.3,0.1-0.7,0.1-1.1,0.1
		c-1.4-1.1-2.9-2.1-4.3-3.2c0.5-1,1.6-1,2.4-1.3C150.4,278.7,153.6,277.5,156.7,276.3z"/>
	<path class="st25" d="M149.3,284.4c2.6-1,5.2-2.1,7.7-3.1c0.5-0.2,1-0.3,0.9-1c0.1,0.5,0.3,1,0.4,1.5c-2.1,1.5-4.1,2.9-6.3,4.5
		C151.1,285.6,150.2,285,149.3,284.4z"/>
	<path class="st40" d="M176.4,289.6c5.1-1.7,10-1.7,15.1,0.1c-0.8,4.7,1.1,9.9-3.6,13.6c-3.9,3.1-9.7,1.1-10.9-3.8
		C176.4,296.2,176.4,293,176.4,289.6z"/>
	<path class="st42" d="M177.6,296.6c0-2,0-4,0-6.1c1.8-0.9,3.9-0.8,6.2-1.2c0,2.5,0,4.9,0,7.3c-0.3,0.3-0.6,0.4-1,0.4
		c-1.4,0.1-2.9,0.1-4.3,0C178.2,297,177.9,296.9,177.6,296.6z"/>
	<path class="st25" d="M184.1,296.6c0-2.3,0-4.7,0-7.2c2.2,0.2,4.2,0.3,6.2,1.1c-0.1,2,0.3,4-0.2,6c-0.3,0.3-0.6,0.4-1,0.4
		c-1.4,0.1-2.7,0.1-4.1,0C184.7,297,184.3,296.9,184.1,296.6z"/>
	<path class="st25" d="M177.6,296.6c2.1,0,4.2,0,6.2,0c0,2.4,0,4.8,0,7.3C180.7,303.8,178.3,300.8,177.6,296.6z"/>
	<path class="st42" d="M184.1,296.6c2,0,4,0,6,0c0,3.7-2.6,6.9-6,7.3C184.1,301.5,184.1,299,184.1,296.6z"/>
</g>
<path class="st43" d="M148,265.5l3-5.7c0,0,7.1,10.9,7.9,11.7C158.8,271.6,157.7,272.2,148,265.5z"/>
<path class="st43" d="M144.9,281.3c0,0-0.1-0.9,3.5-1.8l8.2-3.3l1.3,4c0,0,0.5,0.7-1.2,1.3l-7.5,2.9L144.9,281.3z"/>
<path class="st43" d="M134.3,276.9l-0.3,4c0,0,12.3,11.1,18.1,13.7c0,0,12.2-6.6,25.7-21.4v-7.6c0,0-0.2,4.5-4.7,8.3
	c-4.5,3.8-20.7,17.4-20.7,17.4S140.5,283.7,134.3,276.9z"/>
<path class="st43" d="M183.7,282c0,0,0.1,1.1-2.9,1.4c0,0-1.4,0.4-0.8,1.7l0.5,1.3c0,0-0.7,2.1-3.7,0.4c0,0-2.9-1.8-5.2,0.2
	c0,0-1.8,1.4-0.5,3.9c0,0,1.5,1.4,3.3,0c0,0,0.4-0.3,0.4-1.5l-0.3-1c0,0,1,0.8,0.8,2c-0.6,1.4-0.6,0.9-1.4,1.8c0,0-1.5,0.7-1.5,1.9
	c0,0,0.1,1.5,2.3,3.4c0,0,0.7,0.6,0.8,1.3c0,0-3.4,0.8,0.2,4.3l2.5,1.3l-0.1,0.3c0,0-2.1-1.2-2.5-0.8l-0.1,2.8l3.1,1.2
	c0,0,7.9,0.8,10.9-0.3c2.9-1,2.9-1,2.9-1v-2.7l-0.7-0.1c0,0-0.8,0.6-1.5,0.4c0,0,4.3-2.1,3.7-4.6c0,0-0.1-0.7-1.6-1.1
	c0,0,2.7-2.5,3.3-4.2c0,0,0.4-1.1-1.1-2.2c-1.5-1.1-1.6-1.1-1.7-2.4c0,0,0.1-0.8,0.5-1.1c0,0-0.6,2.7,2,2.9c0,0,2.1,0.2,2.1-2.8
	c0,0-0.2-2.7-4.1-2.8c0,0-1.5,0.1-2.4,0.7c-0.9,0.6-2.5,1.4-3.5-0.5c0,0,1.2-1.8,0.6-2.3c0,0-0.2-0.6-2.1-0.9
	C185.9,283.2,184.8,282.8,183.7,282z"/>
<path class="st44" d="M176.1,289.2c0,0-0.5,10.5,2,13.2c2.5,2.7,5.8,2.7,5.8,2.7s3.1,0.2,6.1-3.5c0,0,1.7-2.9,1.5-6.1
	c-0.2-3.2,0.3-6.1,0.3-6.1s-3.4-1.5-7.8-1.6C179.8,287.7,176.1,289.2,176.1,289.2z"/>
<path class="st45" d="M177,289.9c0,0-0.5,9.4,1.8,11.8c2.3,2.4,5.2,2.4,5.2,2.4s2.8,0.2,5.4-3.1c0,0,1.5-2.6,1.4-5.4
	c-0.1-2.9,0.3-5.5,0.3-5.5s-3.1-1.3-6.9-1.4C180.3,288.7,177,289.9,177,289.9z"/>
<path d="M183.8,289.3v7.3h-6c0,0-0.5-5.4-0.2-6.1C177.6,290.5,178.3,289.7,183.8,289.3z"/>
<path d="M184.1,296.6v7c0,0,2,0.4,4.8-2.7c0,0,1.1-1.8,1.2-4.2H184.1z"/>
<path class="st43" d="M184.1,289.3v7.3h6.1c0,0,0.1-2.5,0-3.6c0,0,0.1-1.9,0.3-2.5C190.5,290.5,186.6,289.1,184.1,289.3z"/>
<path class="st43" d="M177.8,296.6c0,0-0.6,6.4,6,7v-7H177.8z"/>
<path d="M184,283.3c0,0-1.3,1.2-0.2,3.3C183.8,286.5,185.3,285.3,184,283.3z"/>
<path class="st43" d="M128.5,333.3c0,0,28.5,4.6,50.6-0.6l0.4,2.9c0,0-19.9,5.3-51.4,0.5L128.5,333.3z"/>
<path d="M143,272.4c0,0,3.5-4,5.1-6.9c0,0,8.5,6.3,10.9,6c0,0-0.4,2-2.8,3.2l0.5,1.6c0,0-9.6,3.5-11.7,5c0,0-0.2,0-0.6-0.6
	c-0.2-0.4-0.1-0.8,0-1.2l1.3-4.4C145.6,275,143.9,274.7,143,272.4z"/>
<path d="M152.1,286.3c0,0,4.8-3.3,6.3-4.5l-0.5-1.5c0,0,1.2,0.6-8.7,4.2L152.1,286.3z"/>
</svg>
