<?xml version="1.0" encoding="utf-8"?>
<!-- Generator: Adobe Illustrator 25.3.1, SVG Export Plug-In . SVG Version: 6.00 Build 0)  -->
<svg version="1.1" id="Layer_1" xmlns="http://www.w3.org/2000/svg" xmlns:xlink="http://www.w3.org/1999/xlink" x="0px" y="0px"
	 viewBox="0 0 288 288" style="enable-background:new 0 0 288 288;" xml:space="preserve">
<style type="text/css">
	.st0{fill:#1A1A1A;}
	.st1{fill:url(#SVGID_1_);}
	.st2{fill:url(#SVGID_2_);}
	.st3{fill:url(#SVGID_3_);}
	.st4{fill:url(#SVGID_4_);}
	.st5{fill:url(#SVGID_5_);}
	.st6{fill:url(#SVGID_6_);}
</style>
<g>
	<path class="st0" d="M140.3,49.4h0.5C140.8,49.4,140.6,49.4,140.3,49.4v89.4h72.4c-21.2-44.7,13.9-87.9,13.9-87.9l-27.6-25
		c-24.6,25.9-58.8,23.4-58.8,23.4L140.3,49.4C140.2,49.4,140.3,49.4,140.3,49.4L140.3,49.4z"/>
	
		<linearGradient id="SVGID_1_" gradientUnits="userSpaceOnUse" x1="55.4" y1="207.55" x2="140.8" y2="207.55" gradientTransform="matrix(1 0 0 -1 0 290)">
		<stop  offset="0" style="stop-color:#BA872C"/>
		<stop  offset="1" style="stop-color:#ECAE2B"/>
	</linearGradient>
	<path class="st1" d="M140.2,49.4c-4.5,0.2-34.9,0.6-57.6-23.3L55.4,50.9c0,0,35,43.2,13.9,87.9h70.9V49.4z"/>
	<path class="st0" d="M140.3,49.4L140.3,49.4c0.3,0,0.5,0,0.5,0H140.3z"/>
	
		<linearGradient id="SVGID_2_" gradientUnits="userSpaceOnUse" x1="55.4" y1="240.586" x2="140.8" y2="240.586" gradientTransform="matrix(1 0 0 -1 0 290)">
		<stop  offset="0" style="stop-color:#BA872C"/>
		<stop  offset="1" style="stop-color:#ECAE2B"/>
	</linearGradient>
	<path class="st2" d="M140.3,49.4L140.3,49.4c0.3,0,0.5,0,0.5,0H140.3z"/>
	<path class="st0" d="M140.3,138.8V49.4c0,0-0.1,0-0.1,0L140.3,138.8L140.3,138.8z"/>
	
		<linearGradient id="SVGID_3_" gradientUnits="userSpaceOnUse" x1="55.4" y1="195.886" x2="140.8" y2="195.886" gradientTransform="matrix(1 0 0 -1 0 290)">
		<stop  offset="0" style="stop-color:#BA872C"/>
		<stop  offset="1" style="stop-color:#ECAE2B"/>
	</linearGradient>
	<path class="st3" d="M140.3,138.8V49.4c0,0-0.1,0-0.1,0L140.3,138.8L140.3,138.8z"/>
	
		<linearGradient id="SVGID_4_" gradientUnits="userSpaceOnUse" x1="140.2" y1="37.7934" x2="241.1" y2="37.7934" gradientTransform="matrix(1 0 0 -1 0 290)">
		<stop  offset="0" style="stop-color:#ECAE2B"/>
		<stop  offset="1" style="stop-color:#BA872C"/>
	</linearGradient>
	<path class="st4" d="M140.2,251.5v1.4h0.1v-1.1C140.3,251.7,140.2,251.6,140.2,251.5z"/>
	
		<linearGradient id="SVGID_5_" gradientUnits="userSpaceOnUse" x1="140.3" y1="94.4132" x2="241.1" y2="94.4132" gradientTransform="matrix(1 0 0 -1 0 290)">
		<stop  offset="0" style="stop-color:#ECAE2B"/>
		<stop  offset="1" style="stop-color:#BA872C"/>
	</linearGradient>
	<path class="st5" d="M212.7,138.8L212.7,138.8l-72.4,0.1v112.9c0.1,0.2,0.1,0.4,0.2,0.6c6.1-16.2,18.9-24.7,39.3-30
		c20.6-5.3,22.7-18.6,22.7-18.6l8.7,4l29.9-33.5C227,162.7,218.1,150.9,212.7,138.8z"/>
	<rect x="140.3" y="138.8" class="st0" width="72.4" height="0.1"/>
	
		<linearGradient id="SVGID_6_" gradientUnits="userSpaceOnUse" x1="140.2" y1="151.15" x2="241.1" y2="151.15" gradientTransform="matrix(1 0 0 -1 0 290)">
		<stop  offset="0" style="stop-color:#ECAE2B"/>
		<stop  offset="1" style="stop-color:#BA872C"/>
	</linearGradient>
	<rect x="140.3" y="138.8" class="st6" width="72.4" height="0.1"/>
	<path class="st0" d="M140.3,138.9L140.3,138.9L140.3,138.9l-71-0.1c-5.4,12.1-14.4,24-28.5,35.5l29.9,33.4l8.6-3.9
		c0,0,2,13.3,22.6,18.6c20,5.1,32.7,13.5,38.3,29.1c0,0.1,0.1,0.2,0.1,0.3V138.9z"/>
	<path class="st0" d="M140.3,252.9L140.3,252.9l0.4,0c-0.1-0.2-0.1-0.3-0.2-0.5c-0.1-0.2-0.1-0.4-0.2-0.6V252.9z"/>
	<g>
		<g>
			
				<image style="overflow:visible;enable-background:new    ;" width="925" height="1029" xlink:href="232D10E.png"  transform="matrix(0.2394 0 0 0.2394 30.298 15.0915)">
			</image>
		</g>
	</g>
</g>
</svg>
