<?xml version="1.0" encoding="utf-8"?>
<!-- Generator: Adobe Illustrator 25.3.1, SVG Export Plug-In . SVG Version: 6.00 Build 0)  -->
<svg version="1.1" id="Layer_1" xmlns="http://www.w3.org/2000/svg" xmlns:xlink="http://www.w3.org/1999/xlink" x="0px" y="0px"
	 viewBox="0 0 288 288" style="enable-background:new 0 0 288 288;" xml:space="preserve">
<style type="text/css">
	.st0{fill:#FFE29E;}
	.st1{fill:#754E1F;}
</style>
<g>
	<path class="st0" d="M169.5,78.2c-2.1-2.4-3.2-5.3-3.2-8.3c-0.8,1.4-1.6,2.9-2.3,4.4c-1.9,4-3,9.2-5.4,13c2.5,1.6,5,3,7.6,4.2
		c5,2.3,10.9,4.3,17,5.4c2-3.2,4.3-6.2,6.1-9.5c0.6-1.2,1.3-2.4,1.9-3.6c-2,1.1-4.3,1.6-7.3,1.2C178.8,84.3,173.1,82.1,169.5,78.2z"
		/>
	<path class="st0" d="M154.9,84.6c1.1-4.8,4.5-10,6.8-13.9c2.1-3.5,4.9-7.5,8.4-10c3.8-4,9.5-5.9,15-6.2c5.7-0.2,14.4,1.4,22.5,4.6
		c1.2-2.1,2.6-4.1,4.2-5.9c1-1.1,2.2-2.3,3.5-3.1c-19.9-9-46.2-16.4-63.9,1.2c-6.2,6.2-8.4,15-4.7,23.1
		C148.6,78.4,151.5,81.8,154.9,84.6z"/>
	<path class="st0" d="M96.9,217.8c-2.4-1.9-4.8-3.9-7.1-6c-1.4-0.8-2.8-1.7-4.2-2.6c-3.7,0.3-7.7,1.4-10.3,2.1
		c-0.6,1.4-1.1,2.7-1.7,4.1c-1.8,4.1-3.9,8.1-2.9,12.7c0.7,3.5,2.8,6.6,5.4,9c4.9,4.6,12.3,7.3,18.8,8.9c4,0.9,6.2-0.7,8.5-3.3
		c-1.8-3.3-2.9-7-3.8-10.9C98.5,227.3,98.1,222.4,96.9,217.8z"/>
	<path class="st0" d="M192.2,77.7c-1.6-3.5-4.6-6.2-7.5-8.8c-2.7,2.9-4.2,6.1-4.9,9.9c1.4,0.6,2.9,1,4.2,1.2
		C187.8,80.9,189.9,79.8,192.2,77.7z"/>
	<path class="st0" d="M219.4,73.1c-6.1-6.7-16.7-10.8-25.4-12.4c-4.7-0.9-10.1-1.3-14.7,0.4c-4.9,1.9-10,7.2-6.5,12.6
		c1.1,1.6,2.7,2.9,4.5,4c1.4-4.1,3.7-7.8,6-11.6c0.4-0.7,1.3-1.3,2.1-0.8c4.6,2.7,9.2,6.6,11.3,11.6c0.4,0.1,0.7,0.5,0.6,1
		c-1.2,4.1-3.1,8.2-5,12.1c-1.2,2.4-2.6,5.3-4.4,7.6c9.9,1.2,20,0.2,28-4.7C223.2,88.3,225.7,79.9,219.4,73.1z"/>
	<path class="st0" d="M106.2,210.8C106.2,210.8,106.2,210.8,106.2,210.8C106.2,210.8,106.2,210.8,106.2,210.8
		C106.2,210.8,106.2,210.8,106.2,210.8z"/>
	<path class="st0" d="M166.2,97.6c-9.9-4.1-19.5-10.7-24.3-20.6c-1.6-3.3-2.4-6.8-2.4-10.2c-1.5,3.1-3.1,6.1-4.6,9.2
		c-5,10.2-9.8,20.5-14.5,30.8c-8.3,18.1-16.9,36-24.9,54.3c-3.8,8.7-7.3,17.6-10.7,26.4c1,5.7,5,9.4,9.7,13.1
		c0.1,0.1,0.1,0.1,0.2,0.2c0.3-0.3,0.6-0.5,0.9-0.7c2.9-1.9,6.6-1.1,8.2,2.2c0.4,0.9,0.5,1.8,0.5,2.6c2.6,0.5,5,2.8,5.3,5.4
		c0.1,1-0.1,1.9-0.6,2.7c0.7,0.6,1.4,1.1,2.2,1.6c3.1,2.3,6.7,4.4,10.6,4.6c1.4,0.1,2.8,0,4.1,0.2c0.2-0.3,0.3-0.6,0.5-0.9
		c0.3-0.6,0.7-0.9,1.2-1c-6-2.5-11.5-6-16-10.8c-0.2-0.2,0.2-0.6,0.4-0.4c5.2,3.8,11,6.6,17,8.6c0.2-0.5,0.5-0.9,0.7-1.3
		c1-1.9,2.1-3.7,3.1-5.6c-6.4-2.5-12.3-6.2-17.1-11.2c-0.2-0.2,0.2-0.6,0.4-0.4c5.5,4,11.7,7,18.3,9c1.3-2.2,2.7-4.5,4.1-6.7
		c-7-2.5-13.4-6.3-18.6-11.8c-0.2-0.2,0.2-0.6,0.4-0.4c6,4.4,12.8,7.5,20,9.5c1.4-2.2,2.8-4.4,4.3-6.6c-7.7-2.5-14.8-6.5-20.5-12.4
		c-0.2-0.2,0.2-0.6,0.4-0.4c6.6,4.8,14.1,8.1,22,10c1.4-2.2,2.9-4.3,4.4-6.5c-8.5-2.4-16.3-6.6-22.6-13.1c-0.2-0.2,0.2-0.6,0.4-0.4
		c7.2,5.2,15.5,8.7,24.2,10.5c1.5-2.1,2.9-4.2,4.4-6.4c-9.4-2.2-18.1-6.6-24.9-13.7c-0.2-0.2,0.2-0.6,0.4-0.4
		c7.8,5.7,17.1,9.3,26.7,10.9c1.5-2.1,3-4.2,4.5-6.3c-10.4-2-20.1-6.5-27.4-14.2c-0.2-0.2,0.2-0.6,0.4-0.4
		c8.6,6.3,18.8,9.9,29.4,11.4c0.4-0.6,0.9-1.2,1.3-1.8c1.1-1.5,2.2-2.9,3.3-4.4c-11.4-1.7-22.2-6.3-30.3-14.7
		c-0.2-0.2,0.2-0.6,0.4-0.4c9.4,6.9,20.8,10.6,32.4,11.7c1.6-2.1,3.1-4.1,4.7-6.1c-12.6-1.3-24.6-6-33.4-15.1
		c-0.2-0.2,0.2-0.6,0.4-0.4c10.3,7.5,22.9,11.3,35.8,11.9c1.6-2,3.2-4.1,4.8-6.1c-13.8-0.8-27.2-5.4-36.8-15.4
		c-0.2-0.2,0.2-0.6,0.4-0.4c11.3,8.2,25.3,12,39.4,12c1.6-2,3.2-4,4.8-6.1c-15.1-0.2-30-4.7-40.5-15.5c-0.2-0.2,0.2-0.6,0.4-0.4
		c12.3,9,27.9,12.6,43.2,12c0.9-1.2,1.9-2.3,2.8-3.5c0.7-0.9,1.4-1.7,2.1-2.6c-16.3,0.6-33.1-3.7-44.4-15.5
		c-0.2-0.2,0.2-0.6,0.4-0.4c13.5,9.8,30.9,13.3,47.6,11.7c2.3-2.7,4.7-5.3,7.2-7.9c-4,1.4-8.3,2.2-12.3,2.6
		C188.7,104.2,176.8,102.1,166.2,97.6z"/>
	<path class="st0" d="M105.2,208.6C105.1,208.4,105.2,208.6,105.2,208.6C105.3,208.6,105.3,208.6,105.2,208.6
		C105.3,208.6,105.3,208.6,105.2,208.6z"/>
	<path class="st0" d="M111.4,232.5c0.8-1.2,1.7-2.4,2.7-3.5c-1.9-0.8-3.7-1.7-5.5-2.8C109.4,228.4,110.2,230.5,111.4,232.5z"/>
	<path class="st0" d="M105.3,208.7C105.3,208.7,105.3,208.7,105.3,208.7C105.3,208.7,105.3,208.7,105.3,208.7
		C105.3,208.7,105.3,208.7,105.3,208.7z"/>
	<path class="st0" d="M109.4,244.9c0.1,0.1,0.2,0.2,0.3,0.3c0.1-0.3,0.3-0.6,0.6-0.8c-0.1-0.1-0.1-0.2-0.2-0.2
		C110,244.5,109.7,244.7,109.4,244.9z"/>
	<path class="st0" d="M106.1,210.1c0-0.1,0-0.1,0-0.1c0-0.1-0.1-0.3-0.2-0.4c0-0.1-0.2-0.5-0.1-0.2c0.1,0.3-0.1-0.1-0.2-0.2
		c-0.1-0.1-0.2-0.2-0.3-0.3c0,0-0.1-0.1-0.1-0.1c0,0,0,0,0,0c-0.1-0.1-0.2-0.2-0.3-0.3c-0.1-0.1-0.2-0.2-0.4-0.3
		c-0.2-0.1-0.5-0.3-0.1-0.1c-0.3-0.1-0.5-0.3-0.8-0.4c0,0,0,0-0.1,0c-0.1,0.2-0.2,0.5-0.4,0.7c1,0.9,1.9,1.7,2.9,2.5c0,0,0,0,0,0
		c0,0,0,0,0,0c0,0,0,0,0-0.1c0-0.1,0-0.2,0-0.3C106.2,210.4,106.2,210.2,106.1,210.1z"/>
	<path class="st0" d="M99.3,203.9c-0.4-0.3-0.7-0.4-1.1-0.2c0.5,0.4,1,0.8,1.5,1.3C99.7,204.6,99.6,204.2,99.3,203.9z"/>
	<g>
		<path class="st1" d="M211.5,60.8c0.9-1.5,1.7-3.1,2.6-4.6c1.3-2.2,3.1-4,4.4-6.1c0.3-0.4,0-0.8-0.5-0.8c0,0-0.1,0-0.1,0
			c-0.1-0.3-0.3-0.5-0.5-0.6c-21.3-11.7-50.7-19.7-70.2,0c-2.5,2.5-4.5,5.5-5.8,8.6c-2.4,3.7-4.1,8.3-5.9,11.6
			c-5.6,9.9-10.7,20.1-15.6,30.3c-10.1,21-20.4,42-29.6,63.4c-2.6,6-5,12-7.4,18.1c-2.7-1.6-5.5,0.2-7.1,3c-2.3,4.2-1.2,8.8,1,12.8
			c-0.5,1.3-1,2.7-1.5,4c-1.4,0-2.8,0.1-4.3,0.2c-7.2,0.9-16.3,3-19.8,10.2c-0.6,1.2,0.1,2.4,1.1,3c4.8,2.7,12.5,0.3,18.2-1.3
			c-1.4,3.3-2.8,6.6-3.4,10c-2.8,15.5,13.5,23.6,26,26.8c3,0.7,5.9,1.2,8.7-0.5c1.2-0.8,2.4-1.8,3.5-2.9c1.4,1.9,3.1,3.5,5.1,5
			c0.7,0.5,1.6,0.6,2.4,0c5.5-3.9,3.3-10,0.5-15c1.5-2,3-4,5-5.4c3.4,1,7.8,1.7,10.7-0.2c1.1-0.7,1.7-1.7,2-2.9
			c1.2-1.1,2-2.9,2.2-5.5c0.1-1-0.5-1.8-1.2-2.2c1.3-2.2,2.3-4.5,3.3-6.2c6.1-11.4,13.7-22.1,21-32.8c6.6-9.6,13.4-19,20.3-28.3
			c0.3,0,0.5,0,0.8,0.1c0.5-1.2,1.1-2.3,1.7-3.4c9.4-12.5,19-24.8,28.6-37.1c4.3-5.5,9.8-10.6,14.1-16.4c2-1.7,3.7-3.6,5-6
			C233.9,76.9,224.1,66.8,211.5,60.8z M219.4,73.1c6.3,6.8,3.8,15.2-3.6,19.8c-8,4.9-18.1,5.9-28,4.7c1.8-2.3,3.2-5.2,4.4-7.6
			c1.9-3.9,3.8-7.9,5-12.1c0.1-0.5-0.2-0.9-0.6-1c-2-5.1-6.6-9-11.3-11.6c-0.8-0.5-1.7,0.1-2.1,0.8c-2.2,3.7-4.6,7.4-6,11.6
			c-1.8-1-3.4-2.3-4.5-4c-3.5-5.5,1.5-10.8,6.5-12.6c4.6-1.7,10-1.3,14.7-0.4C202.7,62.3,213.3,66.4,219.4,73.1z M169.5,78.2
			c3.6,4,9.3,6.2,14.5,6.9c2.9,0.4,5.2-0.1,7.3-1.2c-0.6,1.2-1.3,2.4-1.9,3.6c-1.8,3.3-4.1,6.3-6.1,9.5c-6.1-1.2-12-3.1-17-5.4
			c-2.6-1.2-5.2-2.6-7.6-4.2c2.4-3.8,3.6-8.9,5.4-13c0.7-1.5,1.5-3,2.3-4.4C166.4,72.9,167.4,75.8,169.5,78.2z M184.8,69
			c2.8,2.6,5.8,5.3,7.5,8.8c-2.4,2.1-4.4,3.2-8.1,2.4c-1.3-0.3-2.8-0.7-4.2-1.2C180.6,75,182.1,71.8,184.8,69z M215.3,50.1
			c-1.4,0.8-2.6,2.1-3.5,3.1c-1.6,1.8-3,3.8-4.2,5.9c-8.1-3.2-16.8-4.9-22.5-4.6c-5.5,0.2-11.2,2.1-15,6.2c-3.5,2.6-6.2,6.5-8.4,10
			c-2.4,3.9-5.7,9.1-6.8,13.9c-3.4-2.8-6.3-6.2-8.2-10.2c-3.8-8.1-1.5-16.9,4.7-23.1C169.1,33.7,195.4,41.1,215.3,50.1z
			 M104.6,208.1c0.1,0.1,0.2,0.2,0.4,0.3c0,0,0.2,0.2,0.3,0.3c-0.1-0.1-0.2-0.2,0,0c0,0,0,0,0.1,0.1c0,0,0,0,0,0c0,0,0,0,0,0
			c0,0,0.1,0.1,0.1,0.1c0.1,0.1,0.2,0.2,0.3,0.3c0.1,0.1,0.3,0.5,0.2,0.2c-0.1-0.3,0.1,0.1,0.1,0.2c0.1,0.1,0.1,0.3,0.2,0.4
			c0,0,0,0.1,0,0.1c0,0.1,0,0.2,0.1,0.3c0,0.1,0,0.2,0,0.3c0,0,0,0,0,0.1c0,0,0,0,0,0c0,0,0,0,0,0c0,0,0,0,0,0c0,0,0,0,0,0
			c0,0,0,0,0,0c-1-0.8-2-1.7-2.9-2.5c0.1-0.2,0.2-0.5,0.4-0.7c0,0,0.1,0,0.1,0c0.3,0.1,0.6,0.3,0.8,0.4
			C104.2,207.8,104.5,208,104.6,208.1z M108.7,226.3c1.8,1,3.6,2,5.5,2.8c-1,1.1-1.9,2.3-2.7,3.5
			C110.2,230.5,109.4,228.4,108.7,226.3z M99.6,205c-0.5-0.4-1-0.8-1.5-1.3c0.4-0.2,0.8-0.2,1.1,0.2C99.6,204.2,99.7,204.6,99.6,205
			z M94.8,246c-6.5-1.5-13.8-4.3-18.8-8.9c-2.6-2.4-4.6-5.5-5.4-9c-1-4.6,1.1-8.6,2.9-12.7c0.6-1.4,1.2-2.7,1.7-4.1
			c2.6-0.7,6.6-1.8,10.3-2.1c1.4,0.8,2.8,1.8,4.2,2.6c2.3,2.1,4.7,4.1,7.1,6c1.2,4.6,1.7,9.5,2.6,14c0.8,3.8,2,7.5,3.8,10.9
			C101,245.3,98.8,246.9,94.8,246z M109.4,244.9c0.3-0.2,0.6-0.4,0.7-0.7c0.1,0.1,0.1,0.1,0.2,0.2c-0.2,0.2-0.4,0.5-0.6,0.8
			C109.6,245.1,109.5,245,109.4,244.9z M205.3,108.6c-16.7,1.6-34.2-1.8-47.6-11.7c-0.2-0.2-0.6,0.1-0.4,0.4
			c11.3,11.8,28.1,16.1,44.4,15.5c-0.7,0.9-1.4,1.7-2.1,2.6c-0.9,1.2-1.9,2.3-2.8,3.5c-15.3,0.7-31-3-43.2-12
			c-0.2-0.2-0.6,0.1-0.4,0.4c10.4,10.9,25.4,15.3,40.5,15.5c-1.6,2-3.2,4-4.8,6.1c-14.1-0.1-28.1-3.8-39.4-12
			c-0.2-0.2-0.6,0.1-0.4,0.4c9.6,10,23,14.6,36.8,15.4c-1.6,2-3.2,4.1-4.8,6.1c-12.8-0.6-25.5-4.4-35.8-11.9
			c-0.2-0.2-0.6,0.1-0.4,0.4c8.8,9.2,20.8,13.8,33.4,15.1c-1.6,2-3.1,4.1-4.7,6.1c-11.7-1.1-23-4.8-32.4-11.7
			c-0.2-0.2-0.6,0.1-0.4,0.4c8.1,8.4,18.8,13,30.3,14.7c-1.1,1.5-2.2,2.9-3.3,4.4c-0.4,0.6-0.9,1.2-1.3,1.8
			c-10.6-1.4-20.8-5.1-29.4-11.4c-0.2-0.2-0.6,0.1-0.4,0.4c7.4,7.7,17.1,12.2,27.4,14.2c-1.5,2.1-3,4.2-4.5,6.3
			c-9.6-1.7-18.8-5.2-26.7-10.9c-0.2-0.2-0.6,0.1-0.4,0.4c6.8,7.1,15.5,11.4,24.9,13.7c-1.5,2.1-3,4.2-4.4,6.4
			c-8.7-1.8-17-5.2-24.2-10.5c-0.2-0.2-0.6,0.1-0.4,0.4c6.2,6.5,14.1,10.7,22.6,13.1c-1.5,2.1-2.9,4.3-4.4,6.5
			c-7.9-1.9-15.4-5.2-22-10c-0.2-0.2-0.6,0.1-0.4,0.4c5.7,6,12.8,10,20.5,12.4c-1.4,2.2-2.9,4.4-4.3,6.6c-7.2-2-14-5.1-20-9.5
			c-0.2-0.2-0.6,0.1-0.4,0.4c5.2,5.5,11.6,9.3,18.6,11.8c-1.4,2.2-2.8,4.5-4.1,6.7c-6.5-2-12.7-4.9-18.3-9c-0.2-0.2-0.6,0.1-0.4,0.4
			c4.9,5.1,10.7,8.7,17.1,11.2c-1.1,1.8-2.1,3.7-3.1,5.6c-0.2,0.4-0.5,0.9-0.7,1.3c-6.1-2-11.9-4.8-17-8.6c-0.2-0.2-0.6,0.1-0.4,0.4
			c4.6,4.8,10.1,8.3,16,10.8c-0.5,0.1-0.9,0.5-1.2,1c-0.1,0.3-0.3,0.6-0.5,0.9c-1.3-0.2-2.7-0.1-4.1-0.2c-4-0.2-7.5-2.3-10.6-4.6
			c-0.7-0.5-1.4-1.1-2.2-1.6c0.5-0.8,0.7-1.7,0.6-2.7c-0.3-2.7-2.7-4.9-5.3-5.4c0-0.9-0.1-1.8-0.5-2.6c-1.5-3.3-5.3-4.1-8.2-2.2
			c-0.3,0.2-0.6,0.4-0.9,0.7c-0.1-0.1-0.1-0.1-0.2-0.2c-4.7-3.7-8.7-7.5-9.7-13.1c3.5-8.8,6.9-17.7,10.7-26.4
			c8-18.2,16.6-36.2,24.9-54.3c4.7-10.3,9.4-20.7,14.5-30.8c1.5-3.1,3.1-6.1,4.6-9.2c0,3.4,0.8,6.9,2.4,10.2
			c4.7,9.9,14.4,16.5,24.3,20.6c10.6,4.4,22.5,6.6,34,5.7c4-0.3,8.3-1.1,12.3-2.6C210,103.3,207.7,105.9,205.3,108.6z"/>
		<path class="st1" d="M105.3,208.7C105.3,208.6,105.3,208.6,105.3,208.7C105.3,208.6,105.3,208.7,105.3,208.7
			C105.3,208.7,105.3,208.7,105.3,208.7z"/>
	</g>
</g>
</svg>
