<?xml version="1.0" encoding="utf-8"?>
<!-- Generator: Adobe Illustrator 25.3.1, SVG Export Plug-In . SVG Version: 6.00 Build 0)  -->
<svg version="1.1" id="Layer_1" xmlns="http://www.w3.org/2000/svg" xmlns:xlink="http://www.w3.org/1999/xlink" x="0px" y="0px"
	 viewBox="0 0 1957 611" style="enable-background:new 0 0 1957 611;" xml:space="preserve">
<g id="_x23_000000ff">
	<path d="M1010.7,10.8c1.9-4.7,5.2-10.8,11.2-10c5.1-0.2,9,3.5,12.2,7c1.6-2.7,3.7-5.2,5.9-7.4c1.2,0,2.5,0,3.8,0
		c3.3,2.8,6.6,5.6,9.8,8.5c-0.3,4.9-2.3,9.7-6.1,12.9c-3.6,1.4-7.5-0.2-10.2-2.6c-1.4,5.6-4.2,13.5-11.3,13
		c-5.3,0.7-9.2-3.3-12.5-6.8c-1,4.3-2,8.9-5.4,11.9c-3.4,3.4-8.8,3.1-13.2,2.6c-6-1.6-9.6-7.1-13.3-11.6
		c-14.4,3.4-28.2,10.6-37.9,22c-1.9-0.1-3.9-0.3-5.5-1.4c-9.4-5.8-20.9-7.1-31.7-5.4c-1.6,4.2-2.2,9.3-5.9,12.3
		c-2.6,2.4-6.5,2.1-9.7,1.5c-4.3-1.4-7.1-5.3-10.3-8.2c-8.5,1.7-16.5,6-22.4,12.4c-2.1,2.3-3.6,5-5.7,7.3c-2.4,1.2-4.7-0.5-6.8-1.5
		c-10.1-5.2-21.9-4.9-32.9-3.7c-6.2-0.2-5.2,10.2-11.8,9c-1.9-1.7-3.9-3.3-5.9-4.9c-4.3,5.8-9.1,11.4-15.3,15.2
		c-7.5,5.1-16.6,6.9-25.4,8.6c-45.4,7.4-90.7,15.5-136,23.9c-13.5,2.3-26.8,5.3-40.3,6.9c-16.2,2.5-32,7.5-48.3,9.8
		c-60.1,10.7-119.8,23.2-179.9,33.6c16.8,20.9,28.4,45.6,35.8,71.3c2.5,8.5,4.3,17.2,6.5,25.8c6,24.6,8.4,49.9,8.1,75.2
		c-0.1,23.4-2.4,46.9-7.8,69.8c-7.3,26.7-14.8,53.8-29.3,77.6c-12.3,23.5-29.1,44.5-48.3,62.8c-11.7,11.1-24,21.7-37.6,30.4
		c-15.7,10-32.7,18-50.5,23.3c-24.4,6.1-49.8,11.2-75.1,7.6c-16.6-1.8-32.9-5.6-48.6-11c-11.2-4.4-21.1-11.4-31.1-17.9
		c-15.7-10.8-28.6-25.4-38.4-41.7C23,521.2,15,501.5,11.6,480.9c-0.8-5.1-2.4-10-3.1-15c-2.5-16.5-1.3-33.2,0.2-49.7
		c1.5-17.8,5.8-35.2,10.9-52.3c5.4-19.7,14.3-38.2,24.5-55.8c16.6-28.1,39.5-52.2,66.3-70.7c14.2-9.6,29.4-18.2,45.9-23.3
		c11.6-3.8,23.6-6.5,35.8-7.7c17.5-1.4,35.7-0.6,51.9,6.8c15,6.6,28.8,16,39.2,28.8c6.4,8.2,12.1,17,16.4,26.6
		c3,6.7,4.9,13.9,6.9,21c2.3,10,2.5,20.3,3.8,30.5c0.2,14.5-1.6,29-4.6,43.1c-3.7,16.8-9.2,33.4-18.2,48.2
		c-12.5,22.2-30,41.8-51.4,55.8c-11.6,6.8-25.2,11.8-38.9,10.3c-8.7-0.9-16.7-5.8-21.9-12.8c-4.3-5.2-5.3-12.2-6.6-18.6
		c0.1-13.4,1.7-27.1,6.7-39.6c10-23.1,26.1-43.6,46.7-58.1c4.9-3.4,7-9.2,9.8-14.2c-3.4-3.6-7.1-6.9-10-10.9
		c-1.5-1.9-0.9-5.9,2.2-5.1c5.3,0.8,9.8,4.1,15.2,4.8c1.5-3.7,1.6-8.9,5.8-10.8c1.5-0.2,3.9-0.6,4.7,1.2c0.4,4,0,8,0.4,12
		c0.2,1.2,0,2.8,1.4,3.3c4.1,2.7,8.7,4.7,12.5,7.9c0.3,1.3,0.5,2.6,0.7,3.9c-5.1,2.1-10.3-1.1-15.5-0.1c0.5,6.2,3.5,12.1,2.3,18.3
		c-1.8-0.2-4,0.1-5.3-1.6c-3.1-3.5-5.3-7.7-8.1-11.5c-2.6,2.4-5.4,4.5-8.5,6.3c-13.9,8.8-24.9,21.4-34.4,34.7
		c-8.2,11.4-12.7,25.1-16,38.6c-2.3,9.1-1.5,19,2.7,27.4c3.7,8.1,13.7,12,22.2,10.3c12.7-2.3,23.7-10,33-18.6
		c13.3-12.3,24.8-26.6,33.4-42.6c12.6-23.8,19.9-51.4,15-78.3c-3.3-20.1-13.9-38.9-29.1-52.4c-17-15-38.9-24-61.2-27.3
		c-16-2.2-32.4-0.4-47.7,4.3c-26.5,8.7-50.9,24.4-69.2,45.6c-15,17.9-27.8,37.7-36.5,59.4c-10.7,24.7-18.1,51.2-18.4,78.3
		c-0.8,8.6-0.7,17.4,1.1,25.9c1.4,5.6,1.3,11.4,2.5,17.1c2.9,15,9.6,29,16.4,42.6c11.2,22.9,30.5,41.8,53.9,52.1
		c9.9,4.5,20.6,6.5,31.2,8.7c19.8,4,40.3,0.4,59.4-5.1c14.5-3.9,28-10.8,40.8-18.4c16.5-9.9,31.7-22,45.5-35.4
		c21.3-21.2,40.4-45,54.5-71.7c19-35.4,30.8-74.7,34.8-114.7c3.1-30.4,1.6-61.5-6.5-91.1c-6.5-24.7-17.4-48-30.4-69.9
		C219.9,190.5,113.5,211.8,7,232.1c-2.3,0.4-4.9,0.8-7-0.6v-3c0.1-2.5,0.2-5.1,0.8-7.5c1-0.5,2-0.9,3.1-1.1
		c103-22.2,205.7-46,308.7-67.9c-2.8-3.7-5.8-7.3-9-10.7c-9.3-9.7-19.1-19.1-30.1-26.8c-16.3-11.7-34.8-20.4-54.3-24.8
		c-15.2-4.6-31.4-5.4-47.1-4.1c-6.7,0.3-13.7-0.2-20.2,2c-8.4,2.7-17.4,2.9-25.9,5.6c-7.8,2.1-14.9,6.4-22.8,8.2
		c-15.6,4-28.7,13.8-42.6,21.4c-8.5,4.9-16.2,11-24.2,16.7c-4.3,3-7.8,6.8-11.6,10.3c-7.1,6.3-14.1,12.8-20.1,20.2
		c-1.5-0.1-3-0.3-4.5-0.4c0.1-2.9-0.1-6.1,2-8.4c12.6-13.4,25.9-26.3,41.4-36.5c25.3-18.2,54-32,84.3-39.3c6.7-1.5,13.3-3.6,20-4.9
		c39.9-8,82.8-4.5,119.7,13.2c9.4,4.7,18.5,10.1,27.4,15.7c14.8,11.3,28.9,23.7,41.5,37.3c77.9-17.3,155.7-34.8,233.6-52.1
		c21.3-4.9,42.4-10.9,63.8-15.2c11.2-2.1,22-6,33.1-8.2c17.8-3.6,35-9.6,52.9-12.9c14.4-2.7,28.2-9.1,43.1-9.2
		c10.3-0.5,20.5,2.7,29,8.5c1.8-2.4,3.4-6.2,7-5.9c3.3-0.5,6,1.6,8.4,3.5c13.6-4,27.2-10.6,36-22.2c3.4-0.1,5.9,2.4,8.8,3.9
		c7.9,4.2,17.4,5.7,26.2,3.5c1.7-5.8,4.5-13.9,11.8-14c6.3-0.7,11.2,3.9,14.7,8.5c8.1-2.3,16.3-5.7,22.3-11.8c2.6-2.5,4-6,6.2-8.8
		c2.4-1,4.8,0.4,7,1.4c4.3,2.1,9,3.6,13.7,4.5c7.6,1.4,15.3-0.6,23,0.4c0.9-0.6,1.9-1.3,2.9-1.9c0.8-3.5,1.5-7.1,3.5-10.2
		c2.6-3.8,6.7-7.3,11.6-6.6C1001.5,1.4,1006.9,5.9,1010.7,10.8z"/>
	<path d="M1055.5,245.3c1.2,1.4,2.3,2.9,2.9,4.6c3,10.4,7.6,20.2,11.3,30.4c13.8,35.8,27,71.9,41.8,107.3c1.4,3.5,2.8,7.6,6.5,9.3
		c7.5,3.7,16.4,1.1,24.2,4c0.6,2.5-0.4,4.8-1.2,7.1c-13.9,2-28,1.2-42,1.5c-16.2,0.4-32.3,0.4-48.5,0.3c0.1-2.9-0.3-6.2,1.7-8.5
		c8.4-0.5,16.7-1.6,24.9-3.1c0.5-3,0.8-6.1-0.4-9c-4.1-11.2-8.1-22.4-12.4-33.5c-14.8-0.2-29.6,0-44.3-0.1
		c-5,10.3-8.2,21.3-12.5,31.9c-1.7,3.8-2.6,7.9-2,12.1c8,2.7,16.8,0,24.7,3.4c-0.5,2.5-1.1,5-1.6,7.6c-21.5,0.9-43,0.2-64.5,0.8
		c0-2.8,0.3-5.6,1-8.2c5-0.4,10.5,0.9,15-1.8c4.3-2.2,10.1-3.2,12.1-8.2c14.9-36.2,31.1-71.9,43.6-109c-1-2.2-2-4.4-2.9-6.6
		c5-4.8,10.6-9.1,15-14.6C1051.9,257.8,1053.2,251.2,1055.5,245.3 M1041.2,297.7c-5.7,15.6-11.3,31.2-17.5,46.6
		c5.3,1.6,10.9,0.6,16.3,0.8c6.8,0.1,13.7,0.2,20.4-0.7c-4.7-11.4-8.5-23.2-13.6-34.4c-0.8-2-2.3-4-1.4-6.1
		C1044.1,301.8,1042.7,299.8,1041.2,297.7z"/>
	<path d="M948,250.1c22.8,0.5,45.5-2,68.2,0.1c-0.5,2.1,0.4,4.9-1.4,6.5c-7,2.2-15.1,1.4-21.3,5.9c-7.2,4.2-8.9,13-11.8,20.2
		c-15.5,35.4-31,70.8-45.2,106.7c-3.4,7.8-5.6,16.2-10.4,23.3c-18.6-45-35.7-90.6-54.3-135.7c-2.2-4.5-4-9.7-8.4-12.6
		c-6.9-3.5-14.7-4.1-22.2-5.1c-0.1-2.4-0.2-4.8-0.2-7.3c10.2-2.2,20.6-2.1,31-2.2c19.3,0.2,38.6,0.1,57.9,0.6c0,2.4,0.1,4.9,0.1,7.3
		c-7.4,2.4-16.2,0.3-22.7,5.4c-3.4,2.5-4.4,7.1-2.4,10.8c11,26.5,21.6,53.3,33.8,79.3c3.3-4.7,5-10.2,7.1-15.5
		c6.9-17.8,13.4-35.8,20.8-53.4c2.2-5.4,4.6-10.8,6-16.4c-5.3-8.2-15.8-9.1-24.6-10.3C948,255.1,948,252.6,948,250.1z"/>
	<path d="M1499,250.9c22-1.9,44,0.6,66-0.2c28.8-0.4,57.5,0.3,86.3-0.5c0.4,7.6-0.9,15.3-0.1,22.9c0.5,7.7,2.5,15.3,2.2,23.1
		c-1.2,0.3-2.8,1.9-3.5,0.1c-6-7.9-9-17.9-16.4-24.8c-4-3.4-8.4-6.7-13.5-8.2c-7.7-2.5-15.9-2.3-24-2.8c-12-1.1-24,1-36,0
		c-1.4,3-2.2,6.3-1.9,9.6c1,17.4-0.9,34.9,1,52.3c10.9-0.2,22.4,1.5,32.9-2.4c7.7-2.8,11.4-10.8,13.6-18.1c0.9-2.7-1.1-6.1,1-8.4
		c2.9-0.7,6-0.5,9-0.5c-1.5,14.2-1.4,28.6-1.2,42.9c0.2,7.5-0.5,15,1.2,22.4c-2.5,0.7-5.2,1.6-7.8,0.8c-2.9-8.6-4.3-19.2-12.8-24.1
		c-11.1-5.7-24-3.6-36-3.9c-1.1,10.3-0.5,20.7-0.6,31c-0.1,12.1-0.3,24.3,0.1,36.4c6,1.8,12.3,0.4,18.4,0.6c13.4-0.4,27.3,0,40-5
		c17.2-7,27.8-23.7,35.6-39.8c2.5-0.2,5-0.3,7.5-0.4c-1.6,12-3.8,23.9-4.8,36c-0.7,6.2,0.1,12.3,1.3,18.4
		c-22.9,0.6-45.7,1.1-68.6,0.7c-15,0-30-0.3-45,0.4c-14,0.6-28.1-1.3-42.1,0c-3.1-1.4-3-5.3-3.6-8.1c8.7-1.4,17.6-2,26-5
		c4.5-1.7,3.8-7.4,4-11.3c-0.6-39,1-78.1-1.3-117c0-2.8-2.2-5.3-4.8-6.2c-7.2-2.5-15.1-1.9-22.1-4.7
		C1497,255.6,1497.2,252.5,1499,250.9z"/>
	<path d="M1891.2,254.3c11.1-5.2,24.3-5.4,35.8-1.1c5.5,1.7,10,5.6,15.4,7.6c2.4-2.5,3.7-5.8,5-9c1.1,0.7,2.2,1.4,3.4,2.1
		c-2,16.1,0.4,32.2,2.1,48.2c-1.9-0.2-3.8-0.4-5.6-0.6c-2.9-9.1-6.7-18-11.8-26.2c-3.8-6-9.3-11.7-16.4-13.4
		c-7.6-0.8-15.5,3-19.5,9.5c-6.1,9.8-5.4,23.9,2.6,32.5c11.7,13.5,30.7,17.1,42.8,30.2c8.8,8.4,12.2,21,11.7,32.9
		c-0.4,14.7-9.3,28.5-22,35.7c-16.4,9.7-36.6,8.9-54.7,5.4c-8.7-1.9-15.8-7.9-24.5-9.9c0.4,4.4-0.1,8.9-1.8,12.9
		c-2.2-2.5-2.4-5.9-1.7-9c1.6-9.6,0.8-19.3,0-28.9c-0.8-7.2-0.2-14.6-1.9-21.8c2-0.7,5.2-2.9,6.5,0c6.2,13.9,9.5,29.6,19.6,41.5
		c11.6,12.4,34.5,10.4,44-3.6c7.6-10.3,6.4-26.4-3.3-35.1c-9.1-8.9-21.6-12.7-31.1-21c-10.9-8.8-18.2-22.1-19.4-36.1
		C1865.1,279.6,1875.3,261.8,1891.2,254.3z"/>
	<path d="M579.1,252.7c27.1-0.3,54.1-0.9,81.2-1.6c0.4,2.5,2,6.6-1.4,7.6c-8.9,2.4-19.8,1.7-26.4,9.3c0.8,43.5,0.5,87,0,130.4
		c6.8,0.9,13.7,2,20.5,0.6c11.5-1.6,23.5-1.4,34.6-5.5c5.8-2,10.6-5.9,15.4-9.6c8.8-7,16.1-15.6,22.2-25c2-3.1,4.2-6.2,7.3-8.3
		c0.7,2.6,1.7,5.2,0.8,7.9c-2.9,10.2-5.2,20.8-5,31.5c-0.1,6.1,1.3,12.1,1.4,18.2c-21.9-0.1-43.8,1.2-65.7,1.1
		c-19.7,0.1-39.4-0.2-59.1,1.1c-9.8,0.5-19.6-0.1-29.4-1c0-2.8-0.1-5.5-0.3-8.2c5.4-1.8,11-2.4,16.6-2.1c3.8-1.6,9.7-2.9,10.1-7.9
		c0.1-25.4-0.1-50.7-0.3-76.1c-0.2-10.7,0.1-21.3-0.5-32c-0.2-6,0.2-12.7-3.5-17.8c-7-3.8-15.3-3.5-22.9-5c-1.6-1.1-2.6-2.8-3.9-4.2
		C573.2,254,576,252.7,579.1,252.7z"/>
	<path d="M740.3,251.6c28.2-2.1,56.5-0.6,84.7-1.2c2.5,0,5.6-0.2,7.5,1.9c1.1,2,1.8,5.4-1.1,6.2c-5,1.2-10.2,1.4-15.4,2.1
		c-4.4,0.6-9.5,1.5-12.2,5.4c-2.2,3.2-1.5,7.3-1.8,11c-1.3,36.3-1,72.7-0.1,109.1c0.1,3.4-0.2,7.7,3,9.8c7.7,3.9,16.6,3.3,25,3.3
		c2,2.1,1.8,5.4,2.4,8.1c-1.1,0.5-2,1.4-3.3,1.5c-20.3,1.5-40.7,0.2-61.1,1c-9.2,0.3-18.3-0.2-27.5-0.4c0.2-2.9,0.3-5.7,0.5-8.5
		c8.4,0.1,17-0.9,24.8-4c3.1-1.2,5.2-4.5,5.1-7.7c-0.2-39.4,0.6-78.8-1.1-118.2c-0.2-3.7-2.7-7.2-6.1-8.5c-7.5-3-15.7-2.9-23.6-3.9
		C740.1,256.2,740.2,253.9,740.3,251.6z"/>
	<path d="M1263.5,252.2c8-2.1,16.3-0.4,24.4-1.2c12.5-1,25.1,0,37.7,0.2c0,2.2,1.7,6.3-1.5,6.9c-6.8,0.8-13.5,1.6-20.2,2.9
		c-2,2.9-4.3,6.1-3.8,9.9c0.5,45.8-2.8,91.6,0.3,137.4c-13.6-12.4-24.6-27.3-36.9-40.9c-18.2-19.9-35.4-40.7-53.8-60.4
		c-7.4-8-13.8-16.8-21.8-24.1c-0.2,37,0.2,73.9,1.2,110.9c7.1,7.6,18.3,6.5,27.7,7.4c0,2.7,0,5.4,0.1,8.1c-21.6,3.4-43.6,1-65.3,1.4
		c0-3-2-6.9,0.5-9.2c7.6-1.2,16.1,0.3,22.9-4.2c2.2-1.2,2.2-4,2.8-6.1c3-15.6-1-31.4,0.3-47.1c1-11,0.6-22,0.3-33
		c-0.8-13.5,0-27.1-1-40.6c-6.4-6-14.2-12-23.5-11.4c-3.7,1.1-4.3-6.1-0.9-5.9c17.3-1.6,34.7-0.8,52,0.2
		c10.7,9.5,20.1,20.4,29.7,30.9c17.7,19.8,34.7,40.3,53.8,58.9c1.2-19.3,0.1-38.7,0.2-58.1c-0.1-6.4,0.7-12.9-0.5-19.2
		c-0.5-2.5-2.8-4-5.1-4.6c-6.2-2.1-12.8-2.6-19.2-2.1C1263.7,256.8,1263.6,254.5,1263.5,252.2z"/>
	<path d="M411.8,253.1c29.1-0.5,58.1-1.5,87.2-1.7c0.2,2.4,0.5,4.8,0.7,7.3c-4.3-0.4-8.3,1.6-12.5,2.1c-5.6,1-12,2.1-15.6,7
		c-0.6,11.4-0.1,22.9-0.2,34.3c0.1,19,0.1,38,0.1,57c0,13.5-0.9,27.1,0.4,40.5c18.5-0.7,37.5-0.5,55.3-6.4
		c18.4-8.6,31.2-25.3,41.8-42c2.1,0.7,4.1,3.5,3.2,5.9c-3.2,12.1-6.1,24.5-5.1,37c0.4,4.8,0.8,9.6,1,14.4c-10.7-0.2-21.4-0.2-32,0.4
		c-29.3,0.9-58.7-0.1-88,1.3c-11.2,0.9-22.6,0.4-33.8-0.6c-0.2-2.8-0.5-5.5-0.7-8.3c5.2-1.4,10.5-2.5,16-2.4c4-1.5,9.8-1.8,11-6.8
		c0.5-12.6,0-25.3,0-38c0-7.7,0.2-15.3-0.4-23c-0.4-19.3,0.4-38.7-1-58c-0.1-3.6-2.3-7-5.5-8.7c-6.4-3.4-13.9-2.8-20.9-4.1
		C410,258.9,411.2,255.4,411.8,253.1z"/>
	<path d="M1336.2,253.4c27.2-2.3,54.6,0,81.9-0.7c18.7,0,38.4,2.7,54.4,13c12.1,8.2,21.9,20,27.2,33.7c3.7,9.7,6.5,20.1,5.9,30.6
		c-0.6,20.8-6.8,42.5-21.9,57.6c-9.7,10.7-22.7,18.2-36.6,22c-9.4,2.7-19.2,3.1-28.9,3c-28.4-0.6-56.8,0.5-85.1-1.7
		c-0.3-2.4-1-6,1.8-7.2c6.2-1.9,13.2,1.3,19.2-1.7c3.6-1.4,6.2-5,5.9-8.9c0.2-41.4,0-82.8-0.9-124.1c-0.1-3.6-3-6.5-6.4-7.4
		c-5.8-1.5-12.2-0.6-17.6-3.6C1335.3,256.4,1335.8,254.9,1336.2,253.4 M1392.2,263.4c-2.6,2.6-2.3,6.3-2.1,9.6
		c0.2,18,0.1,35.9,0.3,53.9c-0.2,8.3,0.6,16.7,0,25c-0.4,16.8,1.1,33.5,0.5,50.3c12.3,1,24.7-1.2,36.6-3.9
		c20-5.6,35.5-22.7,41.6-42.2c6.1-19.7,4.7-42-5.1-60.3c-4.2-9.7-11.7-17.9-20.7-23.3C1428.1,263.6,1409.6,262.6,1392.2,263.4z"/>
	<path d="M1666,251.6c26.3,0.3,52.7,1.1,79,0.9c10.7-0.1,21.7,0.8,31.7,4.9c8,3.2,15.2,9,19.3,16.6c7.5,15,4.5,34.7-7.6,46.4
		c-6.1,6-14.6,8-22.1,11.4c8.5,15.6,19.1,29.9,30.4,43.6c6,7.5,13.6,13.8,22.3,17.8c7.2,3.2,15.4,2.6,23,4.1
		c3.8,1.6,2.1,6.7,2.9,9.9c-2.6,0.7-5.3,1.3-8,1.3c-18.1,0.1-36.1-0.1-54.2-0.1c-12.8-11.5-23.8-24.8-32.8-39.4
		c-7.2-11.3-12.8-23.5-19.8-34.9c-2-0.2-4.1-0.4-6.1-0.6c0.2,19.5-1,39.1,1.4,58.5c0.2,1.9,2.2,2.9,3.7,3.8
		c6.2,3.6,13.8,2.3,20.5,4.4c0.9,2.4,0,5-0.1,7.5c-28.2,1.2-56.3,2-84.5,1.2c-0.1-2.4-1.1-5.2,0.7-7.2c7.2-3.1,15.8-1.2,22.8-5.2
		c2.4-1.2,3.3-3.9,3.4-6.5c0.6-29.3-0.2-58.7,0.8-88c0.7-7.7-0.3-15.4-0.2-23.1c-0.2-4.2,0.1-8.5-1.1-12.6
		c-6.6-7.1-17.2-5.9-25.8-7.9C1665.8,256.1,1665.9,253.9,1666,251.6 M1726.1,261.3c-2.1,20.2-1.3,40.5-1.3,60.7
		c-0.4,2.8,2.9,3.9,5.1,3.5c8.5-0.7,17.6-2.6,24.3-8.3c12.7-11.2,14.8-33.1,3.3-45.8C1749.5,263,1737.2,260.9,1726.1,261.3z"/>
</g>
<g id="_x23_000000ff_1_">
	<path d="M1628.7,459.7c2.6-6.8,13.9-6.3,16.2,0.5c0.5,9.8-5.5,18.5-12.2,25.1c-4.8,4.8-9,10.2-14.4,14.3c-2.3,1.7-5.3,2.4-7.4,0.1
		c-1.7-5.4,5.8-8.4,5.1-13.9c-2.1-2.6-5.7-3-8.7-2.5c-11.3,1.9-21.4,9.8-26,20.3c-3.4,7.8-6.1,16.1-6.3,24.6
		c-0.2,6.2,3.8,12.7,10.3,13.6c7.2,2.2,13.9-1.7,20.3-4.5c3-1.8,7.3,1,6.3,4.6c-2,3.6-5.8,5.5-9.2,7.4c-6.8,3.7-14.8,6.3-22.6,4.3
		c-8.1-1.7-15.8-7.3-18.1-15.5c-3-16.1,1.2-33.5,11.7-46.2c7.5-9.1,17.4-17.5,29.5-18.8c7.9-1.2,15.9,0.8,23.2,3.9
		c2.2-1.6,4.4-3.3,6.7-4.9C1630.8,468.3,1627.9,464.3,1628.7,459.7z"/>
	<path d="M569.9,474.8c14.1-8.8,31.7-14.4,48-9c6.4,1.5,11.5,5.9,17.6,8c5,0.3,10.8,0.6,13.8,5.3c1.6,3.6-2.2,5.8-4.7,7.5
		c-3.9-1.4-8.4-1-11.2,2.3c-7,7-9.5,17.1-10.9,26.6c2.2-0.4,4.3-0.9,6.5-1.4c1.4,0.5,2.8,1,4.3,1.4c0.7,2.3,2.2,4.7,1.5,7.2
		c-1.9,3.4-5.4,5.8-6.9,9.5c-0.6,3.5,0.7,7,1.6,10.4c1.5-0.1,3.1-0.2,4.6-0.3c4.8-7.1,4.5-16.7,10.7-22.9c2.8-2.6,6.1-5.2,10-5.6
		c2.8,1.3,4.4,4.1,6.7,6c4.3-1.9,8-4.7,12-7.1c0.9,1.9,1.8,3.8,2.8,5.7c3.2-1.9,7.2-5.2,11-2.7c1.6,2.1,3.1,5.4,1,7.7
		c-3,4.7-9.9,1.7-13.3,5.9c-6.1,6.7-7.9,15.9-12.2,23.6c-4.1,1.7-6.6-3.2-9.4-5.3c-3.1,2.1-5.8,5.1-9.5,6c-4.6,0.9-8.2-4.8-12.6-2.3
		c-3.2,0.7-7.3,4-10,0.7c-2.9-3.4-2.4-8.3-3.3-12.4c-0.7-0.1-2.1-0.2-2.8-0.3c-1.6,4-2.4,8.3-4.3,12.1c-1.7,0.9-3.6,1.5-5.5,2.1
		c-1-2-1.9-3.9-2.9-5.9c-2.9,2.1-5.8,4.4-9.1,5.7c-2.3-0.3-4.1-1.9-6.1-3c-4.5,2.2-9.9,4.9-14.6,1.5c0.3-12.5,7.1-24.1,16.6-32
		c2.8-2.2,6.1-3.9,9.6-4.3c2.5-0.2,5.3,1.7,5.2,4.4c0.2,7.1-3.9,13.5-3.7,20.6c3.1-1.7,6.8-3.3,7.8-7.1c4.2-12.1,8.6-24.2,12.7-36.3
		c2-5.5,1.6-12.5-3.3-16.3c-7.1-5.8-17-5.8-25.7-4.9c-11.1,1.9-21.3,8.2-28.4,16.8c-5,6.1-7.5,13.9-8.1,21.6
		c-0.8,9.4-3.3,18.5-3.8,27.9c5,1.5,10.1,2.4,14.9,4.6c-0.3,1.7-0.7,3.4-1.2,5c-10.5,2.8-21.4,2.2-32.1,1.1c2-5.4,4.6-10.6,6.7-16
		c3.3-8.6,4-17.9,5.2-26.9c-2.8,2-5.6,4.3-7.5,7.3c-9.6,14.7-17.8,30.3-27.8,44.7c-0.7-0.2-2.1-0.5-2.8-0.6
		c-2.4-5.4,0.2-11.1,0.2-16.7c0.4-7.7-1.2-15.3-2.1-22.9c-0.6,0-1.7-0.1-2.3-0.1c-7.8,8.4-12.1,19.6-20.9,27.1
		c-5.1,4.4-12,5.6-18.5,4.8c-1.1-3.4-3.2-7.9,0-10.9c5.5-4.3,13.3-4.1,18.6-8.8c4.6-4.2,7.5-9.8,11.1-14.8
		c6.1-9.2,13.1-17.9,18.7-27.4c-4,0.2-8.3,0.2-11.5,2.8c-6.2,3.7-9.2,10.5-13.3,16c-2.8,4-9.8,4.5-12.3-0.1
		c-2-5.7,2.2-10.9,6.3-14.4c9.1-7.5,20.5-11.1,31.4-15.1c6.8-2.3,13.4-6.5,20.9-5c-0.1,2.4-0.2,4.8-0.5,7.2
		c-9.1,5.6-17.7,14.8-17,26.2c1,8,0.5,16.2,2.3,24.1C532.5,511.6,547.5,489.1,569.9,474.8 M652.6,533.9c-3.2,2.9-9.1,3.8-8.8,9.1
		c4.5-1.1,8.7-3.1,12.8-5.1c0.8,1.7,1.5,3.4,2.2,5.2c2.8-6,7.5-12.3,4.8-19.1C659.1,526.5,656.3,530.7,652.6,533.9 M582.4,541.3
		c2.4,0,4.8,0.1,7.2,0.1c3.2-4.8,3.7-10.5,2.9-16.1C586.9,529,584.5,535.3,582.4,541.3z"/>
	<path d="M787.1,472.3c4.1-2.9,9.4-2.7,14.1-1.9c6.2,2.8,6.7,13.4,0.2,16.2c-4.5,1-8.9-1-13.3-1.4c-2.5,1.5-3.5,4.3-4.6,6.9
		c-2.6,6.9-4.8,14-6,21.3c4.4,0.5,8.7,1.1,13,2c-1.5,2.6-2.4,5.8-5,7.5c-3.1,1.2-6.4,1.3-9.5,2.5c-2.6,1.5-3.2,4.8-4,7.4
		c-4.3,17-8.3,34.3-16.4,50c-4.1,7.9-13.1,12.9-22,11.8c-4.7-0.3-8.7-6.2-6.2-10.5c1.2-2.5,3.6-4.5,6.2-5.3
		c3.5,0.9,6.6,4.4,10.5,3.4c5.2-3.5,6.8-10,9.2-15.5c4.8-13.5,9.4-27.3,11.3-41.5c-0.9,0.2-2.8,0.6-3.7,0.7
		c-2.2,8-4.6,16.5-10.9,22.4c-3.1,2.9-7.1,6.4-11.7,5.1c-4.4-1.3-5.8-6.3-5.6-10.4c0.2-11.6,7.3-23.2,18.1-27.7
		c4.9-2.5,9.2,4.6,14,2c2.6-1.2,3.6-4.1,4.4-6.7c2.5-8.6,5.8-17,9.1-25.3C780.1,480.4,782.5,475.2,787.1,472.3 M744,544.1
		c4.3-5.6,4.7-12.9,3.9-19.6C744.6,530.4,740.8,537.3,744,544.1z"/>
	<path d="M1484.6,476.7c17.2-4.1,35.6-5.2,52.8-0.3c5.9,1.6,10.7,7.2,10.2,13.5c-0.2,7.3-6.7,11.9-11.1,16.8
		c6.3,2.4,14.6,4.3,16.7,11.8c1.8,9.7-3.4,19.3-9.6,26.3c-7,7.7-17.9,8.9-27.7,8.8c-10-0.1-20.6,3.2-30.1-0.8
		c2.9-5.3,9.8-7.3,11.8-13.3c3.6-9.4,5.9-19.3,9.1-28.8c2.8-9.7,6.6-19.2,8.1-29.2c-14.8-1.3-31.3,0.5-42.6,11
		c-5.8,6.5,2.9,14.6,0.2,21.7c-3.1,6.4-13.5,6.5-16.6,0.1c-3.1-6.7-1.3-14.8,2.3-20.9C1464.1,484.5,1474.4,479.3,1484.6,476.7
		 M1524.3,482.2c-2.1,7.7-4.9,15.3-6.8,23.1c4.2-0.9,8.9-1.2,12.2-4.2c3.6-3.2,6.4-7.9,5.6-12.9
		C1533.4,483.9,1528.4,483.2,1524.3,482.2 M1512.9,519.7c-3.1,8.8-6.1,17.6-8.8,26.5c9,1.2,18.8,1.8,26.9-3.1
		c8-4.2,11.4-15.1,7.5-23.1c-4.2-6.1-12.5-8.9-19.6-7.7C1515.3,512.8,1514.1,516.7,1512.9,519.7z"/>
	<path d="M968.4,481.5c6.4-3.6,14-1.9,21-1.6c-1,4.3-1.9,9,0.2,13.2c5.6,13.1,11.3,26.1,16.7,39.3c4.5-4.7,8.5-11.3,6.6-18.1
		c-3.6-11.8-8.7-23-15.7-33.2c6.4-2.2,13.3-2.2,19.8-0.6c-1,2.6-2.4,5.2-2.7,8c1.2,5.7,4.4,10.8,5.8,16.4c2.2-4,4.7-8,6-12.5
		c1.2-4.2-0.9-8.3-2.1-12.2c5-2.2,10.3-1.6,15.3-0.1c0.2,0.7,0.6,1.9,0.8,2.6c-7,6.7-10.1,16.2-13.8,24.9c-0.8,2.4-2.2,5.1-0.8,7.6
		c2.2,5.9,5.3,11.4,7.9,17.1c5.4-10,8.1-21,12.2-31.6c1.3-3.6,2.8-7.2,3.4-11c0.2-3.5-3.1-5.7-4.9-8.3c5.7-4.7,13.2-1.9,19.8-3
		c-2.7,7.6-8.2,13.8-10.9,21.4c-5.3,14.4-10,29.1-15.3,43.6c-1.3,3.4-3.3,6.4-5.3,9.5c-7.3-7-7.5-17.9-13.8-25.6
		c-5.4,7.9-7.4,18.2-15.5,24.1c-2-3-3.9-6.1-5.2-9.4c-5.9-14.5-11.7-29.1-18.1-43.5C977.2,492.2,972.5,487,968.4,481.5z"/>
	<path d="M821.9,481.3c13.7-2.4,27.5,0.5,41.2-0.9c4.2-0.2,8.9-1.1,12.8,1.1c1.4,4.2-0.1,8.6-1.5,12.6c-3.4-3.1-6.4-7.3-11.3-8.1
		c-5.7-1.1-12.4-1.8-17.4,1.5c-5.1,5.6-2.6,13.8-1.8,20.5c4,1.6,8.2,3.7,12.6,3.1c4.9-0.4,8.1-5.1,12.9-5.8
		c4.3,5.4,1.4,12.5,1.3,18.7c-3.9-1.9-6.8-5.2-10.4-7.4c-5.5-0.8-11.1,0-16.6,0.3c-1.3,7.8-1,15.8,0.4,23.5c0.8,5,5.6,7.3,9.5,9.7
		c-9.8,2.6-19.8-0.3-29.7-0.8c2.6-2.5,6.4-3.7,8.4-6.7c0.7-8.4,0-16.9,0.5-25.3c0.8-9.7,0.5-19.6-1.2-29.3
		C828.3,485.8,825.1,483.6,821.9,481.3z"/>
	<path d="M1140.5,495.2c3.5-1.1,6.9-2.2,10.4-3.3c1.3,17-0.6,34.2,2.1,51.2c0.1,2.2,1.4,6.6-2.2,6.1c-7.4,0.2-14.9,1.6-22.3,1.1
		c-11.2-4.8-12.2-21.5-3.8-29.4c3-2.9,7.3-3,11.2-3.3c-3.5,4.6-7.2,9-9.1,14.5c1.5,4.5,3,9.8,7.7,12c3.1,1.7,7.4-0.4,8.2-3.8
		c1.2-7.4,0.8-15.6-4.5-21.4c2.2-3,5.3-6,5-10C1143.1,504.3,1141.6,499.7,1140.5,495.2z"/>
	<path d="M1243.9,494.4c2.2-2.5,5.2,0.1,7.8,0.6c-0.8,2.9-2.1,5.7-3.6,8.3C1242.6,505.2,1240,497.5,1243.9,494.4z"/>
	<path d="M1379.6,515.7c-2.1-9.2,4.7-19.3,13.9-21.1c8.4-1.7,17.1,6,15.9,14.5c0.1,4.4-2.7,7.8-4.9,11.3c-2.6,3.5-0.4,7.9,0.2,11.7
		c2,7.3-1.6,15.7-8.3,19.4c-6.3,3.1-14.8,2.5-19.9-2.6c-3.5-3.4-4.6-8.3-6.2-12.6c-1.7,2.7-3.4,5.3-5.1,8c1.5,6.2,2.2,13.1-0.7,19.1
		c-5.2,11.5-20.8,16.2-31.6,10c-5.9-4.4-5.5-15.7,2-18.3c3.4-0.8,7.9-1,10.1,2.2c2.8,3.3-0.8,7.1-2,10.3c3.1-0.6,6.8-0.5,9.1-3
		c3.3-3.3,3.3-8.3,4-12.6c-5.1-1-11.7-0.2-15-5c-3-3.8-0.7-9.9,3.8-11.3c4.5-1.3,9,0.5,13.3,1.7c2.3-2.6,4.4-5.3,6.4-8.1
		c-2.4-2.5-5.1-4.6-7.9-6.5c-1.7,3.1-2.9,6.9-6,8.9c-3.8,1.2-7.2-1.1-10.1-3.1c0.2-3.1-0.2-6.6,1.9-9.1c6.3-7.6,19.4-7.5,25.8-0.1
		c2.8,3.2,3,7.7,4,11.6C1375.3,526.2,1381.1,522,1379.6,515.7 M1390.1,509.9c0.7,2.4,1.4,4.8,2.1,7.2c5-0.2,6.7-5.3,6.4-9.6
		c-1.8-0.8-3.7-1.5-5.5-2.3C1392.1,506.8,1391.1,508.4,1390.1,509.9 M1383.1,534.9c-1.1,3.6,1.4,6.6,3.1,9.5
		c2.7-1.3,6.2-2.1,7.6-5.1c0.6-2.9-0.7-5.7-2.5-7.8C1388.2,530.6,1384.3,531.6,1383.1,534.9z"/>
	<path d="M881.4,496c3.9-1.6,6,2.4,7.6,5.2c-2.1,1.6-4.3,3.2-6.5,4.7c-1.2-0.7-2.5-1.5-3.7-2.2C879.5,501.1,877.7,496.3,881.4,496z"
		/>
	<path d="M1209.7,523.9c-0.1-5.7,4.9-11,10.5-11.3c3,0.8,5.3,3.1,8.2,4.3c4.2-0.6,8.1-2.9,12.3-3c2,1.2,3.6,2.8,5.4,4.3
		c2.5-1.3,4.9-3.4,8-3.3c2.2,0.6,4,2.1,6,3.3c3.7-2.5,7.6-5.2,12.3-4.6c0.7,2.5,1.9,5,1.8,7.7c-1.3,7.2-5.6,13.5-5.6,20.9
		c3.7-5.9,5.4-12.8,7.9-19.3c2.6-6.9,10.6-10.2,17.6-9.3c0.5,0.8,1.6,2.5,2.1,3.4c0,1.3,0,3.9,0,5.2c-3.4,2.4-7.6,2.1-11.2,3.6
		c-4.8,3.7-5.2,10.4-5.9,16c4-1.1,7.8-2.4,11.8-3.6c0.3,2,1,4,0.5,6.1c-3.1,3.8-7.2,7-11.8,8.7c-3.9,0.8-7.4-1.8-11.1-2
		c-3.5,0.5-7,1.2-10.5,1.5c-4.4-8.3,2.4-16.5,2.7-24.9c-6.8,6.4-5.4,17.1-11.6,23.8c-1.7,2.3-4.4,0-6.5-0.2
		c-4.3-1.8-8.2,2.9-12.5,1.9c-1.7-1.3-4.2-3.2-3.4-5.6c1.8-7.3,3.8-14.5,5.9-21.7c-5.3,0.3-10.6,0.7-16,0.9c1.6,4.6,4,9,4.7,13.8
		c1,6.5-5,13.1-11.6,12.7c-3.8-0.4-7.2-2.3-10.6-3.9c0.6-2.4,1.3-4.8,1.9-7.2c3.2,0.1,6.4,0.3,9.6,0.5
		C1213.5,536.5,1209.1,530.2,1209.7,523.9 M1243.6,524.4c-1.9,5.4-3.8,10.9-5.5,16.4c2,0.1,4,0.4,6,0.2c2.2-3.6,4-7.6,4.1-11.8
		C1246.9,527.5,1245.2,526,1243.6,524.4z"/>
	<path d="M1309.5,513.9c3.3-0.9,7.6-0.5,9.2,3c0.9,2.8,0.9,6-0.1,8.7c-3.2,5.9-9.8,8.6-14.4,13.2c-0.4,1.3-0.5,2.5-0.8,3.8
		c4.7-2.1,9.3-4.8,14.6-4.8c-0.4,2,0.1,4.5-1.6,5.9c-3.5,3.6-7.6,6.8-12,9.2c-5.1,2.6-10.2-2.4-11.2-7.2c0.9-7.3,4-14.2,6.4-21.2
		C1301.1,519.8,1304.7,515.6,1309.5,513.9z"/>
	<path d="M1412.4,521.5c4.7-7.1,15.8-10.9,23.2-5.6c4.6,3.1,4.3,9.4,3,14.1c-3,6.7-8.3,11.9-11.5,18.5c4.2-1.3,8.2-3.8,12.7-3.2
		c6,2.1,3.2,12.8-2.8,12.6c-7.8,0.4-15.6-0.6-23-2.9c-2.2-0.7-4.3-1.8-5.7-3.7c1.5-6,7.6-8.8,11.9-12.5c4.7-3.4,7.8-8.4,10.8-13.3
		c-1-0.6-3-1.7-4-2.2c-2.5,2.4-5,5-7.4,7.5C1414.7,531.2,1409.8,526.2,1412.4,521.5z"/>
	<path d="M696,520.4c2.3-5.2,8.6-6.8,13.7-5c2.9,1.4,2.8,4.9,3.4,7.6c-3.2,2.7-7.1,4.4-11.2,5c3,6.2,6.7,14.2,1.8,20.5
		c-4.2,7.5-17.6,7.4-20-1.5c1.2-1.4,2.4-2.9,3.9-4.2c3-0.4,6-0.3,9-0.4C698.7,535,692,527.6,696,520.4z"/>
	<path d="M938.1,550.4c-14.3-5.7-11.6-30.4,3-34c7.1-1.8,16.1,3.9,15.2,11.7c-4.3,6.2-13.1,2.6-19.4,3.3c0.8,3.6,0.6,8.3,4.2,10.5
		c4.2,3.1,9.4,0.6,14.1,0.3C954.2,549.9,944.7,553.6,938.1,550.4 M938,526.1c3.4,0.2,6.9,0.2,10.3,0c-1.6-1.4-2.7-3.7-4.8-4.4
		C940.5,520.7,939.6,524.4,938,526.1z"/>
	<path d="M1060.3,522.4c3.8-3,7.9-6.2,12.9-6.9c2.5,0.2,5.1,1.6,6.1,4c3,7,2,14.7,2.9,22c0.2,2.5,3.4,2.9,5,4.3
		c2.7-9.1,0.8-18.6-1.9-27.4c5.9-1.2,11.9-0.1,17.8-1.7c3.6-0.4,8.5-1.7,11,1.8c3.1,3.8,2,9,2.5,13.5c0,6.4,2,12.4,3.9,18.4
		c-5.2,0.4-10.5,0.2-15.7-0.8c6.3-6.6,5.8-16.7,2.6-24.6c-2.2-4.3-8.1-1.6-10.6,1.1c-0.5,7.8,0.7,15.6,0.6,23.4
		c-4.8,1.3-9.7,2.3-14.7,2.2c-3.2-0.4-6.2-1.9-9.4-2.5c-3.3,0.7-6.4,2.2-9.8,2.5c-4.7-1.3-8.3-7.7-4.4-11.7c4.2-4.3,10.2-6,14.8-9.8
		c0-1.5,0.1-3,0.1-4.5c-2.1-0.9-4.1-1.9-6.3-2.5c-2.9,2.3-5.6,5.1-8.9,6.9C1058.9,527.6,1057.5,524,1060.3,522.4 M1068.1,541.1
		c0.1,0.9,0.2,2.7,0.3,3.6c1.9-1.9,3.8-3.9,5.6-5.9C1071.9,539.6,1070,540.3,1068.1,541.1z"/>
	<path d="M876.5,519.8c3.6-1.9,7.6-2.6,11.7-2c-1,9.2-1.3,18.5,0.3,27.6c2.7,0,5.3,0,8-0.1c-0.3-9-1.5-18-1.3-27
		c5.8,0.3,11.5-0.4,17.1-1.5c3.8-0.7,8.8-0.7,10.9,3.2c1.9,7.1,1.4,14.5,1.6,21.7c0,3.4,3.3,5.2,5.2,7.6c-5.5,1.7-11.2,1.5-16.8,0.6
		c4.4-6.8,4.5-15.2,2.9-22.9c-0.7-6.2-11.4-4.4-11.5,1.2c-0.5,7.3,0.4,14.6,0.9,21.9c-9.5,1.2-19.3,1.7-28.6-0.8
		c1.5-4.2,3.2-8.5,3.3-13.1C880.5,530.5,878.3,525.1,876.5,519.8z"/>
	<path d="M1167.6,517.7c3,0.3,7.6-1.5,9.3,2.1c1.9,2.4,0.4,6.8-3,6.5C1171.4,523.8,1169.4,520.8,1167.6,517.7z"/>
	<path d="M1156,527.8c-1.6-6.2,5-10.9,10.8-10.6c-1,2.7-2.1,5.4-3.2,8.1c5.4,3.8,12.9,6.7,14.5,13.9c1.2,6.4-4.5,13-11,12.7
		c-5.4,0.5-12.5-3.1-11.8-9.3c2.9-2.9,6.1,1.1,9,2c2.2,1.7,4.5-0.6,6.7-1.3C1166.8,537.4,1159,534.5,1156,527.8z"/>
	<path d="M1547.7,545.9c1.8-0.8,3.5-1.5,5.3-2.3c1.1,1.7,2.2,3.5,3.4,5.3c-1.5,2.6-3.7,4.5-6.8,5
		C1548.8,551.3,1548.2,548.6,1547.7,545.9z"/>
	<path d="M1614.8,545.4c3.8-3.1-128.1-21.1-125.2-18.8c-2.5,1.8,130.4,25.8,127.8,27.6C1615.8,551.5,1613.1,548.6,1614.8,545.4z"/>
</g>
</svg>
