<?xml version="1.0" encoding="utf-8"?>
<!-- Generator: Adobe Illustrator 25.3.1, SVG Export Plug-In . SVG Version: 6.00 Build 0)  -->
<svg version="1.1" id="Layer_1" xmlns="http://www.w3.org/2000/svg" xmlns:xlink="http://www.w3.org/1999/xlink" x="0px" y="0px"
	 viewBox="0 0 288 288" style="enable-background:new 0 0 288 288;" xml:space="preserve">
<style type="text/css">
	.st0{fill:#2E2E2E;}
</style>
<g>
	<path class="st0" d="M157.1,208.9c0.1,0,0.1-0.1,0.1-0.1c-0.1-0.2-0.2-0.2-0.2-0.1C157,208.8,157,208.9,157.1,208.9
		C157,208.9,157.1,208.9,157.1,208.9z"/>
	<path class="st0" d="M133.2,214.4c0.3,0.3,0.8,0.4,1.1,0.6c0.1,0.1,0.3,0,0.4,0.2c0.1,0.1,0.2,0.1,0.4,0.1c0.4,0,0.7,0.2,1,0.4
		c0.4,0.2,0.9,0.4,1.3,0.6c0,0,0.1,0,0.1,0c0.1,0,0.2-0.1,0.2,0.1c0,0.1-0.1,0.2-0.2,0.2c-0.3,0-0.6,0.1-0.8-0.1
		c-0.1-0.1-0.2-0.1-0.4-0.2c-0.2-0.1-0.4-0.2-0.5-0.3c-0.1,0-0.2,0-0.3,0c-0.1-0.1-0.3,0-0.4-0.2c-0.1,0-0.2,0.1-0.3,0.1
		c0.1-0.1,0-0.2,0-0.2c0,0-0.9,0-0.2-0.1c0,0,0,0,0,0c0,0,0,0,0,0c0-0.1,0-0.1-0.1-0.1c-0.2,0.1-0.4,0.1-0.5-0.2
		c-0.2-0.2-0.4-0.3-0.7-0.3c0,0-0.5-0.5-0.5-0.1c0,0.3,0.1,0.6,0.3,0.8c0.1,0.1,0.3,0.2,0.4,0.3c0.1,0.3,0.6,0.2,0.6,0.5
		c0.3,0,0.5,0.3,0.8,0.3c0.3,0.1,0.5,0.3,0.8,0.4c0.4,0.2,0.8,0.2,1.2,0.5c0,0,0,0,0.1,0c0.3-0.1,0.5,0.1,0.8,0.1
		c0.3,0,0.7,0.2,1,0.2c0.2,0,0.3,0.2,0.3,0.3c-0.1,0.2-0.3,0.2-0.5,0.3c-0.3,0.1-0.3,0.1-0.7-0.1c0,0-0.5-0.1-0.5-0.1
		c-0.2,0.1-0.3-0.1-0.5,0c0.1,0-0.6,0-0.3-0.2c0.1-0.1-0.1-0.1,0-0.1c-0.1,0.1-0.2,0.1-0.4,0.1c-0.5-0.2-1-0.4-1.5-0.6
		c-0.1-0.1-0.2,0-0.2,0.1c0,0.5,0.3,0.8,0.9,0.9c0.1,0,0.2,0.1,0.3,0.2c0.4,0.3,0.8,0.4,1.2,0.6c0.3,0.1,0.6,0.2,0.9,0.3
		c0.5,0.2,1,0.3,1.5,0.6c0.4,0.2,0.8,0.2,1.3,0.3c0.4,0.1,0.8,0.2,1.2,0.2c0.8,0.1,1.7,0.1,2.5,0.3c0.2,0.1,0.5,0.1,0.8,0.1
		c0.3,0,0.6-0.1,0.8-0.1c0.2,0.1,0.4,0.1,0.7,0c0,0,0.1,0,0.1,0c0.6,0,1.2,0,1.7-0.1c0.2,0,0.4-0.1,0.7-0.1c0.2,0,0.4,0,0.6-0.1
		c0.3-0.1,0.7-0.1,1-0.2c0.4-0.1,0.8-0.1,1.2-0.3c0.3-0.1,0.5-0.2,0.8-0.3c0.1,0,0.2-0.2,0.2-0.3c0-0.1-0.1-0.1-0.2-0.1
		c0,0-0.1,0-0.1-0.1c0.1,0,0.3-0.1,0.4,0c0.1,0,0.2-0.2,0.3-0.1c0.1,0,0.1-0.1,0-0.2c-0.2-0.1-0.4-0.1-0.6,0c-0.1,0.1-0.2,0.1-0.2,0
		c0-0.2-0.2-0.1-0.3-0.2c-0.1,0-0.1,0-0.1-0.1c0-0.1,0-0.1,0.1-0.1c0.1,0,0.3-0.1,0.4-0.1c0,0,0.1,0,0.1-0.1c0-0.2,0.2-0.2,0.3-0.3
		c0,0,0.1,0,0.1,0c0-0.3,0.4-0.2,0.5-0.4c0.1-0.1,0.2-0.2,0.4-0.2c0.2-0.1,0.3-0.4,0.6-0.3c-0.2-0.6,0.1-0.2,0.2-0.1
		c0.1-0.2,0.1-0.3,0.2-0.4c0.1-0.1,0.3-0.1,0.2-0.3c0.1-0.1,0.3-0.2,0.4-0.3c-0.1,0,0.6-0.7-0.1-0.3c-0.2,0.1-0.4,0.2-0.5,0.3
		c-0.4,0.2-0.7,0.4-1.2,0.4c-0.1,0-0.2,0.1-0.1,0.1c0.1,0.1,0,0.1-0.1,0.1c-0.1,0-0.3,0-0.3-0.2c-0.2,0.2-0.4,0.1-0.6,0.2
		c0-0.1,0.1-0.1,0.2-0.1c0.1-0.1,0.4-0.3,0.5-0.3c0.2-0.2,0.4-0.3,0.6-0.4c0.2,0.2,0.1,0,0.1-0.1c0,0-0.1-0.1,0-0.1
		c0.1,0,0.1,0.1,0.2,0c0.2-0.2,0.4-0.4,0.7-0.5c0.1,0,0.1-0.1,0-0.2c0-0.1,0-0.1,0.1-0.1c0,0,1.5-0.9,1.1-0.7
		c-0.1,0.1,0.6-1,0.4-0.7c0.5-0.4,0.8-0.8,1.1-1.3c0-0.1,0-0.2,0.1-0.3c0-0.1,0.2,0,0.2-0.1c0-0.2,0.1-0.4,0-0.7
		c-0.1,0.2-0.2,0.2-0.3,0.5c-0.2,0.2-0.3,0.4-0.4,0.6c0,0.4-0.3,0.6-0.5,0.9c-0.1,0.2-0.4,0.3-0.6,0.5c-0.1,0.1-0.3,0.1-0.4,0.2
		c-0.1,0.2-0.3,0.4-0.4,0.5c-0.2,0.1-0.4,0.5-0.7,0.2c0,0-0.1,0-0.1,0c-0.2,0-0.2,0.1-0.3,0.3c0,0.1-0.3,0-0.4,0.2
		c0,0.1-0.1,0.1-0.1,0.1c-0.3,0.2-0.6,0.3-0.9,0.1c-0.2,0.3-0.4,0.5-0.6,0.4c0-0.3-0.1,0-0.2-0.1c-0.1,0.2-0.3,0.1-0.5,0.1
		c-0.4,0-0.7,0.1-1.1,0.2c-0.2,0.1-0.4,0.2-0.7,0.1c-0.3-0.1-0.6,0.1-1,0.1c-0.1,0-0.3,0-0.4,0.1c-0.2,0.2-0.5,0.1-0.7,0.1
		c-0.2,0.1-0.5,0-0.7,0.1c-0.3,0-0.5,0.1-0.8,0.1c-0.2,0-0.5,0-0.8,0c-0.2,0-0.4,0-0.6-0.1c-0.2-0.1-0.4,0-0.6-0.1
		c-0.3-0.1-0.7-0.2-1.1-0.2c-0.5,0-0.9-0.2-1.4-0.1c0,0-0.1,0-0.1,0c-0.4-0.2-0.9-0.1-1.3-0.2c-0.4-0.1-0.7-0.1-1.1-0.3
		c-0.2-0.1-0.4-0.2-0.6-0.2c-0.6-0.1-1.2-0.3-1.7-0.6c-0.4-0.3-1.7-1-2.3-1.1c-0.3-0.1-0.4-0.3-0.5-0.5c-0.1-0.1-0.1-0.1-0.2-0.1
		c0-0.1-0.1-0.2-0.1-0.1c-0.2,0.1-0.3-0.1-0.4-0.2c-0.3-0.2-0.6-0.4-0.9-0.7c0,0.4,0,0.8,0.1,1.2
		C132.5,213.8,132.8,214.1,133.2,214.4z"/>
	<path class="st0" d="M121.1,220.1c-0.1-0.2,0.1-0.3,0.2-0.4c0.1-0.1,0.3-0.3,0.5-0.4c0.5-0.3,0.9-0.6,1.4-0.9
		c0.2-0.1,0.4-0.2,0.5-0.3c0.3-0.3,0.7-0.4,1.1-0.6c0.3-0.2,1.8-0.7,2-0.4c0.2-0.3,0.4-0.4,0.6-0.3c0.1,0,0.2,0,0.2-0.1
		c0.3-0.2,0.6,0.1,0.9-0.1c0.1,0,0.2,0,0.4,0c0.1-0.1,0.2-0.1,0.3,0c0.1,0.1,0.2,0.1,0.2-0.1c0-0.1,0-0.1,0.1,0
		c0.1,0,0.1-0.2,0.2-0.2c0.3-0.1,0.6-0.1,0.9-0.1c0.4,0,0.8-0.1,1.1-0.3c0.2,0,0.3-0.1,0.2-0.3c-0.2-0.2,0-0.6-0.2-0.8
		c0.1-0.3,0.1-0.6,0-0.9c-0.2-0.1-0.4-0.1-0.6-0.2c0,0,0,0,0,0c-0.2,0-0.4,0.2-0.6,0c0,0-0.1,0-0.1,0c-0.1,0.1-0.2,0.1-0.4,0
		c0.1,0.1,0,0.1,0,0c0,0.5-0.1-0.2-0.2,0.1c-0.3,0.1-0.6,0.2-0.9,0.2c-0.2,0.1-0.4,0.2-0.7,0.2c-0.9,0-1.5,0.8-2.3,0.9
		c-0.2,0.1-0.3,0.2-0.4,0.4c-0.2,0.1-0.4,0.2-0.5,0.3c-0.2,0.1-0.3,0.1-0.5,0.2c-0.1,0.2-0.3,0.3-0.5,0.5c-0.4,0.2-0.8,0.5-1.1,0.9
		c-0.4,0.2-0.6,0.6-0.9,0.8c-0.3,0.2-0.4,0.6-0.7,0.8c-0.2,0.2-0.4,0.4-0.5,0.8C121,220.1,121,220.1,121.1,220.1z"/>
	<path class="st0" d="M129,213.3c0.3,0.1,1.5-0.1,1.8-0.1c0.2,0,0.4,0,0.6,0c0.1,0,0.5-0.1,0.5-0.1c-0.1-0.2-0.1-0.5-0.1-0.7
		c0-0.1-0.1-0.2-0.3-0.2c-0.1-0.1-1,0.5-1,0.5c-0.4,0.2-0.9,0.3-1.3,0.5C129.3,213.1,129.1,213.3,129,213.3z"/>
	<path class="st0" d="M129.1,213.2c0,0-0.1,0-0.2,0.1C129,213.2,129,213.2,129.1,213.2z"/>
	<path class="st0" d="M129,213.3C129,213.3,128.9,213.3,129,213.3C128.9,213.3,129,213.3,129,213.3z"/>
	<path class="st0" d="M151,202.5C151,202.5,151,202.5,151,202.5C151,202.6,151,202.5,151,202.5z"/>
	<path class="st0" d="M156.8,215.2C156.8,215.1,156.8,215.1,156.8,215.2C156.5,215.1,156.2,216.3,156.8,215.2z"/>
	<path class="st0" d="M132.6,217.4C132.6,217.4,132.6,217.4,132.6,217.4C132.6,217.5,132.6,217.5,132.6,217.4z"/>
	<path class="st0" d="M166.3,236.3c-0.3,0.2-0.6,0-0.9,0.3c-0.4-0.1-1.3,0.1-1.6,0.4c-0.1,0.1-0.3,0.1-0.4,0.3c-0.1,0.1,0,0.2,0,0.2
		c-0.2,0.3-0.3,0.6-0.4,1c0,0.2-0.1,0.4-0.1,0.7c-0.1,0.3-0.2,0.6-0.2,0.9c-0.1,0.2-0.1,0.4-0.3,0.5c-0.1,0-0.1,0.2-0.2,0.3
		c-0.1,0-0.1,0.1,0,0.2c-0.1-0.1,0.2-0.2,0,0c0.2-0.2,0.5-0.4,0.7-0.5c0.2-0.1,0.4-0.2,0.6-0.4c0.2-0.3,0.5-0.5,0.8-0.8
		c0.2-0.2,0.4-0.5,0.6-0.7c0.2-0.3,0.5-0.5,0.7-0.8c0.1-0.3,0.3-0.5,0.5-0.7c0.2-0.2,0.4-0.4,0.5-0.7c0,0,0,0,0-0.1
		C166.4,236.3,166.4,236.2,166.3,236.3z"/>
	<path class="st0" d="M126,220.2C125.9,220.2,125.9,220.3,126,220.2C126,220.3,126,220.3,126,220.2z"/>
	<path class="st0" d="M161.5,239.8c0-0.1-0.1-0.1-0.2-0.1c-0.3,0-0.6,0-0.8,0.1c-0.1,0-0.3,0-0.4,0c-0.3,0.1-0.7,0.1-1,0.2
		c-0.1,0.1-0.3,0-0.4-0.1c0,0-0.1,0-0.1,0c0,0,0,0.1,0,0.1c-0.1,0.2-0.2,0.3-0.4,0.3c-0.4,0.1-0.8,0.3-1.1,0.4
		c-0.2,0.1-0.4-0.1-0.5,0.1c-0.2,0.3-0.7,0.2-0.8,0.6c-0.2,0-0.4,0.2-0.5,0.4c-0.1,0.4-0.3,0.8-0.5,1.1c-0.1,0.2-0.2,0.4-0.3,0.6
		c0,0.1,0.1,0.2,0,0.2c-0.2,0.1-0.4,1.2-0.6,1.2c-0.2,0-0.1,0.1-0.1,0.2c0.1,0.1,0,0.1,0,0.2c-0.1,0.3-0.3,0.5-0.4,0.7
		c-0.2,0.4-0.5,0.7-0.8,1c0,0-0.1,0-0.1,0.1c0.3,0.2,0.6,0.1,0.9-0.3c0.4-0.1,0.7-0.4,1.1-0.4c0.3,0,0.4-0.4,0.7-0.3
		c0.2-0.2,0.3-0.3,0.5-0.4c0.3,0.2,0.3-0.1,0.4-0.2c0.4-0.1,0.7-0.3,1.1-0.5c0.5-0.3,0.9-0.6,1.2-0.9c0.3-0.2,0.5-0.5,0.8-0.7
		c0.3-0.3,0.5-0.7,0.8-1c0.2-0.2,0.2-0.5,0.4-0.7c0,0,0,0,0.1-0.1c0.2-0.6,0.7-1.1,0.9-1.6C161.4,240,161.4,239.9,161.5,239.8
		C161.4,239.9,161.5,239.8,161.5,239.8z"/>
	<path class="st0" d="M158.8,215.6c0.4,0.2,0.8,0.1,1.2,0.1c0.4,0,0.7,0.1,1.1,0.2c0.2,0,0.5,0.1,0.7,0.2c0.3,0.1,0.5,0.1,0.7,0.3
		c0.2,0.1,0.3,0,0.2-0.2c-0.4-0.5-0.9-0.9-1.4-1.3c-0.2-0.2-0.5-0.3-0.8-0.4c-0.2-0.1-0.4-0.1-0.6-0.2c-0.4,0-0.7,0-1.1-0.2
		c-0.3-0.1-0.7,0.1-0.6,0.4c0,0,0,0.1,0,0.1c0,0,0,0.3,0,0c0,0.3,0,0.6,0.3,0.9C158.5,215.7,158.7,215.6,158.8,215.6z"/>
	<path class="st0" d="M138.4,203.8C138.5,203.8,138.5,203.8,138.4,203.8c0,0-0.1,0-0.1-0.1C138.3,203.9,138.3,203.9,138.4,203.8z"/>
	<path class="st0" d="M133.4,209c0.1,0.2,0.3,0.4,0.3,0.6c0.2,0.4,0.5,0.7,0.9,1c0.6,0.4,1.4,0.5,2.1,1c0.4,0.3,0.8,0.4,1.2,0.7
		c0.2,0.2,0.5,0.1,0.8,0.2c0.6-0.1,0.9,0,1.1,0.4c0,0.1,0,0.2,0.1,0.1c0.6-0.3,1.2-0.3,1.9,0.1c0.3,0,0.6,0,0.9,0.1
		c0.8,0.1,1.5,0.1,2.3,0.1c0.6,0,1.1,0,1.7,0c0.3,0,0.7,0,1-0.1c0.2,0,0.5-0.1,0.7-0.1c0,0,0,0,0.1,0c0.2-0.1,0.5-0.2,0.7-0.2
		c0.2,0,0.4,0.1,0.5-0.1c0.5-0.1,1-0.2,1.5-0.4c0.4-0.1,0.8-0.1,1.1-0.3c0.7-0.3,1.4-0.8,2-1.4c0.3-0.2,0.6-0.4,0.9-0.7
		c0.1-0.2,0.2-0.3,0.4-0.5c0.3-0.4,0.6-0.8,0.7-1.3c0.1-0.2,0.1-0.4,0.1-0.7c0-0.1-0.1-0.2,0-0.3c0.1-0.3,0.1-0.5,0.1-0.8
		c0-0.1,0-0.1,0-0.2c0-0.2,0-0.5,0-0.7c-0.1-0.5-0.6-0.7-0.8-1.1c-0.3,0-0.5-0.3-0.8-0.5c-0.6-0.3-1.2-0.6-1.8-0.8
		c0,0-0.2,0-0.1-0.1c0,0,0-0.1-0.1,0c-0.3,0.2-0.5,0-0.7,0c-0.3-0.2-0.6-0.3-0.9-0.3c-0.2,0.2-0.1,0.1-0.2-0.1c0,0,0,0,0-0.1
		c-0.1,0.3-0.4,0.3-0.6,0.1c-0.3-0.1-0.6-0.2-0.9-0.2c-0.1,0-0.3,0-0.4,0c-0.3-0.1-0.6-0.2-0.8-0.1c-0.3,0-0.5-0.1-0.8-0.1
		c-0.7,0.2-1.7-0.1-2.4-0.1c-0.3,0-0.6,0.1-0.8,0c-0.6-0.2-1.2-0.2-1.7-0.1c-0.3,0.1-0.6,0.1-0.8,0c-0.6,0.2-1.1,0.2-1.7,0.3
		c-0.3,0.1-1.3-0.1-1.3,0.1c0.1-0.5-3.3,1.4-3.1,1.3c-0.1,0.3-0.4,0.4-0.5,0.6c-0.4,0.4-0.7,0.8-1.1,1.3c-0.3,0.4-0.4,0.8-0.5,1.3
		c-0.1,0.4,0,0.7-0.1,1.1c0,0.1-0.1,0.3-0.1,0.4C133.2,208.7,133.3,208.8,133.4,209z M139.7,205.3c-0.3,0.6-1.3,0.8-1.7,1.4
		c-0.1,0.1-0.2,0.1-0.3,0.2c0,0.2-0.2,0.4-0.3,0.5c-0.2,0.2-0.3,0.5-0.6,0.4c0.1-0.4,0.3-0.8,0.5-1.1c0.2-0.4,0.5-0.7,0.8-1
		c0.1-0.1,0.9-0.4,0.9-0.7C139.1,204.5,139.9,204.9,139.7,205.3z M138.1,203.8c0.1,0,0.2-0.1,0.3-0.1c0,0,0,0,0,0l0,0c0,0,0,0,0,0
		c0,0,0,0,0,0c0,0,0,0,0,0c0,0,0,0,0,0c0.2-0.1,0.4-0.2,0.6-0.3c0.1-0.2,1-0.1,1.1,0c0.1,0.2,0,0.3-0.2,0.4c-0.1,0-0.3,0-0.4,0
		c0.1,0.1-0.4,0-0.7,0c0.1,0.2-0.2,0.7-0.4,0.3c0-0.1-0.2-0.1-0.3,0C137.9,204.4,137.5,203.7,138.1,203.8z M137,204.5
		c0.2-0.3,0.6-0.3,0.8-0.1c0.2,0.1-0.4,0.3-0.6,0.4c-0.1,0.1-0.4-0.1-0.4,0.2c0,0-0.2,0-0.3,0.1C136.7,204.8,136.9,204.7,137,204.5z
		 M135.9,206c-0.1,0.1-0.2,0.2-0.3,0.1C135.5,204.8,136,206,135.9,206z M135,207.3c0-0.5,0.2-0.8,0.5-1.1c0.2,0,0.3,0.1,0.2,0.3
		c-0.1,0.2-0.2,0.3-0.3,0.5c-0.2,0.4-0.4,0.8-0.1,1.2C134.9,207.9,134.9,207.7,135,207.3z"/>
	<path class="st0" d="M132.6,217.4C132.6,217.4,132.6,217.4,132.6,217.4C132.6,217.4,132.6,217.4,132.6,217.4z"/>
	<path class="st0" d="M119.5,225.7c0.1-0.1,0.2-0.2,0.3-0.2c-0.1-0.3,0-0.5,0.3-0.5c0.1,0,0.1,0,0.1-0.1c0.1-0.5,0.3-0.8,0.8-1.1
		c0.5-0.6,1-1.2,1.6-1.7c0.2-0.2,0.4-0.4,0.7-0.6c0.2-0.3,0.6-0.5,0.9-0.6c0.2-0.1,0.4-0.1,0.6-0.3c0-0.4,0.7-0.4,1-0.4
		c-0.1-0.1,0.1-0.3,0.1-0.3c0.1-0.1,0.2-0.1,0.3-0.2c0-0.1,0.2-0.1,0.3-0.1c0.1,0,0,0.1,0.1,0.2c0.1-0.1,0.1-0.3,0.3-0.2
		c0,0,0,0,0,0c-0.1-0.3,0.3,0,0.3-0.2c0.1,0.1,0.2,0.1,0.2-0.1c0.2,0,0.4-0.1,0.5-0.2c0.1-0.1,0.3-0.1,0.4-0.1
		c0.1-0.1,0.3-0.2,0.4-0.3c0.2-0.1,0.4-0.1,0.7-0.1c0.1,0,0.3-0.2,0.3,0.1c0.1-0.3,0.5-0.4,0.7-0.3c-0.1-0.2,0.8-0.3,0.7-0.3
		c0.1,0,0.2,0.1,0.2-0.1c0-0.2,0.5-0.2,0.7-0.2c0.3,0,0.4-0.1,0.5-0.3c0,0,0-0.1,0-0.1c-0.1,0-0.1,0.2-0.2,0.1
		c-0.1-0.1-0.3-0.1-0.5-0.1c-0.3,0-0.7,0-1,0c-0.5,0-0.9-0.1-1.4,0c-0.6,0.1-1.4-0.1-1.9,0.2c-0.3,0.1-0.6,0.1-0.9,0.1
		c-0.8,0.3-1.6,0.5-2.4,0.8c-0.1,0.1-0.3,0-0.3,0.1c-0.2,0.3-0.6,0.5-0.9,0.7c-0.2,0.2-0.5,0.4-0.8,0.6c-0.1,0.1-0.2,0.2-0.3,0.2
		c-0.4,0-0.5,0.5-0.9,0.6c-0.3,0.1-0.4,0.3-0.5,0.6c0,0.1-0.1,0.2-0.2,0.2c-0.3,0.2-0.5,0.4-0.7,0.6c-0.2,0.2-0.4,0.4-0.6,0.7
		c-0.3,0.4-0.6,0.8-0.8,1.3c-0.2,0.5-0.3,0.9-0.3,1.5c-0.1,0.3,0,0.7-0.1,1C117.9,229,119.1,226,119.5,225.7z"/>
	<path class="st0" d="M169.9,227.6c-0.1-0.4-0.2-0.8-0.3-1.2c0-0.1,0-0.1-0.1-0.1c-0.1,0-0.1,0-0.1-0.1c-0.3-0.3-0.5-0.7-0.8-1
		c-0.4-0.2-0.6-0.5-0.6-0.9c0-0.1-0.2,0.1-0.3,0c-0.1-0.2-0.3-0.3-0.4-0.4c-0.1-0.1-0.4-0.1-0.4-0.3c-0.2-0.3-0.5-0.5-0.8-0.6
		c-0.2-0.2-0.4-0.4-0.7-0.6c-0.2-0.1-0.2-0.3-0.3-0.4c-0.4-0.2-0.7-0.4-1.1-0.6c-0.3-0.1-0.7-0.2-1-0.4c-0.2,0-0.3-0.2-0.5-0.2
		c-0.2,0-0.4-0.2-0.7-0.2c-0.4-0.1-0.7-0.2-1.1-0.3c-0.3-0.1-0.7-0.2-1-0.2c-0.4-0.1-0.8-0.1-1.2-0.2c-0.1,0-0.1,0.1-0.2,0
		c-0.1-0.1-0.2-0.1-0.3-0.1c-0.2-0.2-0.2-0.5,0-0.8c0.1,0.2,0.2,0.3,0.3,0.4c0.3,0.1,0.6,0.2,0.8,0.2c0.2,0,0.4,0.1,0.5,0.1
		c0.4,0.1,0.9,0.1,1.3,0.2c0.5,0.1,0.9,0.3,1.4,0.4c0.4,0.1,0.9,0.2,1.3,0.4c0.1,0.1,0.1,0.2,0.2,0.2c0.3,0,0.5,0.3,0.8,0.3
		c0.1,0,0,0.2,0.1,0.2c0.2-0.1,0.3,0.1,0.4,0.1c0.2,0.2,0.5,0.3,0.7,0.5c0.2,0.2,0.4,0.3,0.6,0.4c0.2,0.1,0.3,0.3,0.5,0.4
		c0.3,0.2,0.5,0.4,0.7,0.6c0.2,0.3,0.4,0.5,0.7,0.5c0.1,0,0-0.1,0-0.2c0.1-0.3-0.1-0.5-0.1-0.7c0-0.2-0.1-0.5-0.1-0.7
		c-0.1-0.3-0.3-0.6-0.4-0.9c0,0,0,0,0-0.1c-0.3-0.3-0.3-0.7-0.6-1c-0.1-0.1-0.1-0.3-0.2-0.4c-0.2-0.2-0.3-0.4-0.5-0.6
		c-0.3-0.4-0.6-0.6-1-0.8c0-0.1,0.2,0,0.2-0.1c-0.2,0-0.4,0-0.6-0.1c-0.4-0.3-0.8-0.5-1.3-0.6c-0.4-0.1-0.8-0.3-1.1-0.5
		c-0.2-0.1-0.5-0.2-0.8-0.3c-0.2-0.1-0.5-0.1-0.7-0.2c0,0-0.1-0.1-0.1,0c-0.2,0-0.4-0.1-0.6-0.2c-0.2-0.1-0.5,0-0.6-0.3
		c-0.2,0.2-0.5,0.2-0.8,0.1c0,0,0,0,0,0c-0.1-0.1-0.4,0-0.4,0c0-0.1-0.2-0.1-0.2-0.2c0,0,0,0,0,0c-0.1-0.1-0.2-0.2-0.2-0.1
		c-0.1,0.3,0,0.5,0.1,0.7c-0.1-0.1-0.2-0.3-0.4-0.3c0,0.2-0.1,0.5-0.1,0.7c0,0.2-0.1,0.5-0.3,0.6c0,0-0.3,0.7-0.3,0.8
		c-0.2,0.3-0.5,0.6-0.5,1c-0.1,0.1-0.2,0.2-0.3,0.3c-0.1,0.2-0.3,0.2-0.4,0.4c-0.2-0.1-0.2,0.2-0.3,0.3c-0.2,0.2-0.3,0.4-0.6,0.5
		c-0.1,0.1-0.2,0.3-0.4,0.1c-0.1,0-0.3,0.1-0.4,0.1c-0.2,0-0.3,0.1-0.3,0.2c-0.3,0.3-0.6,0.4-1,0.4c-0.1,0-0.3,0.1-0.3,0.2
		c-0.1,0.2-0.2,0.3-0.4,0.3c-0.5,0.1-0.9,0.3-1.4,0.3c0,0-0.1,0-0.1,0c-0.1-0.1-0.2,0-0.3,0.1c0,0.1-0.1,0.1-0.1,0.1
		c-0.2,0.1-0.2-0.1-0.4-0.1c0,0.2,0,0.1-0.1,0.2c-0.2,0.1-0.3,0-0.4,0c-0.3,0-0.5,0-0.8,0c-0.3,0.2-0.5,0-0.8,0
		c-0.3,0.1-0.6,0-0.9,0c-0.4,0-0.8,0-1.1-0.1c-0.1,0-0.2,0.1-0.3,0.1c-0.1,0-0.1,0-0.2,0c-0.2,0-0.5,0.1-0.7,0
		c-0.2-0.1-0.4-0.1-0.6-0.1c-0.3-0.1-0.7-0.1-1-0.1c-0.3,0-0.6,0.1-0.8,0.1c0,0-0.5-0.4-0.4-0.2c0.1,0.2,0,0.1-0.1,0.1
		c-0.2,0-0.4-0.1-0.6-0.1c-0.5,0-1.1-0.1-1.6-0.3c-0.5-0.1-1.1-0.3-1.6-0.5c-0.2,0-0.4,0-0.6-0.2c-0.3-0.2-0.7-0.3-1-0.5
		c0,0-0.1,0-0.1,0c-0.1-0.1-0.3,0-0.4-0.1c-0.3-0.2-0.6-0.5-0.9-0.7c-0.4-0.3-0.8-0.7-1.2-1c-0.4-0.2-0.8-0.2-1.3-0.2
		c-0.3-0.1-0.7-0.1-1,0c-0.1,0-0.2,0-0.3,0.1c-0.2,0.1-0.5,0.1-0.7,0.1c-0.9,0.1-0.2,0.7-0.3,0.6c-0.1,0-0.3,0-0.4-0.1
		c-0.1-0.1-0.3-0.3-0.4-0.2c-0.4,0.2-0.8,0.2-1.2,0.3c-0.1,0-0.2,0.2-0.3,0.1c-0.4,0-0.8,0.1-1.2,0.3c-0.2,0.1-0.4,0-0.5,0.2
		c-0.2,0.3-0.6,0.4-0.9,0.5c-0.1,0.1-0.3,0.2-0.5,0c0.2,0.2,0,0.1,0,0c0,0.1,0,0.2-0.1,0.2c-0.1,0-0.1,0.2-0.3,0.1
		c0,0.2-0.7,0.5-0.8,0.6c-0.2,0.1-0.3,0.4-0.6,0.4c0,0-0.1,0-0.1,0c-0.2,0.3-0.4,0.4-0.6,0.7c-0.3,0.1-0.4,0.3-0.5,0.6
		c-0.2,0-0.1,0.2-0.3,0.3c-0.2,0.1-0.3,0.2-0.4,0.4c-0.2,0.4-0.5,0.8-0.8,1.1c-0.1,0.2-0.2,0.4-0.3,0.6c-0.3,0.3-0.5,0.6-0.6,1
		c-0.4,0.8,0.1-0.3-0.6,1.1c-0.2,0.5-0.3,1.1-0.3,1.6c-0.1,0.1,1.1,1.9,0.5,1.1c0.2,0.3,0.4,0.7,0.6,1.1c0.1,0.1,0.2,0.3,0.1,0.5
		c-0.2,0.4,0.1,0.7,0.2,1c0.1,0.4,0.2,0.8,0.1,1.2c0.1,0.2,0.1,0.3,0.1,0.5c0.1,0.1,0.1,0.2,0.1,0.4c0,0.4,0.1,0.7,0.3,1.1
		c0.1,0.2,0.2,0.5,0.3,0.7c0.1,0.2,0.1,0.5,0.5,0.5c0,0,0.1,0.1,0.1,0.1c0,0.1,0.3,0.5,0.4,0.6c0.1,0,0.1,0.2,0.2,0.1
		c0.1,0,0.2,0,0.2,0.1c0,0.4,0.4,0.5,0.6,0.6c0.2-0.1,0.2-0.3,0-0.6c-0.1-0.3-0.1-0.6-0.2-1c-0.1-0.4-0.2-0.7-0.2-1.1
		c-0.1-0.6-0.1-1.1-0.2-1.7c0.1-0.3,0.1-0.5,0-0.7c-0.1-0.1-0.1-0.3-0.2-0.4c0.6,0.2,0.9,0.7,1.1,1.3c0,0,0.1,0,0.1,0.1
		c0,0.2,0.1,0.4,0.3,0.6c0.3,0.2,0.7,0.4,1,0.5c0.4,0,0.7,0.2,1.1,0.2c0.2,0,0.5,0.2,0.7,0.3c0.1,0,0.3,0,0.3,0.2c0,0,0,0,0,0
		c0.3,0,0.2,0.2,0.2,0.3c0.1-0.1,0.3-0.1,0.3,0.1c0.1,0.2,0.3,0.3,0.5,0.5c0.1,0.1,0.1,0.3,0.3,0.4c0.1,0,0,0.2-0.1,0.2
		c-0.7,0-1.2-0.3-1.6-1c-0.2-0.1-0.4-0.2-0.6-0.3c-0.1-0.1-0.2-0.1-0.3-0.1c-0.2-0.1-0.5-0.1-0.8-0.1c-0.2,0-0.3-0.2-0.4-0.1
		c0.8-0.3-1.4-0.3-0.9,0c0.1,0.1,0.1,0.1,0.1,0.2c0,0.2,0,0.4,0.1,0.6c0.1,0.2,0.2,0.5,0.2,0.7c0.1,0.4,0.2,0.8,0.3,1.2
		c0.2,0.4,0.4,0.7,0.6,1.1c0.1,0.2,0.2,0.5,0.4,0.7c0.1,0.1,0.2,0.3,0.3,0.4c0.1,0.2,0.4,0.4,0.5,0.6c0.2,0.3,0.6,0.5,1,0.8
		c0.6,0.5,1.5,0.8,2.2,1.1c0.2,0.1,0.3,0,0.2-0.2c-0.4-1.2-0.2-2.6-0.6-3.7c-0.1-0.4,0.1-0.7,0-1.1c-0.1-0.2-0.1-0.4,0-0.7
		c0.2,0.2,0.4,0.4,0.7,0.5c0-0.3,0-0.6-0.1-0.8c0.1,0.2,0.3,0.4,0.5,0.5c0.2,0.2,0.5,0.5,0.6,0.7c0.1,0.4,0.4,0.5,0.6,0.6
		c0.3,0.2,0.6,0.3,0.9,0.3c0.3,0,0.7,0,1,0c0.5,0,0.9,0,1.4,0.1c0.3,0.1,0.6,0.1,1,0.2c0.5,0.2,1.1,0.2,1.5,0.7c-0.1,0-0.2,0-0.3,0
		c-0.3,0-0.5,0-0.8,0c-0.5,0-1-0.1-1.5-0.2c-0.3-0.1-0.5,0-0.8,0c-0.4-0.1-0.4,0-0.7,0.1c-0.2,0-0.4,0.1-0.6,0.1
		c-0.3,0-0.6,0-0.9-0.1c-0.1-0.1-0.3-0.1-0.4-0.2c-0.1,0-0.3,0-0.3-0.2c0-0.1,0-0.1-0.1-0.1c-0.1,0-0.2-0.1-0.3,0.1
		c-0.1,0.2,0,0.3,0,0.5c0,0.2,0,0.4,0.1,0.6c0.1,0.4,0.1,0.9,0.3,1.3c0.1,0.3,0.2,0.6,0.3,1c0.1,0.3,0.3,0.7,0.6,0.9
		c0.2,0.1,0.3,0.3,0.5,0.4c0.3,0.2,0.6,0.5,1,0.8c0.1,0.1,0.2,0.2,0.4,0.2c0.2,0.1,0.3,0.3,0.6,0.3c0.2,0,0.3,0.2,0.4,0.3
		c0.1,0-0.1,0.2,0,0.1c0.2-0.1,0.3,0,0.4,0.1c0.2,0.1,0.4,0.1,0.5,0.2c0.1,0.1,0.2,0.1,0.4,0.2c0.1,0,0.4-0.1,0.4,0.2
		c0-0.2,0.1-0.2,0.2-0.1c0.2,0,0.4,0,0.6,0c0.1,0,0.2,0.1,0,0.2c-0.5,0,0.5,0.2,0.4,0.2c0.3,0.1,0.5,0,0.8,0c0.2,0,0.5,0.2,0.7,0
		c0.2,0.1,0.3,0.3,0.5,0.1c0.2,0.1,0.4,0.1,0.6,0c0-0.2-0.2-0.1-0.3-0.2c-0.1-0.1-0.2-0.2-0.3-0.3c-0.4-0.2-0.2-0.2-0.5-0.4
		c-0.3-0.3-0.6-0.7-0.8-1.1c0-0.3-0.1-0.6-0.3-0.8c-0.3-0.3-0.4-0.6-0.3-1c-0.1-0.3,0-0.6-0.1-0.9c0-0.1,0-0.2,0-0.3
		c0.2-0.2,0.1-0.5,0.1-0.7c0-0.3,0-0.5,0-0.8c0-0.2,0-0.5-0.1-0.6c0.2-0.1,0.5-0.1,0.7,0.1c0,0.2,0.1,0.3,0.1,0.5
		c0.1,0.5,0.1,0.9,0.1,1.4c0,0.1-0.2,0.1-0.1,0.2c0.1,0.1,0.1,0.3,0.1,0.5c0,0.5,0.1,1,0.3,1.4c0,0.3,0.6,0.7,0.5,1.1
		c0.2,0,0.3,0.2,0.4,0.4c0.3,0.3,0.5,0.7,0.8,0.9c0.3,0.1,0.4,0.3,0.6,0.4c0.3,0.2,0.5,0.6,0.8,0.7c0.1,0.1,0.3,0.2,0.4,0.2
		c0.2,0,0.3,0,0.5,0.1c0.1,0,0.3,0.1,0.4,0.1c0.4-0.1,0.9,0,1.3,0c0.4,0,0.8-0.1,1.2,0c0.2-0.1,0.3-0.3,0.3-0.5
		c0.2-0.4,0.3-0.8,0.4-1.2c0-0.1,0.1-0.1,0.1-0.2c-0.1-0.2,0.1-0.3,0.1-0.5c0-0.2,0.1-0.4,0.2-0.5c0-0.4,0.1-0.7,0.1-1.1
		c0-0.2,0-0.4,0.1-0.6c0.1-0.4,0-0.8,0-1.3c0.2,0,0.2,0.2,0.4,0.3c-0.1,0.3,0.1,0.5,0.1,0.8c0,0.5,0,0.9-0.1,1.4
		c-0.1,0.2,0,0.4-0.1,0.6c0,0.1,0,0.2-0.2,0.3c0.1,0.1,0.4,0.2,0.1,0.4c0.1,0.2,0.1,0.4-0.1,0.5c-0.1,0.1-0.4,1.4-0.3,1.4
		c0,0,0,0.1,0.1,0.1c0.3,0,0.7,0,1-0.1c0.3,0,0.6-0.1,0.8-0.1c0.4-0.1,0.8-0.1,1.2-0.3c0.2-0.1,0.5-0.2,0.7-0.2
		c0.2,0,0.2-0.1,0.2-0.2c-0.1-0.1-0.1,0-0.2,0c-0.3,0-0.4-0.1-0.1-0.2c0.4-0.2,0.8-0.3,1.1-0.6c0.3-0.2,0.6-0.5,0.8-0.7
		c0.2-0.2,0.4-0.4,0.6-0.6c0.4-0.5,0.8-0.9,1.1-1.5c0.1-0.2,0.1-0.4,0.2-0.5c0.2-0.2,0.2-0.5,0.3-0.7c0.2-0.4,0.3-0.8,0.4-1.2
		c-0.1,0.1-0.2,0.1-0.3,0c0,0,0,0-0.1,0c0,0.2-0.2,0.2-0.3,0.2c-0.2,0.1-0.4,0.1-0.6,0.2c-0.4-0.2-0.8,0-1.2-0.1c-0.1,0-0.3,0-0.4,0
		c-0.3-0.1-0.6-0.2-0.9-0.3c-0.1,0-0.2-0.1-0.3-0.1c-0.2-0.2-0.4-0.5-0.7-0.8c-0.1-0.1,0-0.1,0.1-0.1c0,0.1,0.1,0.1,0.2,0.1
		c0.6,0.2,1.2,0.4,1.8,0.6c0.1,0,0.2-0.1,0.3,0c0.2,0.1,0.4,0,0.6,0c0.4,0,0.9-0.2,1.2-0.4c0.3-0.2,1.2-0.5,1.5-0.6
		c0.2-0.1,0.3-0.2,0.4-0.3c0.3-0.2,0.7-0.3,1-0.4c0.5-0.2,0.9-0.4,1.4-0.5c0.5-0.2,0.9-0.3,1.4-0.4c0.1,0,0.3,0,0.4,0
		c0.2-0.1,0.4-0.1,0.6-0.1c0.3,0,0.5-0.1,0.6-0.4c0.4-0.2,0.5-0.7,0.8-1c0.2-0.2,0.4-0.5,0.7-0.7c0.3-0.2,0.2-0.2,0.1-0.2
		c-0.5,0.2-0.2,0,0,0c0.2-0.1,0.4-0.1,0.8-0.3c0.4-0.2,0.9-0.4,1.3-0.5c0.2-0.1,0.5-0.2,0.7-0.2c0.3-0.1,0.6-0.2,0.8-0.3
		c0.3-0.2,0.5-0.6,0.8-0.9c0.2-0.3,0.4-0.6,0.5-0.9c0.2-0.4,0.5-0.8,0.7-1.2c0-0.1,0.2-0.1,0.2-0.3c0-0.3,0-0.6-0.1-0.8
		c0-0.2,0-0.4,0-0.6c0-0.3,0-0.5-0.1-0.8c0-0.1,0-0.3-0.2-0.3c-0.1,0-0.1-0.1-0.1-0.1c0.2-0.1,0.4-0.1,0.6-0.1
		c0.1,0.1,0.3,0.2,0.4,0.2c0.3,0.1,0.5,0.3,0.6,0.6c0.1,0.1,0.1,0.2,0.1,0.4c0,0.1,0,0.2,0.1,0.2c0.1,0,0.1-0.1,0.1-0.2
		c0.1-0.2,0.1-0.4,0.2-0.7c0.1-0.4,0.2-0.8,0.2-1.2C169.9,228.3,169.8,228,169.9,227.6z M124,233.9c0,0.1-0.1,0.2-0.2,0.2
		c-0.1-0.1-0.1-0.3,0.1-0.4c0,0,0,0,0,0c0-0.1,0.1-0.3,0.1-0.4C124,232.8,124.1,233.6,124,233.9z M132.6,223.2
		c-0.2,0.2-0.4,0.3-0.7,0.4c-0.1,0.1-0.3,0.2-0.4,0.3c-0.2,0.2-0.4,0.2-0.6,0.4c-0.2,0.2-0.4,0.4-0.6,0.6c-0.2,0.2-0.4,0.4-0.7,0.6
		c-0.1,0.1-0.1-0.1-0.2-0.1c0.1,0.1,0,0.2,0,0.4c-0.2,0.4-0.6,0.5-0.8,0.9c-0.3,0.3-0.6,0.6-0.9,1c-0.4,0.4-0.7,0.8-1.1,1.1
		c-0.1,0.1-0.1,0.2-0.2,0.3c-0.1,0.2-0.2,0.4-0.3,0.6c-0.1,0.2-0.2,0.4-0.3,0.5c-0.2,0.2-0.2,0.5-0.4,0.7c-0.1,0.1-0.2,0.3-0.3,0.5
		c-0.3,0.5-0.6,1-0.8,1.6c0-0.1,0.1-0.4-0.2-0.2c0.2-0.1,0.1-0.4,0.4-0.4c-0.1-0.1-0.1,0-0.2,0c0-0.4,0.2-0.7,0.4-1.1
		c0.1-0.2,0.2-0.5,0.3-0.7c0.2-0.4,0.4-0.8,0.7-1.2c0.1,0,0.2-0.2,0.2-0.4c0.1-0.1,0.1-0.2,0.2-0.3c0.2,0.2,0.1,0,0.2-0.1
		c0-0.2,0.1-0.4,0.3-0.5c0.1-0.2,0.2-0.4,0.3-0.6c0.1-0.1,0.2-0.2,0.2-0.4c0-0.3,0.1-0.3,0.3-0.2c0-0.3,0.2-0.6,0.5-0.6
		c0,0,0.1,0,0,0c-0.2-0.6,1.3-1.3,1.6-1.6c0-0.1,0-0.2-0.1-0.2c0.1-0.1,0.3-0.3,0.3-0.3c0.2,0.1,0.1-0.1,0.2-0.2c0,0,0,0,0,0
		c0.1,0,0-0.1,0.1-0.1c0.1,0.1-0.1,0.2,0,0.3c0-0.1,0.3,0,0.1-0.3c0-0.1,0-0.2,0.2-0.2c0.1,0,0.1,0,0.1-0.2c0.2-0.3,0.4-0.5,0.6-0.7
		c0-0.1,0.2,0,0.2-0.1c0.3,0.1,0.1-0.2,0.2-0.2c0.1,0,0.1,0.1,0.1,0.2c-0.4-1.2,0.4-0.3,0.3-0.3c0-0.4,0.4-0.4,0.5-0.6
		c0.2,0,0.4-0.1,0.5-0.3c0.3-0.1,0.5-0.2,0.6-0.4c0.1-0.2,0.4-0.3,0.6-0.3c0.2,0.2,0.4,0.4,0.6,0.6c0.2,0.1,0.1,0.2,0,0.3
		c-0.2,0.2-0.4,0.2-0.6,0.3c-0.1,0.2-0.3,0.2-0.5,0.2c-0.1,0-0.2,0.1-0.3,0.2C133.2,222.7,132.9,222.9,132.6,223.2z M134.4,228.9
		c-0.1,0,0,0.2,0,0.3c0,0.1,0,0.2-0.1,0.3c-0.1,0.1-0.1,0.3-0.1,0.4c-0.1,0.3-0.2,1.2-0.5,1.4c-0.1,0.1-0.2,0.3-0.1,0.5
		c0,0.2-0.2,0.3-0.2,0.5c-0.1-0.3,0-0.2,0,0c-0.1-0.3,0.1-1.1,0.2-1.5c0.1-0.3,0.2-0.5,0.2-0.8c0-0.2,0.2-0.3,0.2-0.4
		c0-0.4,0.2-0.7,0.4-1C134.4,228.8,134.5,228.8,134.4,228.9z M134.4,228.5C134.9,228.4,134.5,229,134.4,228.5L134.4,228.5z
		 M137.7,224.2c-0.1,0.1-0.2,0.3-0.3,0.4c-0.3,0.5-0.7,0.9-1.1,1.4c-0.1,0.3-0.3,0.5-0.6,0.5c0.1,0,0.1,0.1,0,0
		c0.1,0.1,0.1,0.1,0.1,0.2c-0.3,0.4-0.5,0.8-0.8,1.3c0,0.1,0,0.1-0.2,0.1c-0.2-0.1,0,0.2-0.3,0.1c-0.1,0,0.4-0.8,0.4-0.9
		c0.3-0.5,0.6-1.1,0.9-1.6c0.2-0.3,0.3-0.5,0.5-0.8c0.1-0.2,0.3-0.5,0.5-0.7c0.2-0.3,0.3-0.6,0.3-0.9c0.1,0,0.1,0,0.2,0.1
		c0.1,0.1,0.2,0.2,0.3,0.3C137.9,223.8,137.9,224,137.7,224.2z M144.5,225.1c0.3,0.2,0.5,0.4,0.6,0.6c0.2,0.2,0.3,0.5,0.4,0.8
		c0.1,0.1,0,0.3,0.1,0.4c0.1,0.3,0.2,0.6,0.4,0.8c0.1,0.2,0,0.3,0,0.5c0.2,0.4,0.1,0.9,0.2,1.4c0,0.5,0,1,0,1.5
		c0,0.1,0.1,0.2-0.1,0.3c0,0.1-0.1,0.2,0.1,0.2c0.1,0,0.1,0.1,0.1,0.1c0,0.2,0,0.4-0.1,0.6c0.1-0.1-0.3,1.5,0,1c0,0,0,0.1,0,0.1
		c0.1,0.2,0,0.4-0.1,0.6c-0.1,0.5-0.2,1.2-0.3,1.5c0-0.1,0-0.1-0.2-0.2c-0.1,0,0-0.1,0-0.1c-0.1-0.6-0.2-1.2-0.2-1.9
		c0,0,0-0.1,0-0.1c0-0.1,0-0.2-0.1-0.4c0.1-0.3,0-0.6,0-0.9c0-0.2,0-0.4,0-0.6c0-0.3,0-0.5-0.1-0.8c0-0.4,0-0.8-0.1-1.2
		c-0.1-0.3,0-0.6-0.1-0.9c0-0.1,0-0.2,0-0.3c-0.2-0.1-0.1-0.3-0.1-0.4c0-0.1,0-0.2-0.1-0.3c-0.1-0.1,0-0.2-0.1-0.3
		c-0.2-0.3-0.1-0.8-0.3-1.1c-0.2-0.3-0.3-0.7-0.3-1.1C144.5,225,144.5,225.1,144.5,225.1z M148.3,241.5c-0.2,0.1-0.4,0.1-0.6,0.2
		c-0.1,0-0.2,0-0.4,0c-0.4,0.2-0.7,0.1-1.1,0c-0.1,0-0.1-0.1-0.2,0c-0.2,0-0.4,0.1-0.6,0.1c-0.2,0.1-0.4,0.1-0.6,0.3
		c-0.2,0.2-0.6,0.3-0.9,0.4c-0.3,0.1-0.7,0.2-1,0.3c-0.2,0-0.5,0.1-0.7,0.2c-0.3,0.1-0.6,0.2-0.9,0.2c-0.3,0-0.6,0-0.8,0
		c-0.1,0-0.2-0.1-0.3-0.1c-0.2,0-0.3,0-0.5-0.2c0-0.1-0.2-0.1-0.3-0.1c-0.4-0.2-0.7-0.4-0.9-0.8c-0.1-0.2-0.2-0.5-0.3-0.7
		c0-0.1,0-0.1,0-0.2c0.1,0.1,0.2,0.1,0.3,0.3c0.1,0.2,0.3,0.1,0.4,0.2c0.2,0.2,0.5,0.3,0.8,0.5c0.3,0.2,0.6,0.3,1,0.3
		c0.2,0,0.5,0,0.7,0c0.1,0,0.3-0.1,0.4-0.1c0.2-0.1,0.4,0,0.7-0.2c0.2-0.1,0.5-0.2,0.8-0.2c0.4-0.1,0.8-0.2,1.1-0.4
		c0.4-0.2,0.8-0.2,1.2-0.3c0.1,0,0.1,0,0.2,0c0.4,0.1,0.8,0,1.2,0c0.2,0,0.4,0.2,0.7,0.1C147.8,241.2,148.8,241.4,148.3,241.5z
		 M154.6,231.3c-0.2-0.2-0.3-0.3-0.1-0.5c0,0.1-0.2,0,0,0c-0.2,0-0.2-0.1-0.3-0.3c-0.1-0.3-0.3-0.5-0.5-0.7
		c-0.3-0.4-0.6-0.8-0.9-1.2c-0.3-0.2-0.4-0.4-0.5-0.7c0-0.2-0.2-0.1-0.2-0.2c-0.1,0-0.1-0.1-0.1-0.1c-0.2-0.4-0.5-0.6-0.7-0.9
		c-0.3-0.3-0.6-0.6-0.9-0.9c-0.1-0.1-0.1-0.2-0.1-0.3c0.2-0.1,0.2-0.3,0.1-0.5c0.2-0.5,0.4-0.6,0.8-0.3c0,0.2,0,0.5,0,0.7
		c0.4,0.3,0.7,0.6,1,1c0.2,0.2,0.4,0.4,0.5,0.7c0.1,0.2,0.4,0.3,0.4,0.6c0.2,0.1,0.3,0.3,0.4,0.5c0.1,0.1,0.2,0.2,0,0.3
		c-0.1,0.1,0,0.2,0.1,0.1c0.2-0.1,0.2,0,0.1,0.1c0,0,0,0.1,0,0.1c0.3,0.2,0.5,0.6,0.7,1c0.1,0.3,0.3,0.5,0.3,0.8
		c0,0.2,0.1,0.3,0.1,0.4c0,0.1,0.1,0.1,0.1,0.1c0,0.1,0.2,0.2-0.1,0.3c-0.1,0,0.1,0.1-0.1,0.2C154.7,231.5,154.6,231.4,154.6,231.3z
		 M155.2,232.5c0-0.1-0.3-0.1-0.1-0.3c0,0,0-0.1,0-0.1c-0.3-0.1-0.2-0.4-0.4-0.6c0.1,0,0.1,0.1,0.1,0.1c0,0.1,0,0.2,0.2,0.1
		c0.1,0.1,0.2,0.2,0.2,0.2C155.3,231,155.4,233,155.2,232.5z M159.5,229.3c-0.2-0.3-0.5-0.6-0.9-0.7c0,0-0.1-0.1-0.1-0.1
		c0.2-0.2,0-0.2-0.1-0.2c-0.4-0.1-0.6-0.4-0.9-0.6c-0.1,0-0.1-0.2-0.2-0.3c-0.2-0.1-0.4-0.3-0.5-0.5c-0.1,0.1-0.1-0.3-0.3-0.1
		c0,0-0.1,0-0.1,0c-0.1-0.3-0.4-0.4-0.7-0.6c-0.4-0.2-0.8-0.5-1-0.8c-0.2-0.2-0.3-0.4-0.6-0.6c0,0,0,0,0-0.1
		c0.1-0.3-0.1-0.5-0.1-0.7c0,0,0-0.1,0-0.2c0.1,0.1,0.4,0.2,0.4,0.5c0.1,0,0.1-0.1,0.2,0c0.1,0.2,0.3,0.3,0.5,0.5
		c0.4,0.4,0.8,0.7,1.2,1c0.2,0.1,0.3,0.3,0.5,0.4c0.2,0.1,0.3,0.2,0.3,0.4c0,0,0,0.1,0.1,0c0.1-0.1,0.2,0,0.1,0.1
		c0,0.1,0,0.1,0.1,0.1c0.1,0.1,0.2,0.1,0.2,0.2c0.3,0,0.3,0.2,0.4,0.4c0.2,0.1,0.3,0.2,0.4,0.4c0.2,0.1,0.3,0.3,0.3,0.5
		c0.2,0.1,0.3,0.2,0.5,0.3c0.2,0.1,0.3,0.3,0.4,0.5C159.7,229.2,159.6,229.2,159.5,229.3z M160.4,230C160.4,230,160.4,230,160.4,230
		C160.4,230,160.4,230,160.4,230c-0.1-0.1-0.2-0.3-0.3,0c-0.1-0.1-0.2-0.1-0.2-0.2c-0.1-0.1-0.2-0.2-0.3-0.3c0,0,0.1-0.2,0.2,0
		c0.1,0.1,0.2,0.1,0.3,0c-0.1,0.1-0.1,0.2,0.1,0.3c0.1,0,0.2,0,0.3,0.1C160.5,229.9,160.5,230,160.4,230z M166.9,229
		c0,0,0-0.1,0-0.2c-0.1,0.1,0,0.2-0.1,0.2c0-0.2-0.1-0.2-0.2-0.2c-0.3-0.2-0.7-1.1-1-1.3c-0.3-0.2-0.6-0.5-0.8-0.8
		c-0.8-1-1.8-1.5-2.8-2.2c0,0,0,0-0.1,0c-0.2-0.2-0.4-0.3-0.6-0.4c-0.1-0.3-0.5-0.3-0.7-0.4c0,0-0.1,0-0.1-0.1c0-0.2-0.1-0.2-0.2,0
		c0-0.2-0.2-0.2-0.4-0.2c0.3,0.1-1.3-0.5-1.3-0.5c0,0,0,0-0.1,0c-0.3-0.3-0.7-0.2-1-0.3c-0.3-0.1-0.6-0.3-0.8-0.6
		c0-0.1-0.1-0.3-0.3-0.2c0.1-0.1,0.1-0.3,0.1-0.5c0.1,0.3,0.4,0.4,0.6,0.6c0,0,0.1,0.1,0.1,0c0.1-0.2,0.2-0.1,0.3-0.1
		c0.4,0.1,0.8,0.2,1.1,0.2c0.2,0,0.3,0.1,0.5,0.2c0.3,0.2,0.6,0.3,0.8,0.4c0.4,0,0.7,0.3,1,0.4c0.1,0,0.2,0.2,0.4,0.2
		c0.3,0.1,0.4,0.4,0.8,0.4c0.1,0,0.3,0.2,0.4,0.3c0.6,0.4,1.2,0.8,1.8,1.3c0.3,0.2,0.5,0.5,0.8,0.7c0.1,0.1,0,0.1,0,0.2
		c0,0,0.1,0,0,0c0.1-0.1,0.1-0.1,0.2,0c0.3,0.3,0.6,0.7,0.9,1.1c0.1,0.1,0.2,0.3,0.3,0.4c-0.1,0,0.2,0.5,0.2,0.5
		c0.1,0.3,0.3,0.5,0.2,0.8C167.1,229.2,167,229.2,166.9,229z"/>
	<path class="st0" d="M139,205.2c0,0.1,0,0.1,0.1,0.1c0.2,0,0.2-0.1,0-0.3C139.1,205.1,139,205.1,139,205.2z"/>
	<path class="st0" d="M132.4,209.6c-0.1,0.6,0,1.2,0.3,1.7c0.3,0.4,0.7,0.8,1.1,1.1c0.2,0.1,0.4,0.3,0.6,0.4c0.7,0.5,1.4,1,2.2,1.4
		c0.6,0.2,1.3,0.4,1.9,0.6c0.6,0.3,1.3,0.5,2,0.6c0.5,0.1,1,0.2,1.5,0.2c0.5,0,1,0.1,1.5,0.2c0.2,0,0.4,0,0.7,0.1
		c0.4,0,0.9,0.1,1.3,0.1c0.6-0.1,1.1,0,1.7-0.1c0.2,0,0.5,0,0.6,0c0.3-0.2,0.5-0.1,0.8-0.1c0.7,0,1.3-0.2,2-0.3
		c0.4-0.1,0.7-0.2,1.1-0.1c0,0,0,0,0,0c0-0.2,0.2-0.1,0.2-0.2c0.2-0.1,0.4,0,0.6-0.2c-0.1-0.3-0.5-0.2-0.7-0.3
		c0.3-0.1,0.5,0,0.8-0.1c0.2-0.1,0.5-0.1,0.7-0.2c0.6-0.4,1.4-0.4,2-0.9c0.4-0.4,0.8-0.7,1.1-1.1c0.2-0.4,0.5-0.7,0.6-1.1
		c0-0.1,0.1-0.3,0.2-0.5c0-0.1,0.1-0.3,0.2-0.4c0.3-0.3,0.2-1.2,0.3-1.6c0-0.4,0-0.8,0-1.2c0-0.1,0-0.2-0.1-0.3c0-0.1-0.1-0.1-0.1,0
		c0.1,0.2,0,0.1-0.1,0.2c0,0,0,0.1,0,0c0.1,0.1,0.1,0.1,0.1,0.2c0,0.3,0,0.5-0.1,0.8c0,0.1,0,0.2,0,0.3c-0.1,0.4-0.2,0.7-0.4,1
		c0,0,0,0.1-0.1,0.1c-0.2,0.1-0.3,0.4-0.3,0.6c0,0.2-0.4,1.5-0.8,1.5c-0.2,0-0.2,0.1-0.3,0.2c-0.1,0.1-0.2,0.2-0.3,0.2
		c-0.2,0.1-0.4,0.2-0.6,0.4c-0.2,0.2-0.4,0.4-0.7,0.5c-0.4,0.1-0.8,0.3-1.2,0.3c0,0-0.1,0-0.1,0.1c0.1-0.2-0.6,0.3-0.5,0.3
		c-0.3-0.1-0.6,0.1-0.8,0.2c-1.1,0.4-2,0.3-3.2,0.5c-0.5,0.1-1,0.1-1.5,0.1c-0.3,0-0.6,0-1,0c-0.1,0.2-0.9-0.2-1.1-0.1
		c-0.3,0.2-0.5,0.2-0.8,0c0,0-0.1,0-0.1,0c-0.3,0.1-0.7,0.1-1,0c-0.4-0.1-0.8-0.1-1.2-0.2c-0.6-0.1-1.3-0.2-1.9-0.3
		c-0.5-0.1-1-0.3-1.4-0.5c-0.2-0.1-0.4-0.2-0.5-0.5c0,0-1.6-1-1.2-0.6c-0.1,0-0.2-0.1-0.2-0.1c-0.5,0-0.9-0.3-1.4-0.6
		c-0.2-0.1-0.3-0.3-0.5-0.4c-0.2-0.1-0.4-0.2-0.4-0.4c-0.1-0.2-0.2-0.3-0.3-0.5c-0.2-0.2-0.2-0.5-0.4-0.7c-0.2-0.2-0.2-0.5-0.3-0.8
		C132.5,208.4,132.3,210.1,132.4,209.6z"/>
</g>
<g>
	<path class="st0" d="M153.8,159.2c-0.5-0.3-1-0.4-1.5-0.4c-0.1,0-0.2,0.1-0.3,0.1c-0.2,0.1-0.3,0.2-0.2,0.4c0,0.2,0.2,0.3,0.3,0.3
		c0.5,0.1,1,0.1,1.5,0.1c0.2,0,0.4,0,0.5-0.2C154.1,159.4,154,159.3,153.8,159.2z"/>
	<path class="st0" d="M152.5,163.1c-0.2-0.2-0.4-0.2-0.7-0.2c-0.4,0-0.7-0.1-1.1,0c-0.1,0-0.3,0.1-0.4,0.1c-0.2,0.1-0.3,0.3-0.2,0.5
		c0,0.2,0.2,0.3,0.4,0.3c0.2,0,0.3,0,0.5,0c0.5-0.1,0.9-0.2,1.4-0.2c0.1,0,0.3,0,0.3-0.2C152.8,163.3,152.6,163.2,152.5,163.1z"/>
	<path class="st0" d="M162.7,78.2c0-0.3,0-0.5,0-0.8c0-0.2,0-0.5-0.1-0.7c-0.1-0.3-0.1-0.5-0.1-0.8c0-0.3,0-0.7-0.2-1
		c-0.3-0.6-0.2-1.4-0.3-2c-0.2-1.7-0.4-3.5-0.6-5.2c-0.1-0.9-0.3-1.8-0.5-2.7c-0.4-1.5-0.8-3.1-1.2-4.6c-0.3-1-0.7-2.1-1.2-3
		c-0.1-0.2-0.3-0.4-0.4-0.6c-0.4-0.4-0.8-0.5-1.3-0.3c-0.2,0.1-0.5,0.3-0.7,0.4c-0.1,0.1-0.3,0.3-0.4,0.4c-0.2,0.2-0.4,0.3-0.6,0.1
		c-0.2-0.1-0.4-0.4-0.3-0.7c0.2-0.6,0.4-1.1,0.7-1.6c0.7-1.1,1-2.4,0.8-3.6c-0.2-1.2-0.6-2.4-1.4-3.5c-0.7-1-1.5-1.9-2.4-2.7
		c-0.7-0.7-1.5-1.3-2.2-1.9c-0.4-0.3-0.8-0.7-1.2-1.1c-0.4-0.4-0.7-0.4-1.2-0.2c-1,0.4-2,0.9-2.9,1.5c-0.2,0.1-0.3,0.2-0.4,0.3
		c-0.9,0.9-1.7,1.9-2.3,3c-0.5,0.9-1.1,1.7-1.5,2.7c-0.4,0.8-0.7,1.7-1,2.6c-0.2,0.8-0.5,1.5-0.8,2.3c-0.4,0.8-0.6,1.7-0.8,2.6
		c-0.3,1.3-0.6,2.7-0.9,4c-0.2,1-0.4,2-0.3,3c0.1,0.7,0.3,1.5,0.4,2.2c0.3,1.4,1,2.6,1.6,3.8c0.6,1.3,1.2,2.6,1.5,4
		c0.1,0.2,0.1,0.4,0.1,0.6c0,0.4-0.2,0.5-0.6,0.4c-0.4-0.1-0.7-0.4-0.9-0.7c-0.4-0.6-0.8-1.2-1.2-1.8c-0.4-0.5-0.8-1-1.2-1.5
		c-0.1-0.1-0.2-0.2-0.3-0.3c-0.2-0.1-0.5-0.1-0.6,0.2c-0.1,0.1-0.2,0.3-0.2,0.5c-0.1,0.6-0.2,1.2-0.3,1.7c-0.1,0.6-0.3,1.1-0.3,1.7
		c-0.1,1.9-0.3,3.7-0.3,5.6c0,1.5,0.2,2.9,0.5,4.4c0.3,1.3,0.5,2.5,0.9,3.7c0.3,1.2,0.3,2.4,0.3,3.6c0,0.7,0,1.5,0.1,2.2
		c0,1.2,0.1,2.3,0.1,3.5c0,0.6,0.1,1.2,0.1,1.8c0,1,0.2,2.1,0.4,3.1c0.2,1,0.4,2,0.9,2.9c0.8,1.6,1.4,3.2,1.9,4.9
		c0.2,0.7,0.4,1.4,0.3,2.2c0,0.5-0.2,0.7-0.7,0.5c-0.1,0-0.2-0.1-0.3-0.1c-0.4-0.1-0.5,0-0.5,0.4c0.1,0.4,0.2,0.8,0.3,1.2
		c0.1,0.5,0.2,1,0.1,1.4c-0.1,0.3-0.2,0.6-0.6,0.7c-0.4,0.1-0.7-0.1-0.9-0.4c-0.1-0.2-0.2-0.4-0.4-0.5c-0.1-0.1-0.2-0.3-0.3-0.4
		c-0.4-0.4-0.7-0.3-0.9,0.2c-0.1,0.4-0.2,0.9-0.3,1.4c-0.2,0.6-0.3,1.3-0.4,1.9c-0.1,0.8-0.3,1.7-0.5,2.5c-0.2,0.7-0.3,1.4-0.2,2.1
		c0.1,0.8,0.2,1.6,0.4,2.4c0.2,0.9,0.4,1.8,0.7,2.6c0.7,1.6,1.4,3.3,2.3,4.8c0.3,0.5,0.6,0.9,0.8,1.5c0.3,0.8-0.3,1.2-0.9,1.2
		c-0.8-0.1-1.4-0.5-2-0.9c-0.2-0.1-0.4-0.3-0.6-0.4c-0.5-0.3-0.9-0.2-0.9,0.4c0,1.1,0,2.1,0.2,3.2c0.1,0.7,0.3,1.4,0.4,2.1
		c0.1,0.7,0.3,1.4,0.6,2.1c0.3,0.7,0.6,1.3,0.8,2c0.3,0.8,0.9,1.4,1.3,2.2c0.4,0.7,1,1.3,1.5,1.9c0.2,0.2,0.3,0.4,0.4,0.6
		c0.2,0.4,0.1,0.7-0.2,0.9c-0.2,0.1-0.5,0.2-0.8,0.3c-0.5,0.2-0.6,0.4-0.4,0.9c0.4,0.8,0.7,1.6,1.2,2.3c0.2,0.3,0.4,0.7,0.7,1
		c0.7,1,1.5,2,2.8,2.5c0.6,0.2,1.1,0.6,1.6,0.8c0.1,0,0.1,0.1,0.2,0.1c0.5,0.2,0.8,0,0.8-0.5c0-1,0-1.9,0-2.9c0-0.7,0.1-1.5,0.1-2.2
		c0-1.1,0.1-2.2,0.1-3.2c0-1.2-0.1-2.4-0.1-3.5c0-1.1,0.1-2.1,0.1-3.2c0-1.3,0.1-2.6,0.1-3.9c0-1.1,0.1-2.2,0.1-3.2
		c0-0.8-0.1-1.5-0.1-2.3c0-1.1-0.1-2.2-0.1-3.3c0-0.4,0-0.9-0.1-1.3c-0.1-0.9-0.1-1.9-0.1-2.8c-0.1-1.3-0.1-2.7-0.2-4
		c-0.1-1-0.1-2-0.1-3c0-1-0.1-2.1-0.2-3.1c-0.1-1.3-0.1-2.7-0.2-4c-0.1-1.1-0.2-2.2-0.2-3.3c-0.1-1.2-0.2-2.5-0.1-3.7
		c0.1-1.3,0.1-2.6,0.1-3.9c0-1.1,0-2.3,0-3.4c0-0.4-0.1-0.9-0.1-1.3c0-1.6-0.2-3.1-0.3-4.7c0-0.7-0.1-1.4-0.1-2.1
		c-0.1-1.8-0.3-3.6-0.1-5.4c0.1-0.7,0-1.4,0-2.1c0-0.8,0-1.6,0.1-2.4c0.1-1.1,0-2.2-0.1-3.3c-0.1-1-0.2-2-0.2-3.1
		c0-0.8,0.2-1.6,0.4-2.4c0.1-0.8,0.5-1.6,0.6-2.4c0-0.2,0.1-0.4,0.1-0.6c0-0.4,0.1-0.8,0.3-1.1c0.4-0.6,0.5-1.3,0.5-2.1
		c0-0.1,0-0.3,0.1-0.4c0-0.1,0.1-0.2,0.2-0.2c0.1,0,0.2,0.1,0.3,0.2c0.1,0.2,0.2,0.5,0.2,0.7c0,0.7,0.1,1.4,0,2.1c0,0.3,0,0.6,0,0.9
		c0.2,1.2,0.1,2.3,0,3.5c-0.1,0.5-0.1,1.1,0,1.7c0.1,1.3,0.1,2.5,0.1,3.8c0,0.5,0,0.9,0.1,1.4c0.1,1.2,0.1,2.4,0.3,3.6
		c0.1,1.2,0.1,2.5,0.1,3.7c0,0.9,0,1.9,0.1,2.8c0.1,1.1,0.1,2.3,0,3.4c0,0.2,0,0.4,0,0.6c0.3,1.9,0.2,3.8,0.4,5.6
		c0.2,1.5,0.2,3,0.2,4.5c0.1,1,0.2,2.1,0.3,3.1c0.2,1.2,0.4,2.4,0.4,3.7c0,0.5,0,1,0.1,1.5c0.1,0.9,0,1.7,0,2.6
		c0.1,0.9,0.1,1.9,0,2.8c-0.1,1.8,0,3.6,0.1,5.4c0.1,1.4,0.2,2.7,0.3,4.1c0.1,1.3,0.3,2.6,0.4,3.9c0,1.3,0.2,2.7,0.1,4
		c0,0.4,0,0.8,0.1,1.3c0.1,0.8,0.1,1.7,0.1,2.5c0,1.6-0.1,3.2-0.3,4.8c-0.2,1.5-0.3,2.9-0.3,4.4c0,1.2,0,2.4,0,3.6
		c0,0.7,0.1,1.5,0.1,2.2c0,1.6,0.1,3.1,0.2,4.6c0,0.6,0.1,1.1,0.1,1.7c0,0.1,0,0.2,0.1,0.3c0.1,0.2,0.2,0.2,0.4,0.2
		c0.2-0.1,0.4-0.2,0.5-0.4c0.6-0.6,1.2-1.2,2-1.5c0.5-0.2,1-0.5,1.4-0.8c1-0.7,1.8-1.6,2.4-2.7c0.2-0.4,0.1-0.8-0.4-0.9
		c-0.1,0-0.2,0-0.2-0.1c-0.3-0.1-0.5-0.2-0.6-0.5c-0.1-0.4,0-0.7,0.3-1c0.8-0.6,1.5-1.3,2.2-2c0.7-0.6,1-1.3,1.1-2.2
		c0.1-0.8,0.2-1.5,0.2-2.3c0,0,0-0.1,0-0.1c0-0.7-0.3-1-1-0.8c-0.2,0.1-0.4,0.1-0.7,0.1c-0.5,0-0.7-0.3-0.6-0.8
		c0.1-0.1,0.1-0.3,0.2-0.4c0.9-1.2,1.8-2.3,3.1-3c0.3-0.1,0.5-0.3,0.5-0.6c0.2-0.8,0.6-1.5,0.8-2.2c0.2-0.4,0.3-0.8,0.1-1.2
		c-0.1-0.1,0-0.3,0.1-0.4c0.2-0.3,0.3-0.7,0.2-1.1c-0.1-0.5-0.1-0.9-0.2-1.4c-0.1-0.5-0.5-0.7-0.9-0.4c-0.6,0.5-1.3,0.9-1.8,1.5
		c-0.6,0.7-1.3,1.2-1.9,1.8c-0.2,0.2-0.5,0.3-0.7,0.2c-0.3,0-0.5-0.3-0.3-0.6c0.1-0.3,0.3-0.6,0.4-0.9c0.5-1,0.7-2,1.4-2.9
		c0.7-1,1.5-2,2.5-2.8c0.4-0.3,0.7-0.8,0.9-1.3c0.1-0.3,0.1-0.7,0-1c-0.2-0.5-0.3-0.9-0.2-1.5c0.1-0.2,0-0.5-0.1-0.7
		c-0.2-0.5-0.3-1.1-0.4-1.7c-0.1-0.9-0.2-1.7-0.4-2.6c-0.1-0.6-0.2-1.1-0.2-1.7c0-0.3-0.1-0.7-0.2-1c-0.2-0.8-0.2-1.6-0.2-2.4
		c0-0.9-0.1-1.7-0.4-2.5c-0.1-0.2-0.1-0.4-0.1-0.6c0.1-0.5-0.1-0.9-0.1-1.4c0.1-1.4-0.1-2.8-0.1-4.2c0-1.6,0-3.1,0.2-4.7
		c0.2-1.1,0.2-2.3,0.4-3.4c0.3-1.5,0.7-2.9,0.9-4.4c0.2-1,0.5-2,0.4-3.1c0-0.1,0-0.1,0-0.2c0.3-0.8,0.3-1.7,0.4-2.6
		c0-0.3,0-0.6-0.1-0.9c0-0.2,0-0.4,0.1-0.7c0.2-0.5,0.3-0.9,0.2-1.4c0-0.3,0-0.5,0-0.8c0.1-0.6-0.2-0.8-0.8-0.7
		c-0.1,0-0.2,0.1-0.4,0.1c-0.5,0.1-0.7-0.1-0.6-0.6c0.1-0.4,0.3-0.8,0.6-1.2c0.5-0.6,1.2-1.2,1.9-1.6
		C162.6,79.1,162.8,78.8,162.7,78.2z"/>
	<path class="st0" d="M149,162.2c0-0.7,0-1.3-0.4-1.9c-0.2-0.4-0.3-0.8-0.3-1.2c0-1.4,0.1-2.8-0.1-4.1c-0.2-1.4-0.1-2.8-0.2-4.2
		c0-0.6-0.1-1.1-0.1-1.7c-0.1-0.9,0-1.8,0-2.7c0-0.7,0-1.4,0-2.1c0.1-1.6,0.3-3.2,0.5-4.9c0.1-1.1,0.1-2.3,0.1-3.4
		c0-1.2-0.1-2.5-0.1-3.7c0-0.3,0-0.7,0-1c-0.1-1.8-0.1-3.6-0.4-5.4c-0.2-1.7-0.3-3.5-0.4-5.2c-0.1-1-0.1-2-0.2-3.1
		c0-0.8,0-1.6,0-2.4c0.1-0.8,0-1.6,0-2.5c-0.1-1.9-0.2-3.8-0.3-5.7c-0.1-1.1-0.3-2.2-0.4-3.4c-0.1-0.7-0.1-1.3-0.1-2
		c0-0.6,0-1.2-0.1-1.8c-0.1-1.7-0.1-3.4-0.2-5.1c0-0.9-0.1-1.7-0.2-2.6c-0.1-0.6,0-1.2,0-1.9c0-0.6,0-1.2,0-1.8
		c0-1.2-0.2-2.3-0.2-3.5c0-0.8,0.1-1.5,0.1-2.3c0-1,0-2.1-0.1-3.1c-0.2-1.8-0.2-3.6-0.1-5.3c0-0.7-0.1-1.4-0.1-2.1
		c0-0.7-0.1-1.4,0.1-2.1c0.1-0.3,0.1-0.7-0.1-1c-0.1-0.3-0.2-0.3-0.4-0.1c-0.1,0.1-0.2,0.3-0.2,0.4c-0.2,0.9-0.4,1.9-0.5,2.8
		c0,0.1,0,0.2,0,0.2c0.3,1.4,0.2,2.8,0.4,4.1c0.1,0.8,0,1.7,0,2.5c-0.1,1.2,0,2.4,0,3.5c0,0.8,0,1.5-0.1,2.3c0,0.3,0,0.6,0.1,0.9
		c0.1,0.9,0.1,1.7,0.1,2.6c0,1,0.1,2.1,0.3,3.1c0.1,0.5,0,1,0,1.6c0.1,1.2,0.2,2.3,0.1,3.5c-0.1,1.3,0,2.6,0,3.9
		c0,1.2-0.1,2.3-0.1,3.5c0,1,0.1,1.9,0.1,2.8c0,0.8,0.2,1.6,0.2,2.4c0,1,0.2,1.9,0.3,2.9c0.1,1.1,0.1,2.2,0.2,3.4
		c0,0.6,0.1,1.1,0.1,1.7c0,1,0,2,0.1,3c0,0.5,0,1,0.1,1.5c0.1,1.9,0.2,3.9,0.2,5.8c0,0.8,0.1,1.5,0.1,2.3c0,1.6,0.1,3.2,0.2,4.7
		c0,1.9-0.1,3.7-0.2,5.6c-0.1,1,0,2.1,0,3.1c0,0.8-0.1,1.6-0.1,2.3c0,0.6,0,1.2,0,1.8c0,1,0,2,0,2.9c0,1.3-0.2,2.7-0.2,4
		c0,1.3-0.1,2.6,0,3.9c0,1-0.1,2-0.2,2.9c-0.1,0.7,0,1.3-0.1,2c-0.1,1.3-0.3,2.6-0.4,3.9c-0.2,1.8-0.5,3.5-0.8,5.2
		c-0.3,1.4-0.6,2.8-0.8,4.1c-0.2,1.1-0.5,2.3-0.8,3.4c-0.1,0.2-0.1,0.5-0.1,0.7c-0.2,1.5-0.6,2.9-0.9,4.4c-0.1,0.6-0.1,1.1-0.1,1.7
		c0,0.2,0,0.4,0.1,0.6c0.3,0.9,0.4,1.7,0.5,2.7c0.1,0.9,0.2,1.9,0.3,2.8c0.1,0.9,0.2,1.9,0.2,2.8c0,0.4,0.1,0.7,0.3,1
		c0.1,0.2,0.2,0.2,0.3,0c0.1-0.2,0.2-0.3,0.2-0.5c0-1,0.3-1.9,0.5-2.8c0.4-3,0.8-6,1.2-9c0.2-1.9,0.4-3.8,0.7-5.6
		c0.5-3.2,1.2-6.3,1.9-9.5c0.3-1.4,0.4-2.9,0.5-4.3c0-0.3,0-0.7,0-1C148.9,163.1,149,162.7,149,162.2z"/>
	<path class="st0" d="M144.3,161.1c0.1,0.1,0.2,0.2,0.3,0.2c0.2,0.1,0.3,0.2,0.5,0c0.1-0.1,0.1-0.3,0.1-0.5c0-0.1-0.1-0.1-0.1-0.2
		c-0.3-0.2-0.5-0.5-0.7-0.8c-0.2-0.2-0.4-0.3-0.8-0.3c0,0,0,0-0.1,0c-0.2,0.1-0.5,0.1-0.5,0.4c0,0.3,0.2,0.4,0.4,0.4
		C143.8,160.6,144.1,160.8,144.3,161.1z"/>
</g>
</svg>
