<?xml version="1.0" encoding="utf-8"?>
<!-- Generator: Adobe Illustrator 25.3.1, SVG Export Plug-In . SVG Version: 6.00 Build 0)  -->
<svg version="1.1" id="Layer_1" xmlns="http://www.w3.org/2000/svg" xmlns:xlink="http://www.w3.org/1999/xlink" x="0px" y="0px"
	 viewBox="0 0 288 288" style="enable-background:new 0 0 288 288;" xml:space="preserve">
<style type="text/css">
	.st0{fill:url(#SVGID_1_);}
	.st1{fill:#355DAB;}
	.st2{fill:url(#SVGID_2_);}
	.st3{fill:url(#SVGID_3_);}
	.st4{fill:url(#SVGID_4_);}
	.st5{fill:url(#SVGID_5_);}
</style>
<g>
	
		<linearGradient id="SVGID_1_" gradientUnits="userSpaceOnUse" x1="140.2" y1="207.95" x2="226.7" y2="207.95" gradientTransform="matrix(1 0 0 -1 0 290)">
		<stop  offset="5.208300e-04" style="stop-color:#989898"/>
		<stop  offset="1" style="stop-color:#4E4E4E"/>
	</linearGradient>
	<path class="st0" d="M212.8,138.4c-21.2-44.7,13.9-87.7,13.9-87.7l-27.7-25c-23.8,25.1-56.7,23.6-58.7,23.5v89.2H212.8z"/>
	<path class="st1" d="M140.3,49.1L140.3,49.1c0.4,0,0.7,0,0.7,0H140.3z"/>
	<path class="st1" d="M140.3,138.4V49.2v-0.1c-4.9,0.2-35.1,0.5-57.6-23.2L55.5,50.6c0,0,35,43.1,13.9,87.8H140.3L140.3,138.4z"/>
	<path class="st1" d="M140.2,251.5v1.4c0-0.1,0.1-0.2,0.1-0.3v-0.9C140.3,251.7,140.2,251.6,140.2,251.5z"/>
	<path class="st1" d="M212.8,138.4h-72.5v113.4c0.1,0.2,0.1,0.3,0.2,0.5c6.1-16.2,19-24.6,39.3-29.8c20.6-5.3,22.8-18.6,22.8-18.6
		l8.7,4l29.9-33.7C227.1,162.5,218.2,151.7,212.8,138.4z"/>
	
		<linearGradient id="SVGID_2_" gradientUnits="userSpaceOnUse" x1="40.9" y1="37.4299" x2="140.7" y2="37.4299" gradientTransform="matrix(1 0 0 -1 0 290)">
		<stop  offset="0" style="stop-color:#4E4E4E"/>
		<stop  offset="0.9995" style="stop-color:#989898"/>
	</linearGradient>
	<path class="st2" d="M140.3,252.9h0.4c-0.1-0.2-0.2-0.4-0.2-0.7c-0.1,0.1-0.1,0.3-0.2,0.4V252.9z"/>
	
		<linearGradient id="SVGID_3_" gradientUnits="userSpaceOnUse" x1="40.9" y1="95.0482" x2="140.7" y2="95.0482" gradientTransform="matrix(1 0 0 -1 0 290)">
		<stop  offset="0" style="stop-color:#4E4E4E"/>
		<stop  offset="0.9995" style="stop-color:#989898"/>
	</linearGradient>
	<path class="st3" d="M69.4,138.4h-0.1C64,151.7,55,162.6,40.9,174.1l29.9,33.4l8.6-3.8c0,0,2,13.3,22.6,18.6
		c20,5.1,32.6,13.5,38.2,29.2V138.4H69.4z"/>
	<path class="st1" d="M140.3,252.6c0.1-0.1,0.1-0.3,0.2-0.4c-0.1-0.2-0.1-0.3-0.2-0.5V252.6z"/>
	
		<linearGradient id="SVGID_4_" gradientUnits="userSpaceOnUse" x1="40.9" y1="37.7837" x2="140.7" y2="37.7837" gradientTransform="matrix(1 0 0 -1 0 290)">
		<stop  offset="0" style="stop-color:#4E4E4E"/>
		<stop  offset="0.9995" style="stop-color:#989898"/>
	</linearGradient>
	<path class="st4" d="M140.3,252.6c0.1-0.1,0.1-0.3,0.2-0.4c-0.1-0.2-0.1-0.3-0.2-0.5V252.6z"/>
	<path class="st1" d="M140.3,138.4L140.3,138.4l-0.1,113.1c0,0.1,0.1,0.2,0.1,0.3V138.4z"/>
	
		<linearGradient id="SVGID_5_" gradientUnits="userSpaceOnUse" x1="40.9" y1="94.9086" x2="140.7" y2="94.9086" gradientTransform="matrix(1 0 0 -1 0 290)">
		<stop  offset="0" style="stop-color:#4E4E4E"/>
		<stop  offset="0.9995" style="stop-color:#989898"/>
	</linearGradient>
	<path class="st5" d="M140.3,138.4L140.3,138.4l-0.1,113.1c0,0.1,0.1,0.2,0.1,0.3V138.4z"/>
	<g>
		<g>
			
				<image style="overflow:visible;enable-background:new    ;" width="925" height="1029" xlink:href="421348FA.png"  transform="matrix(0.2394 0 0 0.2394 30.298 15.0915)">
			</image>
		</g>
	</g>
</g>
</svg>
