<?xml version="1.0" encoding="utf-8"?>
<!-- Generator: Adobe Illustrator 25.2.3, SVG Export Plug-In . SVG Version: 6.00 Build 0)  -->
<svg version="1.1" id="Layer_1" xmlns="http://www.w3.org/2000/svg" xmlns:xlink="http://www.w3.org/1999/xlink" x="0px" y="0px"
	 viewBox="0 0 288 288" style="enable-background:new 0 0 288 288;" xml:space="preserve">
<style type="text/css">
	.st0{fill:url(#SVGID_1_);}
	.st1{fill:#355DAB;}
	.st2{fill:url(#SVGID_2_);}
</style>
<g>
	
		<image style="overflow:visible;opacity:0.25;" width="245" height="268" xlink:href="421348F6.png"  transform="matrix(1 0 0 1 24.995 10.5217)">
	</image>
	<g>
		<linearGradient id="SVGID_1_" gradientUnits="userSpaceOnUse" x1="140.196" y1="82.0671" x2="226.6598" y2="82.0671">
			<stop  offset="5.208300e-04" style="stop-color:#989898"/>
			<stop  offset="1" style="stop-color:#4E4E4E"/>
		</linearGradient>
		<path class="st0" d="M212.8,138.4c-21.2-44.7,13.9-87.7,13.9-87.7L199,25.7c-24.6,25.9-58.8,23.5-58.8,23.5v89.2H212.8z"/>
		<path class="st1" d="M82.7,25.9L55.5,50.6c0,0,35,43.1,13.9,87.8h70.9V49.1h0.7C140.9,49.1,107.2,51.8,82.7,25.9z"/>
		<path class="st1" d="M140.2,252.9c6-16.6,19-25.2,39.6-30.5c20.6-5.3,22.8-18.6,22.8-18.6l8.7,4l29.9-33.7
			c-14.1-11.6-23-22.4-28.4-35.7h-72.6V252.9z"/>
		<linearGradient id="SVGID_2_" gradientUnits="userSpaceOnUse" x1="40.8634" y1="195.6695" x2="140.6284" y2="195.6695">
			<stop  offset="0" style="stop-color:#4E4E4E"/>
			<stop  offset="0.9995" style="stop-color:#989898"/>
		</linearGradient>
		<path class="st2" d="M69.3,138.4C64,151.7,55,162.6,40.9,174.1l29.9,33.4l8.6-3.8c0,0,2,13.3,22.6,18.6
			c20.6,5.3,33.4,14,38.7,30.6l-0.4,0V138.4H69.3z"/>
		<g>
			
				<image style="overflow:visible;" width="925" height="1024" xlink:href="421348FA.png"  transform="matrix(0.24 0 0 0.24 30 15.36)">
			</image>
		</g>
	</g>
</g>
</svg>
