<?xml version="1.0" encoding="utf-8"?>
<!-- Generator: Adobe Illustrator 25.2.3, SVG Export Plug-In . SVG Version: 6.00 Build 0)  -->
<svg version="1.1" id="Layer_1" xmlns="http://www.w3.org/2000/svg" xmlns:xlink="http://www.w3.org/1999/xlink" x="0px" y="0px"
	 viewBox="0 0 288 288" style="enable-background:new 0 0 288 288;" xml:space="preserve">
<style type="text/css">
	.st0{fill:url(#SVGID_1_);}
	.st1{fill:#11783D;}
	.st2{fill:url(#SVGID_2_);}
</style>
<g>
	
		<image style="overflow:visible;opacity:0.25;" width="244" height="268" xlink:href="388DB6C9.png"  transform="matrix(1 0 0 1 25.5699 10.5275)">
	</image>
	<g>
		<linearGradient id="SVGID_1_" gradientUnits="userSpaceOnUse" x1="140.8829" y1="82.113" x2="227.012" y2="82.113">
			<stop  offset="5.208300e-04" style="stop-color:#989898"/>
			<stop  offset="1" style="stop-color:#4E4E4E"/>
		</linearGradient>
		<path class="st0" d="M213.1,138.5C192,93.8,227,50.7,227,50.7l-27.5-25c-24.6,25.9-58.7,23.5-58.7,23.5v89.3H213.1z"/>
		<path class="st1" d="M83,26L55.8,50.7c0,0,35,43.1,13.9,87.8h71.2V49.1h0.4C141.2,49.1,107.6,51.8,83,26z"/>
		<path class="st1" d="M140.9,252.9c4.8-16.6,18.8-25.2,39.4-30.5c20.6-5.3,22.7-18.6,22.7-18.6l8.7,4l29.9-33.7
			c-14.1-11.6-23.1-23.6-28.4-35.7h-72.3V252.9z"/>
		<linearGradient id="SVGID_2_" gradientUnits="userSpaceOnUse" x1="41.2157" y1="195.7055" x2="141.148" y2="195.7055">
			<stop  offset="0" style="stop-color:#4E4E4E"/>
			<stop  offset="0.9995" style="stop-color:#989898"/>
		</linearGradient>
		<path class="st2" d="M69.7,138.5c-5.4,12.1-14.4,24.1-28.5,35.7l29.9,33.4l8.6-3.9c0,0,2,13.3,22.6,18.6
			c20.6,5.3,33.6,14,38.9,30.6l-0.3,0V138.5H69.7z"/>
		<g>
			
				<image style="overflow:visible;" width="926" height="1024" xlink:href="388DB6CB.png"  transform="matrix(0.24 0 0 0.24 30.24 15.36)">
			</image>
		</g>
	</g>
</g>
</svg>
