<?xml version="1.0" encoding="utf-8"?>
<!-- Generator: Adobe Illustrator 25.3.1, SVG Export Plug-In . SVG Version: 6.00 Build 0)  -->
<svg version="1.1" id="Layer_1" xmlns="http://www.w3.org/2000/svg" xmlns:xlink="http://www.w3.org/1999/xlink" x="0px" y="0px"
	 viewBox="0 0 288 288" style="enable-background:new 0 0 288 288;" xml:space="preserve">
<style type="text/css">
	.st0{clip-path:url(#SVGID_2_);fill:#989898;}
	.st1{clip-path:url(#SVGID_2_);fill:#979797;}
	.st2{clip-path:url(#SVGID_2_);fill:#969696;}
	.st3{clip-path:url(#SVGID_2_);fill:#959595;}
	.st4{clip-path:url(#SVGID_2_);fill:#949494;}
	.st5{clip-path:url(#SVGID_2_);fill:#939393;}
	.st6{clip-path:url(#SVGID_2_);fill:#929292;}
	.st7{clip-path:url(#SVGID_2_);fill:#919191;}
	.st8{clip-path:url(#SVGID_2_);fill:#909090;}
	.st9{clip-path:url(#SVGID_2_);fill:#8F8F8F;}
	.st10{clip-path:url(#SVGID_2_);fill:#8E8E8E;}
	.st11{clip-path:url(#SVGID_2_);fill:#8D8D8D;}
	.st12{clip-path:url(#SVGID_2_);fill:#8C8C8C;}
	.st13{clip-path:url(#SVGID_2_);fill:#8B8B8B;}
	.st14{clip-path:url(#SVGID_2_);fill:#8A8A8A;}
	.st15{clip-path:url(#SVGID_2_);fill:#898989;}
	.st16{clip-path:url(#SVGID_2_);fill:#888888;}
	.st17{clip-path:url(#SVGID_2_);fill:#878787;}
	.st18{clip-path:url(#SVGID_2_);fill:#868686;}
	.st19{clip-path:url(#SVGID_2_);fill:#858585;}
	.st20{clip-path:url(#SVGID_2_);fill:#848484;}
	.st21{clip-path:url(#SVGID_2_);fill:#838383;}
	.st22{clip-path:url(#SVGID_2_);fill:#828282;}
	.st23{clip-path:url(#SVGID_2_);fill:#818181;}
	.st24{clip-path:url(#SVGID_2_);fill:#808080;}
	.st25{clip-path:url(#SVGID_2_);fill:#7F7F7F;}
	.st26{clip-path:url(#SVGID_2_);fill:#7E7E7E;}
	.st27{clip-path:url(#SVGID_2_);fill:#7D7D7D;}
	.st28{clip-path:url(#SVGID_2_);fill:#7C7C7C;}
	.st29{clip-path:url(#SVGID_2_);fill:#7B7B7B;}
	.st30{clip-path:url(#SVGID_2_);fill:#7A7A7A;}
	.st31{clip-path:url(#SVGID_2_);fill:#797979;}
	.st32{clip-path:url(#SVGID_2_);fill:#787878;}
	.st33{clip-path:url(#SVGID_2_);fill:#777777;}
	.st34{clip-path:url(#SVGID_2_);fill:#767676;}
	.st35{clip-path:url(#SVGID_2_);fill:#757575;}
	.st36{clip-path:url(#SVGID_2_);fill:#747474;}
	.st37{clip-path:url(#SVGID_2_);fill:#727272;}
	.st38{clip-path:url(#SVGID_2_);fill:#717171;}
	.st39{clip-path:url(#SVGID_2_);fill:#707070;}
	.st40{clip-path:url(#SVGID_2_);fill:#6F6F6F;}
	.st41{clip-path:url(#SVGID_2_);fill:#6E6E6E;}
	.st42{clip-path:url(#SVGID_2_);fill:#6D6D6D;}
	.st43{clip-path:url(#SVGID_2_);fill:#6C6C6C;}
	.st44{clip-path:url(#SVGID_2_);fill:#6B6B6B;}
	.st45{clip-path:url(#SVGID_2_);fill:#6A6A6A;}
	.st46{clip-path:url(#SVGID_2_);fill:#696969;}
	.st47{clip-path:url(#SVGID_2_);fill:#686868;}
	.st48{clip-path:url(#SVGID_2_);fill:#676767;}
	.st49{clip-path:url(#SVGID_2_);fill:#666666;}
	.st50{clip-path:url(#SVGID_2_);fill:#656565;}
	.st51{clip-path:url(#SVGID_2_);fill:#646464;}
	.st52{clip-path:url(#SVGID_2_);fill:#636363;}
	.st53{clip-path:url(#SVGID_2_);fill:#626262;}
	.st54{clip-path:url(#SVGID_2_);fill:#616161;}
	.st55{clip-path:url(#SVGID_2_);fill:#606060;}
	.st56{clip-path:url(#SVGID_2_);fill:#5F5F5F;}
	.st57{clip-path:url(#SVGID_2_);fill:#5E5E5E;}
	.st58{clip-path:url(#SVGID_2_);fill:#5D5D5D;}
	.st59{clip-path:url(#SVGID_2_);fill:#5C5C5C;}
	.st60{clip-path:url(#SVGID_2_);fill:#5B5B5B;}
	.st61{clip-path:url(#SVGID_2_);fill:#5A5A5A;}
	.st62{clip-path:url(#SVGID_2_);fill:#595959;}
	.st63{clip-path:url(#SVGID_2_);fill:#585858;}
	.st64{clip-path:url(#SVGID_2_);fill:#575757;}
	.st65{clip-path:url(#SVGID_2_);fill:#565656;}
	.st66{clip-path:url(#SVGID_2_);fill:#555555;}
	.st67{clip-path:url(#SVGID_2_);fill:#545454;}
	.st68{clip-path:url(#SVGID_2_);fill:#535353;}
	.st69{clip-path:url(#SVGID_2_);fill:#525252;}
	.st70{clip-path:url(#SVGID_2_);fill:#515151;}
	.st71{clip-path:url(#SVGID_2_);fill:#505050;}
	.st72{clip-path:url(#SVGID_2_);fill:#4F4F4F;}
	.st73{clip-path:url(#SVGID_2_);fill:#4E4E4E;}
	.st74{fill:#11783D;}
	.st75{clip-path:url(#SVGID_4_);fill:#4E4E4E;}
	.st76{clip-path:url(#SVGID_4_);fill:#4F4F4F;}
	.st77{clip-path:url(#SVGID_4_);fill:#505050;}
	.st78{clip-path:url(#SVGID_4_);fill:#515151;}
	.st79{clip-path:url(#SVGID_4_);fill:#525252;}
	.st80{clip-path:url(#SVGID_4_);fill:#535353;}
	.st81{clip-path:url(#SVGID_4_);fill:#545454;}
	.st82{clip-path:url(#SVGID_4_);fill:#555555;}
	.st83{clip-path:url(#SVGID_4_);fill:#565656;}
	.st84{clip-path:url(#SVGID_4_);fill:#575757;}
	.st85{clip-path:url(#SVGID_4_);fill:#585858;}
	.st86{clip-path:url(#SVGID_4_);fill:#595959;}
	.st87{clip-path:url(#SVGID_4_);fill:#5A5A5A;}
	.st88{clip-path:url(#SVGID_4_);fill:#5B5B5B;}
	.st89{clip-path:url(#SVGID_4_);fill:#5C5C5C;}
	.st90{clip-path:url(#SVGID_4_);fill:#5D5D5D;}
	.st91{clip-path:url(#SVGID_4_);fill:#5E5E5E;}
	.st92{clip-path:url(#SVGID_4_);fill:#5F5F5F;}
	.st93{clip-path:url(#SVGID_4_);fill:#606060;}
	.st94{clip-path:url(#SVGID_4_);fill:#616161;}
	.st95{clip-path:url(#SVGID_4_);fill:#626262;}
	.st96{clip-path:url(#SVGID_4_);fill:#636363;}
	.st97{clip-path:url(#SVGID_4_);fill:#646464;}
	.st98{clip-path:url(#SVGID_4_);fill:#656565;}
	.st99{clip-path:url(#SVGID_4_);fill:#666666;}
	.st100{clip-path:url(#SVGID_4_);fill:#676767;}
	.st101{clip-path:url(#SVGID_4_);fill:#686868;}
	.st102{clip-path:url(#SVGID_4_);fill:#696969;}
	.st103{clip-path:url(#SVGID_4_);fill:#6A6A6A;}
	.st104{clip-path:url(#SVGID_4_);fill:#6B6B6B;}
	.st105{clip-path:url(#SVGID_4_);fill:#6C6C6C;}
	.st106{clip-path:url(#SVGID_4_);fill:#6D6D6D;}
	.st107{clip-path:url(#SVGID_4_);fill:#6E6E6E;}
	.st108{clip-path:url(#SVGID_4_);fill:#6F6F6F;}
	.st109{clip-path:url(#SVGID_4_);fill:#707070;}
	.st110{clip-path:url(#SVGID_4_);fill:#717171;}
	.st111{clip-path:url(#SVGID_4_);fill:#727272;}
	.st112{clip-path:url(#SVGID_4_);fill:#747474;}
	.st113{clip-path:url(#SVGID_4_);fill:#757575;}
	.st114{clip-path:url(#SVGID_4_);fill:#767676;}
	.st115{clip-path:url(#SVGID_4_);fill:#777777;}
	.st116{clip-path:url(#SVGID_4_);fill:#787878;}
	.st117{clip-path:url(#SVGID_4_);fill:#797979;}
	.st118{clip-path:url(#SVGID_4_);fill:#7A7A7A;}
	.st119{clip-path:url(#SVGID_4_);fill:#7B7B7B;}
	.st120{clip-path:url(#SVGID_4_);fill:#7C7C7C;}
	.st121{clip-path:url(#SVGID_4_);fill:#7D7D7D;}
	.st122{clip-path:url(#SVGID_4_);fill:#7E7E7E;}
	.st123{clip-path:url(#SVGID_4_);fill:#7F7F7F;}
	.st124{clip-path:url(#SVGID_4_);fill:#808080;}
	.st125{clip-path:url(#SVGID_4_);fill:#818181;}
	.st126{clip-path:url(#SVGID_4_);fill:#828282;}
	.st127{clip-path:url(#SVGID_4_);fill:#838383;}
	.st128{clip-path:url(#SVGID_4_);fill:#848484;}
	.st129{clip-path:url(#SVGID_4_);fill:#858585;}
	.st130{clip-path:url(#SVGID_4_);fill:#868686;}
	.st131{clip-path:url(#SVGID_4_);fill:#878787;}
	.st132{clip-path:url(#SVGID_4_);fill:#888888;}
	.st133{clip-path:url(#SVGID_4_);fill:#898989;}
	.st134{clip-path:url(#SVGID_4_);fill:#8A8A8A;}
	.st135{clip-path:url(#SVGID_4_);fill:#8B8B8B;}
	.st136{clip-path:url(#SVGID_4_);fill:#8C8C8C;}
	.st137{clip-path:url(#SVGID_4_);fill:#8D8D8D;}
	.st138{clip-path:url(#SVGID_4_);fill:#8E8E8E;}
	.st139{clip-path:url(#SVGID_4_);fill:#8F8F8F;}
	.st140{clip-path:url(#SVGID_4_);fill:#909090;}
	.st141{clip-path:url(#SVGID_4_);fill:#919191;}
	.st142{clip-path:url(#SVGID_4_);fill:#929292;}
	.st143{clip-path:url(#SVGID_4_);fill:#939393;}
	.st144{clip-path:url(#SVGID_4_);fill:#949494;}
	.st145{clip-path:url(#SVGID_4_);fill:#959595;}
	.st146{clip-path:url(#SVGID_4_);fill:#969696;}
	.st147{clip-path:url(#SVGID_4_);fill:#979797;}
	.st148{clip-path:url(#SVGID_4_);fill:#989898;}
	.st149{clip-path:url(#SVGID_6_);fill:#989898;}
	.st150{clip-path:url(#SVGID_8_);fill:#989898;}
	.st151{clip-path:url(#SVGID_10_);fill:#747474;}
</style>
<g>
	<g>
		<g>
			<g>
				<defs>
					<path id="SVGID_1_" d="M213.1,138.4c-21-44.7,13.9-87.7,13.9-87.7l-27.5-25c-23.8,25.1-56.6,23.6-58.6,23.5v89.2H213.1z"/>
				</defs>
				<clipPath id="SVGID_2_">
					<use xlink:href="#SVGID_1_"  style="overflow:visible;"/>
				</clipPath>
				<rect x="140.9" y="25.7" class="st0" width="1.1" height="112.7"/>
				<rect x="142" y="25.7" class="st1" width="1.2" height="112.7"/>
				<rect x="143.2" y="25.7" class="st2" width="1.2" height="112.7"/>
				<rect x="144.3" y="25.7" class="st3" width="1.2" height="112.7"/>
				<rect x="145.5" y="25.7" class="st4" width="1.2" height="112.7"/>
				<rect x="146.7" y="25.7" class="st5" width="1.2" height="112.7"/>
				<rect x="147.8" y="25.7" class="st6" width="1.2" height="112.7"/>
				<rect x="149" y="25.7" class="st7" width="1.2" height="112.7"/>
				<rect x="150.2" y="25.7" class="st8" width="1.2" height="112.7"/>
				<rect x="151.3" y="25.7" class="st9" width="1.2" height="112.7"/>
				<rect x="152.5" y="25.7" class="st10" width="1.2" height="112.7"/>
				<rect x="153.7" y="25.7" class="st11" width="1.2" height="112.7"/>
				<rect x="154.8" y="25.7" class="st12" width="1.2" height="112.7"/>
				<rect x="156" y="25.7" class="st13" width="1.2" height="112.7"/>
				<rect x="157.1" y="25.7" class="st14" width="1.2" height="112.7"/>
				<rect x="158.3" y="25.7" class="st15" width="1.2" height="112.7"/>
				<rect x="159.5" y="25.7" class="st16" width="1.2" height="112.7"/>
				<rect x="160.6" y="25.7" class="st17" width="1.2" height="112.7"/>
				<rect x="161.8" y="25.7" class="st18" width="1.2" height="112.7"/>
				<rect x="163" y="25.7" class="st19" width="1.2" height="112.7"/>
				<rect x="164.1" y="25.7" class="st20" width="1.2" height="112.7"/>
				<rect x="165.3" y="25.7" class="st21" width="1.2" height="112.7"/>
				<rect x="166.5" y="25.7" class="st22" width="1.2" height="112.7"/>
				<rect x="167.6" y="25.7" class="st23" width="1.2" height="112.7"/>
				<rect x="168.8" y="25.7" class="st24" width="1.2" height="112.7"/>
				<rect x="170" y="25.7" class="st25" width="1.2" height="112.7"/>
				<rect x="171.1" y="25.7" class="st26" width="1.2" height="112.7"/>
				<rect x="172.3" y="25.7" class="st27" width="1.2" height="112.7"/>
				<rect x="173.4" y="25.7" class="st28" width="1.2" height="112.7"/>
				<rect x="174.6" y="25.7" class="st29" width="1.2" height="112.7"/>
				<rect x="175.8" y="25.7" class="st30" width="1.2" height="112.7"/>
				<rect x="176.9" y="25.7" class="st31" width="1.2" height="112.7"/>
				<rect x="178.1" y="25.7" class="st32" width="1.2" height="112.7"/>
				<rect x="179.3" y="25.7" class="st33" width="1.2" height="112.7"/>
				<rect x="180.4" y="25.7" class="st34" width="1.2" height="112.7"/>
				<rect x="181.6" y="25.7" class="st35" width="1.2" height="112.7"/>
				<rect x="182.8" y="25.7" class="st36" width="1.2" height="112.7"/>
				<rect x="183.9" y="25.7" class="st37" width="1.2" height="112.7"/>
				<rect x="185.1" y="25.7" class="st38" width="1.2" height="112.7"/>
				<rect x="186.3" y="25.7" class="st39" width="1.2" height="112.7"/>
				<rect x="187.4" y="25.7" class="st40" width="1.2" height="112.7"/>
				<rect x="188.6" y="25.7" class="st41" width="1.2" height="112.7"/>
				<rect x="189.7" y="25.7" class="st42" width="1.2" height="112.7"/>
				<rect x="190.9" y="25.7" class="st43" width="1.2" height="112.7"/>
				<rect x="192.1" y="25.7" class="st44" width="1.2" height="112.7"/>
				<rect x="193.2" y="25.7" class="st45" width="1.2" height="112.7"/>
				<rect x="194.4" y="25.7" class="st46" width="1.2" height="112.7"/>
				<rect x="195.6" y="25.7" class="st47" width="1.2" height="112.7"/>
				<rect x="196.7" y="25.7" class="st48" width="1.2" height="112.7"/>
				<rect x="197.9" y="25.7" class="st49" width="1.2" height="112.7"/>
				<rect x="199.1" y="25.7" class="st50" width="1.2" height="112.7"/>
				<rect x="200.2" y="25.7" class="st51" width="1.2" height="112.7"/>
				<rect x="201.4" y="25.7" class="st52" width="1.2" height="112.7"/>
				<rect x="202.6" y="25.7" class="st53" width="1.2" height="112.7"/>
				<rect x="203.7" y="25.7" class="st54" width="1.2" height="112.7"/>
				<rect x="204.9" y="25.7" class="st55" width="1.2" height="112.7"/>
				<rect x="206" y="25.7" class="st56" width="1.2" height="112.7"/>
				<rect x="207.2" y="25.7" class="st57" width="1.2" height="112.7"/>
				<rect x="208.4" y="25.7" class="st58" width="1.2" height="112.7"/>
				<rect x="209.5" y="25.7" class="st59" width="1.2" height="112.7"/>
				<rect x="210.7" y="25.7" class="st60" width="1.2" height="112.7"/>
				<rect x="211.9" y="25.7" class="st61" width="1.2" height="112.7"/>
				<rect x="213" y="25.7" class="st62" width="1.2" height="112.7"/>
				<rect x="214.2" y="25.7" class="st63" width="1.2" height="112.7"/>
				<rect x="215.4" y="25.7" class="st64" width="1.2" height="112.7"/>
				<rect x="216.5" y="25.7" class="st65" width="1.2" height="112.7"/>
				<rect x="217.7" y="25.7" class="st66" width="1.2" height="112.7"/>
				<rect x="218.9" y="25.7" class="st67" width="1.2" height="112.7"/>
				<rect x="220" y="25.7" class="st68" width="1.2" height="112.7"/>
				<rect x="221.2" y="25.7" class="st69" width="1.2" height="112.7"/>
				<rect x="222.3" y="25.7" class="st70" width="1.2" height="112.7"/>
				<rect x="223.5" y="25.7" class="st71" width="1.2" height="112.7"/>
				<rect x="224.7" y="25.7" class="st72" width="1.2" height="112.7"/>
				<rect x="225.8" y="25.7" class="st73" width="1.2" height="112.7"/>
				<path class="st73" d="M227,138.4V25.7V138.4z"/>
			</g>
		</g>
		<g>
			<path class="st74" d="M140.9,49.1L140.9,49.1c0.3,0,0.4,0,0.4,0H140.9z"/>
		</g>
		<g>
			<polygon class="st74" points="140.9,252.1 140.9,252.9 140.9,252.9 140.9,252.1 			"/>
		</g>
		<g>
			<path class="st74" d="M213.2,138.4h-0.1h-72.2V49.2v-0.1C137,49.3,106.1,50.2,83,26L55.8,50.7c0,0,35,43.1,13.9,87.8h71.1h0.1h0
				v113.6c0,0.1,0.1,0.3,0.1,0.4c4.9-16.3,18.8-24.8,39.3-30.1c20.6-5.3,22.7-18.6,22.7-18.6l8.7,4l29.9-33.7
				C227.5,162.5,218.5,150.5,213.2,138.4z"/>
		</g>
		<g>
			<g>
				<defs>
					<path id="SVGID_3_" d="M140.8,138.5H69.7c-5.4,12.1-14.4,24.1-28.5,35.7l29.9,33.4l8.6-3.9c0,0,2,13.3,22.6,18.6
						c20.2,5.2,33.1,13.7,38.6,29.8L140.8,138.5L140.8,138.5z"/>
				</defs>
				<clipPath id="SVGID_4_">
					<use xlink:href="#SVGID_3_"  style="overflow:visible;"/>
				</clipPath>
				<path class="st75" d="M41.2,138.5v113.6V138.5z"/>
				<rect x="41.2" y="138.5" class="st75" width="1.4" height="113.6"/>
				<rect x="42.6" y="138.5" class="st76" width="1.4" height="113.6"/>
				<rect x="43.9" y="138.5" class="st77" width="1.4" height="113.6"/>
				<rect x="45.3" y="138.5" class="st78" width="1.4" height="113.6"/>
				<rect x="46.6" y="138.5" class="st79" width="1.4" height="113.6"/>
				<rect x="48" y="138.5" class="st80" width="1.4" height="113.6"/>
				<rect x="49.3" y="138.5" class="st81" width="1.4" height="113.6"/>
				<rect x="50.7" y="138.5" class="st82" width="1.4" height="113.6"/>
				<rect x="52" y="138.5" class="st83" width="1.4" height="113.6"/>
				<rect x="53.4" y="138.5" class="st84" width="1.4" height="113.6"/>
				<rect x="54.7" y="138.5" class="st85" width="1.4" height="113.6"/>
				<rect x="56.1" y="138.5" class="st86" width="1.4" height="113.6"/>
				<rect x="57.4" y="138.5" class="st87" width="1.4" height="113.6"/>
				<rect x="58.8" y="138.5" class="st88" width="1.4" height="113.6"/>
				<rect x="60.1" y="138.5" class="st89" width="1.4" height="113.6"/>
				<rect x="61.5" y="138.5" class="st90" width="1.4" height="113.6"/>
				<rect x="62.8" y="138.5" class="st91" width="1.4" height="113.6"/>
				<rect x="64.2" y="138.5" class="st92" width="1.4" height="113.6"/>
				<rect x="65.5" y="138.5" class="st93" width="1.4" height="113.6"/>
				<rect x="66.9" y="138.5" class="st94" width="1.4" height="113.6"/>
				<rect x="68.2" y="138.5" class="st95" width="1.4" height="113.6"/>
				<rect x="69.6" y="138.5" class="st96" width="1.4" height="113.6"/>
				<rect x="70.9" y="138.5" class="st97" width="1.4" height="113.6"/>
				<rect x="72.3" y="138.5" class="st98" width="1.4" height="113.6"/>
				<rect x="73.6" y="138.5" class="st99" width="1.4" height="113.6"/>
				<rect x="75" y="138.5" class="st100" width="1.4" height="113.6"/>
				<rect x="76.3" y="138.5" class="st101" width="1.4" height="113.6"/>
				<rect x="77.7" y="138.5" class="st102" width="1.4" height="113.6"/>
				<rect x="79" y="138.5" class="st103" width="1.4" height="113.6"/>
				<rect x="80.4" y="138.5" class="st104" width="1.4" height="113.6"/>
				<rect x="81.7" y="138.5" class="st105" width="1.4" height="113.6"/>
				<rect x="83.1" y="138.5" class="st106" width="1.4" height="113.6"/>
				<rect x="84.4" y="138.5" class="st107" width="1.4" height="113.6"/>
				<rect x="85.8" y="138.5" class="st108" width="1.4" height="113.6"/>
				<rect x="87.1" y="138.5" class="st109" width="1.4" height="113.6"/>
				<rect x="88.5" y="138.5" class="st110" width="1.4" height="113.6"/>
				<rect x="89.8" y="138.5" class="st111" width="1.4" height="113.6"/>
				<rect x="91.2" y="138.5" class="st112" width="1.4" height="113.6"/>
				<rect x="92.5" y="138.5" class="st113" width="1.4" height="113.6"/>
				<rect x="93.9" y="138.5" class="st114" width="1.4" height="113.6"/>
				<rect x="95.2" y="138.5" class="st115" width="1.4" height="113.6"/>
				<rect x="96.6" y="138.5" class="st116" width="1.4" height="113.6"/>
				<rect x="97.9" y="138.5" class="st117" width="1.4" height="113.6"/>
				<rect x="99.3" y="138.5" class="st118" width="1.4" height="113.6"/>
				<rect x="100.6" y="138.5" class="st119" width="1.4" height="113.6"/>
				<rect x="102" y="138.5" class="st120" width="1.4" height="113.6"/>
				<rect x="103.3" y="138.5" class="st121" width="1.4" height="113.6"/>
				<rect x="104.7" y="138.5" class="st122" width="1.4" height="113.6"/>
				<rect x="106" y="138.5" class="st123" width="1.4" height="113.6"/>
				<rect x="107.4" y="138.5" class="st124" width="1.4" height="113.6"/>
				<rect x="108.7" y="138.5" class="st125" width="1.4" height="113.6"/>
				<rect x="110.1" y="138.5" class="st126" width="1.4" height="113.6"/>
				<rect x="111.4" y="138.5" class="st127" width="1.4" height="113.6"/>
				<rect x="112.8" y="138.5" class="st128" width="1.4" height="113.6"/>
				<rect x="114.1" y="138.5" class="st129" width="1.4" height="113.6"/>
				<rect x="115.5" y="138.5" class="st130" width="1.4" height="113.6"/>
				<rect x="116.8" y="138.5" class="st131" width="1.4" height="113.6"/>
				<rect x="118.2" y="138.5" class="st132" width="1.4" height="113.6"/>
				<rect x="119.5" y="138.5" class="st133" width="1.4" height="113.6"/>
				<rect x="120.9" y="138.5" class="st134" width="1.4" height="113.6"/>
				<rect x="122.2" y="138.5" class="st135" width="1.4" height="113.6"/>
				<rect x="123.6" y="138.5" class="st136" width="1.4" height="113.6"/>
				<rect x="124.9" y="138.5" class="st137" width="1.4" height="113.6"/>
				<rect x="126.3" y="138.5" class="st138" width="1.4" height="113.6"/>
				<rect x="127.6" y="138.5" class="st139" width="1.4" height="113.6"/>
				<rect x="129" y="138.5" class="st140" width="1.4" height="113.6"/>
				<rect x="130.3" y="138.5" class="st141" width="1.4" height="113.6"/>
				<rect x="131.7" y="138.5" class="st142" width="1.4" height="113.6"/>
				<rect x="133" y="138.5" class="st143" width="1.4" height="113.6"/>
				<rect x="134.4" y="138.5" class="st144" width="1.4" height="113.6"/>
				<rect x="135.7" y="138.5" class="st145" width="1.4" height="113.6"/>
				<rect x="137.1" y="138.5" class="st146" width="1.4" height="113.6"/>
				<rect x="138.4" y="138.5" class="st147" width="1.4" height="113.6"/>
				<rect x="139.8" y="138.5" class="st148" width="1.1" height="113.6"/>
			</g>
		</g>
		<g>
			<g>
				<defs>
					<path id="SVGID_5_" d="M140.9,252.9h0.3c0-0.1-0.1-0.3-0.2-0.4C141,252.6,140.9,252.8,140.9,252.9L140.9,252.9z"/>
				</defs>
				<clipPath id="SVGID_6_">
					<use xlink:href="#SVGID_5_"  style="overflow:visible;"/>
				</clipPath>
				<rect x="140.9" y="252.5" class="st149" width="0.2" height="0.4"/>
				<rect x="141.1" y="252.5" class="st149" width="0.1" height="0.4"/>
			</g>
		</g>
		<g>
			<path class="st74" d="M140.9,252.9c0-0.1,0.1-0.3,0.1-0.4c0-0.1-0.1-0.3-0.1-0.4V252.9z"/>
		</g>
		<g>
			<g>
				<defs>
					<path id="SVGID_7_" d="M140.9,252.9c0-0.1,0.1-0.3,0.1-0.4c0-0.1-0.1-0.3-0.1-0.4V252.9z"/>
				</defs>
				<clipPath id="SVGID_8_">
					<use xlink:href="#SVGID_7_"  style="overflow:visible;"/>
				</clipPath>
				<rect x="140.9" y="252.1" class="st150" width="0.1" height="0.8"/>
			</g>
		</g>
		<g>
			<polygon class="st74" points="140.9,138.5 140.9,138.5 140.9,252.1 140.9,252.1 			"/>
		</g>
		<g>
			<g>
				<defs>
					<polygon id="SVGID_9_" points="140.9,138.5 140.9,138.5 140.9,252.1 140.9,252.1 					"/>
				</defs>
				<clipPath id="SVGID_10_">
					<use xlink:href="#SVGID_9_"  style="overflow:visible;"/>
				</clipPath>
				<rect x="140.9" y="138.5" class="st151" width="0" height="113.6"/>
			</g>
		</g>
	</g>
	<g>
		
			<image style="overflow:visible;enable-background:new    ;" width="929" height="1029" xlink:href="388DB6CB.png"  transform="matrix(0.239 0 0 0.239 30.3401 15.2696)">
		</image>
	</g>
</g>
</svg>
