<?xml version="1.0" encoding="utf-8"?>
<!-- Generator: Adobe Illustrator 25.3.1, SVG Export Plug-In . SVG Version: 6.00 Build 0)  -->
<svg version="1.1" id="Layer_1" xmlns="http://www.w3.org/2000/svg" xmlns:xlink="http://www.w3.org/1999/xlink" x="0px" y="0px"
	 viewBox="0 0 576 576" style="enable-background:new 0 0 576 576;" xml:space="preserve">
<style type="text/css">
	.st0{fill:#3F3F3F;}
	.st1{fill:#7B7B7B;}
	.st2{fill:#B7B7B7;}
	.st3{fill:#B4B4B4;}
	.st4{fill:#C7811F;}
	.st5{fill:#FEFEFE;}
	.st6{fill:#362D2D;}
</style>
<g>
	<path class="st0" d="M312.5,448.6c0,0.1,0,0.2,0,0.2c-3,0-5.9,0-8.9,0c-0.1-0.2,0-0.3,0.1-0.4c0.8-0.4,1.6-0.2,2.5-0.2
		c1.6,0,3.2,0,4.8,0C311.5,448.2,312.1,448.2,312.5,448.6z"/>
	<path class="st1" d="M303.6,448.6c0,0.1,0,0.1,0,0.2c-1.2,0-2.4,0-3.6,0c-0.1-0.2,0-0.3,0.1-0.4C301.3,448.2,302.5,448,303.6,448.6
		z"/>
	<path class="st2" d="M300,448.6c0,0.1,0,0.1,0,0.2c-0.8,0-1.6,0-2.4,0c0-0.1,0-0.1,0-0.2C298.4,448.1,299.2,448.1,300,448.6z"/>
	<path class="st3" d="M68.8,389.2l-0.1,0l-0.1,0c0-0.6,0-1.3,0-1.9c0.1,0,0.1,0,0.2,0C69.3,387.9,69.3,388.5,68.8,389.2z"/>
	<path d="M193.1,317.4c0.7-3.1,1.5-6.2,2.2-9.3c4.7-19.2,8.9-38.6,12.2-58.1c2.4-14,4.4-28.1,6.2-42.2c1.3-9.7,2.7-19.5,4.2-29.2
		c1.1-7.2,4.5-12.8,10-17.5c5.8-5,11.6-10.1,17.1-15.4c7.5-7.4,13.8-15.7,19.7-24.4c3.7-5.4,7.3-10.9,11.5-15.9
		c1.1-1.3,2.2-2.5,3.5-3.6c3.1-2.9,6.7-4.3,11-4c7.3,0.5,14.6,1.4,21.8,2.2c11.4,1.3,22.8,2.7,34.3,4.1c8.3,1,16.7,2,25,2.8
		c3.2,0.3,6.1-0.2,8.8-1.9c2-1.2,4-2.5,6.1-3.6c4.6-2.5,9.2-2.7,13.9-0.4c5.7,2.7,11,6.1,16.3,9.5c10.1,6.5,20.1,13.3,29.3,21.2
		c1.4,1.2,2.8,2.4,3.9,3.9c0.4,0.5,0.9,0.9,0.6,1.6c-0.3,0.7-1.1,0.6-1.7,0.6c-2.6,0.1-5.2-0.4-7.7-0.9
		c-13.3-2.8-26.4-6.6-39.4-10.6c-0.8-0.3-1.2-0.1-1.6,0.7c-3.1,6.1-6.3,12-9.9,17.8c-1.7,2.7-3.8,4.8-6.4,6.5
		c-6.7,4.3-13.9,7.7-21.1,11.1c-6.9,3.2-13.9,6.3-20.9,9.2c-0.9,0.4-1.1,0.7-0.8,1.6c7,20.9,13.7,41.8,20.3,62.8
		c8.1,25.8,15.8,51.8,22.8,77.9c0.1,0.5,0.2,1,0.3,1.5c-0.3,0.6-1,0.7-1.5,0.9c-9.3,3.4-18.8,6.1-28.5,8.4c-0.6,0.1-1.2,0.3-1.8,0
		c-3.2-2.8-7-2.8-11-2.5c-4.4,0.3-8.7,0.8-13.1,1.3c-6,0.6-12,1.4-17.9,2.1c-2.3,0.3-4.7,0.5-7,0.9c-3,0.5-6,1.1-8.6,3.1
		c-0.9,0.7-1.4,1.8-2.3,2.4c-0.5,0.2-1.1,0.2-1.7,0.2c-5.4,0-10.7,0.1-16.1,0c-5.1-0.2-10.1-0.5-15.2-0.9
		c-7.6-0.6-15.2-1.4-22.7-2.5c-13.1-1.9-26-4.4-38.6-8.5c-1.5-0.5-2.9-1-4.4-1.6C194,318.2,193.4,318,193.1,317.4z"/>
	<path d="M68.8,389.2c0-0.6,0-1.3,0-1.9c0.9-4.1,3.4-7.4,5.6-10.9c4.4-6.8,10.9-10.9,18-14.1c9.7-4.3,19.8-7.3,30.1-9.8
		c17.3-4.3,34.8-7.3,52.5-9.7c3.8-0.5,7.5-0.8,11.3-0.8c0.4,0.5,0.1,1.1,0,1.6c-0.8,3-1.6,6-2.5,9c-0.4,1.5-0.4,1.6,1.1,2
		c6.8,2,13.7,3.8,20.7,5.3c10.3,2.3,20.7,4.2,31.2,5.5c7.3,0.9,14.5,1.6,21.8,2.1c10,0.7,20,0.7,30.1,0.6c2.2,0,4.4-0.3,6.6-0.2
		c0.6,0,1.1,0,1.7,0.2c0.4,0.2,0.7,0.5,1,0.8c1.8,1.9,4,2.5,6.5,2.6c4.2,0.2,8.3-0.5,12.4-1c9.7-1.2,19.5-2.5,29.2-3.8
		c2.1-0.3,4.1-0.5,6.2-0.8c3.2-0.5,5.4-2.3,6.5-5.3c0.1-0.3,0.2-0.7,0.4-1c0.6-0.8,1.5-0.8,2.4-1c7.8-1.9,15.4-4.1,23-6.6
		c2.2-0.7,4.3-1.5,6.4-2.3c1.4-0.6,1.5-0.6,1.2-2.1c-0.5-2.7-1.1-5.5-1.7-8.2c-0.1-0.5-0.3-1,0.1-1.5c11.6,1.8,23.1,4.4,34.6,7.2
		c19.7,4.9,39.2,10.5,58.2,17.7c4.9,1.9,9.8,3.9,14.4,6.5c2.4,1.3,4.5,3,6.3,5c3.7,4.1,4.6,8.7,2.3,13.8c-1.8,4.1-4.7,7.5-7.7,10.8
		c-5.6,6.2-11.9,11.6-19.7,15c-6,2.7-12.2,4.9-18.5,6.8c-14.1,4.3-28.4,7.9-42.7,11.8c-2.4,0.6-4.8,1.2-7.1,2
		c-0.8,0.3-1.3,0-1.8-0.6c-6.8-8.3-13.6-16.7-20.4-25c-0.2-0.2-0.3-0.4-0.6-0.7c-0.3,2.1-0.7,4-1,5.9c-1.4,8.8-2.8,17.7-4.1,26.5
		c-0.1,0.7-0.4,0.9-1,1.1c-11.8,2.5-23.6,4.4-35.6,5.5c-4.2,0.4-8.4,0.7-12.7,1c-0.8,0.1-1.2-0.2-1.5-0.8c-2.9-4.8-5.9-9.7-8.8-14.5
		c-0.2-0.3-0.4-0.6-0.7-1.1c-3.3,5.7-6.5,11.3-9.7,16.9c-3,0-5.9,0-8.9,0c-1.2,0-2.4,0-3.6,0c-0.8,0-1.6,0-2.4,0
		c-9.2-0.2-18.3-0.7-27.5-1.5c-8-0.6-15.9-1.4-23.8-2.3c-11.9-1.4-23.8-3.1-35.7-4.9c-19.8-3-39.5-6.6-58.7-12.4
		c-25.4-7.7-49.7-17.9-72.6-31.2c-2.2-1.3-4.7-2.1-7-3.3C70.6,392.2,69.1,391.1,68.8,389.2z"/>
	<path class="st4" d="M296.8,368.2c-8.4,0.3-16.8,0.5-25.1,0.2c-8.3-0.2-16.5-0.7-24.7-1.5c-9-0.9-18-2.1-26.9-3.7
		c-12.2-2.2-24.2-5-36.1-8.5c-0.8-0.2-1-0.5-0.7-1.3c1-3.5,2-7.1,3-10.6c0.1-0.3,0.1-0.5,0.1-0.8c1.2-3.6,2.1-7.3,3.1-10.9
		c1.2-4.3,2.3-8.6,3.4-13c0.1-0.2,0.2-0.4,0.3-0.7c12.2,5.1,25.2,7.6,38.2,9.8c10.7,1.8,21.5,3,32.3,3.7c6.8,0.4,13.6,0.7,20.5,0.7
		c3,0,6,0,9,0c0.2,0.3,0.1,0.5,0,0.8c-1.1,2.8-1.1,5.7-0.8,8.6c0.6,6.2,1.3,12.4,2.3,18.5c0.5,2.8,0.8,5.6,2.2,8.2
		C296.9,367.8,296.9,368,296.8,368.2z"/>
	<path class="st4" d="M390.4,337.8c0.7,3.4,1.3,6.7,2.1,10.1c0.3,1.2-0.1,1.6-1.1,2c-10,3.8-20.3,6.7-30.6,9.3
		c-0.5,0.1-0.9,0.3-1.4,0.4c-0.1-0.1-0.2-0.2-0.2-0.4c-0.2-6-1.3-12-2-18c-0.4-3.1-0.7-6.1-1.3-9.1c-0.5-2.4-1.1-4.7-2.6-6.8
		c-0.2-0.2-0.3-0.5-0.1-0.8c6.9-1.5,13.7-3.3,20.4-5.5c3.7-1.2,7.4-2.5,11.1-3.7c1.2,4,2.1,8.1,3.2,12.1
		C388.7,330.8,389.6,334.3,390.4,337.8z"/>
	<path class="st5" d="M353.1,324.4c2.3,2.8,2.9,6.2,3.4,9.7c1,7.5,1.9,15.1,2.9,22.7c0.1,0.9,0,1.8-0.1,2.7
		c-1.3,4.4-3.6,6.3-8.1,6.9c-12.1,1.5-24.1,3.1-36.2,4.7c-3.4,0.4-6.9,1-10.4,0.8c-3.1-0.2-5.9-1-7.8-3.7c-1.7-2.5-2-5.4-2.4-8.2
		c-1.2-7.1-2-14.3-2.6-21.5c-0.2-2.4,0.2-4.8,1.3-7c2.2-3.6,5.8-4.9,9.6-5.5c5.6-0.8,11.1-1.5,16.7-2.1c7.6-0.9,15.1-1.8,22.7-2.3
		c1.7-0.1,3.3-0.1,5,0C349.4,321.9,351.5,322.7,353.1,324.4z"/>
	<path class="st6" d="M296.1,260.2c2.6,1,4.9,1.9,7.3,2.9c5.8,2.4,11.7,4.7,17.5,7.1c1.5,0.6,2,1.9,1.5,3.4
		c-0.5,1.3-1.9,1.8-3.4,1.2c-5.4-2.2-10.8-4.3-16.2-6.5c-4.3-1.7-8.6-3.5-13-5.2c-1.1-0.4-1.8-1.1-2-2.3c-0.1-1.2,0.6-2,1.6-2.6
		c8.2-4.8,16.4-9.6,24.6-14.3c0.9-0.5,1.8-1,2.9-0.5c0.9,0.4,1.5,1.2,1.6,2.2c0.1,1.1-0.5,1.9-1.5,2.4c-6,3.5-11.9,6.9-17.9,10.4
		C298.2,258.9,297.1,259.3,296.1,260.2z"/>
	<path class="st6" d="M269,304.5c-4.5,0-8.4-0.5-12.1-2.3c-5.7-2.7-8.9-7.4-10.3-13.4c-0.3-1.2-0.5-2.4-0.5-3.7
		c0-1.7,1.1-2.9,2.5-2.9c1.4,0,2.4,1.2,2.5,2.8c0.1,3.2,1.1,6.1,3,8.7c2.1,2.8,5,4.4,8.4,5.1c5.2,1.1,10.4,1,15.4-1
		c4.6-1.8,7.3-5.3,8.5-10c0.3-1.2,0.5-2.3,0.5-3.5c0-1.2,0.8-2.1,1.8-2.3c1.4-0.3,2.5,0.4,3,1.6c0.5,1.3,0.1,2.6-0.1,3.9
		c-1.5,9.1-8.2,15.4-17.3,16.6C272.3,304.3,270.4,304.6,269,304.5z"/>
	<path class="st6" d="M224.8,275.2c-1.3,0.1-2-0.6-2.4-1.7c-0.4-1.1,0-2.1,1.1-2.8c2.2-1.3,4.5-2.5,6.7-3.7
		c5.1-2.8,10.2-5.7,15.3-8.5c0.6-0.3,0.6-0.5,0-0.9c-5.9-3.7-11.8-7.3-17.7-11c-0.8-0.5-1.8-1-2.1-2.1c-0.3-1-0.1-1.9,0.7-2.6
		c0.9-0.7,2-0.9,3-0.2c2,1.2,3.9,2.4,5.9,3.7c5.6,3.5,11.2,7,16.8,10.6c1.4,0.9,1.6,1.6,1.3,3c-0.2,0.7-0.5,1.1-1.1,1.5
		c-4.4,2.4-8.8,4.9-13.2,7.3c-4.3,2.4-8.5,4.7-12.8,7.1C225.9,275.1,225.4,275.3,224.8,275.2z"/>
	<path class="st4" d="M306.4,363.3c-2.5,0.1-2.6,0.1-3-2.4c-0.4-2.1-0.7-4.3-1.1-6.4c-0.2-0.8,0.1-1,0.8-1.1
		c5.6-0.7,11.2-1.5,16.7-2.2c1.3-0.2,2.7-0.3,4-0.5c2.5-0.4,4.1-2.4,3.9-4.7c-0.3-2.6-2.2-4.2-4.8-3.9c-4.8,0.5-9.5,1.2-14.3,1.8
		c-2.3,0.3-4.5,0.5-6.8,0.9c-0.8,0.1-0.9-0.1-1-0.8c-0.2-2.1-0.5-4.2-0.6-6.3c-0.1-1.8,0.3-2.4,2.1-2.8c3.3-0.8,6.6-1,10-1.4
		c8.4-1,16.8-1.9,25.2-2.8c2.6-0.3,5.2-0.5,7.8-0.5c1.1,0,1.6,0.4,1.9,1.5c0.9,4.2,1.3,8.5,1.8,12.7c0.6,4.1,1,8.2,1.6,12.2
		c0.2,1.2-0.5,1.2-1.2,1.3c-4.6,0.6-9.2,1.2-13.8,1.7c-8.5,1.1-16.9,2.2-25.4,3.3C309,363.1,307.7,363.2,306.4,363.3z"/>
</g>
</svg>
