<?xml version="1.0" encoding="utf-8"?>
<!-- Generator: Adobe Illustrator 25.3.1, SVG Export Plug-In . SVG Version: 6.00 Build 0)  -->
<svg version="1.1" id="Layer_1" xmlns="http://www.w3.org/2000/svg" xmlns:xlink="http://www.w3.org/1999/xlink" x="0px" y="0px"
	 viewBox="0 0 576 576" style="enable-background:new 0 0 576 576;" xml:space="preserve">
<style type="text/css">
	.st0{fill-rule:evenodd;clip-rule:evenodd;fill:#333333;}
	.st1{fill-rule:evenodd;clip-rule:evenodd;fill:#CCA445;}
	.st2{fill-rule:evenodd;clip-rule:evenodd;fill:#737373;}
</style>
<g>
	<path class="st0" d="M273.9,202.4c0.8-1.5,3.3-2.8,5.2-1.2c1.2-46.5,1.5-95.8,3.3-140.5c-0.1-3,2.3-5,3.5-5c1.2,0,3.6,1.6,4,5
		c1.6,38.3,1.3,86.4,2.8,127.8c0.2,6.3-1.2,13.1,0.5,17.9c1.1,3.3,5.6,5.4,5.2,10c-0.3,3.5-2.7,4.4-4.7,6.8c1.7,9.3-2.3,17.3,0,25.1
		c1.1,3.7,5.9,6.1,5.7,10c-0.1,3.3-4.3,5-5.2,8c-1.9,6.7,2.3,12.9,0.5,21.1c1.2,1.6,2.7,17.1,1.1,21c-1.3,3.1,0.1,7.1-0.6,10.1
		c-0.5,1.9,0.4,4.1,0.5,6.4c0.3,5.4,0.2,11.8,0.5,17.1c0.2,3.7-0.9,8.3,0,11.5c0.9,3.1,5.6,5.2,5.7,9.6c0,3.3-2.6,6-5.2,8.4
		c-0.2,26.2,1.6,50.7,1.4,76.8c-4.2,4.3-19,4.3-23.7,0.4c-0.7-22.7,0.9-49.7,0.9-74.8c0-8.6,2.4-17.9,0.5-24.7
		c-0.8-3-4.1-4.9-4.7-7.2c-1-3.5-1-6.9,0-10c1-3.2,4.8-4.8,5.7-8c1.2-4,0.3-11,0.7-14.7c0.7-6.3-0.3-10.5-0.2-21.1
		c-5.6-3.9-6.6-15.5,0.5-18.7c0.2-7.6,0.6-24.5,1.4-23.9c-0.3-4.8-5.9-7.2-5.2-13.5c0.3-2.8,4.3-4,5.2-7.3c0.7-2.3,0.8-14.6,0-17
		C278.1,204.9,275,205.9,273.9,202.4z"/>
	<path class="st0" d="M307.7,527.1c7.6-1.3,10.1-5.8,3.6-13c-6.5-7.2-11.3-9.4-10.1-23.7c1.2-14.3-1.8-34.4,0-40.3
		c1.8-5.8,5.4-6.3,0.6-17.9c-4.8-11.6-4.8-22.8-1.8-29.1c3-6.3,8.9-18.8-1.8-21.9c-10.7-3.1-33.3-5.4-35.1,4
		c-1.8,9.4,11.3,32.2,11.3,39.8c0,7.6,0,32.2,0,38c0,5.8,4.8,32.2-0.6,39.8c-5.4,7.6-16.7,14.3-11.3,22.4
		C267.8,533.3,294.6,529.3,307.7,527.1z"/>
	<path class="st1" d="M273.9,202.4c0.9,2.8,3,2.8,4.4,4c6.2,3,14,6.5,14,6.5s1.5,5.5,1.6,10.3c2-2.2,4.5-3.4,4.7-6.8
		c0.3-4-2.7-7.5-5.1-8.8c-5.5-2.6-12.4-4.9-14.3-6.3C277.2,199.5,274.7,200.8,273.9,202.4z"/>
	<path class="st1" d="M294.1,266c0.1-0.4,0.3-0.7,0.6-1c1.4-2.4,5.4-3.8,5.6-6.7c0.2-3.4-4.3-5.9-6-8.9
		c-5.2-7.2-14.4-15.1-14.4-15.1l-0.3-14.2c-0.2,3.3-0.8,3.3-1.7,4.4c-2.1,2.7-4.4,5.9-4.7,8.6c-0.7,6.4,3.6,9.4,6,12.2
		c2.3,3.3,9.9,10.4,12.3,11.7C293.7,258.4,294.1,266.1,294.1,266z"/>
	<path class="st1" d="M300.4,296.3c0.2-5.5-3.8-8-5.6-9.1c-3.3-1.6-16.6-12.1-16.8-12.9c-0.2-0.9-0.3-5.1-0.3-5.1
		c-7.1,3.2-6,14.8-0.5,18.7c5.1,3.2,14.4,9.3,17.1,14.1c0.8,1.4,1.3,6.6,1.5,6.1C297.4,304.2,299.9,301.7,300.4,296.3z"/>
	<path class="st1" d="M296.3,353.7c-6.3-5.7-17.4-17.6-18.8-19c-1.5-1.5,0-13.3,0-13.3l-0.4,0.1c-0.1,0.8-0.2,1.6-0.4,2.2
		c-0.9,3.1-4.7,4.8-5.7,8c-1,3.1-1,6.5,0,10c0.7,2.3,2.6,4.9,4.7,7.2c1.5,1.7,20.4,17.7,20.4,17.7l0.4,4.6c2.6-2.4,5.2-5,5.2-8.4
		C301.8,358.7,297.9,356.3,296.3,353.7z"/>
	<path class="st2" d="M284.3,60.9c-1,6.5-3,134.1-0.7,137.7c2.3,3.6,5.3,8.2,3.6-1.6c-1.6-9.9-2.6-13.8-1.6-31.2
		c1-17.4,0.3-37.1,0.3-54.2C286,94.4,285.6,52.4,284.3,60.9z"/>
	<path class="st2" d="M282,211.5c-1.3,4.8-1.6,20.7,0.3,22.4c2,1.6,4.3,6.2,3-0.3C284,226.9,283,207.9,282,211.5z"/>
	<path class="st2" d="M280.7,250.6c0,0,1,1.3,3.3,3.6c2.3,2.3,0,19.7,0.7,21.7c0.7,2-4.6,0.7-4.9-2
		C279.4,271.3,279.7,254.9,280.7,250.6z"/>
	<path class="st2" d="M280.4,292.3c2,1.3,4.3,2.3,4.6,4.6c0.3,2.3,2,46.7,1.3,45.4c-0.7-1.3-5.3-4.6-5.9-7.2
		C279.7,332.4,280.4,292.3,280.4,292.3z"/>
	<path class="st2" d="M281,357.1c0,0,6.9,4.3,6.9,6.6c0,2.3-2,15.4-2,15.4s-3.6,5.6-5.3,0.3C279,374.2,281.3,361.7,281,357.1z"/>
	<path class="st2" d="M273.1,381.3c0,0-11.3,4.9,5.9,5.4c17.3,0.5,18.2,3.7,13.8,3.7c-4.4,0-20.2-1.5-20,3c0.2,4.4,0,11.3,2.7,16.3
		c2.7,4.9,4.9,15.3,4.9,22.4c0,7.1,0.7,34.5,3.2,48.8c2.5,14.3,1.7,28.4-6.2,35c-7.9,6.7-15,9.4-12.6,4.7
		c2.5-4.7,17.5-7.9,14.5-35.7c-3-27.9-2.2-26.1-2.2-31.8c0-5.7,2.2-21.7,0.2-26.9c-2-5.2-0.7-6.4-3.5-11.6c-2.7-5.2-4.7-16-7.2-22.4
		C264.5,385.8,263.3,381.3,273.1,381.3z"/>
</g>
</svg>
