<?xml version="1.0" encoding="utf-8"?>
<!-- Generator: Adobe Illustrator 25.3.1, SVG Export Plug-In . SVG Version: 6.00 Build 0)  -->
<svg version="1.1" id="Layer_1" xmlns="http://www.w3.org/2000/svg" xmlns:xlink="http://www.w3.org/1999/xlink" x="0px" y="0px"
	 viewBox="0 0 576 576" style="enable-background:new 0 0 576 576;" xml:space="preserve">
<style type="text/css">
	.st0{fill-rule:evenodd;clip-rule:evenodd;fill:#CCA445;}
	.st1{fill-rule:evenodd;clip-rule:evenodd;fill:#413419;}
	.st2{opacity:0.25;fill-rule:evenodd;clip-rule:evenodd;fill:#1B1222;}
	.st3{fill-rule:evenodd;clip-rule:evenodd;}
	.st4{fill-rule:evenodd;clip-rule:evenodd;fill:#CE6875;}
	.st5{fill-rule:evenodd;clip-rule:evenodd;fill:#D86E7B;}
	.st6{fill-rule:evenodd;clip-rule:evenodd;fill:#E47480;}
</style>
<g>
	<path class="st0" d="M281.1,122.7c5.4-5.7,12.1-9.9,18.1-14.9c0-5.1,0-10.3,0-15.4c-4.5-4.2-9.1-8.4-13.6-12.7
		c1.6,4.1,7,8.4,9.5,13.1c0,4.7,0,9.4,0,14c-4,4.6-9,8.2-14,11.8h-6.9c-5-3.5-10-7.2-14-11.8c0-4.7,0-9.4,0-14
		c2.5-4.7,7.9-9,9.5-13.1c-4.5,4.2-9,8.5-13.6,12.7c0,5.1,0,10.3,0,15.4c6,5,12.7,9.3,18.1,14.9c-2.7,66-0.6,139.1-3.6,205.9
		c-0.4,8.8,1,18.8-0.5,26.7c-0.5,2.8-2.3,5.6-3.2,8.6c-3,10.5-3.4,27.8,0.5,37.6c-2.8,4.9-4.7,15.9,1.4,18.6c-7.7,3.6-2.5,16,0,21.3
		c-3.5,8.5-5.2,19.1-4.1,31.2c0.4,4.5,2.8,8.7,2.7,12.7c-0.1,5.4-4.5,10.4-2.7,16.7c1.2,1.7,2.5,3.2,4.1,4.5
		c7.4-1.3,15.6,2.3,19.9-1.4c5.4-4.6,0.4-14.3-0.9-20.4c2.8-8.5,4.2-19.6,2.7-30.8c-0.6-4.6-3.8-9.3-3.6-13.1c0.1-3.2,3-6.3,3.6-9.5
		c1.3-6-0.3-9.5-4.1-11.8c7.1-2.2,4-13.8,1.4-18.6c3.2-7.7,4-19.9,2.7-29.9c-0.8-5.9-4-10.6-5-15.8c-2.5-13.7-0.2-30.9-0.9-46.6
		L281.1,122.7z"/>
	<path class="st1" d="M287.8,484.7c2.8-8.5,4.2-19.6,2.7-30.8c-0.6-4.6-3.8-9.3-3.6-13.1c0.1-3.2,3-6.3,3.6-9.5
		c1.3-6-0.3-9.5-4.1-11.8c7.1-2.2,4-13.8,1.4-18.6c3.2-7.7,4-19.9,2.7-29.9c-0.8-5.9-4-10.6-5-15.8c-0.2-1.1-0.4-2.3-0.5-3.4
		c-0.1,0-0.2,0-0.2,0c-7.5,2.8-14.1,0.5-14.1,0.5l-0.1,0.2c-0.1,0.9-0.2,1.9-0.4,2.8c-0.5,2.8-2.3,5.6-3.2,8.6
		c-3,10.5-3.4,27.8,0.5,37.6c-2.8,4.9-4.7,15.9,1.4,18.6c-7.7,3.6-2.5,16,0,21.3c-3.5,8.5-5.2,19.1-4.1,31.2
		c0.4,4.5,2.8,8.7,2.7,12.7c-0.1,5.4-5,10.6-2.7,16.7c0.7,2,1.2,3.4,4.1,4.5c1.6,0.6,15.6,2.3,19.9-1.4
		C294,500.5,289.1,490.8,287.8,484.7z"/>
	<path class="st2" d="M285.6,79.7l10.9,13l-1.4,8v6.1c-0.3,0.4-0.7,0.7-1.1,1.1c-3.8,4-8.3,7.4-13,10.7h-3.6l0.1,234.9
		c0,0,0.2,6,1.6,7.6c1.4,1.7,11.1,24.8,0,40.8c0,0,7.1,11.6-0.5,17.9c0,0,6.1,3.3,1.2,21c0,0,4.4,25-0.2,39.4
		c-2.2,6.9,9.3,16,4,26.7c2-0.1,3.8-0.5,5.1-1.7c5.4-4.6,0.4-14.3-0.9-20.4c2.8-8.5,4.2-19.6,2.7-30.8c-0.6-4.6-3.8-9.3-3.6-13.1
		c0.1-3.2,3-6.3,3.6-9.5c1.3-6-0.3-9.5-4.1-11.8c7.1-2.2,4-13.8,1.4-18.6c3.2-7.7,4-19.9,2.7-29.9c-0.8-5.9-4-10.6-5-15.8
		c-2.5-13.7-0.2-30.9-0.9-46.6l-3.5-186c4.7-5,10.6-8.9,16-13.2l0,0c0.7-0.6,1.4-1.1,2.1-1.7V92.3C294.6,88.1,290.1,83.9,285.6,79.7
		z M260.1,106.8v-14c2.5-4.7,7.9-9,9.5-13.1l-11.8,13l0.1,14.6l15.1,11.7l2.1,0.5h1.2l0.1-0.9h-2.3
		C269.1,115,264.2,111.4,260.1,106.8z"/>
	<g>
		<path class="st3" d="M278,118c0,0-11.1-16.3-15.6-22.4c2.1-2.8,4-5.7,6.2-8.5c3.8-0.7,12.8-1.2,18.2,0.3c2.5,2.3,4.2,5.4,6.2,8.2
			C288.8,101.7,278,118,278,118z"/>
		<path class="st4" d="M278,118c0,0-11.1-16.3-15.6-22.4c2.1-2.8,4-5.7,6.2-8.5c3.8-0.7,12.8-1.2,18.2,0.3c2.5,2.3,4.2,5.4,6.2,8.2
			C288.8,101.7,278,118,278,118z"/>
		<path class="st5" d="M278,117.9l8.1-23.4l-17.6-2l9.5,25.2C277.9,117.7,277.9,117.8,278,117.9z"/>
		<path class="st6" d="M278.1,118l-8.1-27l-4.3,0.1c-1.1,1.5-2.2,3-3.2,4.5C266.9,101.7,278,118,278.1,118
			C278,118,278,118,278.1,118z"/>
		<path class="st6" d="M268.6,87c-2.1,2.7-4.1,5.7-6.2,8.5l8.6-1.2l15.5,0.1l6.5,1.1c-2-2.8-3.6-6-6.2-8.2
			C281.4,85.8,272.4,86.4,268.6,87z"/>
		<path class="st5" d="M288.1,91.1c0,0,0-1.1,0-2.5c-0.4-0.5-0.8-0.9-1.3-1.3c-3.3-0.9-7.9-1-11.9-0.9l-3.9,7.9l14.3,0.1L288.1,91.1
			z"/>
		<path class="st4" d="M286.8,87.3c-1.6-0.4-3.4-0.7-5.4-0.8l-0.2,0.2l4.7,7.8l0.5,0l6.5,1.1C291,92.7,289.4,89.6,286.8,87.3z"/>
	</g>
	<polygon class="st0" points="279.8,96.8 277.5,79.6 275.1,96.8 275.1,96.8 275.1,108.7 275.1,108.7 276.7,125.8 278.5,125.9 
		279.8,108.7 279.8,108.7 279.8,96.8 	"/>
	<polygon class="st2" points="277.8,115.5 277.4,125.9 278.5,125.9 279.8,108.7 279.8,108.7 279.8,96.8 279.8,96.8 277.5,79.6 
		278.1,96.7 	"/>
</g>
</svg>
