<?xml version="1.0" encoding="utf-8"?>
<!-- Generator: Adobe Illustrator 25.3.1, SVG Export Plug-In . SVG Version: 6.00 Build 0)  -->
<svg version="1.1" id="Layer_1" xmlns="http://www.w3.org/2000/svg" xmlns:xlink="http://www.w3.org/1999/xlink" x="0px" y="0px"
	 viewBox="0 0 576 576" style="enable-background:new 0 0 576 576;" xml:space="preserve">
<style type="text/css">
	.st0{fill-rule:evenodd;clip-rule:evenodd;fill:#CCA445;}
	.st1{fill-rule:evenodd;clip-rule:evenodd;fill:#413419;}
	.st2{fill-rule:evenodd;clip-rule:evenodd;fill:#9A782C;}
	.st3{opacity:0.25;fill-rule:evenodd;clip-rule:evenodd;fill:#1B1222;enable-background:new    ;}
</style>
<g>
	<path class="st0" d="M492.2,311.6c0,2.4-1,3.1-1,3.1c-55.3,1.6-195,2.9-248,5.3c-4.3,0.2-10-1.1-13.6,0c-2.8,0.8-3,4.4-6.8,5.1
		c-5.6,1-9.9-2.8-14.4-4.2c-5.3,2.8-16.8,7.5-20.4,0c-9.1-0.9-19.9,1.3-28.9,0.4c-8.4-0.8-32.2,0.3-46.3,0.8c-2.7,0.1-6.2-0.5-8.5,0
		c-6.1,1.5-11.1,11.5-17,12.7c-3.8-1.8-12.4-14.5-12.1-22.7c0.3-7.7,9.1-20.7,12.1-21.5c6.1,2.1,10.9,9.2,17,12.7
		c9.2-0.3,18.8,0.1,27.6,0.8c1.2,0.1,2.1,0,2.6,0c1.6-0.1,3.1-0.9,4.2-0.8c1.6,0,3.5,1.2,5.1,1.3c3,0.1,6.7-0.9,10.6-0.9
		c3.4,0.1,7.2,0.4,10.6,0.4c6.9,0.1,16.3,1.9,21.7,0.4c2.4-0.6,2.8-3.5,5.9-4.3c5.8-1.3,11.1,2,15.3,4.3c3.9-2,10.7-5.6,16.1-3.8
		c2.7,0.9,2.7,2.8,5.1,4.2c62.9,1.4,198.4,2.7,261.9,3.3C491.2,308.5,492.3,309.5,492.2,311.6z"/>
	<path class="st1" d="M224.1,300.9c-5.4-1.8-12.3,1.9-16.1,3.8c-4.2-2.3-9.5-5.6-15.3-4.3c-3.1,0.7-3.6,3.6-5.9,4.3
		c-5.4,1.4-14.7-0.4-21.7-0.4c-3.5,0-7.2-0.3-10.6-0.4c-3.9-0.1-7.6,0.9-10.6,0.9c-1.6-0.1-3.5-1.2-5.1-1.3c-1.1,0-2.7,0.8-4.2,0.8
		c-0.5,0-1.3,0.1-2.6,0c-8.8-0.8-18.4-1.2-27.6-0.8c-6.1-3.5-10.9-10.6-17-12.7c-2.9,0.8-11.7,13.8-12.1,21.5
		c-0.4,8.2,8.3,21,12.1,22.7c5.9-1.3,10.9-11.3,17-12.7c2.3-0.5,5.8,0.1,8.5,0c14.2-0.6,37.9-1.7,46.3-0.8c9,0.9,19.7-1.3,28.9-0.4
		c3.6,7.5,15.1,2.8,20.4,0c4.6,1.4,8.8,5.2,14.4,4.2c3.5-0.6,4-3.7,6.2-4.8c-4.5-9.3,0.1-15.1,0.1-15.1
		C226.9,303.7,226.8,301.8,224.1,300.9z"/>
	<path class="st2" d="M469.2,315.3c8.3-0.2,15.7-0.4,22-0.5c0,0,1-0.7,1-3.1c0-2.1-1.1-3.2-1.1-3.2c-6.6-0.1-14-0.1-22-0.2v7H469.2z
		"/>
	<path class="st3" d="M208.3,313.3c-5-1.5-16.2,8-20.4,0c0,0-27.7,1.8-36,1.8s-10.6-2.1-19.8-2.1c-9.1,0-29.8,1.2-33.6,1.2
		c-3.2,0-12,14.6-20.8,7.9c2.8,6,7.1,11.7,9.6,12.8c5.9-1.3,10.9-11.3,17-12.7c2.3-0.5,5.8,0.1,8.5,0c14.2-0.6,37.9-1.7,46.3-0.8
		c9,0.9,19.7-1.3,28.9-0.4c3.6,7.5,15.1,2.8,20.4,0c4.6,1.4,8.8,5.2,14.4,4.2c3.8-0.7,4-4.3,6.8-5.1c3.6-1.1,9.3,0.2,13.6,0
		c53-2.3,192.7-3.7,248-5.3c0,0,1-0.7,1-3.1l-266.5,1.1C225.7,312.7,223.5,317.8,208.3,313.3z"/>
</g>
</svg>
