<?xml version="1.0" encoding="utf-8"?>
<!-- Generator: Adobe Illustrator 25.3.1, SVG Export Plug-In . SVG Version: 6.00 Build 0)  -->
<svg version="1.1" id="Layer_1" xmlns="http://www.w3.org/2000/svg" xmlns:xlink="http://www.w3.org/1999/xlink" x="0px" y="0px"
	 viewBox="0 0 288 288" style="enable-background:new 0 0 288 288;" xml:space="preserve">
<style type="text/css">
	.st0{fill:none;stroke:#F2A221;stroke-width:4;stroke-linecap:round;stroke-linejoin:round;stroke-miterlimit:10;}
</style>
<line class="st0" x1="188.9" y1="195" x2="179.1" y2="215.3"/>
<line class="st0" x1="200.1" y1="220.6" x2="177.8" y2="216.9"/>
<circle class="st0" cx="113.1" cy="214.2" r="6.4"/>
<circle class="st0" cx="155.7" cy="45.8" r="6.4"/>
<path class="st0" d="M108.5,207c-4.5-5.4-40.4-49.9-26.4-104.4c2.2-8.7,13.6-53,55-68.1c4.3-1.6,36.5-12.7,66.5,5.4
	c28,16.9,42.4,52.2,35.7,88.4c-1.4,10.5-5.1,27.4-16,45.3c-15.1,24.9-35.5,37.8-45.5,43.2c-9.7,0.7-33.3,0.9-53-14.4
	c-31.5-24.4-31.5-71.4-20.8-101.3c10.8-30.2,33.7-46.7,43.6-53l0,0"/>
</svg>
