<?xml version="1.0" encoding="utf-8"?>
<!-- Generator: Adobe Illustrator 25.3.1, SVG Export Plug-In . SVG Version: 6.00 Build 0)  -->
<svg version="1.1" id="Layer_1" xmlns="http://www.w3.org/2000/svg" xmlns:xlink="http://www.w3.org/1999/xlink" x="0px" y="0px"
	 viewBox="0 0 288 288" style="enable-background:new 0 0 288 288;" xml:space="preserve">
<style type="text/css">
	.st0{fill:none;stroke:#F3A21F;stroke-width:4;stroke-linecap:round;stroke-linejoin:round;stroke-miterlimit:10;}
	.st1{fill:none;stroke:#F3A21F;stroke-width:4;stroke-linecap:round;stroke-miterlimit:10;}
	.st2{fill:none;stroke:#F3A21F;stroke-width:4;stroke-miterlimit:10;}
	.st3{fill:#FFFFFF;stroke:#F3A21F;stroke-width:4;stroke-miterlimit:10;}
</style>
<path class="st0" d="M158.5,62.6c7.2,3,22.6,10.7,33.9,27.7c19.6,29.5,10.1,62.2,8.6,66.9c-2.6,6.4-9.2,19.9-23.6,30.8
	c-19,14.3-39.3,14.8-45.8,14.7c-5.4-0.7-34.9-5.1-52.9-31.2c-11.1-16-12.3-32.1-12.6-37.2c-0.2-4.4-0.2-26.6,13.7-45.2
	c17.9-23.9,47.2-27,47.2-27l0.9,174.2c-3.2-4.4-6.4-8.8-9.6-13.2"/>
<line class="st1" x1="127.8" y1="236.4" x2="135.7" y2="223.4"/>
<g>
	<g>
		<path class="st2" d="M39.6,180.4"/>
	</g>
</g>
<circle class="st3" cx="155.4" cy="60.6" r="4.3"/>
</svg>
