<?xml version="1.0" encoding="utf-8"?>
<!-- Generator: Adobe Illustrator 25.3.1, SVG Export Plug-In . SVG Version: 6.00 Build 0)  -->
<svg version="1.1" id="Layer_1" xmlns="http://www.w3.org/2000/svg" xmlns:xlink="http://www.w3.org/1999/xlink" x="0px" y="0px"
	 viewBox="0 0 576 576" style="enable-background:new 0 0 576 576;" xml:space="preserve">
<style type="text/css">
	.st0{fill-rule:evenodd;clip-rule:evenodd;fill:#BDCE9C;}
	.st1{fill-rule:evenodd;clip-rule:evenodd;fill:#89996A;}
	.st2{fill-rule:evenodd;clip-rule:evenodd;fill:#CCA445;}
	.st3{fill-rule:evenodd;clip-rule:evenodd;fill:#A8882F;}
	.st4{fill-rule:evenodd;clip-rule:evenodd;fill:#D3E3C0;}
</style>
<g>
	<path class="st0" d="M89.4,293.5c12-1.3,19.3,5.1,26.6,5.1c7.3,0,14.6-4.7,14.6-4.7s63,0.4,67.7,0.4c1.6,0,2.7-0.2,3.6-0.6
		c1.6,1.5,3.2,3.4,5.4,3.7c6.5,1.2,11.4-4.1,15.6-4.1c4.7,0,9,5.1,15.2,4.1c4.4-0.7,4-4.1,7.8-4.9c4.3-1,10.8-0.2,16.4-0.4
		c5.6-0.2,11.7,0,16.9,0c75.9,0,156.8-3.7,229.9-4.1c1.2,1.6,3,2.6,5.1,2.6c3.5,0,6.4-2.9,6.4-6.4s-2.9-6.4-6.4-6.4
		c-2.4,0-4.4,1.3-5.5,3.2c-88.6-1-176.1-2.9-264.1-4.5c-2.5-2.1-3.4-4.5-7-4.9c-5.1-0.6-11,3.4-15.2,4.5c-4.3-1.7-8.7-5.1-14.4-4.5
		c-2.8,0.3-4.3,2.5-5.9,3.8c-0.9-0.4-2.1-0.6-3.8-0.6c-4.7,0-67.7,0.4-67.7,0.4s-7.3-4.7-14.6-4.7c-7.3,0-14.6,6.4-26.6,5.1
		c-27.1-20.4-35.3,1.8-36.4,10.1C54.4,293.5,67.4,314.6,89.4,293.5z M175.3,285.1c0,2.5-2,4.6-4.6,4.6c-2.5,0-4.6-2-4.6-4.6
		c0-2.5,2-4.6,4.6-4.6S175.3,282.6,175.3,285.1z M150.8,285.1c0,2.5-2,4.6-4.6,4.6c-2.5,0-4.6-2-4.6-4.6c0-2.5,2-4.6,4.6-4.6
		C148.7,280.5,150.8,282.6,150.8,285.1z M64.8,284.8c0-4.1,3.3-7.4,7.4-7.4s7.4,3.3,7.4,7.4s-3.3,7.4-7.4,7.4S64.8,288.9,64.8,284.8
		z M95.9,280.5c2.5,0,4.6,2,4.6,4.6c0,2.5-2,4.6-4.6,4.6c-2.5,0-4.6-2-4.6-4.6C91.4,282.6,93.4,280.5,95.9,280.5z M109.9,284.8
		c0-4.1,3.3-7.4,7.4-7.4s7.4,3.3,7.4,7.4s-3.3,7.4-7.4,7.4C113.3,292.2,109.9,288.9,109.9,284.8z"/>
	<path class="st1" d="M514.2,287.5c-6.2-0.2-5.7-5-5.7-5s-0.6,2.7-2.2,2.8c-1.6,0.1-263.9,1.3-263.9,1.3s-3.4,6.3-17.7,0
		c-14.3-6.3-13.1,13.7-26.8-0.6c-7.9-8.2-13.5-0.2-14,8.3c7.5,0,13.1,0.1,14.4,0.1c1.6,0,2.7-0.2,3.6-0.6c1.6,1.5,3.2,3.4,5.4,3.7
		c6.5,1.2,11.4-4.1,15.6-4.1c4.7,0,9,5.1,15.2,4.1c4.4-0.7,4-4.1,7.8-4.9c4.3-1,10.8-0.2,16.4-0.4c5.6-0.2,11.7,0,16.9,0
		c75.9,0,156.8-3.7,229.9-4.1c1.2,1.6,3,2.6,5.1,2.6c3.5,0,6.4-2.9,6.4-6.4C520.5,284.3,520.2,287.7,514.2,287.5z"/>
	<path class="st2" d="M89.4,293.5c12-1.3,19.3,5.1,26.6,5.1c7.3,0,14.6-4.7,14.6-4.7s63,0.4,67.7,0.4c1.6,0,2.7-0.2,3.6-0.6l0,0
		c-3.9-10.6,0.2-18.4,0.2-18.4c-0.9-0.4-2.1-0.6-3.8-0.6c-4.7,0-67.7,0.4-67.7,0.4s-7.3-4.7-14.6-4.7c-7.3,0-14.6,6.4-26.6,5.1
		c-27.1-20.4-35.3,1.8-36.4,10.1C54.4,293.5,67.4,314.6,89.4,293.5z M175.3,285.1c0,2.5-2,4.6-4.6,4.6c-2.5,0-4.6-2-4.6-4.6
		c0-2.5,2-4.6,4.6-4.6S175.3,282.6,175.3,285.1z M150.8,285.1c0,2.5-2,4.6-4.6,4.6c-2.5,0-4.6-2-4.6-4.6c0-2.5,2-4.6,4.6-4.6
		C148.7,280.5,150.8,282.6,150.8,285.1z M124.8,284.8c0,4.1-3.3,7.4-7.4,7.4s-7.4-3.3-7.4-7.4s3.3-7.4,7.4-7.4
		C121.5,277.4,124.8,280.7,124.8,284.8z M95.9,289.7c-2.5,0-4.6-2-4.6-4.6c0-2.5,2-4.6,4.6-4.6c2.5,0,4.6,2,4.6,4.6
		C100.5,287.6,98.5,289.7,95.9,289.7z M72.2,277.4c4.1,0,7.4,3.3,7.4,7.4s-3.3,7.4-7.4,7.4s-7.4-3.3-7.4-7.4
		C64.8,280.7,68.1,277.4,72.2,277.4z"/>
	<path class="st3" d="M89.4,293.5c12-1.3,19.3,5.1,26.6,5.1c7.3,0,14.6-4.7,14.6-4.7s63,0.4,67.7,0.4c1.6,0,2.7-0.2,3.6-0.6l0,0
		c-3.9-10.6,0.2-18.4,0.2-18.4c-0.6-0.2-1.3-0.4-2.2-0.5c-1.4,2.1-2.4,5.1-2.1,9.7s0.5,6.9,0.7,8c0.3,0,0.4,0,0.4,0s-0.1,2-0.4,0
		c-2.9,0.1-19.9,0.6-20.7,0.6c-0.9,0-42.3,0.3-46.3-1.7c0,0-8.3,5.4-16.3,4.9c-8-0.6-17.1-6.3-26-4.3c0,0-21.7,22.3-36.3-6.3
		C54.4,293.5,67.4,314.6,89.4,293.5z"/>
	<path class="st4" d="M516.7,283.2c-0.9,0-1.7-0.7-1.7-1.7c0-0.9,0.7-1.7,1.7-1.7c0.9,0,1.7,0.7,1.7,1.7S517.7,283.2,516.7,283.2z"
		/>
	<path class="st3" d="M175.3,285.1c0,0.3,0,0.5-0.1,0.8c0.2-0.5,0.3-0.9,0.3-1.4c0-2.5-2.1-4.6-4.7-4.6s-4.7,2.1-4.7,4.6
		c0,0.4,0.1,0.7,0.1,1c0-0.1,0-0.2,0-0.3c0-2.5,2-4.6,4.6-4.6C173.3,280.5,175.3,282.6,175.3,285.1z"/>
	<path class="st3" d="M141.4,284.4c0,0.5,0.1,1,0.3,1.5c0-0.3-0.1-0.5-0.1-0.8c0-2.5,2-4.6,4.6-4.6c2.5,0,4.6,2,4.6,4.6
		c0,0.1,0,0.2,0,0.3c0.1-0.3,0.1-0.6,0.1-1c0-2.5-2.1-4.6-4.7-4.6C143.5,279.8,141.4,281.9,141.4,284.4z"/>
	<path class="st3" d="M91.3,284.4c0,0.2,0,0.4,0.1,0.6c0-2.5,2.1-4.5,4.6-4.5s4.6,2,4.6,4.6c0,0.3,0,0.6-0.1,0.9
		c0.2-0.5,0.3-1,0.3-1.6c0-2.5-2.1-4.6-4.7-4.6C93.4,279.8,91.3,281.9,91.3,284.4z"/>
	<path class="st3" d="M117.4,276.3c-4.3,0-7.8,3.4-7.8,7.6c0,1.1,0.3,2.2,0.7,3.2c-0.2-0.7-0.4-1.5-0.4-2.3c0-4.1,3.3-7.4,7.4-7.4
		s7.4,3.3,7.4,7.4c0,0.8-0.2,1.6-0.4,2.3c0.5-1,0.8-2.1,0.8-3.2C125.1,279.7,121.7,276.3,117.4,276.3z"/>
</g>
</svg>
