<?xml version="1.0" encoding="utf-8"?>
<!-- Generator: Adobe Illustrator 25.3.1, SVG Export Plug-In . SVG Version: 6.00 Build 0)  -->
<svg version="1.1" id="Layer_1" xmlns="http://www.w3.org/2000/svg" xmlns:xlink="http://www.w3.org/1999/xlink" x="0px" y="0px"
	 viewBox="0 0 288 288" style="enable-background:new 0 0 288 288;" xml:space="preserve">
<style type="text/css">
	.st0{fill:none;stroke:#F3A21F;stroke-width:4;stroke-miterlimit:10;}
	.st1{fill:none;stroke:#F2A221;stroke-width:4;stroke-linecap:round;stroke-miterlimit:10;}
	.st2{fill:none;stroke:#F2A221;stroke-width:4;stroke-miterlimit:10;}
</style>
<g>
	<g>
		<path class="st0" d="M39.6,180.4"/>
	</g>
</g>
<line class="st1" x1="125.4" y1="169.4" x2="128.9" y2="151.5"/>
<line class="st1" x1="109" y1="152.3" x2="127.2" y2="150.7"/>
<circle class="st2" cx="211.5" cy="165.6" r="5.1"/>
<circle class="st2" cx="58.5" cy="117.8" r="5.1"/>
<path class="st2" d="M55.9,120.5c-25,13.8-33.3,39.3-25.3,54.1c6.6,12.1,22.8,14.7,26,15.1c5.5,0.4,11.7,0.2,18.3-1
	c30.1-5.6,48-28.6,54-37.1c2.8-5.6,14.2-27,40.1-37.5c20-8.1,37.9-5.2,44.8-3.7c12.5,2.6,21.5,13.7,21.6,26.3
	c0,12.3-8.5,23.3-20.6,26.2"/>
</svg>
