<?xml version="1.0" encoding="utf-8"?>
<!-- Generator: Adobe Illustrator 25.3.1, SVG Export Plug-In . SVG Version: 6.00 Build 0)  -->
<svg version="1.1" id="Layer_1" xmlns="http://www.w3.org/2000/svg" xmlns:xlink="http://www.w3.org/1999/xlink" x="0px" y="0px"
	 viewBox="0 0 576 576" style="enable-background:new 0 0 576 576;" xml:space="preserve">
<style type="text/css">
	.st0{fill-rule:evenodd;clip-rule:evenodd;fill:#CCA445;}
	.st1{fill-rule:evenodd;clip-rule:evenodd;fill:#413419;}
	.st2{fill-rule:evenodd;clip-rule:evenodd;fill:#9A782C;}
	.st3{opacity:0.25;fill-rule:evenodd;clip-rule:evenodd;fill:#1B1222;}
</style>
<g>
	<path class="st0" d="M282.5,104.3c2.4,0,3.1,1,3.1,1c1.6,55.3,2.9,195,5.3,248c0.2,4.3-1.1,10,0,13.6c0.8,2.8,4.4,3,5.1,6.8
		c1,5.6-2.8,9.9-4.2,14.4c2.8,5.3,7.5,16.8,0,20.4c-0.9,9.1,1.3,19.9,0.4,28.9c-0.8,8.4,0.3,32.2,0.8,46.3c0.1,2.7-0.5,6.2,0,8.5
		c1.5,6.1,11.5,11.1,12.7,17c-1.8,3.8-14.5,12.4-22.7,12.1c-7.7-0.3-20.7-9.1-21.5-12.1c2.1-6.1,9.2-10.9,12.7-17
		c-0.3-9.2,0.1-18.8,0.8-27.6c0.1-1.2,0-2.1,0-2.6c-0.1-1.6-0.9-3.1-0.8-4.2c0-1.6,1.2-3.5,1.3-5.1c0.1-3-0.9-6.7-0.9-10.6
		c0.1-3.4,0.4-7.2,0.4-10.6c0.1-6.9,1.9-16.3,0.4-21.7c-0.6-2.4-3.5-2.8-4.3-5.9c-1.3-5.8,2-11.1,4.3-15.3c-2-3.9-5.6-10.7-3.8-16.1
		c0.9-2.7,2.8-2.7,4.2-5.1c1.4-62.9,2.7-198.4,3.3-261.9C279.4,105.3,280.4,104.2,282.5,104.3z"/>
	<path class="st1" d="M271.8,372.4c-1.8,5.4,1.9,12.3,3.8,16.1c-2.3,4.2-5.6,9.5-4.3,15.3c0.7,3.1,3.6,3.6,4.3,5.9
		c1.4,5.4-0.4,14.7-0.4,21.7c0,3.5-0.3,7.2-0.4,10.6c-0.1,3.9,0.9,7.6,0.9,10.6c-0.1,1.6-1.2,3.5-1.3,5.1c0,1.1,0.8,2.7,0.8,4.2
		c0,0.5,0.1,1.3,0,2.6c-0.8,8.8-1.2,18.4-0.8,27.6c-3.5,6.1-10.6,10.9-12.7,17c0.8,2.9,13.8,11.7,21.5,12.1
		c8.2,0.4,21-8.3,22.7-12.1c-1.3-5.9-11.3-10.9-12.7-17c-0.5-2.3,0.1-5.8,0-8.5c-0.6-14.2-1.7-37.9-0.8-46.3
		c0.9-9-1.3-19.7-0.4-28.9c7.5-3.6,2.8-15.1,0-20.4c1.4-4.6,5.2-8.8,4.2-14.4c-0.6-3.5-3.7-4-4.8-6.2c-9.3,4.5-15.1-0.1-15.1-0.1
		C274.6,369.6,272.7,369.7,271.8,372.4z"/>
	<path class="st2" d="M286.2,127.3c-0.2-8.3-0.4-15.7-0.5-22c0,0-0.7-1-3.1-1c-2.1,0-3.2,1.1-3.2,1.1c-0.1,6.6-0.1,14-0.2,22H286.2z
		"/>
	<path class="st3" d="M284.2,388.2c-1.5,5,8,16.2,0,20.4c0,0,1.8,27.7,1.8,36c0,8.3-2.1,10.6-2.1,19.8c0,9.1,1.2,29.8,1.2,33.6
		c0,3.2,14.6,12,7.9,20.8c6-2.8,11.7-7.1,12.8-9.6c-1.3-5.9-11.3-10.9-12.7-17c-0.5-2.3,0.1-5.8,0-8.5c-0.6-14.2-1.7-37.9-0.8-46.3
		c0.9-9-1.3-19.7-0.4-28.9c7.5-3.6,2.8-15.1,0-20.4c1.4-4.6,5.2-8.8,4.2-14.4c-0.7-3.8-4.3-4-5.1-6.8c-1.1-3.6,0.2-9.3,0-13.6
		c-2.3-53-3.7-192.7-5.3-248c0,0-0.7-1-3.1-1l1.1,266.5C283.6,370.8,288.7,373,284.2,388.2z"/>
</g>
</svg>
