<?xml version="1.0" encoding="utf-8"?>
<!-- Generator: Adobe Illustrator 25.3.1, SVG Export Plug-In . SVG Version: 6.00 Build 0)  -->
<svg version="1.1" id="Layer_1" xmlns="http://www.w3.org/2000/svg" xmlns:xlink="http://www.w3.org/1999/xlink" x="0px" y="0px"
	 viewBox="0 0 288 288" style="enable-background:new 0 0 288 288;" xml:space="preserve">
<style type="text/css">
	.st0{fill:#875522;}
	.st1{fill:#4F3518;}
	.st2{fill:#4EBFEE;}
	.st3{fill:#F89837;}
	.st4{fill:#F5813E;}
	.st5{fill:#83C77D;}
</style>
<path class="st0" d="M202.3,191.7c8.1,7.9,14.5,18.6,24.5,24.1c0.3,0.1,0.1,0.6-0.2,0.5c-2.9-1.1-5.6-2.7-8-4.6
	c2.8,3.9,5.2,8,7.7,12.1c2.1,3.4,4.8,8.1,8.4,10.6c-0.8-1.5-1.1-3.1-0.9-4.8c0.1-0.7,0.9-0.8,1.2-0.2c0.6,1.5,1.3,2.9,2.6,4
	c0.9,0.8,1.9,1.3,2.9,1.9c0.7-0.4,1.3-1,1.8-1.8c-0.1-0.1-0.3-0.2-0.4-0.3c-0.9-0.9-1.5-2.1-2.3-3c-0.9-1-1.9-1.9-3-2.8
	c-0.6-0.5,0.2-1.2,0.8-1c1.8,0.8,3.9,1.8,5.6,3.2c-0.8-3.8-3.9-7.3-6.3-10.1c-7.1-8-15.6-14.8-24.1-21.2c-4.3-3.3-8.8-6.5-13.2-9.8
	C200.2,189.7,201.2,190.7,202.3,191.7z"/>
<path class="st0" d="M102.5,106.1c9.3,5.4,17.6,12.8,25.3,20.1c8.9,8.4,17.7,16.6,27.4,24.1c4.5,3.5,9,6.9,13.6,10.4
	c-4.7-4.8-9.5-9.7-14.3-14.4c-11.2-10.9-23.5-20.5-35.7-30.3c-10.3-8.3-21.7-17.7-34.5-21.8C88.5,99.7,96.9,102.9,102.5,106.1z"/>
<path class="st1" d="M78.4,91.7c2.8,7.6,11,11.6,17.6,15.2c7.4,4,14.1,8.9,20.5,14.2c5.5,5.5,10.8,11.3,16.6,16.4
	c14.8,12.7,30.1,24.8,44.3,38.2c6.6,6.3,13,12.8,19.7,19.1c6.7,6.4,13.5,13,18.9,20.5c5.5,7.7,10,21,19.7,24.4
	c8.1,2.9,13-6.3,10.3-13c-3.6-9-12.5-16.1-19.7-22.2c-7.8-6.6-16.1-12.7-24.4-18.8c-12.3-9.1-23-20.3-33.7-31.2
	c-7.3-7.4-14.6-14.8-22.5-21.6c-6.7-5.8-13.9-11.2-20.8-16.8c-13-10.6-27.4-23.2-44.2-26.8C79.5,89,77.9,90.2,78.4,91.7z
	 M236.5,219.7c2.5,2.8,5.5,6.3,6.3,10.1c-1.6-1.4-3.8-2.4-5.6-3.2c-0.6-0.2-1.4,0.5-0.8,1c1.1,0.9,2.1,1.7,3,2.8
	c0.8,1,1.5,2.1,2.3,3c0.1,0.1,0.3,0.2,0.4,0.3c-0.4,0.8-1,1.4-1.8,1.8c-1-0.6-2-1.1-2.9-1.9c-1.2-1.1-2-2.5-2.6-4
	c-0.2-0.7-1.1-0.5-1.2,0.2c-0.2,1.6,0.2,3.3,0.9,4.8c-3.6-2.5-6.3-7.1-8.4-10.6c-2.5-4.1-4.9-8.2-7.7-12.1c2.4,1.9,5,3.4,8,4.6
	c0.3,0.1,0.5-0.3,0.2-0.5c-10.1-5.6-16.4-16.3-24.5-24.1c-1-1-2-2-3-3.1c4.4,3.3,8.8,6.5,13.2,9.8
	C220.9,204.9,229.4,211.6,236.5,219.7z M154.4,146.3c4.8,4.7,9.6,9.6,14.3,14.4c-4.6-3.4-9.1-6.9-13.6-10.4
	c-9.6-7.5-18.5-15.7-27.4-24.1c-7.7-7.3-16-14.8-25.3-20.1c-5.6-3.2-14-6.4-18.3-11.9c12.9,4.2,24.3,13.6,34.5,21.8
	C130.9,125.8,143.2,135.4,154.4,146.3z"/>
<path class="st2" d="M101.8,72.3L101.8,72.3c5.2,1.4,9.3,5.4,10.9,10.6c1.4-5.2,5.4-9.3,10.6-10.9c-5.2-1.4-9.3-5.4-10.9-10.6l0,0
	C111,66.6,107,70.7,101.8,72.3z"/>
<path class="st3" d="M42.3,90.8c5.2,1.4,9.3,5.4,10.9,10.6l0,0c1.4-5.2,5.4-9.3,10.6-10.9C58.5,89,54.4,85,52.8,79.8
	C51.4,85.1,47.4,89.2,42.3,90.8z"/>
<path class="st4" d="M85.9,51.9c-0.9,3.5-3.6,6.2-7,7.2c3.5,0.9,6.2,3.6,7.2,7c0.9-3.5,3.6-6.2,7-7.2C89.7,58,87,55.4,85.9,51.9
	L85.9,51.9L85.9,51.9z"/>
<path class="st5" d="M71.7,136.1c5.2-1.4,10.8,0.1,14.7,3.7c-1.4-5.2,0.1-10.8,3.7-14.7c-5.2,1.4-10.8-0.1-14.7-3.7
	C76.8,126.6,75.4,132.1,71.7,136.1"/>
</svg>
