<?xml version="1.0" encoding="utf-8"?>
<!-- Generator: Adobe Illustrator 25.3.1, SVG Export Plug-In . SVG Version: 6.00 Build 0)  -->
<svg version="1.1" id="Layer_1" xmlns="http://www.w3.org/2000/svg" xmlns:xlink="http://www.w3.org/1999/xlink" x="0px" y="0px"
	 viewBox="0 0 576 576" style="enable-background:new 0 0 576 576;" xml:space="preserve">
<style type="text/css">
	.st0{fill-rule:evenodd;clip-rule:evenodd;fill:#EBE1CC;}
	.st1{fill-rule:evenodd;clip-rule:evenodd;fill:#DFD5BB;}
	.st2{fill-rule:evenodd;clip-rule:evenodd;fill:#DDC724;}
	.st3{fill-rule:evenodd;clip-rule:evenodd;}
	.st4{fill-rule:evenodd;clip-rule:evenodd;fill:#CCB82D;}
	.st5{fill-rule:evenodd;clip-rule:evenodd;fill:#6BBDD4;}
	.st6{fill-rule:evenodd;clip-rule:evenodd;fill:#6DC4E1;}
	.st7{fill-rule:evenodd;clip-rule:evenodd;fill:#6FC9E6;}
	.st8{fill-rule:evenodd;clip-rule:evenodd;fill:#413419;}
</style>
<g>
	<path class="st0" d="M281.1,141.6c0,17.5,0,74,0,83.7c0,66,0,132.1,0,199.8c0,11.1-1.2,25.3,0,32.9c0.4,2.3,2.5,4.4,3.1,6.9
		c3.8,13.7,2.1,34.1-3.1,42.7c0,5.2,0,10.5,0,15.7c-1.7,8.4-10.6,8.8-12.6,0.5c-0.6-4,0.8-11,0-15.7c-0.6-3.1-2.7-4.7-3.4-7.9
		c-2.7-11.8-2.3-35,3.4-41.7c0.1-80.9,0-306.3,0-317.6"/>
	<path class="st1" d="M284.3,464.8c-0.7-2.5-2.8-4.6-3.1-6.9c-1.2-7.6,0-21.8,0-32.9V141.6l-4.4-0.3c0,15.7,0.1,237.1,0,317.1
		c-5.7,6.7-6.2,29.9-3.4,41.7c0.7,3.2,2.9,4.7,3.4,7.9c0.8,4.7-0.6,11.7,0,15.7c0.4,1.8,1.2,3.1,2.1,4.1c1-1.1,1.9-2.6,2.3-4.6
		v-15.7C286.3,498.9,288,478.5,284.3,464.8z"/>
	<path class="st2" d="M314.9,92.9c-8.5-37.4-66.8-46.6-85.5-15.4c12.7-13.3,39.6-12.3,53.2-0.2c7.2,6.5,13.8,21.5,9.3,35.4
		c-8.5,26.1-50.5,29.2-66.1,9.1c6.9,10.9,15.9,19.4,28.9,22.9c21.2,5.8,41.4-2.2,52.3-15.9C315.3,118.2,316.9,101.6,314.9,92.9z"/>
	<path class="st3" d="M259.7,124.3c0,0-14.3-21-20.1-28.8c2.6-3.6,5.2-7.4,7.9-10.9c4.9-0.9,16.4-1.5,23.4,0.3
		c3.3,2.9,5.4,6.9,7.9,10.6C273.5,103.5,259.7,124.3,259.7,124.3z"/>
	<path class="st4" d="M298.4,114.9c5.1-16.8-2-34.9-10-42.6c-14.9-14.5-44-12-58.2,4.1l-0.1,0.4c13-12.5,39.1-11.5,52.4,0.4
		c7.2,6.5,13.8,21.5,9.3,35.4c-8.5,26.1-50.5,29.2-66.1,9.1c0.7,1.2,1.5,2.3,2.3,3.4C247.9,144,289.6,143.9,298.4,114.9z"/>
	<path class="st5" d="M259.7,124.3c0,0-14.3-21-20.1-28.8c2.6-3.6,5.2-7.4,7.9-10.9c4.9-0.9,16.4-1.5,23.4,0.3
		c3.3,2.9,5.4,6.9,7.9,10.6C273.5,103.5,259.7,124.3,259.7,124.3z"/>
	<path class="st6" d="M259.6,124.2L269.9,94l-22.7-2.6l12.1,32.4C259.5,124,259.5,124.1,259.6,124.2z"/>
	<path class="st7" d="M259.7,124.3l-10.4-34.7l-5.5,0.1c-1.4,1.9-2.8,3.9-4.2,5.8C245.4,103.3,259.7,124.3,259.7,124.3
		C259.7,124.3,259.7,124.3,259.7,124.3z"/>
	<path class="st7" d="M247.5,84.6c-2.7,3.5-5.3,7.3-7.9,10.9l11.1-1.6l19.9,0.1l8.3,1.4c-2.5-3.6-4.7-7.7-7.9-10.6
		C264,83,252.4,83.7,247.5,84.6z"/>
	<path class="st6" d="M272.6,89.8c0,0,0-1.4,0-3.2c-0.5-0.6-1-1.2-1.6-1.7c-4.3-1.1-10.2-1.3-15.2-1.1l-5.1,10.1l18.4,0.1
		L272.6,89.8z"/>
	<path class="st5" d="M271,84.9c-2-0.5-4.4-0.9-6.9-1l-0.2,0.2l6.1,10l0.7,0l8.3,1.4C276.4,91.8,274.2,87.8,271,84.9z"/>
	<path class="st8" d="M284.3,464.8c-0.6-2.2-2.3-4.1-3-6.1c-6.9,2.3-12.8-0.2-12.8-0.2c-5.7,6.7-6.2,29.9-3.4,41.7
		c0.7,3.2,2.9,4.7,3.4,7.9c0,0.1,0,0.2,0,0.3c6.1,0.9,12.5-0.8,12.5-0.8C286.3,498.9,288,478.5,284.3,464.8z"/>
</g>
</svg>
