<?xml version="1.0" encoding="utf-8"?>
<!-- Generator: Adobe Illustrator 25.3.1, SVG Export Plug-In . SVG Version: 6.00 Build 0)  -->
<svg version="1.1" id="Layer_1" xmlns="http://www.w3.org/2000/svg" xmlns:xlink="http://www.w3.org/1999/xlink" x="0px" y="0px"
	 viewBox="0 0 576 576" style="enable-background:new 0 0 576 576;" xml:space="preserve">
<style type="text/css">
	.st0{fill-rule:evenodd;clip-rule:evenodd;}
	.st1{fill-rule:evenodd;clip-rule:evenodd;fill:#737373;}
	.st2{fill-rule:evenodd;clip-rule:evenodd;fill:#CCB82D;}
	.st3{fill-rule:evenodd;clip-rule:evenodd;fill:#DDC724;}
</style>
<g>
	<path class="st0" d="M24.2,305.3c0,0-5.8-2.2-5.8-16c0-15.1,6-18.9,6-18.9L543.7,284c0,0,0.8,0.5,0.8,4.9c0,4.2-0.8,4.6-0.8,4.6
		L24.2,305.3z"/>
	<path class="st1" d="M25.2,287.8c-2.1-10.2,2.7-12.2,2.7-12.2s510.2,7.8,510.5,11.2C536.6,290.9,25.2,287.8,25.2,287.8z"/>
	<path class="st2" d="M519.4,294.1l24.1-0.5c0,0,0.7-0.4,0.8-4.6c0-4.5-0.8-4.9-0.8-4.9l-24.1-0.7V294.1z"/>
	<path class="st3" d="M519.4,287.9c11.9-0.3,18.8-0.7,19-1.1c0-0.4-6.9-0.8-19-1.3V287.9z"/>
</g>
</svg>
