<?xml version="1.0" encoding="utf-8"?>
<!-- Generator: Adobe Illustrator 25.3.1, SVG Export Plug-In . SVG Version: 6.00 Build 0)  -->
<svg version="1.1" id="Layer_1" xmlns="http://www.w3.org/2000/svg" xmlns:xlink="http://www.w3.org/1999/xlink" x="0px" y="0px"
	 viewBox="0 0 288 288" style="enable-background:new 0 0 288 288;" xml:space="preserve">
<style type="text/css">
	.st0{fill-rule:evenodd;clip-rule:evenodd;fill:#C2C2C2;}
	.st1{fill:#2E2E2E;}
	.st2{fill-rule:evenodd;clip-rule:evenodd;fill:#FFFFFF;}
</style>
<path class="st0" d="M59.3,33.1c0-0.3,0.1-0.6,0.1-1c-0.4,0.2-0.9,0.4-1.3,0.5C58.5,32.8,58.9,33,59.3,33.1z"/>
<path class="st0" d="M61.4,31.9c-0.2,0.1-0.4,0.3-0.5,0.4C61.5,32.2,61.1,32.6,61.4,31.9z"/>
<path class="st0" d="M71.7,36c-0.2,0.1-0.4,0.3-0.5,0.4c0,0.2,0,0.3-0.1,0.5c0.1,0.1,0.1,0.2,0.2,0.3c0.2,0,0.3,0,0.5,0.1
	c0.1-0.1,0.2-0.1,0.3-0.2"/>
<path class="st0" d="M65.6,46.6c0.3,0,0.6,0.1,1,0.1C66.3,46.7,65.9,46.6,65.6,46.6z"/>
<path class="st0" d="M68.1,61.8c0.2-0.1,0.4-0.3,0.5-0.4C68.5,61.5,68.3,61.6,68.1,61.8z"/>
<path class="st0" d="M72.5,60.2c-0.5,0.1-1,0.2-1.5,0.3C71,61.7,71.6,60.7,72.5,60.2z"/>
<path class="st0" d="M84.2,63.3c0.1-0.4,0.3-0.8,0.4-1.2c-0.2,0.1-0.4,0.3-0.5,0.4C84.1,62.8,84.1,63,84.2,63.3z"/>
<path class="st0" d="M76.7,73.2c0.3,0,0.6,0.1,1,0.1C77.4,73.2,77.1,73.2,76.7,73.2z"/>
<path class="st0" d="M80.7,88c0.8,0,1.6-0.1,2.4-0.1c-0.1-0.3-0.2-0.7-0.3-1c-0.4,0-0.8,0-1.2,0.1"/>
<path class="st0" d="M93.1,84.7c0.2-0.1,0.4-0.3,0.5-0.4C93.5,84.4,93.3,84.5,93.1,84.7z"/>
<path class="st0" d="M104.4,79.9c0,0.2,0.1,0.5,0.1,0.7C104.8,79.9,104.5,80.3,104.4,79.9z"/>
<path class="st0" d="M94.2,90.6c0.3,0,0.6,0.1,1,0.1c-0.3-1,0.3-0.5-0.6-0.8C94.4,90.2,94.3,90.4,94.2,90.6z"/>
<path class="st0" d="M96.3,91.2c0-0.3,0.1-0.6,0.1-1c-0.3,0.2-0.5,0.4-0.8,0.6C95.9,90.9,96.1,91.1,96.3,91.2z"/>
<path class="st0" d="M98.9,105.4c0.2-0.3,0.4-0.6,0.6-0.9c-0.3,0-0.6-0.1-1-0.1C98.7,104.7,98.8,105,98.9,105.4z"/>
<path class="st0" d="M104,119.9c0-0.3,0.1-0.6,0.1-1c-0.2,0.1-0.4,0.3-0.5,0.4"/>
<path class="st0" d="M119,121.8c0.2-0.1,0.4-0.3,0.5-0.4C119.4,121.5,119.2,121.6,119,121.8z"/>
<path class="st0" d="M142.1,151.2c0.5,0.6,1,1.3,1.4,1.9c0.1-0.1,0.2-0.1,0.3-0.2C143.8,151.5,143.6,151.1,142.1,151.2z"/>
<path class="st0" d="M147.8,161c0.1,0.1,0.1,0.2,0.2,0.3c0.2-0.5,0.5-0.9,0.7-1.4c-0.3,0.1-0.7,0.2-1,0.3
	C147.7,160.5,147.7,160.7,147.8,161z"/>
<path class="st0" d="M157.5,155.3c0-0.2,0-0.3,0.1-0.5c-0.3,0-0.6-0.1-1-0.1C156.9,154.9,157.2,155.1,157.5,155.3z"/>
<path class="st0" d="M168.4,157.8c-0.2,0.1-0.4,0.3-0.5,0.4C168,158,168.2,157.9,168.4,157.8"/>
<path class="st0" d="M162.4,164c0.2-0.3,0.4-0.6,0.6-0.9c-0.1-0.1-0.1-0.2-0.2-0.3c-0.3,0.2-0.5,0.4-0.8,0.6
	C162.1,163.6,162.3,163.8,162.4,164z"/>
<path class="st0" d="M163.4,169.2c0.1-0.2,0.2-0.5,0.3-0.7c-0.3,0-0.6-0.1-1-0.1C162.9,168.7,163.2,168.9,163.4,169.2z"/>
<path class="st0" d="M175.3,170.9c0.4,0.1,0.8,0.3,1.2,0.4c0.1-0.1,0.2-0.1,0.3-0.2C175.5,170.5,176.6,170.6,175.3,170.9z"/>
<path class="st0" d="M166.1,182.5c-0.2,0.1-0.4,0.3-0.5,0.4C166.3,182.8,165.9,183.1,166.1,182.5z"/>
<path class="st0" d="M185,175.9c0.3,0,0.6,0.1,1,0.1C185.6,176,185.3,175.9,185,175.9z"/>
<path class="st0" d="M188.2,175.6c-0.6-0.1-1.3-0.2-1.9-0.3c0.1,0.3,0.2,0.7,0.3,1C187.2,176.1,187.7,175.8,188.2,175.6"/>
<path class="st0" d="M168.4,199.1c0.1,0.1,0.1,0.2,0.2,0.3c0.2,0,0.5-0.1,0.7-0.1c0-0.2,0-0.3,0.1-0.5c-0.3,0-0.6-0.1-1-0.1
	C168.5,198.7,168.4,198.9,168.4,199.1z"/>
<path class="st0" d="M165.1,207.1c0.2,0.3,0.4,0.5,0.6,0.8C165.5,207.1,166.1,206.9,165.1,207.1z"/>
<path class="st0" d="M177.6,211.7c0.3-0.4,0.6-0.7,0.9-1.1c-0.2-0.3-0.4-0.5-0.6-0.8c-0.5,0.4-1.1,0.8-1.6,1.2
	C176.7,211.3,177.1,211.5,177.6,211.7z"/>
<path class="st0" d="M168.3,220.9c0.2-0.1,0.4-0.3,0.5-0.4C168.7,220.6,168.5,220.7,168.3,220.9z"/>
<path class="st0" d="M189.7,213.7c0.2-0.1,0.4-0.3,0.5-0.4C190.1,213.4,189.9,213.5,189.7,213.7z"/>
<path class="st0" d="M218.7,196.8c0.2,0.1,0.5,0.2,0.7,0.3C219.2,197.1,219,197,218.7,196.8z"/>
<path class="st0" d="M216.5,212.6c0.1-0.6,0.2-1.3,0.3-1.9c-0.3,0.2-0.5,0.4-0.8,0.6C216.2,211.7,216.4,212.1,216.5,212.6z"/>
<path class="st0" d="M217.1,220.7c0.2-0.1,0.4-0.3,0.5-0.4C217.5,220.4,217.3,220.5,217.1,220.7z"/>
<path class="st0" d="M192.3,247.5c0-0.4,0-0.8-0.1-1.2c-0.2,0.1-0.4,0.3-0.5,0.4C191.8,247,192.1,247.3,192.3,247.5z"/>
<path class="st0" d="M213.7,239.8c0-0.3,0.1-0.6,0.1-1c-0.2,0.1-0.4,0.3-0.5,0.4C213.4,239.5,213.6,239.7,213.7,239.8"/>
<g>
	<path class="st1" d="M126.1,206.8c0.3,0,0.4-0.3,0.4-0.6c0-0.2,0-0.5-0.3-0.5c-0.3,0-0.4,0.3-0.4,0.6
		C125.8,206.5,125.8,206.8,126.1,206.8z"/>
	<path class="st1" d="M144.2,232.6c-0.2-1.6-0.5-3.3-0.7-4.9c-0.2-1.5-0.6-2.9-0.9-4.4c-0.5-3.4-1.2-6.7-1.9-10
		c-0.5-2.2-2.2-3.4-4.1-3.6c0,0,0.1-0.1,0.1-0.1c0.3-0.4,0.6-0.8,1-1.1c0.3-0.3,0.4-0.7,0.2-1.1c-0.2-0.4-0.5-0.4-0.9-0.4
		c-0.1,0-0.3,0-0.4,0c-0.4,0.1-0.8,0.1-1.3,0.1c-0.1,0-0.3,0-0.4,0c-0.9,0-1.2,0.5-0.8,1.3c0.2,0.4,0.5,0.9,0.9,1.2
		c0.1,0.1,0.1,0.1,0.2,0.1c-0.7,0.1-1.5,0.4-2.1,0.8c-0.1,0-0.2,0.1-0.3,0.1c-0.2,0.1-0.4,0.3-0.5,0.5c-0.6,0.6-1.1,1.3-1.4,2.2
		c-0.8,2.9-1.7,5.9-2.5,8.8c-0.6,2.4-1.3,4.8-1.8,7.2c-0.8,3.8-1.5,7.7-1.3,11.6c0,0.8,0.1,1.5,0.1,2.3c0.1,2.8,0.3,5.5,1.4,8.2
		c1.1,2.5,2.9,4.6,5.6,5.4c1.2,0.4,2.4,0.4,3.6,0.3c0.7,0,1.3-0.1,2-0.3c0.7-0.2,1.2-0.7,1.8-1c0.7-0.3,1.3-0.9,1.9-1.4
		c0.5-0.4,0.9-0.9,1.3-1.5c0.3-0.5,0.5-1,0.7-1.6c1.6-4.1,1.7-8.6,1.4-12.9C145,236.6,144.5,234.6,144.2,232.6z"/>
	<path class="st1" d="M129.5,208.9c0.5,0.1,1.1,0.2,1.6,0.3c0.7,0.2,1.3-0.2,1.5-0.9c0.2-0.8-0.1-1.5-0.8-1.7
		c-0.2-0.1-0.5-0.1-0.7-0.1c-0.7-0.1-1.3-0.4-1.9-0.4c-0.7,0-0.9,0.1-1,0.5C127.9,207.5,128.5,208.7,129.5,208.9z"/>
	<path class="st1" d="M140.3,206.7c-0.3,0.1-0.4,0.4-0.4,0.7c-0.1,0.6-0.1,1.3-0.2,1.9c-0.1,0.3,0,0.5,0.3,0.6
		c0.5,0.1,1.2-0.1,1.5-0.5c0.3-0.5,0.5-0.9,1-1.3c0.2-0.2,0.3-0.4,0.3-0.6c0.2-0.7-0.2-1.2-1-1.2
		C141.3,206.3,140.7,206.4,140.3,206.7z"/>
	<path class="st1" d="M127.5,203.2c-0.1,0.2,0,0.4,0.1,0.6c0.6,0.8,1.4,1.2,2.3,1.5c1.4,0.3,2.8,0.4,4.2,0.6c1,0.1,1.9,0,2.9,0.1
		c0.6,0,1.1-0.1,1.6-0.4c0.3-0.2,0.6-0.2,0.9-0.1c0.7,0.3,1.4,0.2,2.2,0.1c1-0.2,1.8-0.7,2.8-0.8c0.3-0.1,0.6-0.2,0.8-0.4
		c0.4-0.3,0.5-0.7,0.4-1.1c-0.1-0.3-0.5-0.5-1-0.4c-1,0.2-1.9,0.4-2.8,0.8c-0.3,0.1-0.7,0.2-1,0.2c-0.8-0.1-1.5,0.2-2.2,0.3
		c-1.9,0.1-3.8,0.3-5.6-0.3c-0.4-0.1-0.9-0.2-1.3,0c-0.4,0.2-0.8,0.1-1.2-0.1c-0.7-0.4-1.5-0.7-2.3-0.6
		C127.8,202.9,127.6,203,127.5,203.2z"/>
	<path class="st1" d="M129.8,199.1c0.3-0.3,0.5-0.6,0.6-1c0.3-0.9,0.3-1.9,0.4-2.9c0-0.4,0-0.9-0.2-1.4c-0.2-0.6-0.7-0.7-1.1-0.2
		c-0.2,0.3-0.4,0.7-0.4,1c-0.2,1.1-0.3,2.3-0.2,3.5c0,0.3,0,0.5,0.2,0.8C129.2,199.3,129.4,199.4,129.8,199.1z"/>
	<path class="st1" d="M127.2,199.6c-0.1,0.6,0.2,1.1,0.8,1.3c0.5,0.1,0.7-0.1,0.7-0.5c0-0.5-0.2-0.9-0.4-1.4
		c-0.3-0.7-0.7-1.4-0.6-2.1c0.2-1.7,0.6-3.4,1.5-4.9c0.3-0.5,0.8-0.7,1.2-0.7c0.5,0.1,0.8,0.5,0.9,1c0.1,0.6,0.2,1.3,0.2,1.9
		c0,1.4-0.2,2.8-0.7,4.1c-0.2,0.5-0.3,1-0.1,1.5c0.1,0.4,0.1,0.7,0.1,1.1c0,0.7,0.2,1,0.9,1c0.7,0.1,1.4,0.2,2.2,0.2
		c1.3,0.1,2.6,0.3,3.9,0.2c0.8,0,1.6-0.1,2.5-0.2c1.6-0.2,3.1-0.6,4.5-1.3c1-0.5,1.2-0.9,0.8-2c-0.1-0.3-0.3-0.6-0.3-0.9
		c0-1.2-0.4-2.4-0.6-3.6c-0.1-0.6-0.2-1.2-0.6-1.6c-0.3-0.3-0.4-0.7-0.5-1.1c-0.2-0.7-0.6-1.2-1.3-1.4c-0.1,0-0.3-0.1-0.4-0.2
		c-0.9-0.6-1.9-1-3.1-0.8c-0.4,0.1-0.9,0-1.3,0.1c-1,0-2-0.1-2.9,0c-0.9,0.1-1.8,0-2.6-0.2c-0.8-0.1-1.6-0.2-2.2,0.6
		c-0.2,0.3-0.3,0.6-0.5,0.9c-0.4,0.7-0.7,1.5-1.1,2.2c-0.2,0.4-0.5,0.9-0.5,1.4c-0.1,0.8-0.2,1.6,0,2.4c0,0.1,0,0.2,0,0.4
		C127.4,198,127.3,198.8,127.2,199.6z M139.8,192.8c0.1-0.5,0.3-0.9,0.6-1.3c0.5-0.7,1.1-0.6,1.5,0.1c0.7,1.1,0.9,2.4,1,3.7
		c0.1,0.8,0.3,1.5,0.2,2.2c0.1,0.9,0,1.6-0.3,2.3c-0.4,0.9-0.9,0.9-1.4,0.2c-0.7-1-1.3-2.1-1.6-3.4
		C139.6,195.4,139.4,194.1,139.8,192.8z M134.1,192.3c0.2-0.4,0.5-0.7,0.9-0.9c0.4-0.2,0.6-0.2,0.9,0.2c1.1,1.3,1.4,2.8,1.4,4.8
		c-0.1,0.8-0.1,2-0.3,3.1c0,0.4-0.2,0.7-0.5,1.1c-0.4,0.6-1.1,0.6-1.6,0c-0.4-0.5-0.6-1.1-0.8-1.6c-0.5-1.4-0.8-2.8-0.7-4.3
		C133.5,193.9,133.6,193.1,134.1,192.3z"/>
	<path class="st1" d="M135.5,199.7c0.3,0,0.5-0.2,0.6-0.5c0.1-0.3,0.1-0.6,0.2-0.9c0.3-1.1,0.3-2.3,0.2-3.5c0-0.3-0.1-0.6-0.3-0.9
		c-0.3-0.3-0.6-0.3-0.9,0c-0.2,0.2-0.2,0.4-0.3,0.7c-0.2,0.7-0.2,1.4-0.2,2c0,0.9,0.1,1.7,0.3,2.5
		C135,199.4,135.1,199.7,135.5,199.7z"/>
	<path class="st1" d="M141,195.6c0,0.8,0.2,1.6,0.4,2.4c0.1,0.2,0.1,0.4,0.4,0.4c0.3,0,0.3-0.3,0.3-0.5c0,0,0-0.1,0-0.1
		c0.2-1.1,0.1-2.1-0.2-3.2c-0.1-0.4-0.2-0.7-0.5-1c-0.1-0.1-0.1-0.2-0.3-0.2c-0.1,0-0.2,0.1-0.2,0.3c-0.1,0.4-0.1,0.9-0.1,1.3
		C141,195.3,141,195.4,141,195.6z"/>
	<path class="st1" d="M145.2,206.5c0.1,0.3,0.2,0.5,0,0.8c-0.2,0.4,0,0.6,0.4,0.5c0.2,0,0.4-0.1,0.7-0.1c0.6,0.1,0.9-0.1,1.1-0.8
		c0.1-0.2,0-0.5,0.1-0.6c0-0.2,0-0.4,0-0.5c-0.1-0.7-0.3-0.8-0.9-0.8c-0.3,0-0.6,0.1-0.9,0.2C145.2,205.4,145,205.9,145.2,206.5z"/>
	<path class="st1" d="M145.1,211.2c-0.5-1.2-1.8-1-2.5-0.3c-0.2-0.1-0.4-0.1-0.6,0.1c-0.3,0.2-0.4,0.5-0.4,0.8
		c0.1,0.6,0.2,1.3,0.5,1.9c0.1,0.1,0.1,0.3,0.2,0.4c0.3,1.6,0.5,3.3,0.7,4.9c0.2,1.4,0.2,3,0.5,4.4c0.6,3.4,1.6,6.9,2.7,10.2
		c0.9,2.8,2.1,5.6,4.3,7.7c1,0.9,2.3,1.4,3.7,1.4c1.3,0.1,2.5-0.3,3.7-0.7c0.5-0.2,1-0.3,1.4-0.5c0.5-0.3,0.8-0.7,1.2-1
		c0.1-0.1,0.2-0.2,0.3-0.3c0.1-0.1,0.1-0.1,0.2-0.2c0.1-0.1,0.2-0.2,0.3-0.4c0.1-0.1,0.2-0.3,0.3-0.4c1-1.4,1.7-2.9,2-4.7
		c0,0,0,0,0,0c0.2-0.9,0.2-1.7,0.2-2.5c0.1-0.1,0.2-0.3,0.2-0.4c0.5-2.5-2.2-2.4-4-2.3c0,0-0.1,0-0.1,0c-0.1-0.1-0.2-0.1-0.3-0.2
		c-1.5-0.7-3-1.3-4.4-2.1c-1.4-0.8-2.4-1.6-3.4-2.9c-1.5-1.9-2.9-3.9-4-6c-0.6-1.1-1.1-2.2-1.5-3.3
		C145.9,213.4,145.6,212.3,145.1,211.2z"/>
	<path class="st1" d="M139.2,186.3c-0.9,0.1-1.7,0.4-2.6,0.4c-1.6,0.1-3.2,0-4.8-0.2c-0.3,0-0.5-0.1-0.8,0c-0.3,0-0.5,0.2-0.5,0.5
		c0,0.3,0.1,0.6,0.4,0.7c0.9,0.2,1.8,0.8,2.7,0.7c1.8,0,3.5-0.3,5.2-0.5c0.8-0.1,1.6-0.4,2.3-1c0.1-0.1,0.3-0.2,0.2-0.4
		c-0.1-0.2-0.3-0.2-0.4-0.2C140.3,186.2,139.8,186.2,139.2,186.3z"/>
	<path class="st1" d="M130.3,137.8c0,0.5-0.1,0.9-0.1,1.4c0.2,2.2,0.3,4.3,0.3,6.5c0,1-0.1,1.9,0,2.9c0.1,0.9,0,1.9-0.1,2.8
		c-0.1,1.5-0.2,3,0,4.5c0,0.3,0.1,0.5,0,0.8c-0.1,1.2,0,2.5,0,3.7c-0.1,2.3,0.1,4.7,0,7c-0.1,1.3,0.2,2.7,0.2,4c0,0.5,0,1,0,1.5
		c0.2,1.4,0.3,2.8,0.2,4.1c0,0.4,0,0.7,0,1.1c0.1,1.8,0,3.5-0.2,5.3c-0.1,0.8,0.1,1.2,0.8,1.3c0.8,0.1,1.7,0.3,2.5,0.4
		c0.9,0.2,1.4-0.2,1.3-1.2c0-0.5,0-1-0.1-1.5c-0.1-0.7,0.1-1.5,0.2-2.2c0.1-1.1,0.2-2.3,0.2-3.4c0-1,0.2-1.9,0.1-2.9
		c-0.1-1.7-0.1-3.4-0.1-5.1c0-1.7,0-3.5-0.1-5.2c-0.1-1.7-0.2-3.4-0.3-5c-0.1-1.6,0.1-3.3,0-4.9c0-2.2-0.1-4.5,0-6.7
		c0.1-2.2,0.2-4.4,0.1-6.5c-0.1-2.4,0.1-4.7-0.2-7.1c-0.2-1.7-0.2-3.3-0.2-5c0-0.4-0.1-0.9-0.1-1.3c0-1.4-0.2-2.8-0.3-4.1
		c-0.1-1.5,0.1-3,0-4.6c0-0.4,0-0.7,0.1-1.1c0.1-0.5,0.1-1,0.1-1.5c-0.1-1.7-0.3-3.4-0.4-5.2c-0.1-2.1,0-4.1,0-6.2
		c0-1.3,0.2-2.6,0.2-3.9c0-2,0-3.9-0.1-5.9c-0.1-2.6,0-5.2,0-7.8c0-1.6-0.2-3.1-0.1-4.6c0-0.6,0.1-1.3,0.1-1.9
		c-0.1-1.8-0.2-3.6-0.3-5.4c-0.1-1.8-0.2-3.7-0.3-5.5c-0.1-1.2-0.3-2.3-0.3-3.5c0-0.5,0.1-1,0-1.6c-0.1-1.4-0.1-2.9-0.1-4.3
		c0-1.6,0-3.1,0-4.7c0-0.9,0.1-1.9-0.1-2.8c-0.1-0.5-0.2-1-0.1-1.5c0.2-1.4,0.1-2.7,0.2-4.1c0.1-2.2,0-4.4,0.3-6.6
		c0.1-1.1,0.2-2.2,0-3.2c-0.1-0.7-0.2-1.3-0.1-2c0.1-0.6,0.1-1.3,0.1-1.9c-0.1-1.3-0.3-2.5-0.5-3.8c-0.2-1.6-0.2-3.2-0.2-4.7
		c0-1.8,0.4-3.5,0.2-5.3c-0.1-1.1-0.1-2.3-0.1-3.4c0-0.9,0.2-1.7,0.2-2.6c0-0.8-0.1-1.6-0.3-2.3c-0.1-0.3-0.2-0.6-0.4-0.8
		c-0.2-0.2-0.3-0.2-0.4,0.1c-0.1,0.3-0.2,0.7-0.2,1.1c-0.2,2.9-0.1,5.8-0.3,8.7c-0.1,1-0.1,2.1-0.2,3.1c-0.1,1.7-0.3,3.4-0.4,5
		c-0.1,3-0.2,6-0.2,9c0,4.8-0.3,9.6-0.3,14.4c0,1.7-0.1,3.3,0,5c0.1,1.5,0.2,3,0.3,4.4c0.1,4.1,0.1,8.2,0,12.3
		c0,1.8-0.1,3.6-0.1,5.5c0,1.3-0.1,2.7,0,4c0,0.9,0.1,1.9,0,2.8c-0.1,2.5-0.3,5.1-0.4,7.6c-0.1,3-0.2,6-0.2,9c0,4.8-0.2,9.7,0,14.5
		c0.1,3.3,0,6.7,0,10c0,2.1,0,4.3,0,6.4C130.1,134.6,130.3,136.2,130.3,137.8z"/>
	<path class="st1" d="M133.8,17c-0.2,1.4,0.4,4.5,0.4,5.9c0,1.2,0.1,2.4,0.2,3.6c0.1,1.3,0.2,2.6,0.2,3.9c-0.1,1.1-0.1,2.1,0.1,3.2
		c0.3,2.2,0.2,4.4,0.3,6.6c0,1.3,0,2.6,0.1,3.9c0,1.5,0.2,3,0.1,4.5c-0.1,1.8,0,3.6,0,5.4c0,3.3-0.1,6.6,0,9.9
		c0,2.2-0.3,4.4-0.2,6.7c0,0.1,0,0.2,0,0.3c-0.1,1.3-0.1,2.6,0.1,3.9c0.2,1.5,0.2,2.9,0.5,4.4c0.2,0.9,0.1,1.8,0.2,2.7
		c0.1,0.6,0.2,1.3,0.1,2c-0.2,1.1-0.1,2.2-0.1,3.2c0.1,1.5,0.2,3,0.3,4.5c0.1,1.5,0.1,3-0.2,4.5c-0.2,1.4,0,2.8,0,4.1c0,0,0,0,0,0
		c0.2,0.8,0.2,1.5,0.1,2.3c0,1.2-0.1,2.5-0.1,3.7c0,0.9,0.1,1.8,0,2.6c-0.1,0.9,0,1.8,0,2.6c0.2,2.9,0.1,5.7-0.1,8.6
		c-0.1,1.5-0.1,3.1,0,4.6c0.1,0.7,0.3,1.4,0.2,2.1c-0.1,0.9-0.1,1.8-0.1,2.7c0,1,0.1,1.9,0.2,2.9c0.1,0.8,0.3,1.5,0.2,2.3
		c-0.2,1-0.1,2.1-0.1,3.2c0,1.2,0,2.3,0,3.5c0,1.8-0.2,3.5-0.2,5.3c0,0.7,0.1,1.4,0.1,2.1c0,0.6-0.2,1.3-0.2,1.9
		c0,1.9,0.2,3.7,0.2,5.6c0,0.9-0.2,1.9,0,2.8c0.3,1.9,0.2,3.8,0.4,5.7c0.1,1.3,0.2,2.5,0,3.8c-0.1,0.8,0.1,1.6,0.1,2.3
		c-0.1,1.6,0.3,3.2,0.4,4.8c0.1,1.5,0.2,2.9,0.3,4.4c0.1,1.2,0.1,2.5,0.2,3.7c0,0.8,0.4,1,1.2,0.8c0.5-0.1,1.1-0.3,1.6-0.5
		c0.4-0.2,0.7-0.5,0.7-1c0.1-0.9-0.1-1.8-0.1-2.7c-0.1-2.5-0.2-5-0.3-7.5c-0.1-2-0.2-4-0.4-6c-0.2-2.4-0.3-4.9-0.3-7.4
		c-0.1-1.9,0.1-3.7,0.1-5.6c0.1-2.6-0.1-5.2-0.2-7.8c-0.1-2.4-0.2-4.8-0.3-7.2c-0.1-2.7-0.3-5.4-0.3-8.1c0-2.4,0.1-4.8,0.1-7.2
		c0.1-3.4-0.1-6.9-0.1-10.3c0-1.5,0-3.1,0-4.6c0-2.2,0.1-4.4,0.1-6.7c0-4.4-0.3-8.8-0.3-13.2c0-1,0.1-2,0-3c-0.2-2.3-0.3-4.6-0.3-7
		c0-0.5,0-1.1,0-1.6c0.1-2.1-0.2-4.1-0.1-6.2c0-2.2,0-4.3,0-6.5c0-1.3-0.1-2.6-0.3-3.8c-0.2-1.5-0.3-3-0.4-4.6
		c-0.1-1.4-0.1-2.9-0.1-4.4c-0.1-2.3-0.1-4.5-0.3-6.8c-0.1-1.3,0-2.7-0.2-4c-0.3-2.2-0.3-4.3-0.5-6.5c-0.1-1,0-2-0.2-3
		c-0.3-2-0.4-4.1-0.6-6.1c-0.2-1.1-0.2-2.5-0.4-3.6c-0.1-1.2-0.8-8.1-0.8-9.3c0-0.6-0.1-1.3-0.4-1.9c-0.1-0.1-0.3-0.5-0.4-0.5
		c-0.2,0-0.3-0.2-0.4-0.2C133.5,9.9,134,15.3,133.8,17z"/>
	<path class="st1" d="M109.7,236.5c1.4,2.3,3.8,4.2,6.4,4.8c0.8,0.2,1.5,0.3,2.3,0.1c0.9-0.2,1.8-0.3,2.6-0.7
		c0.4-0.2,0.8-0.6,1.2-0.9c0.3-0.3,0.6-0.5,0.8-0.9c0.1-0.2,0.2-0.5,0.3-0.8c0.8-2,0.7-4.4,1-6.6c0.3-2.4,0.7-4.8,1.3-7.1
		c1.1-4.3,2.7-8.5,4.2-12.6c0.5-1.4-1.7-2-2.3-0.6c-0.9,2.5-1.7,5-2.7,7.4c-0.5,1.2-0.9,2.2-1.6,3.3c-0.7,1.1-1.5,2.2-2.3,3.3
		c-0.4,0.5-0.7,0.9-1.2,1.4c-1.9,2-4.8,3.1-7.6,3c-0.6,0-1.3-0.1-1.8-0.6c-0.2-0.2-0.3-0.4-0.5-0.4
		C108.1,230.7,108.4,234.2,109.7,236.5z"/>
</g>
<path class="st2" d="M93.8,70.6c0.2-0.1,0.4-0.3,0.5-0.4C94.2,70.4,94,70.5,93.8,70.6z"/>
<path class="st2" d="M90.7,75.6c0.2-0.1,0.4-0.3,0.5-0.4C91,75.3,90.9,75.4,90.7,75.6z"/>
<path class="st2" d="M89.8,76.6c0.2-0.1,0.4-0.3,0.5-0.4C90.2,76.4,90,76.5,89.8,76.6z"/>
<path class="st2" d="M95.1,82c0,0.3-0.1,0.6-0.1,1c-0.3,0.1-0.7,0.2-1,0.3c-0.1-0.1-0.1-0.2-0.2-0.3c0.2-0.5,0.5-0.9,0.7-1.4
	C94.7,81.8,94.9,81.9,95.1,82z"/>
<path class="st2" d="M90.4,87.7c-0.2,0.5-0.3,1.1-0.5,1.6C90,88.2,89.8,88.7,90.4,87.7z"/>
<path class="st2" d="M90.6,88.4c0.2-0.3,0.4-0.6,0.6-0.9C91.7,87.8,91,88.7,90.6,88.4z"/>
<path class="st2" d="M111.9,120c0.2-0.1,0.4-0.3,0.5-0.4C112.2,120.2,112.6,119.9,111.9,120z"/>
<path class="st2" d="M126.4,115.5c0-0.2-0.1-0.5-0.1-0.7C126.3,115,126.3,115.2,126.4,115.5z"/>
<path class="st2" d="M128,121.5c0.2-0.1,0.4-0.3,0.5-0.4C128.3,121.3,128.1,121.4,128,121.5z"/>
<path class="st2" d="M126,128.5c-0.2,0.5-0.4,0.9-0.7,1.4c-0.4-0.3-0.7-0.6-1.1-0.9c0.5-0.4,1.1-0.8,1.6-1.2
	C126.1,128.5,126.1,127.8,126,128.5z"/>
<path class="st2" d="M138.9,135.4c0.2,0.3,0.4,0.5,0.6,0.8c-0.2,0.1-0.4,0.3-0.5,0.4C138.7,135.6,138.7,136.3,138.9,135.4z"/>
<path class="st2" d="M137.3,137.9c-0.3,0-0.6-0.1-1-0.1c0.2-0.1,0.4-0.3,0.5-0.4C137.1,137.5,137.2,137.7,137.3,137.9z"/>
<path class="st2" d="M139.1,143c0.2-0.5,0.5-0.9,0.7-1.4C139.5,142.1,139.3,142.5,139.1,143z"/>
<path class="st2" d="M138.5,151.9c-0.4,0.3-0.7,0.5-1.1,0.8c-0.6-0.2-1.2-0.5-1.8-0.7c0.3-0.4,0.6-0.7,0.9-1.1
	C137.2,151.2,137.9,151.6,138.5,151.9z"/>
<path class="st2" d="M178.9,181.1c0.1,0.2,0.3,0.4,0.4,0.5c-0.3,0.2-0.5,0.4-0.8,0.6c-0.1-0.3-0.2-0.7-0.3-1
	C178.4,181.2,178.7,181.1,178.9,181.1z"/>
<path class="st2" d="M202.7,187.8c-0.3,0-0.6-0.1-1-0.1c0.2-0.1,0.4-0.3,0.5-0.4C202.5,187.4,202.6,187.6,202.7,187.8z"/>
<path class="st2" d="M196.8,194c0.2-0.1,0.4-0.3,0.5-0.4C197.1,193.7,196.9,193.9,196.8,194z"/>
<path class="st2" d="M199,193.6c-0.3,0-0.6-0.1-1-0.1c0.2-0.1,0.4-0.3,0.5-0.4C198.7,193.2,198.9,193.4,199,193.6z"/>
<path class="st2" d="M206.8,200c-0.1,0.2-0.2,0.5-0.3,0.7c-0.2-0.1-0.5-0.2-0.7-0.3c0-0.3,0.1-0.6,0.1-1
	C206.3,199.6,206.6,199.8,206.8,200z"/>
<path class="st2" d="M185.7,240.3c-0.3,0-0.6-0.1-1-0.1c0.2-0.1,0.4-0.3,0.5-0.4C185.4,239.9,185.6,240.1,185.7,240.3z"/>
<path class="st2" d="M196.9,234.8c-0.2,0-0.3,0-0.5-0.1c0-0.3,0.1-0.6,0.1-1C196.7,234.1,196.8,234.5,196.9,234.8z"/>
<path class="st2" d="M236.2,206.8c-0.8-0.3-0.9,0.1-1.1-0.9C235.5,206.2,235.9,206.5,236.2,206.8z"/>
</svg>
