<?xml version="1.0" encoding="utf-8"?>
<!-- Generator: Adobe Illustrator 25.3.1, SVG Export Plug-In . SVG Version: 6.00 Build 0)  -->
<svg version="1.1" id="Layer_1" xmlns="http://www.w3.org/2000/svg" xmlns:xlink="http://www.w3.org/1999/xlink" x="0px" y="0px"
	 viewBox="0 0 576 576" style="enable-background:new 0 0 576 576;" xml:space="preserve">
<style type="text/css">
	.st0{fill-rule:evenodd;clip-rule:evenodd;fill:#333333;}
	.st1{fill-rule:evenodd;clip-rule:evenodd;fill:#CCA445;}
	.st2{fill-rule:evenodd;clip-rule:evenodd;fill:#737373;}
</style>
<g>
	<path class="st0" d="M378.5,278.7c1.5,0.8,2.8,3.3,1.2,5.2c46.5,1.2,95.8,1.5,140.5,3.3c3-0.1,5,2.3,5,3.5s-1.6,3.6-5,4
		c-38.3,1.6-86.4,1.3-127.8,2.8c-6.3,0.2-13.1-1.2-17.9,0.5c-3.3,1.1-5.4,5.6-10,5.2c-3.5-0.3-4.4-2.7-6.8-4.7
		c-9.3,1.7-17.3-2.3-25.1,0c-3.7,1.1-6.1,5.9-10,5.7c-3.3-0.1-5-4.3-8-5.2c-6.7-1.9-12.9,2.3-21.1,0.5c-1.6,1.2-17.1,2.7-21,1.1
		c-3.1-1.3-7.1,0.1-10.1-0.6c-1.9-0.5-4.1,0.4-6.4,0.5c-5.4,0.3-11.8,0.2-17.1,0.5c-3.7,0.2-8.3-0.9-11.5,0
		c-3.1,0.9-5.2,5.6-9.6,5.7c-3.3,0-6-2.6-8.4-5.2c-26.2-0.2-50.7,1.6-76.8,1.4c-4.3-4.2-4.3-19-0.4-23.7c22.7-0.7,49.7,0.9,74.8,0.9
		c8.6,0,17.9,2.4,24.7,0.5c3-0.8,4.9-4.1,7.2-4.7c3.5-1,6.9-1,10,0c3.2,1,4.8,4.8,8,5.7c4,1.2,11,0.3,14.7,0.7
		c6.3,0.7,10.5-0.3,21.1-0.2c3.9-5.6,15.5-6.6,18.7,0.5c7.6,0.2,24.5,0.6,23.9,1.4c4.8-0.3,7.2-5.9,13.5-5.2c2.8,0.3,4,4.3,7.3,5.2
		c2.3,0.7,14.6,0.8,17,0C376,282.9,375,279.8,378.5,278.7z"/>
	<path class="st0" d="M53.8,312.5c1.3,7.6,5.8,10.1,13,3.6s9.4-11.3,23.7-10.1c14.3,1.2,34.4-1.8,40.3,0c5.8,1.8,6.3,5.4,17.9,0.6
		s22.8-4.8,29.1-1.8c6.3,3,18.8,8.9,21.9-1.8c3.1-10.7,5.4-33.3-4-35.1c-9.4-1.8-32.2,11.3-39.8,11.3c-7.6,0-32.2,0-38,0
		s-32.2,4.8-39.8-0.6c-7.6-5.4-14.3-16.7-22.4-11.3C47.6,272.6,51.6,299.4,53.8,312.5z"/>
	<path class="st1" d="M378.5,278.7c-2.8,0.9-2.8,3-4,4.4c-3,6.2-6.5,14-6.5,14s-5.5,1.5-10.3,1.6c2.2,2,3.4,4.5,6.8,4.7
		c4,0.3,7.5-2.7,8.8-5.1c2.6-5.5,4.9-12.4,6.3-14.3C381.4,282,380.1,279.5,378.5,278.7z"/>
	<path class="st1" d="M314.9,298.9c0.4,0.1,0.7,0.3,1,0.6c2.4,1.4,3.8,5.4,6.7,5.6c3.4,0.2,5.9-4.3,8.9-6
		c7.2-5.2,15.1-14.4,15.1-14.4l14.2-0.3c-3.3-0.2-3.3-0.8-4.4-1.7c-2.7-2.1-5.9-4.4-8.6-4.7c-6.4-0.7-9.4,3.6-12.2,6
		c-3.3,2.3-10.4,9.9-11.7,12.3C322.5,298.5,314.8,298.9,314.9,298.9z"/>
	<path class="st1" d="M284.6,305.2c5.5,0.2,8-3.8,9.1-5.6c1.6-3.3,12.1-16.6,12.9-16.8c0.9-0.2,5.1-0.3,5.1-0.3
		c-3.2-7.1-14.8-6-18.7-0.5c-3.2,5.1-9.3,14.4-14.1,17.1c-1.4,0.8-6.6,1.3-6.1,1.5C276.7,302.2,279.2,304.7,284.6,305.2z"/>
	<path class="st1" d="M227.2,301.1c5.7-6.3,17.6-17.4,19-18.8c1.5-1.5,13.3,0,13.3,0l-0.1-0.4c-0.8-0.1-1.6-0.2-2.2-0.4
		c-3.1-0.9-4.8-4.7-8-5.7c-3.1-1-6.5-1-10,0c-2.3,0.7-4.9,2.6-7.2,4.7c-1.7,1.5-17.7,20.4-17.7,20.4l-4.6,0.4c2.4,2.6,5,5.2,8.4,5.2
		C222.2,306.6,224.6,302.7,227.2,301.1z"/>
	<path class="st2" d="M520,289.1c-6.5-1-134.1-3-137.7-0.7s-8.2,5.3,1.6,3.6c9.9-1.6,13.8-2.6,31.2-1.6s37.1,0.3,54.2,0.3
		C486.5,290.8,528.5,290.4,520,289.1z"/>
	<path class="st2" d="M369.4,286.8c-4.8-1.3-20.7-1.6-22.4,0.3c-1.6,2-6.2,4.3,0.3,3C354,288.8,373,287.8,369.4,286.8z"/>
	<path class="st2" d="M330.3,285.5c0,0-1.3,1-3.6,3.3c-2.3,2.3-19.7,0-21.7,0.7s-0.7-4.6,2-4.9C309.6,284.2,326,284.5,330.3,285.5z"
		/>
	<path class="st2" d="M288.6,285.2c-1.3,2-2.3,4.3-4.6,4.6c-2.3,0.3-46.7,2-45.4,1.3c1.3-0.7,4.6-5.3,7.2-5.9
		C248.5,284.5,288.6,285.2,288.6,285.2z"/>
	<path class="st2" d="M223.8,285.8c0,0-4.3,6.9-6.6,6.9c-2.3,0-15.4-2-15.4-2s-5.6-3.6-0.3-5.3C206.7,283.8,219.2,286.1,223.8,285.8
		z"/>
	<path class="st2" d="M199.6,277.9c0,0-4.9-11.3-5.4,5.9c-0.5,17.3-3.7,18.2-3.7,13.8c0-4.4,1.5-20.2-3-20c-4.4,0.2-11.3,0-16.3,2.7
		c-4.9,2.7-15.3,4.9-22.4,4.9s-34.5,0.7-48.8,3.2s-28.4,1.7-35-6.2c-6.7-7.9-9.4-15-4.7-12.6c4.7,2.5,7.9,17.5,35.7,14.5
		c27.9-3,26.1-2.2,31.8-2.2c5.7,0,21.7,2.2,26.9,0.2c5.2-2,6.4-0.7,11.6-3.5c5.2-2.7,16-4.7,22.4-7.2
		C195.1,269.3,199.6,268.1,199.6,277.9z"/>
</g>
</svg>
