<?xml version="1.0" encoding="utf-8"?>
<!-- Generator: Adobe Illustrator 25.3.1, SVG Export Plug-In . SVG Version: 6.00 Build 0)  -->
<svg version="1.1" id="Layer_1" xmlns="http://www.w3.org/2000/svg" xmlns:xlink="http://www.w3.org/1999/xlink" x="0px" y="0px"
	 viewBox="0 0 288 288" style="enable-background:new 0 0 288 288;" xml:space="preserve">
<style type="text/css">
	.st0{fill:none;stroke:#F2A221;stroke-width:4;stroke-linecap:round;stroke-linejoin:round;stroke-miterlimit:10;}
</style>
<line class="st0" x1="139.9" y1="217.6" x2="116.5" y2="222.1"/>
<line class="st0" x1="127.3" y1="245.8" x2="116.4" y2="224.6"/>
<line class="st0" x1="123.2" y1="138.2" x2="147" y2="136.4"/>
<line class="st0" x1="140" y1="112.7" x2="148.3" y2="135"/>
<circle class="st0" cx="211.8" cy="170" r="6.7"/>
<circle class="st0" cx="174.3" cy="122.9" r="6.7"/>
<path class="st0" d="M173.7,114.6c4.8-15.4-2.2-31.4-15.2-37.4c-10.4-4.8-23.4-2.5-32.6,5.8c-1.2,1.3-9.4,10-8,22.6
	c1.1,10.5,8.3,19.6,18.6,23.6c0,0,45.2,16.7,42.4,64.7c0,0-3.6,38.1-52.7,32.5c0,0-54.8-8.6-57.8-95.5c0,0-3.4-83.3,59.5-91.9
	c12.4-1.9,31.1-2.5,48.7,7.1c33,18.1,49.7,65.1,37.4,115.8l0,0"/>
</svg>
