<?xml version="1.0" encoding="utf-8"?>
<!-- Generator: Adobe Illustrator 25.3.1, SVG Export Plug-In . SVG Version: 6.00 Build 0)  -->
<svg version="1.1" id="Layer_1" xmlns="http://www.w3.org/2000/svg" xmlns:xlink="http://www.w3.org/1999/xlink" x="0px" y="0px"
	 viewBox="0 0 576 576" style="enable-background:new 0 0 576 576;" xml:space="preserve">
<style type="text/css">
	.st0{fill-rule:evenodd;clip-rule:evenodd;}
	.st1{fill-rule:evenodd;clip-rule:evenodd;fill:#737373;}
	.st2{fill-rule:evenodd;clip-rule:evenodd;fill:#CCB82D;}
	.st3{fill-rule:evenodd;clip-rule:evenodd;fill:#DDC724;}
</style>
<g>
	<path class="st0" d="M298.9,545.1c0,0-2.2,5.8-16,5.8c-15.1,0-18.9-6-18.9-6l13.6-519.2c0,0,0.5-0.8,4.9-0.8c4.2,0,4.6,0.8,4.6,0.8
		L298.9,545.1z"/>
	<path class="st1" d="M281.4,544.1c-10.2,2.1-12.2-2.7-12.2-2.7S277,31.2,280.4,30.9C284.5,32.7,281.4,544.1,281.4,544.1z"/>
	<path class="st2" d="M287.7,49.9l-0.5-24.1c0,0-0.4-0.7-4.6-0.8c-4.5,0-4.9,0.8-4.9,0.8L277,49.9H287.7z"/>
	<path class="st3" d="M281.5,49.9c-0.3-11.9-0.7-18.8-1.1-19c-0.4,0-0.8,6.9-1.3,19H281.5z"/>
</g>
</svg>
