<?xml version="1.0" encoding="utf-8"?>
<!-- Generator: Adobe Illustrator 25.3.1, SVG Export Plug-In . SVG Version: 6.00 Build 0)  -->
<svg version="1.1" id="Layer_1" xmlns="http://www.w3.org/2000/svg" xmlns:xlink="http://www.w3.org/1999/xlink" x="0px" y="0px"
	 viewBox="0 0 288 288" style="enable-background:new 0 0 288 288;" xml:space="preserve">
<style type="text/css">
	.st0{fill:none;stroke:#F2A221;stroke-width:4;stroke-linecap:round;stroke-linejoin:round;stroke-miterlimit:10;}
</style>
<line class="st0" x1="128.8" y1="159" x2="146.6" y2="164.7"/>
<line class="st0" x1="152.3" y1="147.3" x2="148.1" y2="165.6"/>
<circle class="st0" cx="28.8" cy="171.5" r="5.3"/>
<circle class="st0" cx="264.7" cy="125.3" r="5.3"/>
<circle class="st0" cx="251.3" cy="216.4" r="5.3"/>
<path class="st0" d="M28.8,166.3c17.2-36.6,54.4-53.3,82.5-43.5c25.2,8.8,34.8,35.9,36.3,40.2c0.5,1.3,1.2,3,2.4,5.1
	c8.5,15.4,24.3,21.2,28.1,22.6c24.3,9,45.3-1.8,48.5-3.5c4.9-2.7,10.7-6.6,16.2-12.2c16.1-16.4,19.4-36.3,20.3-44.5l-10.8,80.8"/>
</svg>
