<?xml version="1.0" encoding="utf-8"?>
<!-- Generator: Adobe Illustrator 25.3.1, SVG Export Plug-In . SVG Version: 6.00 Build 0)  -->
<svg version="1.1" id="Layer_1" xmlns="http://www.w3.org/2000/svg" xmlns:xlink="http://www.w3.org/1999/xlink" x="0px" y="0px"
	 viewBox="0 0 576 576" style="enable-background:new 0 0 576 576;" xml:space="preserve">
<style type="text/css">
	.st0{fill-rule:evenodd;clip-rule:evenodd;fill:#BDCE9C;}
	.st1{fill-rule:evenodd;clip-rule:evenodd;fill:#89996A;}
	.st2{fill-rule:evenodd;clip-rule:evenodd;fill:#CCA445;}
	.st3{fill-rule:evenodd;clip-rule:evenodd;fill:#A8882F;}
	.st4{fill-rule:evenodd;clip-rule:evenodd;fill:#D3E3C0;}
</style>
<g>
	<path class="st0" d="M295.4,482.2c-1.3-12,5.1-19.3,5.1-26.6c0-7.3-4.7-14.6-4.7-14.6s0.4-63,0.4-67.7c0-1.6-0.2-2.7-0.6-3.6
		c1.5-1.6,3.4-3.2,3.7-5.4c1.2-6.5-4.1-11.4-4.1-15.6c0-4.7,5.1-9,4.1-15.2c-0.7-4.4-4.1-4-4.9-7.8c-1-4.3-0.2-10.8-0.4-16.4
		c-0.2-5.6,0-11.7,0-16.9c0-75.9-3.7-156.8-4.1-229.9c1.6-1.2,2.6-3,2.6-5.1c0-3.5-2.9-6.4-6.4-6.4c-3.5,0-6.4,2.9-6.4,6.4
		c0,2.4,1.3,4.4,3.2,5.5c-1,88.6-2.9,176.1-4.5,264.1c-2.1,2.5-4.5,3.4-4.9,7c-0.6,5.1,3.4,11,4.5,15.2c-1.7,4.3-5.1,8.7-4.5,14.4
		c0.3,2.8,2.5,4.3,3.8,5.9c-0.4,0.9-0.6,2.1-0.6,3.8c0,4.7,0.4,67.7,0.4,67.7s-4.7,7.3-4.7,14.6c0,7.3,6.4,14.6,5.1,26.6
		c-20.4,27.1,1.8,35.3,10.1,36.4C295.4,517.2,316.5,504.2,295.4,482.2z M287,396.3c2.5,0,4.6,2,4.6,4.6c0,2.5-2,4.6-4.6,4.6
		c-2.5,0-4.6-2-4.6-4.6C282.4,398.3,284.5,396.3,287,396.3z M287,420.8c2.5,0,4.6,2,4.6,4.6c0,2.5-2,4.6-4.6,4.6
		c-2.5,0-4.6-2-4.6-4.6C282.4,422.9,284.5,420.8,287,420.8z M286.7,506.8c-4.1,0-7.4-3.3-7.4-7.4c0-4.1,3.3-7.4,7.4-7.4
		c4.1,0,7.4,3.3,7.4,7.4C294.1,503.5,290.8,506.8,286.7,506.8z M282.4,475.7c0-2.5,2-4.6,4.6-4.6c2.5,0,4.6,2,4.6,4.6
		c0,2.5-2,4.6-4.6,4.6C284.5,480.2,282.4,478.2,282.4,475.7z M286.7,461.7c-4.1,0-7.4-3.3-7.4-7.4c0-4.1,3.3-7.4,7.4-7.4
		c4.1,0,7.4,3.3,7.4,7.4C294.1,458.3,290.8,461.7,286.7,461.7z"/>
	<path class="st1" d="M289.4,57.4c-0.2,6.2-5,5.7-5,5.7s2.7,0.6,2.8,2.2c0.1,1.6,1.3,263.9,1.3,263.9s6.3,3.4,0,17.7
		c-6.3,14.3,13.7,13.1-0.6,26.8c-8.2,7.9-0.2,13.5,8.3,14c0-7.5,0.1-13.1,0.1-14.4c0-1.6-0.2-2.7-0.6-3.6c1.5-1.6,3.4-3.2,3.7-5.4
		c1.2-6.5-4.1-11.4-4.1-15.6c0-4.7,5.1-9,4.1-15.2c-0.7-4.4-4.1-4-4.9-7.8c-1-4.3-0.2-10.8-0.4-16.4c-0.2-5.6,0-11.7,0-16.9
		c0-75.9-3.7-156.8-4.1-229.9c1.6-1.2,2.6-3,2.6-5.1c0-3.5-2.9-6.4-6.4-6.4C286.2,51.1,289.6,51.4,289.4,57.4z"/>
	<path class="st2" d="M295.4,482.2c-1.3-12,5.1-19.3,5.1-26.6c0-7.3-4.7-14.6-4.7-14.6s0.4-63,0.4-67.7c0-1.6-0.2-2.7-0.6-3.6
		c0,0,0,0,0,0c-10.6,3.9-18.4-0.2-18.4-0.2c-0.4,0.9-0.6,2.1-0.6,3.8c0,4.7,0.4,67.7,0.4,67.7s-4.7,7.3-4.7,14.6
		c0,7.3,6.4,14.6,5.1,26.6c-20.4,27.1,1.8,35.3,10.1,36.4C295.4,517.2,316.5,504.2,295.4,482.2z M287,396.3c2.5,0,4.6,2,4.6,4.6
		c0,2.5-2,4.6-4.6,4.6c-2.5,0-4.6-2-4.6-4.6C282.4,398.3,284.5,396.3,287,396.3z M287,420.8c2.5,0,4.6,2,4.6,4.6
		c0,2.5-2,4.6-4.6,4.6c-2.5,0-4.6-2-4.6-4.6C282.4,422.9,284.5,420.8,287,420.8z M286.7,446.8c4.1,0,7.4,3.3,7.4,7.4
		c0,4.1-3.3,7.4-7.4,7.4c-4.1,0-7.4-3.3-7.4-7.4C279.3,450.1,282.6,446.8,286.7,446.8z M291.6,475.7c0,2.5-2,4.6-4.6,4.6
		c-2.5,0-4.6-2-4.6-4.6c0-2.5,2-4.6,4.6-4.6C289.5,471.1,291.6,473.1,291.6,475.7z M279.3,499.4c0-4.1,3.3-7.4,7.4-7.4
		c4.1,0,7.4,3.3,7.4,7.4c0,4.1-3.3,7.4-7.4,7.4C282.6,506.8,279.3,503.5,279.3,499.4z"/>
	<path class="st3" d="M295.4,482.2c-1.3-12,5.1-19.3,5.1-26.6c0-7.3-4.7-14.6-4.7-14.6s0.4-63,0.4-67.7c0-1.6-0.2-2.7-0.6-3.6
		c0,0,0,0,0,0c-10.6,3.9-18.4-0.2-18.4-0.2c-0.2,0.6-0.4,1.3-0.5,2.2c2.1,1.4,5.1,2.4,9.7,2.1c4.6-0.3,6.9-0.5,8-0.7
		c0-0.3,0-0.4,0-0.4s2,0.1,0,0.4c0.1,2.9,0.6,19.9,0.6,20.7c0,0.9,0.3,42.3-1.7,46.3c0,0,5.4,8.3,4.9,16.3c-0.6,8-6.3,17.1-4.3,26
		c0,0,22.3,21.7-6.3,36.3C295.4,517.2,316.5,504.2,295.4,482.2z"/>
	<path class="st4" d="M285.1,54.9c0,0.9-0.7,1.7-1.7,1.7c-0.9,0-1.7-0.7-1.7-1.7c0-0.9,0.7-1.7,1.7-1.7
		C284.4,53.2,285.1,53.9,285.1,54.9z"/>
	<path class="st3" d="M287,396.3c0.3,0,0.5,0,0.8,0.1c-0.5-0.2-0.9-0.3-1.4-0.3c-2.5,0-4.6,2.1-4.6,4.7c0,2.6,2.1,4.7,4.6,4.7
		c0.4,0,0.7-0.1,1-0.1c-0.1,0-0.2,0-0.3,0c-2.5,0-4.6-2-4.6-4.6C282.4,398.3,284.5,396.3,287,396.3z"/>
	<path class="st3" d="M286.3,430.2c0.5,0,1-0.1,1.5-0.3c-0.3,0-0.5,0.1-0.8,0.1c-2.5,0-4.6-2-4.6-4.6c0-2.5,2-4.6,4.6-4.6
		c0.1,0,0.2,0,0.3,0c-0.3-0.1-0.6-0.1-1-0.1c-2.5,0-4.6,2.1-4.6,4.7C281.7,428.1,283.8,430.2,286.3,430.2z"/>
	<path class="st3" d="M286.3,480.3c0.2,0,0.4,0,0.6-0.1c-2.5,0-4.5-2.1-4.5-4.6c0-2.5,2-4.6,4.6-4.6c0.3,0,0.6,0,0.9,0.1
		c-0.5-0.2-1-0.3-1.6-0.3c-2.5,0-4.6,2.1-4.6,4.7C281.7,478.2,283.8,480.3,286.3,480.3z"/>
	<path class="st3" d="M278.2,454.2c0,4.3,3.4,7.8,7.6,7.8c1.1,0,2.2-0.3,3.2-0.7c-0.7,0.2-1.5,0.4-2.3,0.4c-4.1,0-7.4-3.3-7.4-7.4
		c0-4.1,3.3-7.4,7.4-7.4c0.8,0,1.6,0.2,2.3,0.4c-1-0.5-2.1-0.8-3.2-0.8C281.6,446.5,278.2,449.9,278.2,454.2z"/>
</g>
</svg>
