<?xml version="1.0" encoding="utf-8"?>
<!-- Generator: Adobe Illustrator 25.3.1, SVG Export Plug-In . SVG Version: 6.00 Build 0)  -->
<svg version="1.1" id="Layer_1" xmlns="http://www.w3.org/2000/svg" xmlns:xlink="http://www.w3.org/1999/xlink" x="0px" y="0px"
	 viewBox="0 0 576 576" style="enable-background:new 0 0 576 576;" xml:space="preserve">
<style type="text/css">
	.st0{fill-rule:evenodd;clip-rule:evenodd;fill:#CCA445;}
	.st1{fill-rule:evenodd;clip-rule:evenodd;fill:#413419;}
	.st2{opacity:0.25;fill-rule:evenodd;clip-rule:evenodd;fill:#1B1222;enable-background:new    ;}
	.st3{fill-rule:evenodd;clip-rule:evenodd;}
	.st4{fill-rule:evenodd;clip-rule:evenodd;fill:#CE6875;}
	.st5{fill-rule:evenodd;clip-rule:evenodd;fill:#D86E7B;}
	.st6{fill-rule:evenodd;clip-rule:evenodd;fill:#E47480;}
</style>
<g>
	<path class="st0" d="M448.5,297c5.7,5.4,9.9,12.1,14.9,18.1c5.1,0,10.3,0,15.4,0c4.2-4.5,8.4-9.1,12.7-13.6
		c-4.1,1.6-8.4,7-13.1,9.5c-4.7,0-9.4,0-14,0c-4.6-4-8.2-9-11.8-14v-6.9c3.5-5,7.2-10,11.8-14c4.7,0,9.4,0,14,0
		c4.7,2.5,9,7.9,13.1,9.5c-4.2-4.5-8.5-9-12.7-13.6c-5.1,0-10.3,0-15.4,0c-5,6-9.3,12.7-14.9,18.1c-66-2.7-139.1-0.6-205.9-3.6
		c-8.8-0.4-18.8,1-26.7-0.5c-2.8-0.5-5.6-2.3-8.6-3.2c-10.5-3-27.8-3.4-37.6,0.5c-4.9-2.8-15.9-4.7-18.6,1.4c-3.6-7.7-16-2.5-21.3,0
		c-8.5-3.5-19.1-5.2-31.2-4.1c-4.5,0.4-8.7,2.8-12.7,2.7c-5.4-0.1-10.4-4.5-16.7-2.7c-1.7,1.2-3.2,2.5-4.5,4.1
		c1.3,7.4-2.3,15.6,1.4,19.9c4.6,5.4,14.3,0.4,20.4-0.9c8.5,2.8,19.6,4.2,30.8,2.7c4.6-0.6,9.3-3.8,13.1-3.6c3.2,0.1,6.3,3,9.5,3.6
		c6,1.3,9.5-0.3,11.8-4.1c2.2,7.1,13.8,4,18.6,1.4c7.7,3.2,19.9,4,29.9,2.7c5.9-0.8,10.6-4,15.8-5c13.7-2.5,30.9-0.2,46.6-0.9
		L448.5,297z"/>
	<path class="st1" d="M86.5,303.7c8.5,2.8,19.6,4.2,30.8,2.7c4.6-0.6,9.3-3.8,13.1-3.6c3.2,0.1,6.3,3,9.5,3.6
		c6,1.3,9.5-0.3,11.8-4.1c2.2,7.1,13.8,4,18.6,1.4c7.7,3.2,19.9,4,29.9,2.7c5.9-0.8,10.6-4,15.8-5c1.1-0.2,2.3-0.4,3.4-0.5
		c0-0.1,0-0.2,0-0.2c-2.8-7.5-0.5-14.1-0.5-14.1l-0.2-0.1c-0.9-0.1-1.9-0.2-2.8-0.4c-2.8-0.5-5.6-2.3-8.6-3.2
		c-10.5-3-27.8-3.4-37.6,0.5c-4.9-2.8-15.9-4.7-18.6,1.4c-3.6-7.7-16-2.5-21.3,0c-8.5-3.5-19.1-5.2-31.2-4.1
		c-4.5,0.4-8.7,2.8-12.7,2.7c-5.4-0.1-10.6-5-16.7-2.7c-2,0.7-3.4,1.2-4.5,4.1c-0.6,1.6-2.3,15.6,1.4,19.9
		C70.7,309.9,80.4,305,86.5,303.7z"/>
	<path class="st2" d="M491.5,301.5l-13,10.9l-8-1.4h-6.1c-0.4-0.3-0.7-0.7-1.1-1.1c-4-3.8-7.4-8.3-10.7-13v-3.6l-234.9,0.1
		c0,0-6,0.2-7.6,1.6c-1.7,1.4-24.8,11.1-40.8,0c0,0-11.6,7.1-17.9-0.5c0,0-3.3,6.1-21,1.2c0,0-25,4.4-39.4-0.2
		c-6.9-2.2-16,9.3-26.7,4c0.1,2,0.5,3.8,1.7,5.1c4.6,5.4,14.3,0.4,20.4-0.9c8.5,2.8,19.6,4.2,30.8,2.7c4.6-0.6,9.3-3.8,13.1-3.6
		c3.2,0.1,6.3,3,9.5,3.6c6,1.3,9.5-0.3,11.8-4.1c2.2,7.1,13.8,4,18.6,1.4c7.7,3.2,19.9,4,29.9,2.7c5.9-0.8,10.6-4,15.8-5
		c13.7-2.5,30.9-0.2,46.6-0.9l186-3.5c5,4.7,8.9,10.6,13.2,16l0,0c0.6,0.7,1.1,1.4,1.7,2.1h15.5C483.1,310.5,487.3,306,491.5,301.5z
		 M464.4,276h14c4.7,2.5,9,7.9,13.1,9.5l-13-11.8l-14.6,0.1l-11.7,15.1l-0.5,2.1v1.2l0.9,0.1V290C456.2,285,459.8,280.1,464.4,276z"
		/>
	<g>
		<path class="st3" d="M453.2,293.9c0,0,16.3-11.1,22.4-15.6c2.8,2.1,5.7,4,8.5,6.2c0.7,3.8,1.2,12.8-0.3,18.2
			c-2.3,2.5-5.4,4.2-8.2,6.2C469.5,304.7,453.2,293.9,453.2,293.9z"/>
		<path class="st4" d="M453.2,293.9c0,0,16.3-11.1,22.4-15.6c2.8,2.1,5.7,4,8.5,6.2c0.7,3.8,1.2,12.8-0.3,18.2
			c-2.3,2.5-5.4,4.2-8.2,6.2C469.5,304.7,453.2,293.9,453.2,293.9z"/>
		<path class="st5" d="M453.3,293.9l23.4,8.1l2-17.6l-25.2,9.5C453.5,293.8,453.4,293.8,453.3,293.9z"/>
		<path class="st6" d="M453.2,294l27-8.1l-0.1-4.3c-1.5-1.1-3-2.2-4.5-3.2C469.5,282.8,453.2,293.9,453.2,294
			C453.2,293.9,453.2,293.9,453.2,294z"/>
		<path class="st6" d="M484.2,284.5c-2.7-2.1-5.7-4.1-8.5-6.2l1.2,8.6l-0.1,15.5l-1.1,6.5c2.8-2,6-3.6,8.2-6.2
			C485.4,297.3,484.8,288.3,484.2,284.5z"/>
		<path class="st5" d="M480.1,304c0,0,1.1,0,2.5,0c0.5-0.4,0.9-0.8,1.3-1.3c0.9-3.3,1-7.9,0.9-11.9l-7.9-3.9l-0.1,14.3L480.1,304z"
			/>
		<path class="st4" d="M483.9,302.7c0.4-1.6,0.7-3.4,0.8-5.4l-0.2-0.2l-7.8,4.7v0.5l-1.1,6.5C478.5,306.9,481.6,305.3,483.9,302.7z"
			/>
	</g>
	<polygon class="st0" points="474.4,295.7 491.6,293.4 474.4,291 474.4,291 462.5,291 462.5,291 445.4,292.6 445.3,294.4 
		462.5,295.7 462.5,295.7 	"/>
	<polygon class="st2" points="455.7,293.7 445.3,293.3 445.3,294.4 462.5,295.7 462.5,295.7 474.4,295.7 474.4,295.7 491.6,293.4 
		474.5,294 	"/>
</g>
</svg>
