<?xml version="1.0" encoding="utf-8"?>
<!-- Generator: Adobe Illustrator 25.3.1, SVG Export Plug-In . SVG Version: 6.00 Build 0)  -->
<svg version="1.1" id="Layer_1" xmlns="http://www.w3.org/2000/svg" xmlns:xlink="http://www.w3.org/1999/xlink" x="0px" y="0px"
	 viewBox="0 0 576 576" style="enable-background:new 0 0 576 576;" xml:space="preserve">
<style type="text/css">
	.st0{fill-rule:evenodd;clip-rule:evenodd;fill:#EBE1CC;}
	.st1{fill-rule:evenodd;clip-rule:evenodd;fill:#DFD5BB;}
	.st2{fill-rule:evenodd;clip-rule:evenodd;fill:#DDC724;}
	.st3{fill-rule:evenodd;clip-rule:evenodd;}
	.st4{fill-rule:evenodd;clip-rule:evenodd;fill:#CCB82D;}
	.st5{fill-rule:evenodd;clip-rule:evenodd;fill:#6BBDD4;}
	.st6{fill-rule:evenodd;clip-rule:evenodd;fill:#6DC4E1;}
	.st7{fill-rule:evenodd;clip-rule:evenodd;fill:#6FC9E6;}
	.st8{fill-rule:evenodd;clip-rule:evenodd;fill:#413419;}
</style>
<g>
	<path class="st0" d="M423.3,304.6c-17.5,0-74,0-83.7,0c-66,0-132.1,0-199.8,0c-11.1,0-25.3-1.2-32.9,0c-2.3,0.4-4.4,2.5-6.9,3.1
		c-13.7,3.8-34.1,2.1-42.7-3.1c-5.2,0-10.5,0-15.7,0c-8.4-1.7-8.8-10.6-0.5-12.6c4-0.6,11,0.8,15.7,0c3.1-0.6,4.7-2.7,7.9-3.4
		c11.8-2.7,35-2.3,41.7,3.4c80.9,0.1,306.3,0,317.6,0"/>
	<path class="st1" d="M100.1,307.8c2.5-0.7,4.6-2.8,6.9-3.1c7.6-1.2,21.8,0,32.9,0h283.4l0.3-4.4c-15.7,0-237.1,0.1-317.1,0
		c-6.7-5.7-29.9-6.2-41.7-3.4c-3.2,0.7-4.7,2.9-7.9,3.4c-4.7,0.8-11.7-0.6-15.7,0c-1.8,0.4-3.1,1.2-4.1,2.1c1.1,1,2.6,1.9,4.6,2.3
		h15.7C66,309.8,86.4,311.5,100.1,307.8z"/>
	<path class="st2" d="M472,338.4c37.4-8.5,46.6-66.8,15.4-85.5c13.3,12.7,12.3,39.6,0.2,53.2c-6.5,7.2-21.5,13.8-35.4,9.3
		c-26.1-8.5-29.2-50.5-9.1-66.1c-10.9,6.9-19.4,15.9-22.9,28.9c-5.8,21.2,2.2,41.4,15.9,52.3C446.7,338.8,463.3,340.4,472,338.4z"/>
	<path class="st3" d="M440.6,283.2c0,0,21-14.3,28.8-20.1c3.6,2.6,7.4,5.2,10.9,7.9c0.9,4.9,1.5,16.4-0.3,23.4
		c-2.9,3.3-6.9,5.4-10.6,7.9C461.4,297,440.6,283.2,440.6,283.2z"/>
	<path class="st4" d="M450,321.9c16.8,5.1,34.9-2,42.6-10c14.5-14.9,12-44-4.1-58.2l-0.4-0.1c12.5,13,11.5,39.1-0.4,52.4
		c-6.5,7.2-21.5,13.8-35.4,9.3c-26.1-8.5-29.2-50.5-9.1-66.1c-1.2,0.7-2.3,1.5-3.4,2.3C420.9,271.4,421,313.1,450,321.9z"/>
	<path class="st5" d="M440.6,283.2c0,0,21-14.3,28.8-20.1c3.6,2.6,7.4,5.2,10.9,7.9c0.9,4.9,1.5,16.4-0.3,23.4
		c-2.9,3.3-6.9,5.4-10.6,7.9C461.4,297,440.6,283.2,440.6,283.2z"/>
	<path class="st6" d="M440.7,283.1l30.2,10.3l2.6-22.7l-32.4,12.1C440.9,283,440.8,283,440.7,283.1z"/>
	<path class="st7" d="M440.6,283.2l34.7-10.4l-0.1-5.5c-1.9-1.4-3.9-2.8-5.8-4.2C461.6,268.9,440.6,283.2,440.6,283.2L440.6,283.2z"
		/>
	<path class="st7" d="M480.3,271c-3.5-2.7-7.3-5.3-10.9-7.9l1.6,11.1l-0.1,19.9l-1.4,8.3c3.6-2.5,7.7-4.7,10.6-7.9
		C481.9,287.5,481.2,275.9,480.3,271z"/>
	<path class="st6" d="M475.1,296.1c0,0,1.4,0,3.2,0c0.6-0.5,1.2-1,1.7-1.6c1.1-4.3,1.3-10.2,1.1-15.2l-10.1-5.1l-0.1,18.4
		L475.1,296.1z"/>
	<path class="st5" d="M480,294.5c0.5-2,0.9-4.4,1-6.9l-0.2-0.2l-10,6.1v0.7l-1.4,8.3C473.1,299.9,477.1,297.7,480,294.5z"/>
	<path class="st8" d="M100.1,307.8c2.2-0.6,4.1-2.3,6.1-3c-2.3-6.9,0.2-12.8,0.2-12.8c-6.7-5.7-29.9-6.2-41.7-3.4
		c-3.2,0.7-4.7,2.9-7.9,3.4c-0.1,0-0.2,0-0.3,0c-0.9,6.1,0.8,12.5,0.8,12.5C66,309.8,86.4,311.5,100.1,307.8z"/>
</g>
</svg>
